<?xml version="1.0" encoding="UTF-8"?>
<svg width="155px" height="139px" viewBox="0 0 155 139" version="1.1" xmlns="http://www.w3.org/2000/svg" xmlns:xlink="http://www.w3.org/1999/xlink">
    <!-- Generator: Sketch 55.2 (78181) - https://sketchapp.com -->
    <title>Group 57</title>
    <desc>Created with Sketch.</desc>
    <defs>
        <polygon id="path-1" points="0.117404099 0.0904117249 147.873542 0.0904117249 147.873542 47.8072155 0.117404099 47.8072155"></polygon>
        <polygon id="path-3" points="0.000432270916 0.119310217 154.939482 0.119310217 154.939482 6.03253908 0.000432270916 6.03253908"></polygon>
        <polygon id="path-5" points="0 0.258333333 30.7416667 0.258333333 30.7416667 30.9998278 0 30.9998278"></polygon>
    </defs>
    <g id="Page-1" stroke="none" stroke-width="1" fill="none" fill-rule="evenodd">
        <g id="Group-57">
            <g id="Group-39">
                <path d="M80.6039398,10.9198126 C78.9946644,9.76172416 77.2400469,9.76602475 75.3870918,10.9308712 L7.04545455,51.2765822 L148.961039,51.2765822 L80.6156909,10.9284137 L80.6039398,10.9198126 Z" id="Fill-1" fill="#FFFFFF"></path>
                <g id="Group-5" transform="translate(4.025974, 0.000000)">
                    <mask id="mask-2" fill="white">
                        <use xlink:href="#path-1"></use>
                    </mask>
                    <g id="Clip-4"></g>
                    <path d="M1.75465424,47.8072155 L71.0512394,7.16042535 C73.1009361,5.87999984 75.1432041,5.88488696 76.9514686,7.17081048 L146.236292,47.8072155 L146.719775,47.8072155 C148.258131,46.2977062 148.258131,43.6238405 146.719775,42.0306393 L76.780609,1.01059538 C75.0070116,-0.257001437 73.1058886,-0.175142172 71.210337,1.0093736 L1.27117098,42.0318611 C-0.267184861,43.6244514 -0.267184861,46.2977062 1.27117098,47.8072155 L1.75465424,47.8072155 Z" id="Fill-3" fill="#FFFFFF" mask="url(#mask-2)"></path>
                </g>
                <path d="M143.928571,54.2297136 C143.928571,53.5308636 143.70554,53.2874285 143.103786,53.2874285 L11.1016319,53.2874285 C10.4992604,53.2874285 10.0649351,53.5308636 10.0649351,54.2297136 L10.0649351,57.8873934 C10.0649351,58.5862434 10.4992604,59.3199676 11.1016319,59.3199676 L143.103786,59.3199676 C143.70554,59.3199676 143.928571,58.5862434 143.928571,57.8873934 L143.928571,54.2297136 Z" id="Fill-6" fill="#FFFFFF"></path>
                <path d="M143.928571,117.689835 C143.928571,117.083185 143.70554,116.629089 143.103786,116.629089 L11.1016319,116.629089 C10.4992604,116.629089 10.0649351,117.083185 10.0649351,117.689835 L10.0649351,120.865542 C10.0649351,121.472192 10.4992604,121.656205 11.1016319,121.656205 L143.103786,121.656205 C143.70554,121.656205 143.928571,121.472192 143.928571,120.865542 L143.928571,117.689835 Z" id="Fill-8" fill="#FFFFFF"></path>
                <path d="M149.967532,124.874216 C149.967532,124.202254 149.537392,123.667051 148.890635,123.667051 L7.10843153,123.667051 C6.46229311,123.667051 6.03896104,124.202254 6.03896104,124.874216 L6.03896104,128.391828 C6.03896104,129.063133 6.46229311,129.69959 7.10843153,129.69959 L148.890635,129.69959 C149.537392,129.69959 149.967532,129.063133 149.967532,128.391828 L149.967532,124.874216 Z" id="Fill-10" fill="#FFFFFF"></path>
                <g id="Group-14" transform="translate(0.000000, 132.715860)">
                    <mask id="mask-4" fill="white">
                        <use xlink:href="#path-3"></use>
                    </mask>
                    <g id="Clip-13"></g>
                    <path d="M154.939914,1.38212173 C154.939914,0.696423122 154.373022,0.119310217 153.677683,0.119310217 L1.25525299,0.119310217 C0.560531873,0.119310217 0.000432270916,0.696423122 0.000432270916,1.38212173 L0.000432270916,4.96746079 C0.000432270916,5.65248912 0.560531873,6.03253908 1.25525299,6.03253908 L153.677683,6.03253908 C154.373022,6.03253908 154.939914,5.65248912 154.939914,4.96746079 L154.939914,1.38212173 Z" id="Fill-12" fill="#FFFFFF" mask="url(#mask-4)"></path>
                </g>
                <path d="M41.2662338,66.0968689 C41.2662338,66.7813971 40.7956592,67.363353 40.1603525,67.363353 L25.3785921,67.363353 C24.7432853,67.363353 24.1558442,66.7813971 24.1558442,66.0968689 L24.1558442,64.3488643 C24.1558442,63.664336 24.7432853,63.3416603 25.3785921,63.3416603 L40.1603525,63.3416603 C40.7956592,63.3416603 41.2662338,63.664336 41.2662338,64.3488643 L41.2662338,66.0968689 Z" id="Fill-15" fill="#FFFFFF"></path>
                <path d="M44.2857143,112.573885 C44.2857143,113.230306 43.7729219,113.612819 43.1401275,113.612819 L23.288444,113.612819 C22.6556495,113.612819 22.1428571,113.230306 22.1428571,112.573885 L24.688262,108.627165 C25.3012623,107.729625 25.5827104,107.586182 26.2148863,107.586182 L40.2136851,107.586182 C40.845861,107.586182 41.1359691,107.437958 41.740928,108.627165 L44.2857143,112.573885 Z" id="Fill-17" fill="#FFFFFF"></path>
                <path d="M39.2532468,104.393323 C39.2532468,104.990703 38.9344939,105.569434 38.3227037,105.569434 L27.2118048,105.569434 C26.6006127,105.569434 26.1688312,104.990703 26.1688312,104.393323 L26.1688312,70.2562822 C26.1688312,69.6589027 26.6006127,69.3741994 27.2118048,69.3741994 L38.3227037,69.3741994 C38.9344939,69.3741994 39.2532468,69.6589027 39.2532468,70.2562822 L39.2532468,104.393323 Z" id="Fill-19" fill="#FFFFFF"></path>
                <path d="M70.4545455,66.0968689 C70.4545455,66.7813971 69.9363159,67.363353 69.2921497,67.363353 L54.3189059,67.363353 C53.6753694,67.363353 53.3441558,66.7813971 53.3441558,66.0968689 L53.3441558,64.3488643 C53.3441558,63.664336 53.6753694,63.3416603 54.3189059,63.3416603 L69.2921497,63.3416603 C69.9363159,63.3416603 70.4545455,63.664336 70.4545455,64.3488643 L70.4545455,66.0968689 Z" id="Fill-21" fill="#FFFFFF"></path>
                <path d="M73.474026,112.573885 C73.474026,113.230306 72.9612336,113.612819 72.3284392,113.612819 L52.4767557,113.612819 C51.8439612,113.612819 51.3311688,113.230306 51.3311688,112.573885 L53.8759551,108.627165 C54.489574,107.729625 54.7716407,107.586182 55.4038166,107.586182 L69.4019968,107.586182 C70.0341727,107.586182 70.3242808,107.437958 70.9292397,108.627165 L73.474026,112.573885 Z" id="Fill-23" fill="#FFFFFF"></path>
                <path d="M69.4480519,104.393323 C69.4480519,104.990703 68.8965194,105.569434 68.3038536,105.569434 L57.5396985,105.569434 C56.9481914,105.569434 56.3636364,104.990703 56.3636364,104.393323 L56.3636364,70.2562822 C56.3636364,69.6589027 56.9481914,69.3741994 57.5396985,69.3741994 L68.3038536,69.3741994 C68.8965194,69.3741994 69.4480519,69.6589027 69.4480519,70.2562822 L69.4480519,104.393323 Z" id="Fill-25" fill="#FFFFFF"></path>
                <path d="M101.655844,66.0968689 C101.655844,66.7813971 101.091403,67.363353 100.455475,67.363353 L85.6743362,67.363353 C85.0390295,67.363353 84.5454545,66.7813971 84.5454545,66.0968689 L84.5454545,64.3488643 C84.5454545,63.664336 85.0390295,63.3416603 85.6743362,63.3416603 L100.455475,63.3416603 C101.091403,63.3416603 101.655844,63.664336 101.655844,64.3488643 L101.655844,66.0968689 Z" id="Fill-27" fill="#FFFFFF"></path>
                <path d="M103.668831,112.573885 C103.668831,113.230306 103.156039,113.612819 102.523244,113.612819 L82.6715608,113.612819 C82.0387664,113.612819 81.525974,113.230306 81.525974,112.573885 L84.0713789,108.627165 C84.6843792,107.729625 84.9664459,107.586182 85.5980032,107.586182 L99.596802,107.586182 C100.228978,107.586182 100.519086,107.437958 101.124045,108.627165 L103.668831,112.573885 Z" id="Fill-29" fill="#FFFFFF"></path>
                <path d="M98.6363636,104.393323 C98.6363636,104.990703 98.2267094,105.569434 97.6155173,105.569434 L86.5046184,105.569434 C85.8928282,105.569434 85.5519481,104.990703 85.5519481,104.393323 L85.5519481,70.2562822 C85.5519481,69.6589027 85.8928282,69.3741994 86.5046184,69.3741994 L97.6155173,69.3741994 C98.2267094,69.3741994 98.6363636,69.6589027 98.6363636,70.2562822 L98.6363636,104.393323 Z" id="Fill-31" fill="#FFFFFF"></path>
                <path d="M130.844156,66.0968689 C130.844156,66.7813971 130.257402,67.363353 129.629526,67.363353 L115.034937,67.363353 C114.407674,67.363353 113.733766,66.7813971 113.733766,66.0968689 L113.733766,64.3488643 C113.733766,63.664336 114.407674,63.3416603 115.034937,63.3416603 L129.629526,63.3416603 C130.257402,63.3416603 130.844156,63.664336 130.844156,64.3488643 L130.844156,66.0968689 Z" id="Fill-33" fill="#FFFFFF"></path>
                <path d="M132.857143,112.573885 C132.857143,113.230306 132.34435,113.612819 131.711556,113.612819 L111.859873,113.612819 C111.227078,113.612819 110.714286,113.230306 110.714286,112.573885 L113.259691,108.627165 C113.872691,107.729625 114.154139,107.586182 114.786933,107.586182 L128.785114,107.586182 C129.41729,107.586182 129.707398,107.437958 130.312357,108.627165 L132.857143,112.573885 Z" id="Fill-35" fill="#FFFFFF"></path>
                <path d="M128.831169,104.393323 C128.831169,104.990703 128.389156,105.569434 127.787641,105.569434 L116.852081,105.569434 C116.250566,105.569434 115.746753,104.990703 115.746753,104.393323 L115.746753,70.2562822 C115.746753,69.6589027 116.250566,69.3741994 116.852081,69.3741994 L127.787641,69.3741994 C128.389156,69.3741994 128.831169,69.6589027 128.831169,70.2562822 L128.831169,104.393323 Z" id="Fill-37" fill="#FFFFFF"></path>
            </g>
            <g id="Group-8" transform="translate(63.000000, 18.000000)">
                <path d="M16,18 L16,22 C16.9186198,21.666362 17,20.8957952 17,20.1389397 C17,19.0749543 16.6894531,18.4542962 16,18" id="Fill-1" fill="#C5E9E2"></path>
                <path d="M13,11.44174 C13,12.2084412 13.5358317,12.658985 14,13 L14,10 C13.5358317,10.2260487 13,10.767478 13,11.44174" id="Fill-3" fill="#C5E9E2"></path>
                <g id="Group-7">
                    <mask id="mask-6" fill="white">
                        <use xlink:href="#path-5"></use>
                    </mask>
                    <g id="Clip-6"></g>
                    <path d="M15.9865278,24.3796056 L15.9865278,26.0226056 L14.1635556,26.0226056 L14.1635556,24.4080222 C11.7326389,24.1135222 9.38697222,22.5032444 9.38697222,19.4884944 C9.38697222,19.2999111 9.39644444,19.0338278 9.39644444,19.0338278 L12.5403611,19.0338278 C12.5403611,19.0338278 12.53175,19.2284389 12.53175,19.3464111 C12.53175,20.5459389 12.6436944,21.3751889 14.1635556,21.7110222 L14.1635556,17.1126889 C12.03575,16.4143278 9.73227778,15.5566611 9.73227778,12.2121056 C9.73227778,9.49702222 11.7326389,8.0383 14.1635556,7.73518889 L14.1635556,6.2713 L15.9865278,6.2713 L15.9865278,7.75499444 C18.7214167,8.1003 20.2404167,9.56591111 20.2404167,12.4497722 L20.2404167,12.6521333 L17.2015556,12.6521333 L17.2015556,12.5203833 C17.2015556,11.5972722 16.8984444,10.9014944 15.9865278,10.5432722 L15.9865278,14.4845778 C18.4174444,15.1639944 20.4298611,16.0707444 20.4298611,19.3050778 C20.4298611,22.5256333 18.7214167,24.0351611 15.9865278,24.3796056 M15.3708333,0.258161111 C6.882,0.258161111 0,7.14016111 0,15.6289944 C0,24.1178278 6.882,30.9998278 15.3708333,30.9998278 C23.8605278,30.9998278 30.7416667,24.1178278 30.7416667,15.6289944 C30.7416667,7.14016111 23.8605278,0.258161111 15.3708333,0.258161111" id="Fill-5" fill="#C5E9E2" mask="url(#mask-6)"></path>
                </g>
            </g>
        </g>
    </g>
</svg>