<?xml version="1.0" encoding="UTF-8"?>
<svg width="498px" height="602px" viewBox="0 0 498 602" version="1.1" xmlns="http://www.w3.org/2000/svg" xmlns:xlink="http://www.w3.org/1999/xlink">
    <!-- Generator: Sketch 52.3 (67297) - http://www.bohemiancoding.com/sketch -->
    <title>Group 3</title>
    <desc>Created with Sketch.</desc>
    <g id="Page-1" stroke="none" stroke-width="1" fill="none" fill-rule="evenodd" opacity="0.661760603">
        <g id="layout-a" transform="translate(0.000000, -2813.000000)" fill="#FCBF95">
            <g id="Group-3" transform="translate(-134.000000, 2813.000000)">
                <path d="M504.039666,24.7463106 C470.302013,8.87020423 432.449576,-5.25493753 396.466413,4.52103399 C381.855736,8.489689 368.483805,16.2293094 353.867179,20.1741822 C336.616913,24.8310347 318.340554,24.007576 300.648622,21.5030128 C259.091839,15.6213769 218.744062,0.686153877 176.778329,0.0172794383 C134.812596,-0.651595 88.0331465,18.0902668 74.0232538,57.63561 C67.6570135,75.6030638 68.9165803,95.2129759 68.5968555,114.269952 C67.7908517,162.250545 56.3030669,210.021557 35.2071814,253.128285 C16.443056,291.471141 -10.6130938,333.30998 4.32771838,373.296781 C21.4188654,419.041847 83.6239191,432.272183 106.660459,475.334319 C120.084438,500.427516 117.523666,530.668072 115.001558,559.011998 C114.521227,564.404613 114.0751,569.980053 115.798639,575.112549 C118.824871,584.12749 127.780138,589.722253 136.5748,593.343094 C171.085741,607.5485 210.571005,602.322361 246.326642,591.629289 C264.39927,586.224783 282.297908,579.369563 297.626851,568.382186 C312.887388,557.445346 325.28676,542.637952 341.551084,533.255873 C371.279538,516.108905 408.022605,519.902167 442.295611,521.743801 C472.584699,523.372882 502.974909,523.062227 533.223845,520.816295 C553.295124,519.325448 573.709921,516.872909 591.965461,508.403472 C610.219514,499.934035 626.228058,484.478576 630.713127,464.868664 C636.315003,440.368537 622.907382,414.949822 604.460007,397.871228 C594.633304,388.774535 583.356686,381.318815 573.808069,371.929304 C541.640785,340.303434 533.51234,291.584106 534.090819,246.490078 C534.496795,214.868667 539.078525,181.433864 558.840489,156.737533 C568.357878,144.844946 580.953546,135.596642 589.827023,123.218006 C638.11141,55.8772134 548.11707,45.4873638 504.039666,24.7463106" id="Fill-1" opacity="0.406389509"></path>
            </g>
        </g>
    </g>
</svg>