<svg xmlns="http://www.w3.org/2000/svg" viewBox="0 0 49.28 86.12"><defs><style>.cls-1{fill:#231815;}.cls-2{opacity:0.37;}.cls-3{fill:#d6d6d6;}</style></defs><title>black-bear-hand</title><g id="圖層_2" data-name="圖層 2"><g id="圖層_1-2" data-name="圖層 1"><path class="cls-1" d="M45.79,37.58c-2.87-5.18-7.12-9.6-11.5-13.79C28.52,16.71,20.4,10.72,13.83,4.37a17.3,17.3,0,0,0-5-3.8,5.88,5.88,0,0,0-6,.54c-9.37,8,7.44,31.38,13.23,36.66,4.12,3.75,11.14,8.15,11,14.53-.08,5.85-11.83,9-13.9,14.07-1.6,3.94-5.7,13.43-1.79,16.09,5.65,3.84,22.93-9.21,26.34-13,5.75-6.48,12.68-12.63,11.42-21.95A27.87,27.87,0,0,0,45.79,37.58Z"/><g class="cls-2"><path class="cls-3" d="M19.51,58.43a60.87,60.87,0,0,1-2.18-6.32c-.46-1.9-1.14-4.1-3-4.73-2.54-.87-4.89,2.21-4.8,4.89.2,5.86.81,6.86-4.43,10.33-2,1.34-3.9.65-4.74,3.55C-.38,68.79,1.93,73,5.11,71.47a8.24,8.24,0,0,0-2.9,2.92A2.83,2.83,0,0,0,3.08,78c1.16.61,3.09.36,3.32,1.65.11.61-.32,1.17-.48,1.77a2.83,2.83,0,0,0,2,3.14A7,7,0,0,0,12,84.38c3.38-1,6.73-2.59,8.84-5.41C25.33,73,21.79,64.43,19.51,58.43Z"/></g><path class="cls-1" d="M20.16,59.73A60.87,60.87,0,0,1,18,53.41c-.46-1.9-1.14-4.1-3-4.73-2.54-.87-4.89,2.21-4.8,4.89.2,5.86.81,6.86-4.43,10.33-2,1.34-3.9.65-4.74,3.55-.76,2.63,1.55,6.81,4.74,5.31a8.24,8.24,0,0,0-2.9,2.92,2.83,2.83,0,0,0,.87,3.66c1.16.61,3.09.36,3.32,1.65.11.61-.32,1.17-.48,1.77a2.83,2.83,0,0,0,2,3.14,7,7,0,0,0,4.06-.23c3.38-1,6.73-2.59,8.84-5.41C26,74.32,22.44,65.73,20.16,59.73Z"/></g></g></svg>