<svg xmlns="http://www.w3.org/2000/svg" viewBox="0 0 256.02 329.59"><defs><style>.cls-1{fill:#231815;}.cls-2{fill:#fff;}.cls-3{fill:#140509;}.cls-4{fill:#140508;}.cls-5{fill:#9b9b9b;}.cls-6{fill:#abaaaa;}.cls-7{fill:#bebebe;}.cls-8{fill:#ccc;}</style></defs><title>black-bear</title><g id="圖層_2" data-name="圖層 2"><g id="圖層_1-2" data-name="圖層 1"><path class="cls-1" d="M228.78,59.08c-19.2-26.68-45.32-46.15-80.62-48.72-7.27-.53-14.27-1.8-21.62-1.64A126.66,126.66,0,0,0,84.2,17a100.8,100.8,0,0,0-17.37,8.72c-13.6,8.5-21,14.49-30.43,28.3A224.4,224.4,0,0,0,12,99.71c-10.14,26.15-9.08,65.38,4.23,90.92,7.19,13.79,20.12,25.06,32,34.17,66.21,50.88,198,19.61,207.3-75C258.72,116.59,247.81,85.52,228.78,59.08Zm-98.23-53a3.21,3.21,0,0,1-1.2.72c.92-.21-2-1.47-2.12-1.49C125.8,5,124,6.6,122.68,7c-3.33,1.15-6.34,1.56-8,5.16.4-.86,17.72,6,19,6.22A55.24,55.24,0,0,0,162,16.75c1-.31,2.05-.88,2.05-1.87s-.85-1.44-1.6-1.85A109.11,109.11,0,0,1,150.48,5.8c-3.55-2.53-4.76-1.75-8.66-.46-1,.33,3.54-3.72,2.12-3.32-1,.28.29-.27-1.33-1.71C140.82-1.28,133.55,3.66,130.55,6.05Z"/><path class="cls-1" d="M193.24,6.18c2.45,1.48,4.86,3.19,6.28,5.66a12.31,12.31,0,0,1,1.13,8.5C198.51,31,189,36.28,178.66,31.41a12.16,12.16,0,0,1-4.17-3.06c-1.82-2.17-2.52-5.07-2.86-7.89a18,18,0,0,1,.85-9.08c2.3-5.51,10.18-7.57,15.67-7.24a10.73,10.73,0,0,1,4.68,1.8Z"/><path class="cls-1" d="M102.23,2.16c2.45,1.48,4.86,3.19,6.28,5.66a12.31,12.31,0,0,1,1.13,8.5C107.5,27,98,32.26,87.65,27.39a12.16,12.16,0,0,1-4.17-3.06c-1.82-2.17-2.52-5.07-2.86-7.89a18,18,0,0,1,.85-9.08C83.77,1.85,91.65-.21,97.14.12a10.68,10.68,0,0,1,4.68,1.8Z"/><path class="cls-2" d="M136.7,109.29c-24.35-1.26-62.95,8.5-63.57,38.89-.45,21.47,23.35,37.82,42,41.46A80.49,80.49,0,0,0,132.63,191s61.81-1.67,54-47.27C186.67,143.71,175.6,111.31,136.7,109.29Z"/><path class="cls-1" d="M113.75,122.67c4.35-.88,25.87-1.09,30.19.27s-1.82,9.7-4.48,11.5c-5.75,3.88-14.66,4.91-20.31.2C116.65,132.55,109.19,123.59,113.75,122.67Z"/><path class="cls-3" d="M115.83,151.61c.93-.74,3.21.76,4.27,1a39.34,39.34,0,0,0,10.14,1.12c3.1-.05,7-1,10.14-1.29,4.31-.41,2.14,3.1.2,5.09-1.26,1.3-2.84,2.5-6.6,4.28a13.17,13.17,0,0,1-17-5.76c-.5-.9-2.11-2.85-1.54-4A1.57,1.57,0,0,1,115.83,151.61Z"/><path class="cls-1" d="M130.14,155.63l-2-.26a104.52,104.52,0,0,0-.67-30.31l2-.34A106.88,106.88,0,0,1,130.14,155.63Z"/><path class="cls-2" d="M160.79,101.09c1.77,5.79,6.57,9.46,10.72,8.2s6.09-7,4.32-12.79S169.26,87,165.1,88.31,159,95.3,160.79,101.09Z"/><path class="cls-2" d="M81.43,94.11c-1.66,5.83.39,11.51,4.57,12.7s8.9-2.58,10.55-8.41S96.15,86.89,92,85.71,83.08,88.29,81.43,94.11Z"/><path class="cls-4" d="M162.89,102.13a5.65,5.65,0,1,0,3.85-7A5.65,5.65,0,0,0,162.89,102.13Z"/><path class="cls-4" d="M82.58,98.56a5.65,5.65,0,1,0,3.85-7A5.65,5.65,0,0,0,82.58,98.56Z"/><path class="cls-1" d="M180,256.79c2.33,10.51,6.13,18.93,10.63,28.54,3.76,8,9.87,17.66,9.11,26.85-.61,7.29-2.85,3.47-7.31,9.27-4.19,5.45-8.87-.53-15,.14-5,.55-9.45,3.26-14.59,3.45s-10.3-.57-15.45-.59c-8.71,0-17.51-.63-26.24-.82-7.13-.15-14.39-.77-21-3.45-11.28-4.57-22-3.18-20.36-15.37,2.06-15.08,5.22-29.18,6.46-44.25.74-9,5.73-16.91,7-26.07.29-2.12.58-4.5,2.24-5.86s4.41-1.14,6.69-.73q12,2.16,23.9,4.31c6.62,1.18,10.35,0,16.7-1.07,10-1.65,24.79-3,33.21,3.76,3.48,3.09,2.42,6.86,2.65,11.07A67.26,67.26,0,0,0,180,256.79Z"/><path class="cls-1" d="M186.57,285.38a50.52,50.52,0,0,1-.36-5.47c0-1.6,0-3.49-1.34-4.39-1.83-1.23-4.35.7-4.86,2.84-1.1,4.68-.83,5.6-5.73,7.22-1.89.63-3.23-.32-4.51,1.79-1.17,1.92-.24,5.73,2.6,5.22a6.84,6.84,0,0,0-2.92,1.69,2.33,2.33,0,0,0-.1,3.09c.78.73,2.37.95,2.27,2,0,.5-.5.86-.76,1.29a2.33,2.33,0,0,0,.94,2.93,5.77,5.77,0,0,0,3.26.69,13.44,13.44,0,0,0,8.16-2.37C188,298.18,187.08,290.62,186.57,285.38Z"/><path class="cls-1" d="M8.85,254.13a2.38,2.38,0,0,1,.9-1.43c1.6-1.3,4.5,1.63,5.53-1.07.67-1.76-3.19-4.13-2.87-6,1.13-6.4,11.5,1.55,14.48,1.73,8.65.53,16.53-3.87,24.31-6.89,12.77-4.95,26.07-8,38.91-12.66.72-.27,1.6-.51,2.19,0a2.23,2.23,0,0,1,.58,1c1.06,3.17,5.23,14.91,2.83,17.91a3.4,3.4,0,0,1-1.72.95c-7.32,2.32-14.66,4.53-22,6.75-6.28,1.9-12.37,3.55-18.77,4.83C45.1,261,37,261.92,28.92,264c-4.87,1.23-20.89,3.8-21.33-4.69C7.5,257.5,7.07,254.28,8.85,254.13Z"/><path class="cls-1" d="M208.93,266.14c-1.91-4.46-5-8.41-8.24-12.19-4.13-6.26-10.26-11.81-15.1-17.54a14.14,14.14,0,0,0-3.8-3.52,4.81,4.81,0,0,0-4.94,0c-8.3,5.73,3.48,26.22,7.78,31,3.05,3.4,8.41,7.56,7.81,12.76-.55,4.77-6.68,6.71-8.79,10.7-1.63,3.09-2,7.63,1,10.12,4.29,3.6,12-3.13,15.09-6,5.23-4.82,11.39-9.26,11.13-17A22.88,22.88,0,0,0,208.93,266.14Z"/><polyline class="cls-5" points="245.55 319.51 244.79 325.08 151.03 329.58 152.84 319.77"/><polyline class="cls-6" points="130.58 311.98 174.31 311.73 245.55 319.51 154.67 320.03"/><path class="cls-7" d="M.57,233.25l36.15,88.82a7.61,7.61,0,0,0,6.86,4.74L151,329.58a7.61,7.61,0,0,0,7.49-9.81L130.4,226.65a7.64,7.64,0,0,0-7.4-5.42L7.52,222.77A7.61,7.61,0,0,0,.57,233.25Z"/><path class="cls-8" d="M.57,233.25,35,317.85l123.51,1.92L130.4,226.65a7.64,7.64,0,0,0-7.4-5.42L7.52,222.77A7.61,7.61,0,0,0,.57,233.25Z"/></g></g></svg>