<?xml version="1.0" encoding="UTF-8"?>
<svg width="194px" height="194px" viewBox="0 0 194 194" version="1.1" xmlns="http://www.w3.org/2000/svg" xmlns:xlink="http://www.w3.org/1999/xlink">
    <!-- Generator: Sketch 58 (84663) - https://sketch.com -->
    
    <desc>Created with Sketch.</desc>
    <g id="web" stroke="none" stroke-width="1" fill="none" fill-rule="evenodd">
        <g id="群組-4" transform="translate(1.000000, 1.000000)" fill-rule="nonzero">
            <circle id="Oval" stroke="#77B7A0" fill="#77B7A0" cx="96.5" cy="96.5" r="87.5"></circle>
            <circle id="Oval" stroke="#77B7A0" cx="96" cy="96" r="96"></circle>
            <path d="M40.1327273,61.02 L40.1327273,62.7 L45.0727273,62.7 L45.0727273,63.76 L40.8927273,63.76 L40.8927273,71.04 L45.0727273,71.04 L45.0727273,72.16 L39.6927273,72.16 L39.6927273,73.84 L45.0727273,73.84 L45.0727273,75.66 L46.9127273,75.66 L46.9127273,73.84 L52.1927273,73.84 L52.1927273,72.16 L46.9127273,72.16 L46.9127273,71.04 L51.0927273,71.04 L51.0927273,63.76 L46.9127273,63.76 L46.9127273,62.7 L51.8127273,62.7 L51.8127273,61.02 L46.9127273,61.02 L46.9127273,59.64 L45.0727273,59.64 L45.0727273,61.02 L40.1327273,61.02 Z M49.3327273,69.46 L46.8727273,69.46 L46.8727273,68.14 L49.3327273,68.14 L49.3327273,69.46 Z M45.1127273,69.46 L42.6527273,69.46 L42.6527273,68.14 L45.1127273,68.14 L45.1127273,69.46 Z M42.6527273,66.66 L42.6527273,65.34 L45.1127273,65.34 L45.1127273,66.66 L42.6527273,66.66 Z M46.8727273,65.34 L49.3327273,65.34 L49.3327273,66.66 L46.8727273,66.66 L46.8727273,65.34 Z M36.1127273,59.7 L34.8527273,60.92 C36.1527273,61.94 37.1727273,62.9 37.9127273,63.78 L39.1327273,62.54 C38.3127273,61.6 37.3127273,60.66 36.1127273,59.7 Z M34.3327273,64.48 L34.3327273,66.2 L37.0527273,66.2 C36.4127273,67.16 35.6327273,68.18 34.6927273,69.24 L34.6927273,70.68 L37.5927273,70.68 C37.3527273,71.78 37.0327273,72.8 36.6527273,73.72 C35.8127273,74.04 34.9527273,75.08 34.0327273,76.84 L35.4127273,78.1 L35.6519283,77.6210884 C36.3888271,76.1803628 36.9308225,75.46 37.2927273,75.46 C37.4207273,75.46 37.5487273,75.4984 37.6664873,75.59568 L37.7527273,75.68 C38.4327273,76.38 39.1727273,76.9 40.0127273,77.24 C40.7327273,77.52 41.7527273,77.7 43.1127273,77.74 C44.4127273,77.78 45.7727273,77.8 47.1727273,77.8 L52.0927273,77.8 L52.5127273,76.02 L50.0683486,76.1011561 C48.8640882,76.1372781 47.8188811,76.16 46.9327273,76.16 C45.5327273,76.16 44.2927273,76.14 43.2127273,76.12 C42.1127273,76.08 41.2727273,75.96 40.6727273,75.72 C40.0727273,75.46 39.4527273,75.02 38.8127273,74.4 C38.6527273,74.26 38.5127273,74.14 38.3527273,74.04 C38.7527273,73.08 39.0927273,71.84 39.3727273,70.34 L39.3727273,69.08 L36.9527273,69.08 C37.7927273,68.06 38.5127273,67.02 39.1527273,65.96 L39.1527273,64.48 L34.3327273,64.48 Z M55.6818182,72.92 C55.6018182,74.52 55.3618182,75.96 55.0018182,77.22 L56.7018182,77.74 C57.0618182,76.4 57.2818182,74.86 57.3818182,73.12 L55.6818182,72.92 Z M59.5018182,72.58 L57.9618182,72.92 C58.1818182,74.12 58.3818182,75.52 58.5418182,77.08 L60.3218182,76.66 C60.0818182,75.18 59.8018182,73.82 59.5018182,72.58 Z M61.5018182,67.48 L60.0218182,67.94 C60.2018182,68.46 60.3818182,69 60.5418182,69.56 C59.6218182,69.8 58.7218182,69.98 57.8018182,70.14 C58.9818182,68.78 60.4418182,66.56 62.2018182,63.5 L62.2018182,63.84 L66.8818182,63.84 L66.8818182,66.42 L62.7418182,66.42 L62.7418182,68.24 L72.9218182,68.24 L72.9218182,66.42 L68.7418182,66.42 L68.7418182,63.84 L73.3618182,63.84 L73.3618182,62.02 L68.7418182,62.02 L68.7418182,59.62 L66.8818182,59.62 L66.8818182,62.02 L62.2018182,62.02 L62.2018182,63.42 L60.5018182,62.8 C60.0618182,63.64 59.6218182,64.42 59.2218182,65.14 C58.5418182,65.26 57.8818182,65.36 57.2018182,65.44 C58.1618182,64.06 59.1018182,62.3 60.0218182,60.18 L58.2018182,59.46 C57.5218182,61.46 56.7218182,63.26 55.8018182,64.88 C55.5618182,65.22 55.3018182,65.46 55.0018182,65.58 L55.4818182,67.3 L57.2951515,67.02 C57.5929293,66.9733333 57.8884849,66.9266667 58.1818182,66.88 C57.3018182,68.28 56.5418182,69.28 55.9418182,69.88 C55.7018182,70.1 55.4218182,70.28 55.0818182,70.42 L55.5818182,72.14 C57.2618182,71.94 59.0218182,71.54 60.9018182,70.98 L61.0818182,71.82 L62.6618182,71.42 C62.3018182,69.94 61.9218182,68.64 61.5018182,67.48 Z M61.8018182,72.06 L60.3618182,72.54 C60.7618182,73.58 61.1418182,74.76 61.4818182,76.08 L63.0418182,75.4 C62.6818182,74.2 62.2818182,73.1 61.8018182,72.06 Z M72.3418182,69.84 L63.3818182,69.84 L63.3818182,78.06 L65.2418182,78.06 L65.2418182,77.26 L70.5018182,77.26 L70.5018182,78.06 L72.3418182,78.06 L72.3418182,69.84 Z M65.2418182,75.48 L65.2418182,71.6 L70.5018182,71.6 L70.5018182,75.48 L65.2418182,75.48 Z M76.6909091,60.6 L76.6909091,62.44 L84.1309091,62.44 L84.1309091,67.28 L77.6109091,67.28 L77.6109091,69.14 L84.1309091,69.14 L84.1309091,75.44 L76.2509091,75.44 L76.2509091,77.28 L93.9309091,77.28 L93.9309091,75.44 L86.0509091,75.44 L86.0509091,69.14 L92.6109091,69.14 L92.6109091,67.28 L86.0509091,67.28 L86.0509091,62.44 L93.5309091,62.44 L93.5309091,60.6 L76.6909091,60.6 Z M89.7909091,69.88 L88.3109091,70.8 C89.4709091,72.28 90.3909091,73.64 91.0709091,74.86 L92.5909091,73.8 C91.9309091,72.68 90.9909091,71.36 89.7909091,69.88 Z M112.16,63.06 L112.16,74.64 L106.96,74.64 L106.96,59.76 L105.04,59.76 L105.04,74.64 L99.82,74.64 L99.82,62.96 L97.92,62.96 L97.92,77.62 L99.82,77.62 L99.82,76.46 L112.16,76.46 L112.16,77.64 L114.06,77.64 L114.06,63.06 L112.16,63.06 Z M118.769091,60.6 L118.769091,62.8 L118.009091,62.8 L118.009091,64.36 L118.769091,64.36 L118.769091,66.56 L121.889091,66.56 L121.889091,67.36 L118.489091,67.36 L118.489091,70.82 L121.509091,70.82 C121.349091,71.08 121.189091,71.36 121.029091,71.66 L117.849091,71.66 L117.849091,73.1 L120.149091,73.1 C119.789091,73.64 119.429091,74.2 119.049091,74.78 C119.809091,75 120.589091,75.26 121.369091,75.56 C120.329091,76 119.149091,76.38 117.789091,76.74 L118.829091,78.1 C120.549091,77.6 122.029091,77 123.289091,76.32 C124.369091,76.78 125.449091,77.32 126.569091,77.92 L127.549091,76.64 L128.449091,78.12 C129.689091,77.22 130.729091,76.14 131.609091,74.88 C132.509091,76.12 133.649091,77.22 135.029091,78.14 L136.169091,76.64 C134.729091,75.68 133.549091,74.52 132.629091,73.16 C133.829091,70.76 134.489091,67.8 134.609091,64.32 L135.829091,64.32 L135.829091,62.5 L130.749091,62.5 C130.909091,61.64 131.069091,60.72 131.189091,59.76 L129.329091,59.44 C128.929091,63 128.189091,65.82 127.089091,67.94 L128.289091,69.42 C128.509091,69.06 128.729091,68.66 128.949091,68.22 C129.229091,70.04 129.749091,71.7 130.549091,73.18 C129.729091,74.5 128.689091,75.58 127.429091,76.46 L127.469091,76.52 C126.589091,76.08 125.709091,75.68 124.849091,75.32 C125.809091,74.58 126.569091,73.76 127.089091,72.84 L127.089091,71.66 L122.849091,71.66 L123.309091,70.82 L123.309091,70.82 L127.029091,70.82 L127.029091,67.36 L123.609091,67.36 L123.609091,66.56 L126.749091,66.56 L126.749091,64.36 L127.529091,64.36 L127.529091,62.8 L126.749091,62.8 L126.749091,60.6 L123.609091,60.6 L123.609091,59.62 L121.889091,59.62 L121.889091,60.6 L118.769091,60.6 Z M129.349091,67.34 C129.709091,66.44 130.049091,65.44 130.349091,64.32 L132.869091,64.32 C132.769091,66.96 132.329091,69.26 131.549091,71.2 C130.989091,69.94 130.629091,68.54 130.449091,67 L129.349091,67.34 Z M123.129091,74.64 C122.529091,74.44 121.949091,74.26 121.389091,74.1 L121.676591,73.6225 C121.779091,73.455 121.889091,73.28 122.009091,73.1 L125.029091,73.1 C124.529091,73.66 123.889091,74.16 123.129091,74.64 Z M125.129091,65.26 L123.609091,65.26 L123.609091,64.2 L125.129091,64.2 L125.129091,65.26 Z M123.609091,62.96 L123.609091,61.92 L125.129091,61.92 L125.129091,62.96 L123.609091,62.96 Z M121.889091,65.26 L120.389091,65.26 L120.389091,64.2 L121.889091,64.2 L121.889091,65.26 Z M120.389091,62.96 L120.389091,61.92 L121.889091,61.92 L121.889091,62.96 L120.389091,62.96 Z M125.409091,69.58 L123.609091,69.58 L123.609091,68.58 L125.409091,68.58 L125.409091,69.58 Z M121.889091,69.58 L120.109091,69.58 L120.109091,68.58 L121.889091,68.58 L121.889091,69.58 Z M142.978182,59.44 C141.998182,62.52 140.478182,65.2 138.438182,67.52 L139.058182,69.54 C139.718182,68.86 140.338182,68.14 140.938182,67.4 L140.938182,78.1 L142.818182,78.1 L142.818182,64.62 C143.618182,63.24 144.258182,61.78 144.758182,60.26 L142.978182,59.44 Z M144.378182,62.66 L144.378182,64.48 L156.538182,64.48 L156.538182,62.66 L151.438182,62.66 C151.178182,61.54 150.898182,60.54 150.618182,59.66 L148.618182,59.98 C148.958182,60.82 149.258182,61.7 149.538182,62.66 L144.378182,62.66 Z M144.038182,75.38 L144.038182,77.24 L157.058182,77.24 L157.058182,75.38 L152.778182,75.38 C153.738182,72.64 154.558182,69.52 155.218182,66 L153.398182,65.54 C152.678182,69.46 151.818182,72.74 150.838182,75.38 L144.038182,75.38 Z M147.158182,65.72 L145.398182,66.28 C146.218182,69.04 146.898182,71.9 147.418182,74.88 L149.178182,74.42 C148.578182,71.14 147.918182,68.24 147.158182,65.72 Z M47.4527273,98.88 L46.0527273,99.68 C47.1527273,102.72 49.0127273,104.8 51.6127273,105.92 L52.6327273,104.44 C51.4727273,103.96 50.4527273,103.28 49.5927273,102.38 C50.4927273,101.9 51.3127273,101.22 52.0727273,100.34 L50.8327273,99.08 C50.1127273,99.96 49.3527273,100.64 48.5727273,101.12 C48.1327273,100.44 47.7527273,99.7 47.4527273,98.88 Z M39.7127273,102.56 C40.6927273,102.56 41.1927273,101.98 41.1927273,100.86 L41.1927273,90.66 L38.6927273,90.66 L38.6927273,87.54 L37.0327273,87.54 L37.0327273,90.66 L34.5327273,90.66 L34.5327273,102.62 L36.0927273,102.62 L36.0927273,92.32 L37.0327273,92.32 L37.0327273,106.14 L38.6927273,106.14 L38.6927273,102.56 L39.7127273,102.56 Z M38.6927273,92.32 L39.6327273,92.32 L39.6327273,100.54 C39.6327273,100.86 39.4727273,101.02 39.1927273,101.02 L38.6927273,101 L38.6927273,92.32 Z M51.5327273,88.12 L42.8727273,88.12 L42.8727273,96.82 L41.6127273,96.82 L41.6127273,98.54 L42.7327273,98.54 L42.7327273,103.98 C42.7327273,104.2 42.5527273,104.36 42.1927273,104.48 L42.9127273,106.04 C44.6127273,105.6 46.1127273,105.04 47.4127273,104.38 L47.0927273,102.68 C46.2527273,103.16 45.3927273,103.56 44.5327273,103.88 L44.5327273,98.54 L52.3127273,98.54 L52.3127273,96.82 L44.6727273,96.82 L44.6727273,95.54 L50.9127273,95.54 L50.9127273,93.92 L44.6727273,93.92 L44.6727273,92.66 L50.8327273,92.66 L50.8327273,91.02 L44.6727273,91.02 L44.6727273,89.8 L51.5327273,89.8 L51.5327273,88.12 Z M70.8018182,87.66 C66.7818182,88.44 62.2218182,88.86 57.1218182,88.92 L57.1218182,95.2 C57.0218182,99.2 56.3018182,102.32 54.9418182,104.58 L56.3218182,106.02 C57.4018182,104.2 58.1618182,101.96 58.5818182,99.3 L71.8218182,99.3 L71.8218182,92.6 L58.9418182,92.6 L58.9418182,90.62 C63.6618182,90.5 67.9418182,90.1 71.7418182,89.38 L70.8018182,87.66 Z M58.8218182,97.46 C58.8818182,96.74 58.9218182,96 58.9418182,95.2 L58.9418182,94.42 L69.9818182,94.42 L69.9818182,97.46 L58.8218182,97.46 Z M93.2709091,89.28 L83.9309091,89.28 L83.9309091,105.44 L85.7509091,105.44 L85.7509091,104.16 L91.4509091,104.16 L91.4509091,105.44 L93.2709091,105.44 L93.2709091,89.28 Z M85.7509091,102.38 L85.7509091,91.08 L91.4509091,91.08 L91.4509091,102.38 L85.7509091,102.38 Z M82.9509091,95.44 C82.2309091,95.8 81.5109091,96.16 80.7909091,96.48 L80.7909091,92.94 L83.0109091,92.94 L83.0109091,91.12 L80.7909091,91.12 L80.7909091,87.68 L78.9509091,87.68 L78.9509091,91.12 L76.2709091,91.12 L76.2709091,92.94 L78.9509091,92.94 L78.9509091,97.2 C77.9909091,97.52 76.9909091,97.8 75.9909091,98.02 L76.4309091,99.84 C77.2709091,99.58 78.1109091,99.3 78.9509091,99 L78.9509091,103.4 C78.9509091,103.92 78.6909091,104.2 78.1709091,104.2 C77.6109091,104.2 77.0109091,104.16 76.3709091,104.08 L76.7909091,105.86 L78.8309091,105.86 C80.1309091,105.86 80.7909091,105.18 80.7909091,103.86 L80.7909091,98.26 C81.5109091,97.94 82.2309091,97.62 82.9509091,97.26 L82.9509091,95.44 Z M110.88,95.14 L109.96,95.64 C110.36,94.8 110.7,93.86 111.02,92.82 L112.48,92.82 C112.44,94.9 112.22,96.76 111.82,98.4 C111.44,97.38 111.12,96.3 110.88,95.14 Z M114.08,92.82 L114.94,92.82 L114.94,91.1 L111.46,91.1 C111.68,90.14 111.86,89.08 112.02,87.96 L110.36,87.68 C110.08,90.5 109.56,92.86 108.82,94.74 L108.82,89.26 L106.74,89.26 C106.9,88.8 107.04,88.32 107.14,87.8 L105.5,87.58 C105.4,88.16 105.26,88.72 105.1,89.26 L103.34,89.26 L103.34,95.72 L105,95.72 L105.42,97.2 L103,97.2 L103,98.76 L104.52,98.76 C104.34,100.08 104.1,101.16 103.8,102 C103.64,102.32 103.48,102.66 103.28,103 C103,101.98 102.66,101.02 102.26,100.14 L101.08,100.54 C101.44,101.46 101.78,102.5 102.1,103.7 L103.18,103.18 C102.88,103.66 102.52,104.12 102.1,104.56 L103.12,105.88 C104.08,104.96 104.8,103.9 105.28,102.74 C105.4,102.38 105.52,102 105.64,101.56 L107.14,101.56 L107.115275,102.498116 C107.091598,103.115621 107.055385,103.538462 107,103.76 C106.88,104.04 106.66,104.2 106.32,104.24 L104.84,104.24 L105.3,105.76 L106.74,105.76 C107.52,105.72 108.06,105.44 108.36,104.88 C108.68,104.28 108.84,102.68 108.84,100.04 L105.96,100.04 C106.04,99.64 106.1,99.2 106.16,98.76 L109.24,98.76 L109.24,97.2 L107.12,97.2 L106.7,95.72 L108.4,95.72 L108.34,95.84 L109.24,96.96 L109.7,96.16 C110.06,97.8 110.52,99.3 111.1,100.7 C110.48,102.22 109.66,103.44 108.62,104.38 L109.56,105.88 C110.5,104.98 111.3,103.9 111.98,102.62 C112.6,103.82 113.34,104.94 114.18,105.94 L115.38,104.56 C114.38,103.42 113.52,102.14 112.8,100.7 C113.58,98.52 114,95.9 114.08,92.82 Z M97.36,100.9 C97.28,102.54 97.04,103.98 96.68,105.22 L98.18,105.7 C98.5,104.36 98.7,102.82 98.8,101.08 L97.36,100.9 Z M100.5,100.66 L99.2,100.94 C99.48,102.1 99.7,103.44 99.88,104.96 L101.32,104.64 C101.08,103.2 100.8,101.88 100.5,100.66 Z M102.16,95.62 L100.8,96.08 L100.99,96.8575 C101.055,97.125 101.12,97.4 101.18,97.68 C100.58,97.86 99.96,98.02 99.34,98.14 C100.26,96.74 101.42,94.5 102.8,91.38 L101.24,90.82 L100.8176,91.84016 C100.6112,92.3336 100.412,92.804 100.22,93.26 L98.8,93.5 C99.54,92.1 100.26,90.32 100.98,88.12 L99.3,87.48 C98.84,89.5 98.3,91.34 97.68,92.98 C97.46,93.3 97.22,93.52 96.96,93.64 L97.38,95.22 L99.52,94.8 L99.2347522,95.3925948 C98.6767347,96.5285714 98.1942857,97.3685714 97.8,97.9 C97.6,98.1 97.34,98.26 97.02,98.38 L97.48,99.96 C98.74,99.78 100.06,99.46 101.44,99 L101.534815,99.5066667 C101.551111,99.5955556 101.566667,99.6866667 101.58,99.78 L103.02,99.44 C102.76,98 102.48,96.72 102.16,95.62 Z M107.28,94.38 L104.88,94.38 L104.88,93.18 L107.28,93.18 L107.28,94.38 Z M104.88,91.86 L104.88,90.6 L107.28,90.6 L107.28,91.86 L104.88,91.86 Z M132.009091,87.46 L130.809091,88.62 C131.649091,89.26 132.329091,89.9 132.869091,90.5 L129.789091,90.5 L129.743651,89.3672 C129.723491,88.7864 129.709091,88.184 129.709091,87.56 L127.789091,87.56 C127.789091,88.58 127.789091,89.56 127.829091,90.5 L119.589091,90.5 L119.589091,97.16 C119.529091,100.42 118.869091,102.96 117.629091,104.78 L119.069091,106.06 C120.589091,103.82 121.409091,100.86 121.489091,97.16 L121.489091,97.04 L124.509091,97.04 L124.472628,98.5234816 C124.433357,99.7593352 124.377512,100.576842 124.289091,100.96 C124.169091,101.4 123.949091,101.62 123.589091,101.64 C123.029091,101.64 122.369091,101.6 121.569091,101.56 L122.149091,103.28 C122.769091,103.34 123.329091,103.38 123.809091,103.38 C124.849091,103.36 125.529091,102.94 125.849091,102.1 C126.169091,101.14 126.349091,98.86 126.389091,95.24 L121.489091,95.24 L121.489091,92.32 L127.929091,92.32 C128.069091,94.76 128.349091,96.78 128.789091,98.4 C129.009091,99.24 129.249091,100.02 129.529091,100.74 C128.209091,102.38 126.589091,103.62 124.669091,104.48 L125.749091,106.08 C127.509091,105.3 129.069091,104.16 130.409091,102.66 C130.669091,103.14 130.949091,103.58 131.269091,103.98 C132.229091,105.16 133.149091,105.76 134.029091,105.76 C134.989091,105.76 135.729091,104.36 136.229091,101.6 L134.509091,100.68 L134.441265,101.169074 C134.203874,102.803025 133.966482,103.62 133.729091,103.62 C133.409091,103.62 132.929091,103.16 132.329091,102.28 C132.109091,101.94 131.889091,101.54 131.669091,101.06 C132.909091,99.26 133.909091,97.06 134.709091,94.5 L132.969091,93.76 C132.409091,95.66 131.709091,97.34 130.869091,98.82 C130.802424,98.6066667 130.735758,98.3844444 130.675017,98.1592593 L130.589091,97.82 C130.249091,96.52 130.009091,94.68 129.869091,92.32 L135.829091,92.32 L135.829091,90.5 L133.429091,90.5 L134.349091,89.58 C133.709091,88.86 132.929091,88.16 132.009091,87.46 Z M141.518182,91.5 L141.518182,100.62 C140.538182,100.84 139.558182,101.04 138.558182,101.2 L139.038182,103.12 C141.638182,102.56 144.078182,101.86 146.378182,101.04 L146.378182,99.14 C145.398182,99.5 144.418182,99.82 143.418182,100.12 L143.418182,91.5 L146.138182,91.5 L146.138182,89.68 L138.798182,89.68 L138.798182,91.5 L141.518182,91.5 Z M149.538182,87.66 L149.538182,91.54 L146.518182,91.54 L146.518182,93.38 L149.538182,93.38 L149.538182,93.44 C149.498182,98.68 148.058182,102.48 145.218182,104.84 L146.778182,106.22 C149.731325,103.577714 151.287831,99.4821714 151.4477,93.9333714 L151.458182,93.38 L154.618182,93.38 L154.588113,96.6009602 C154.548552,99.9790123 154.491515,102.028889 154.398182,102.76 C154.218182,103.66 153.558182,104.12 152.398182,104.12 C151.838182,104.12 151.158182,104.08 150.358182,104.02 L150.818182,105.8 L151.772102,105.86112 C152.185382,105.8856 152.502182,105.9 152.718182,105.9 C154.758182,105.9 155.918182,105.14 156.178182,103.64 L156.221494,103.251321 C156.392619,101.48005 156.478182,97.571 156.478182,91.54 L151.458182,91.54 L151.458182,87.66 L149.538182,87.66 Z M25.9636364,119.973773 L25.9636364,121.753773 L33.4236364,121.753773 L33.4236364,123.433773 L27.4836364,123.433773 L27.4836364,130.933773 L25.3636364,130.933773 L25.3636364,132.733773 L27.4836364,132.733773 L27.4836364,137.633773 L29.3436364,137.633773 L29.3436364,132.733773 L39.3836364,132.733773 L39.3836364,134.833773 C39.3836364,135.473773 39.1236364,135.813773 38.6036364,135.813773 L36.8036364,135.733773 L37.2836364,137.573773 L39.2036364,137.573773 C40.5636364,137.573773 41.2436364,136.793773 41.2436364,135.253773 L41.2436364,132.733773 L43.3636364,132.733773 L43.3636364,130.933773 L41.2436364,130.933773 L41.2436364,123.433773 L35.3036364,123.433773 L35.3036364,121.753773 L42.7836364,121.753773 L42.7836364,119.973773 L25.9636364,119.973773 Z M29.3436364,130.933773 L29.3436364,128.833773 L33.4236364,128.833773 L33.4236364,130.933773 L29.3436364,130.933773 Z M35.3036364,130.933773 L35.3036364,128.833773 L39.3836364,128.833773 L39.3836364,130.933773 L35.3036364,130.933773 Z M29.3436364,127.173773 L29.3436364,125.153773 L33.4236364,125.153773 L33.4236364,127.173773 L29.3436364,127.173773 Z M35.3036364,125.153773 L39.3836364,125.153773 L39.3836364,127.173773 L35.3036364,127.173773 L35.3036364,125.153773 Z M51.3127273,122.833773 L51.3127273,123.353773 L59.1927273,123.353773 L59.1927273,122.793773 C60.4327273,123.353773 61.8527273,123.853773 63.4727273,124.313773 L64.4327273,122.833773 C60.5127273,121.753773 57.7527273,120.533773 56.1327273,119.133773 L54.6327273,119.133773 C52.6527273,120.633773 49.8527273,121.873773 46.2127273,122.833773 L47.1727273,124.313773 C48.6527273,123.893773 50.0327273,123.393773 51.3127273,122.833773 Z M57.6727273,122.033773 L52.9127273,122.033773 C53.7927273,121.553773 54.6127273,121.033773 55.3727273,120.453773 C56.0127273,121.013773 56.7727273,121.533773 57.6727273,122.033773 Z M49.1527273,124.173773 L49.1527273,127.793773 L61.3527273,127.793773 L61.3527273,124.173773 L49.1527273,124.173773 Z M59.5527273,126.493773 L50.9527273,126.493773 L50.9527273,125.493773 L59.5527273,125.493773 L59.5527273,126.493773 Z M61.6527273,128.133773 C57.9727273,128.553773 53.4527273,128.773773 48.0927273,128.773773 L48.5727273,130.193773 C50.7327273,130.193773 52.7327273,130.153773 54.5727273,130.073773 L54.5727273,131.013773 L48.1327273,131.013773 L48.1327273,132.373773 L54.5727273,132.373773 L54.5727273,133.313773 L46.5327273,133.313773 L46.5327273,134.833773 L54.5727273,134.833773 L54.5727273,135.393773 C54.5727273,135.853773 54.3127273,136.093773 53.8327273,136.093773 C53.1527273,136.093773 52.4127273,136.053773 51.6327273,135.973773 L52.0127273,137.593773 L54.4127273,137.593773 C55.7527273,137.593773 56.4327273,136.993773 56.4327273,135.793773 L56.4327273,134.833773 L64.0327273,134.833773 L64.0327273,133.313773 L56.4327273,133.313773 L56.4327273,132.373773 L62.6327273,132.373773 L62.6327273,131.013773 L56.4327273,131.013773 L56.4327273,129.993773 C58.6927273,129.873773 60.6727273,129.673773 62.3927273,129.433773 L61.6527273,128.133773 Z M72.3218182,121.013773 C70.9218182,121.013773 69.7818182,121.393773 68.9018182,122.193773 C67.9618182,122.993773 67.4418182,124.093773 67.3218182,125.513773 L69.4618182,125.513773 C69.5418182,124.633773 69.8418182,123.973773 70.3218182,123.533773 C70.8018182,123.093773 71.4818182,122.873773 72.3418182,122.873773 C73.1818182,122.873773 73.8418182,123.053773 74.2818182,123.453773 C74.6818182,123.833773 74.9018182,124.373773 74.9018182,125.093773 C74.9018182,125.813773 74.6618182,126.373773 74.2218182,126.753773 C73.7818182,127.133773 73.1218182,127.333773 72.2418182,127.333773 L71.2218182,127.333773 L71.2218182,128.973773 L72.2618182,128.973773 C73.2018182,128.973773 73.9218182,129.173773 74.4018182,129.573773 C74.9218182,129.973773 75.1818182,130.593773 75.1818182,131.433773 C75.1818182,132.153773 74.9218182,132.733773 74.4418182,133.213773 C73.8818182,133.733773 73.1418182,134.013773 72.2218182,134.013773 C71.3818182,134.013773 70.7018182,133.773773 70.1818182,133.293773 C69.5818182,132.773773 69.2818182,132.033773 69.2418182,131.073773 L67.0418182,131.073773 C67.1618182,132.673773 67.7218182,133.893773 68.7218182,134.733773 C69.6018182,135.473773 70.7818182,135.853773 72.2418182,135.853773 C73.7618182,135.853773 75.0218182,135.413773 75.9818182,134.573773 C76.8818182,133.733773 77.3418182,132.653773 77.3418182,131.333773 C77.3418182,130.493773 77.1018182,129.793773 76.6218182,129.253773 C76.1818182,128.733773 75.5418182,128.333773 74.7018182,128.073773 C76.2618182,127.553773 77.0618182,126.493773 77.0618182,124.933773 C77.0618182,123.713773 76.6218182,122.753773 75.7818182,122.053773 C74.9018182,121.353773 73.7618182,121.013773 72.3218182,121.013773 Z M85.0909091,121.013773 C83.4109091,121.013773 82.1109091,121.713773 81.1909091,123.133773 C80.3509091,124.433773 79.9309091,126.193773 79.9309091,128.433773 C79.9309091,130.653773 80.3509091,132.413773 81.1909091,133.733773 C82.1109091,135.133773 83.4109091,135.853773 85.0909091,135.853773 C86.7709091,135.853773 88.0709091,135.133773 88.9909091,133.733773 C89.8309091,132.413773 90.2509091,130.633773 90.2509091,128.433773 C90.2509091,126.213773 89.8309091,124.453773 88.9909091,123.133773 C88.0709091,121.713773 86.7709091,121.013773 85.0909091,121.013773 Z M85.0909091,122.853773 C86.2509091,122.853773 87.0909091,123.493773 87.5709091,124.793773 C87.9109091,125.673773 88.0909091,126.893773 88.0909091,128.433773 C88.0909091,129.953773 87.9109091,131.173773 87.5709091,132.073773 C87.0909091,133.353773 86.2509091,134.013773 85.0909091,134.013773 C83.9109091,134.013773 83.0909091,133.353773 82.6109091,132.073773 C82.2509091,131.173773 82.0909091,129.953773 82.0909091,128.433773 C82.0909091,126.893773 82.2509091,125.673773 82.6109091,124.793773 C83.0909091,123.493773 83.9109091,122.853773 85.0909091,122.853773 Z M98,121.013773 C96.32,121.013773 95.02,121.713773 94.1,123.133773 C93.26,124.433773 92.84,126.193773 92.84,128.433773 C92.84,130.653773 93.26,132.413773 94.1,133.733773 C95.02,135.133773 96.32,135.853773 98,135.853773 C99.68,135.853773 100.98,135.133773 101.9,133.733773 C102.74,132.413773 103.16,130.633773 103.16,128.433773 C103.16,126.213773 102.74,124.453773 101.9,123.133773 C100.98,121.713773 99.68,121.013773 98,121.013773 Z M98,122.853773 C99.16,122.853773 100,123.493773 100.48,124.793773 C100.82,125.673773 101,126.893773 101,128.433773 C101,129.953773 100.82,131.173773 100.48,132.073773 C100,133.353773 99.16,134.013773 98,134.013773 C96.82,134.013773 96,133.353773 95.52,132.073773 C95.16,131.173773 95,129.953773 95,128.433773 C95,127.012234 95.1363314,125.863359 95.4404552,125.002876 L95.52,124.793773 C96,123.493773 96.82,122.853773 98,122.853773 Z M107.849091,120.133773 L107.849091,121.973773 L121.789091,121.973773 L121.789091,120.133773 L107.849091,120.133773 Z M106.309091,126.013773 L106.309091,127.853773 L111.329091,127.853773 L111.329091,128.213773 C111.249091,130.233773 110.829091,131.873773 110.069091,133.153773 C109.289091,134.333773 107.829091,135.313773 105.669091,136.093773 L106.689091,137.693773 C108.929091,136.893773 110.529091,135.793773 111.529091,134.373773 C112.529091,132.833773 113.089091,130.773773 113.169091,128.213773 L113.169091,127.853773 L116.329091,127.853773 L116.329091,135.213773 C116.329091,136.613773 117.009091,137.313773 118.369091,137.313773 L121.469091,137.313773 C122.189091,137.313773 122.709091,137.093773 123.069091,136.693773 C123.429091,136.253773 123.689091,134.933773 123.829091,132.693773 L122.109091,132.133773 L122.091684,132.698511 C122.040025,134.039932 121.927914,134.853773 121.769091,135.153773 C121.629091,135.453773 121.409091,135.613773 121.109091,135.613773 L118.909091,135.613773 C118.409091,135.613773 118.169091,135.333773 118.169091,134.813773 L118.169091,127.853773 L123.529091,127.853773 L123.529091,126.013773 L106.309091,126.013773 Z M134.298182,131.333773 L133.078182,132.173773 C133.278182,132.413773 133.498182,132.633773 133.738182,132.873773 C133.218182,133.173773 132.638182,133.433773 132.038182,133.653773 L132.898182,135.053773 C133.638182,134.653773 134.298182,134.293773 134.878182,133.933773 C135.398182,134.373773 135.978182,134.793773 136.578182,135.193773 C135.178182,135.593773 133.498182,135.913773 131.558182,136.193773 L132.218182,137.713773 C134.658182,137.313773 136.698182,136.793773 138.378182,136.173773 C140.258182,137.013773 142.358182,137.513773 144.718182,137.653773 L145.138182,136.093773 C143.418182,136.013773 141.818182,135.733773 140.358182,135.253773 C141.458182,134.633773 142.298182,133.933773 142.858182,133.133773 L142.858182,131.873773 L137.338182,131.873773 C137.498182,131.673773 137.698182,131.473773 137.898182,131.233773 L139.738182,131.233773 C140.358182,131.233773 140.818182,131.133773 141.138182,130.973773 C141.418182,130.813773 141.618182,130.373773 141.758182,129.653773 C142.478182,130.313773 143.078182,130.953773 143.518182,131.573773 L144.578182,130.513773 C143.958182,129.793773 143.178182,129.093773 142.258182,128.373773 L141.398182,129.193773 L140.338182,128.853773 C140.278182,129.413773 140.178182,129.733773 140.018182,129.833773 C139.898182,129.933773 139.718182,129.993773 139.478182,129.993773 L137.458182,129.993773 C137.158182,129.993773 137.018182,129.873773 137.018182,129.633773 L137.018182,128.273773 L135.418182,128.273773 L135.418182,129.973773 C135.418182,130.513773 135.658182,130.873773 136.138182,131.073773 C135.778182,131.433773 135.398182,131.753773 134.998182,132.053773 C134.758182,131.813773 134.518182,131.573773 134.298182,131.333773 Z M138.518182,134.513773 C137.738182,134.133773 137.018182,133.693773 136.338182,133.193773 L140.798182,133.193773 C140.218182,133.673773 139.458182,134.113773 138.518182,134.513773 Z M143.178182,121.753773 L138.698182,121.753773 C138.778182,121.553773 138.838182,121.333773 138.898182,121.113773 L144.398182,121.113773 L144.398182,119.633773 L132.318182,119.633773 L132.318182,121.113773 L137.018182,121.113773 C136.958182,121.313773 136.878182,121.533773 136.798182,121.753773 L133.418182,121.753773 L133.418182,126.533773 L131.838182,126.533773 L131.838182,129.013773 L133.578182,129.013773 L133.578182,127.833773 L138.478182,127.833773 L137.478182,128.153773 C137.918182,128.553773 138.318182,129.033773 138.678182,129.593773 L139.838182,129.053773 C139.538182,128.613773 139.158182,128.213773 138.718182,127.833773 L143.058182,127.833773 L143.058182,129.013773 L144.798182,129.013773 L144.798182,126.533773 L143.178182,126.533773 L143.178182,121.753773 Z M135.138182,126.533773 L135.138182,125.953773 L141.458182,125.953773 L141.458182,126.533773 L135.138182,126.533773 Z M135.138182,124.973773 L135.138182,124.433773 L141.458182,124.433773 L141.458182,124.973773 L135.138182,124.973773 Z M135.138182,123.473773 L135.138182,122.873773 L141.458182,122.873773 L141.458182,123.473773 L135.138182,123.473773 Z M134.178182,128.493773 C133.538182,129.253773 132.778182,129.913773 131.878182,130.473773 L132.798182,131.693773 C133.758182,131.033773 134.558182,130.273773 135.198182,129.393773 L134.178182,128.493773 Z M130.318182,119.073773 C129.478182,122.113773 128.218182,124.753773 126.518182,127.033773 L127.118182,129.013773 C127.638182,128.393773 128.118182,127.753773 128.578182,127.093773 L128.578182,137.673773 L130.398182,137.673773 L130.398182,123.973773 C131.038182,122.653773 131.558182,121.293773 131.958182,119.853773 L130.318182,119.073773 Z M147.807273,120.353773 L147.807273,121.953773 L155.787273,121.953773 L155.787273,122.833773 L149.507273,122.833773 L149.507273,128.813773 L155.787273,128.813773 L155.787273,129.773773 L153.427273,129.808588 C151.800606,129.829328 150.067273,129.847106 148.227273,129.873773 L148.467273,131.533773 L152.077688,131.430413 C157.015085,131.27807 160.748523,131.112523 163.267273,130.933773 C163.647273,131.333773 163.987273,131.733773 164.307273,132.133773 L165.707273,131.173773 C165.107273,130.493773 164.287273,129.693773 163.247273,128.813773 L163.947273,128.813773 L163.947273,122.833773 L157.667273,122.833773 L157.667273,121.953773 L165.647273,121.953773 L165.647273,120.353773 L157.667273,120.353773 L157.667273,119.133773 L155.787273,119.133773 L155.787273,120.353773 L147.807273,120.353773 Z M161.347273,129.073773 L161.907273,129.593773 L158.81071,129.700648 C158.438523,129.712523 158.057273,129.723773 157.667273,129.733773 L157.667273,128.813773 L161.747273,128.813773 L161.347273,129.073773 Z M162.147273,127.413773 L157.667273,127.413773 L157.667273,126.433773 L162.147273,126.433773 L162.147273,127.413773 Z M155.787273,127.413773 L151.307273,127.413773 L151.307273,126.433773 L155.787273,126.433773 L155.787273,127.413773 Z M151.307273,125.213773 L151.307273,124.233773 L155.787273,124.233773 L155.787273,125.213773 L151.307273,125.213773 Z M157.667273,124.233773 L162.147273,124.233773 L162.147273,125.213773 L157.667273,125.213773 L157.667273,124.233773 Z M149.487273,132.133773 C149.107273,133.493773 148.487273,134.753773 147.627273,135.933773 L149.187273,136.933773 C150.047273,135.673773 150.707273,134.193773 151.187273,132.473773 L149.487273,132.133773 Z M159.587273,137.313773 C160.307273,137.313773 160.827273,137.173773 161.167273,136.893773 C161.527273,136.593773 161.787273,135.693773 161.927273,134.173773 L160.207273,133.613773 C160.147273,134.553773 160.027273,135.113773 159.867273,135.313773 C159.747273,135.473773 159.527273,135.573773 159.247273,135.573773 L154.827273,135.573773 C154.347273,135.573773 154.127273,135.373773 154.127273,134.993773 L154.127273,132.053773 L152.287273,132.053773 L152.287273,135.393773 C152.287273,136.673773 152.947273,137.313773 154.267273,137.313773 L159.587273,137.313773 Z M156.947273,131.553773 L155.527273,132.433773 C156.487273,133.333773 157.247273,134.153773 157.807273,134.893773 L159.227273,133.913773 C158.687273,133.233773 157.927273,132.453773 156.947273,131.553773 Z M162.947273,131.673773 C164.247273,133.133773 165.247273,134.433773 165.947273,135.553773 L164.447273,136.553773 C163.727273,135.353773 162.747273,134.033773 161.507273,132.573773 L162.947273,131.673773 Z" id="連結玉山數位帳戶扣繳成功再拿300元優惠" fill="#FFFFFF"></path>
        </g>
    </g>
</svg>