<?xml version="1.0" encoding="UTF-8"?>
<svg width="42px" height="49px" viewBox="0 0 42 49" version="1.1" xmlns="http://www.w3.org/2000/svg" xmlns:xlink="http://www.w3.org/1999/xlink">
    <!-- Generator: Sketch 52.3 (67297) - http://www.bohemiancoding.com/sketch -->
    <title>Group 4</title>
    <desc>Created with Sketch.</desc>
    <g id="Page-1" stroke="none" stroke-width="1" fill="none" fill-rule="evenodd">
        <g id="Group-4" transform="translate(17.968125, 23.992802) rotate(47.000000) translate(-17.968125, -23.992802) translate(-7.031875, -0.507198)" fill="#FFFFFF" fill-rule="nonzero">
            <path d="M33.2106621,33.1731812 C37.7984044,28.5877891 37.7984044,21.1528799 33.2106621,16.5666702 C28.6237376,11.981278 21.1863439,11.981278 16.5994195,16.5666702 C12.0116771,21.1528799 12.0116771,28.5877891 16.5994195,33.1731812 C21.1863439,37.7585734 28.6237376,37.7585734 33.2106621,33.1731812 Z M20.1590299,20.1250915 C22.7804801,17.5053346 27.0304193,17.5053346 29.6510517,20.1250915 C32.272502,22.7456659 32.272502,26.9941855 29.6510517,29.6147599 C27.0304193,32.2353346 22.7804801,32.2353346 20.1590299,29.6147599 C17.5375797,26.9941855 17.5375797,22.7456659 20.1590299,20.1250915 Z M14.1399184,14.1088083 C13.6581605,13.6263937 13.6843341,12.8332712 14.2012628,12.3884686 C20.6620539,6.83988253 30.4109041,7.12524301 36.5330743,13.2453678 C42.6560622,19.3663105 42.941518,29.1119039 37.3902599,35.5697192 C36.9461265,36.0872928 36.1527391,36.1134577 35.6701632,35.6310431 C35.2382987,35.2001405 35.2063995,34.5067716 35.6047292,34.0447983 C40.3650538,28.5084769 40.1204941,20.1528915 34.8718682,14.906019 C29.6232423,9.65914646 21.2656826,9.41548608 15.7275111,14.1742204 C15.2645655,14.5715994 14.5717829,14.5397109 14.1399184,14.1088083 Z M23.1019246,23.596024 C22.5612761,24.3490814 22.5612761,25.3915876 23.1019246,26.1438274 C23.3669326,26.5125885 23.7129148,26.7717841 24.0924321,26.9214145 C24.5766438,27.112745 24.9046319,27.5673594 24.9046319,28.0882039 C24.9046319,28.9704502 24.0163651,29.5665186 23.1943503,29.2459991 C22.4688506,28.9630914 21.7997877,28.4929415 21.2607752,27.8355493 C19.8596694,26.1274744 19.8596694,23.6131946 21.2607752,21.9051197 C21.7997877,21.2477275 22.4688506,20.7775776 23.1943503,20.4946701 C24.0163651,20.1741506 24.9046319,20.7702188 24.9046319,21.6524653 C24.9046319,22.1733096 24.5766438,22.6271064 24.0924321,22.8184369 C23.7129148,22.9688849 23.3669326,23.2272629 23.1019246,23.596024 Z M25.9466685,22.0809149 C25.9466685,21.4382404 26.4685049,20.9165786 27.111394,20.9165786 C27.7551012,20.9165786 28.2769373,21.4382404 28.2769373,22.0809149 C28.2769373,22.7244071 27.7551012,23.2460689 27.111394,23.2460689 C26.4685049,23.2452513 25.9466685,22.7244071 25.9466685,22.0809149 Z M28.3742705,23.7546483 C29.0179777,23.7546483 29.538996,24.2754928 29.538996,24.9189847 C29.538996,25.5616593 29.0179777,26.0833211 28.3742705,26.0833211 C27.7313814,26.0833211 27.209545,25.5616593 27.209545,24.9189847 C27.209545,24.2754928 27.7313814,23.7546483 28.3742705,23.7546483 Z M9.62169962,26.0833211 C8.97881052,26.0833211 8.45697415,25.5616593 8.45697415,24.9189847 C8.45697415,24.2763104 8.97881052,23.7546483 9.62169962,23.7546483 C10.2654068,23.7546483 10.7864251,24.2754928 10.7864251,24.9189847 C10.787243,25.5616593 10.2654068,26.0833211 9.62169962,26.0833211 Z M24.9054498,41.361148 C24.2617426,41.361148 23.7407243,40.8403035 23.7407243,40.1968116 C23.7407243,39.5533195 24.2617426,39.0324752 24.9054498,39.0324752 C25.5483389,39.0324752 26.0701753,39.5541371 26.0701753,40.1968116 C26.0701753,40.8394859 25.5483389,41.361148 24.9054498,41.361148 Z M14.9218548,34.898427 C15.3766212,35.3530414 15.3766212,36.0905634 14.9218548,36.5451779 C14.4670884,36.9997924 13.72932,36.9997924 13.2745536,36.5451779 C12.8197872,36.0905634 12.8197872,35.3530414 13.2745536,34.898427 C13.72932,34.4438125 14.4670884,34.4438125 14.9218548,34.898427 Z M11.8619968,30.319576 C12.1081922,30.914009 11.8260081,31.5951131 11.2313764,31.8412263 C10.6367447,32.0873394 9.95541309,31.8052496 9.70921766,31.2108165 C9.46302223,30.6172013 9.74520637,29.9360971 10.339838,29.6899839 C10.9336516,29.4438707 11.6158013,29.7259606 11.8619968,30.319576 Z M31.8300044,38.5884902 C32.0762,39.1821056 31.7940156,39.8632096 31.1993842,40.1093228 C30.6047525,40.355436 29.9234209,40.0733461 29.6772253,39.4797307 C29.4310298,38.8852979 29.713214,38.2041936 30.3078456,37.9580805 C30.9024773,37.7119673 31.5838089,37.9940571 31.8300044,38.5884902 Z M20.1328563,39.4797307 C19.8866608,40.0733461 19.2053292,40.3562536 18.6106976,40.1101404 C18.0168838,39.8640272 17.7346996,39.1821056 17.9808951,38.5884902 C18.2270905,37.9940571 18.9084223,37.7119673 19.5022359,37.9580805 C20.0968676,38.2041936 20.3790517,38.8852979 20.1328563,39.4797307 Z M11.8619968,19.517576 C11.6158013,20.112009 10.9336516,20.3940989 10.339838,20.1479857 C9.74520637,19.9018723 9.46302223,19.2207683 9.70921766,18.6263353 C9.95541309,18.0327201 10.6367447,17.7506302 11.2313764,17.9967434 C11.8251902,18.2428566 12.1081922,18.9239608 11.8619968,19.517576 Z M25.8885958,27.634407 C25.8885958,26.9909149 26.4096143,26.4700706 27.0533213,26.4700706 C27.6962106,26.4700706 28.2180467,26.9909149 28.2180467,27.634407 C28.2180467,28.2770813 27.6962106,28.7987434 27.0533213,28.7987434 C26.4096143,28.7987434 25.8885958,28.2770813 25.8885958,27.634407 Z M26.706521,48.8344869 C25.7364618,48.9064402 24.9054498,48.1509298 24.9054498,47.1787415 C24.9054498,46.3071246 25.5786023,45.5875909 26.4480566,45.5229963 C37.1522436,44.7355977 45.5948675,35.8174678 45.621859,24.9214377 C45.6496684,13.4857576 36.3449514,4.16043713 24.9046319,4.16043713 C14.0401316,4.16043713 5.13047256,12.5217459 4.26020016,23.1585801 C4.18904061,24.0220206 3.47172007,24.6875894 2.60553745,24.6875894 C1.62811679,24.6875894 0.869900091,23.8486784 0.950056865,22.8740372 C1.97491707,10.4081157 12.5179729,0.637174705 25.2996896,0.842405398 C38.2261793,1.05008889 48.7602379,11.6027051 48.9418172,24.5248766 C49.1217609,37.3464768 39.2543115,47.9048164 26.706521,48.8344869 Z" id="Shape"></path>
            <path d="M28.1875031,23.5908686 C28.8573443,23.5908686 29.3995155,24.1104572 29.3995155,24.7523976 C29.3995155,25.3935225 28.8573443,25.9139266 28.1875031,25.9139266 C27.5185131,25.9139266 26.9754906,25.3935225 26.9754906,24.7523976 C26.9754906,24.1104572 27.5185131,23.5908686 28.1875031,23.5908686 Z M28.0249367,27.4612726 C28.0249367,26.819332 27.4819144,26.2997436 26.8129242,26.2997436 C26.1430832,26.2997436 25.6009117,26.819332 25.6009117,27.4612726 C25.6009117,28.1023974 26.1430832,28.6228016 26.8129242,28.6228016 C27.4819144,28.6228016 28.0249367,28.1023974 28.0249367,27.4612726 Z M26.8733547,20.7596418 C26.2043648,20.7596418 25.6613422,21.2800458 25.6613422,21.9211708 C25.6613422,22.5631114 26.2043648,23.0826998 26.8733547,23.0826998 C27.5431959,23.0826998 28.0862183,22.5631114 28.0862183,21.9211708 C28.0862183,21.2792302 27.5431959,20.7596418 26.8733547,20.7596418 Z M24.9880964,0.733870185 C23.198165,0.706136944 21.4507903,0.860300712 19.7638461,1.1759689 C19.2344417,2.37094097 18.7935552,3.61159093 18.4513999,4.8897623 C20.3936841,4.33917792 22.4491685,4.04390169 24.5769997,4.04390169 C36.4817879,4.04390169 46.1642697,13.3467375 46.1353313,24.7548447 C46.1234153,29.573885 44.3879564,34.0046613 41.4898507,37.5137189 C42.6473907,37.656463 43.8270603,37.7306898 45.0246036,37.7306898 C45.2110014,37.7306898 45.3973995,37.7274271 45.5837975,37.7233487 C48.1797511,33.8847565 49.6624238,29.2900282 49.5900774,24.3584241 C49.4011261,11.4682253 38.4393923,0.940237295 24.9880964,0.733870185 Z M36.6775484,13.1069274 C31.5341555,8.17777017 23.9309902,7.04479003 17.6538889,9.7039084 C17.6147367,10.2781475 17.5926074,10.8572807 17.5926074,11.4413079 C17.5926074,11.7406625 17.6002675,12.0375704 17.6104811,12.3344779 C23.1683756,9.45675716 30.2540524,10.2642809 34.9488986,14.7643901 C40.4106149,19.9986119 40.6651035,28.333235 35.7115132,33.8562076 C35.2970116,34.3178827 35.3302059,35.0087641 35.7796038,35.4394434 C36.281772,35.9198791 37.1073702,35.8937773 37.5695352,35.3782673 C43.3461704,28.9352071 43.0491252,19.2131116 36.6775484,13.1069274 Z M23.7318251,22.6569145 C24.2356954,22.4660453 24.5778508,22.012527 24.5778508,21.4929386 C24.5778508,20.6136349 23.6526698,20.0190039 22.7972818,20.337935 C22.0423274,20.620976 21.346101,21.0899923 20.7852049,21.7449838 C20.5494411,22.0206837 20.3562342,22.3192229 20.1962213,22.6299971 C21.2763083,24.8274404 22.6636541,26.8593003 24.3063395,28.6717425 C24.4740125,28.4653751 24.5778508,28.2059888 24.5778508,27.9139753 C24.5778508,27.3943867 24.2365467,26.9408684 23.7318251,26.7499992 C23.3368997,26.6007297 22.9768708,26.342159 22.701955,25.974287 C22.1393566,25.223861 22.1393566,24.1830527 22.701955,23.4326267 C22.9768708,23.0647547 23.3368997,22.8069997 23.7318251,22.6569145 Z M33.2202487,16.4202216 C29.0386354,12.4127832 22.580243,11.9168495 17.834329,14.9316046 C18.0964777,16.8256148 18.5688563,18.6568174 19.2284837,20.401558 C19.3578558,20.2539199 19.494037,20.1095445 19.6387296,19.9700631 C22.3666088,17.3566228 26.7890925,17.3566228 29.5161206,19.9700631 C32.244,22.584319 32.244,26.8225947 29.5161206,29.4368506 C28.7169075,30.2027747 27.7721505,30.742755 26.7669632,31.0600549 C28.2241018,32.3064147 29.8208261,33.405952 31.5324531,34.3341963 C32.1256926,33.9402225 32.6925466,33.4932298 33.2210998,32.9866921 C37.9942501,28.412356 37.9942501,20.9953734 33.2202487,16.4202216 Z" id="Shape" opacity="0.229422433"></path>
        </g>
    </g>
</svg>