<?xml version="1.0" encoding="UTF-8"?>
<svg width="166px" height="166px" viewBox="0 0 166 166" version="1.1" xmlns="http://www.w3.org/2000/svg" xmlns:xlink="http://www.w3.org/1999/xlink">
    <!-- Generator: Sketch 55.2 (78181) - https://sketchapp.com -->
    <title>Group 32</title>
    <desc>Created with Sketch.</desc>
    <defs>
        <polygon id="path-1" points="0 109.316088 38.6071579 109.316088 38.6071579 0.000125471698 0 0.000125471698"></polygon>
    </defs>
    <g id="Page-1" stroke="none" stroke-width="1" fill="none" fill-rule="evenodd">
        <g id="Group-37">
            <g id="Group-32">
                <circle id="Mask" fill="#FFEBC2" cx="83" cy="83" r="83"></circle>
                <g id="Group-29" transform="translate(31.000000, 17.000000)">
                    <g id="Group-131" transform="translate(20.210526, 0.000000)">
                        <polygon id="Fill-1" fill="#E94E1B" points="35.2341474 0.000376415094 11.9301474 13.3656217 -0.000378947368 53.1050179 11.2745684 59.5718292 0.000884210526 53.1062726 -0.000378947368 73.8254142 -0.000378947368 109.06665 39.7752 131.877405 75.0109895 111.670188 75.0097263 22.8123858"></polygon>
                        <polygon id="Fill-2" fill="#F6F6F6" points="23.8467789 80.8051538 16.3246737 85.1188708 16.3234105 82.0347764 23.8467789 77.7210594"></polygon>
                        <polygon id="Fill-3" fill="#C6C6C6" points="15.6668211 84.7423302 16.3236632 85.1187453 16.3236632 82.0346509 15.6668211 81.6582358"></polygon>
                        <polygon id="Fill-4" fill="#DADADA" points="23.8461474 77.7210594 23.1893053 77.3446443 15.6672 81.6583613 16.3240421 82.0347764"></polygon>
                        <polygon id="Fill-5" fill="#00667D" points="51.7058526 36.1757491 39.7753263 75.9176547 39.7753263 131.876777 75.0111158 111.670815 75.0098526 22.8117585"></polygon>
                        <polygon id="Fill-6" fill="#0082A0" points="0 73.8247868 0 109.066023 39.7755789 131.876777 39.7768421 75.9176547 0.00126315789 53.1069"></polygon>
                        <polygon id="Fill-7" fill="#0097BA" points="35.2341474 0.000376415094 11.9301474 13.3656217 51.7057263 36.1763764 75.0097263 22.8123858"></polygon>
                        <polygon id="Fill-8" fill="#0089A8" points="0 53.1053943 39.7755789 75.9174038 51.7061053 36.1767528 11.9305263 13.3647434"></polygon>
                        <polygon id="Fill-9" fill="#00667D" points="39.6159158 35.2572962 35.0672842 50.4330981 34.7376 51.5347396 33.6740211 55.0692774 33.4264421 55.9036642 33.3367579 56.2010321 32.9616 57.4507302 32.9552842 57.4657868 32.8870737 57.6966547 32.8643368 57.7568811 32.7898105 58.0015509 32.6331789 58.5297868 32.5056 58.9551358 30.7738105 64.7381264 24.2710737 61.0091075 6.21296842 50.6489094 15.0626526 21.1756075 19.4369684 23.6837868 36.3342316 33.373966"></polygon>
                        <polygon id="Fill-10" fill="#DADADA" points="39.6159158 35.2572962 35.0672842 50.4330981 34.7376 51.5347396 33.6740211 55.0692774 33.4264421 55.9036642 33.3367579 56.2010321 32.9616 57.4507302 32.9552842 57.4657868 32.8870737 57.6966547 32.8643368 57.7568811 32.7898105 58.0015509 32.6331789 58.5297868 32.5056 58.9551358 30.7738105 64.7381264 24.2710737 61.0091075 6.21296842 50.6489094 16.0883368 44.9838623 19.9245474 42.781834 21.0487579 42.1419283 36.3342316 33.373966"></polygon>
                        <polygon id="Fill-11" fill="#0089A8" points="39.6159158 35.2572962 35.0672842 50.4330981 34.7376 51.5347396 33.6740211 55.0692774 16.0883368 44.9838623 16.0807579 44.9775887 19.4369684 23.6837868 22.6441263 25.5219472 23.5813895 26.0577113 36.3342316 33.373966"></polygon>
                        <polygon id="Fill-12" fill="#575756" points="39.6159158 35.2572962 35.0672842 50.4330981 34.7376 51.5347396 19.8866526 43.0202302 19.9245474 42.781834 22.6441263 25.5219472 23.5813895 26.0577113 36.3342316 33.373966"></polygon>
                        <polygon id="Fill-13" fill="#3ECFC8" points="39.6159158 35.2572962 35.0672842 50.4330981 34.7085474 50.2248151 29.2832842 47.113117 29.2757053 47.113117 27.9418105 46.3464849 25.5291789 44.9550038 21.0108632 42.3652679 21.0487579 42.1419283 21.8508632 37.0578151 22.2929684 34.2221547 22.5392842 32.6512491 22.5392842 32.6437208 23.5510737 26.2735226 23.5510737 26.2659943 23.5813895 26.0577113 36.3342316 33.373966"></polygon>
                        <g id="Group-130" transform="translate(11.368421, 26.480802)">
                            <polygon id="Fill-14" fill="#FFFFFF" opacity="0.484863281" points="23.0036211 23.117533 17.8625684 20.1689481 17.8549895 20.1689481 11.4709895 6.46367453 11.4709895 6.45740094 12.4297263 0.418448113"></polygon>
                            <polygon id="Fill-16" fill="#FFFFFF" opacity="0.484863281" points="16.5910737 19.4428434 14.3047579 18.1241358 10.8184421 10.6397491 11.2365474 7.95214528"></polygon>
                            <path d="M18.3426947,27.6469358 L17.1048,26.9380208 C16.9570105,26.8527 16.7170105,26.8527 16.5692211,26.9380208 L15.5157474,27.5415396 C15.3679579,27.6256057 15.3679579,27.7636245 15.5157474,27.8489453 L16.7536421,28.5591151 C16.9014316,28.6431811 17.1414316,28.6431811 17.2892211,28.5591151 L18.3426947,27.9543415 C18.4904842,27.8702755 18.4904842,27.7322566 18.3426947,27.6469358" id="Fill-18" fill="#878787"></path>
                            <path d="M16.3215158,26.4878283 L15.0848842,25.7789132 C14.9358316,25.6935925 14.6958316,25.6935925 14.5480421,25.7789132 L13.4945684,26.3824321 C13.3467789,26.4664981 13.3467789,26.604517 13.4945684,26.6898377 L14.7324632,27.4000075 C14.8802526,27.4840736 15.1202526,27.4840736 15.2693053,27.4000075 L16.3215158,26.795234 C16.4693053,26.7099132 16.4693053,26.5731491 16.3215158,26.4878283" id="Fill-20" fill="#878787"></path>
                            <path d="M14.3003368,25.3292226 L13.0637053,24.6190528 C12.9146526,24.5349868 12.6746526,24.5349868 12.5268632,24.6190528 L11.4746526,25.2238264 C11.3256,25.3078925 11.3256,25.4459113 11.4746526,25.5312321 L12.7112842,26.2401472 C12.8590737,26.3242132 13.0990737,26.3242132 13.2481263,26.2401472 L14.3003368,25.6366283 C14.4481263,25.5513075 14.4481263,25.4132887 14.3003368,25.3292226" id="Fill-22" fill="#878787"></path>
                            <path d="M16.5059368,28.7006472 L15.2693053,27.9904774 C15.1202526,27.9064113 14.8802526,27.9064113 14.7324632,27.9904774 L13.6789895,28.5952509 C13.5312,28.679317 13.5312,28.8173358 13.6789895,28.9014019 L14.9168842,29.6115717 C15.0646737,29.6956377 15.3046737,29.6956377 15.4537263,29.6115717 L16.5059368,29.0080528 C16.6537263,28.9227321 16.6537263,28.7847132 16.5059368,28.7006472" id="Fill-24" fill="#878787"></path>
                            <path d="M14.4853895,27.5415396 L13.2474947,26.8313698 C13.0997053,26.7460491 12.8597053,26.7460491 12.7119158,26.8313698 L11.6584421,27.4361434 C11.5106526,27.5202094 11.5106526,27.6582283 11.6584421,27.7422943 L12.8963368,28.4524642 C13.0441263,28.5377849 13.2841263,28.5377849 13.4319158,28.4524642 L14.4853895,27.8489453 C14.6331789,27.7636245 14.6331789,27.6256057 14.4853895,27.5415396" id="Fill-26" fill="#878787"></path>
                            <path d="M12.4642105,26.3824321 L11.2263158,25.6722623 C11.0785263,25.5881962 10.8385263,25.5881962 10.6907368,25.6722623 L9.63726316,26.2770358 C9.48947368,26.3611019 9.48947368,26.4991208 9.63726316,26.5844415 L10.8751579,27.2933566 C11.0229474,27.3786774 11.2629474,27.3786774 11.4107368,27.2933566 L12.4642105,26.6898377 C12.612,26.604517 12.612,26.4664981 12.4642105,26.3824321" id="Fill-28" fill="#878787"></path>
                            <path d="M14.6698105,29.7538566 L13.4319158,29.0436868 C13.2841263,28.9596208 13.0441263,28.9596208 12.8963368,29.0436868 L11.8428632,29.6484604 C11.6950737,29.7325264 11.6950737,29.8705453 11.8428632,29.955866 L13.0807579,30.6647811 C13.2285474,30.7501019 13.4685474,30.7501019 13.6163368,30.6647811 L14.6698105,30.0612623 C14.8176,29.9759415 14.8176,29.8379226 14.6698105,29.7538566" id="Fill-30" fill="#878787"></path>
                            <path d="M12.6486316,28.5947491 L11.4107368,27.8845792 C11.2629474,27.8005132 11.0229474,27.8005132 10.8751579,27.8845792 L9.82168421,28.4893528 C9.67389474,28.5734189 9.67389474,28.7114377 9.82168421,28.7967585 L11.0595789,29.5056736 C11.2073684,29.5909943 11.4473684,29.5909943 11.5964211,29.5056736 L12.6486316,28.9021547 C12.7964211,28.816834 12.7964211,28.6788151 12.6486316,28.5947491" id="Fill-32" fill="#878787"></path>
                            <path d="M10.6274526,27.435516 L9.38955789,26.7253462 C9.24176842,26.6412802 9.00176842,26.6412802 8.85397895,26.7253462 L7.80050526,27.3301198 C7.65271579,27.4141858 7.65271579,27.5522047 7.80050526,27.6375255 L9.0384,28.3464406 C9.18618947,28.4317613 9.42618947,28.4317613 9.57524211,28.3464406 L10.6274526,27.7429217 C10.7752421,27.6576009 10.7752421,27.5208368 10.6274526,27.435516" id="Fill-34" fill="#878787"></path>
                            <path d="M12.8330526,30.8069406 L11.5964211,30.0967708 C11.4473684,30.0127047 11.2073684,30.0127047 11.0595789,30.0967708 L10.0061053,30.7015443 C9.85831579,30.7856104 9.85831579,30.9236292 10.0061053,31.00895 L11.244,31.7178651 C11.3917895,31.8031858 11.6317895,31.8031858 11.7808421,31.7178651 L12.8330526,31.1143462 C12.9808421,31.0290255 12.9808421,30.8922613 12.8330526,30.8069406" id="Fill-36" fill="#878787"></path>
                            <path d="M7.55343158,27.7786811 L8.17237895,28.133766 L8.79132632,28.4888509 L10.8123789,29.6482094 C10.9601684,29.7322755 10.9601684,29.8702943 10.8123789,29.9556151 L9.75890526,30.559134 C9.61111579,30.6444547 9.37111579,30.6444547 9.22332632,30.559134 L7.20227368,29.3997755 L6.58332632,29.0446906 L5.96437895,28.6908604 C5.81658947,28.6055396 5.81658947,28.4675208 5.96437895,28.3822 L7.01785263,27.7786811 C7.16564211,27.6946151 7.40564211,27.6946151 7.55343158,27.7786811" id="Fill-38" fill="#878787"></path>
                            <path d="M7.68050526,21.5320726 L8.29945263,21.8871575 L8.9184,22.2422425 L10.9394526,23.4016009 C11.0872421,23.485667 11.0872421,23.6236858 10.9394526,23.7090066 L9.88597895,24.3125255 C9.73818947,24.3978462 9.49818947,24.3978462 9.3504,24.3125255 L7.32934737,23.153167 L6.7104,22.7980821 L6.09145263,22.4442519 C5.94366316,22.3589311 5.94366316,22.2209123 6.09145263,22.1355915 L7.14492632,21.5320726 C7.29271579,21.4480066 7.53271579,21.4480066 7.68050526,21.5320726" id="Fill-40" fill="#878787"></path>
                            <path d="M5.84374737,22.5851566 L6.46269474,22.9402415 L7.08164211,23.2953264 L9.10269474,24.4546849 C9.25048421,24.5400057 9.25048421,24.6767698 9.10269474,24.7620906 L8.04922105,25.3656094 C7.90143158,25.4509302 7.66143158,25.4509302 7.51364211,25.3656094 L5.49258947,24.2062509 L4.87364211,23.851166 L4.25469474,23.4973358 C4.10690526,23.4120151 4.10690526,23.2739962 4.25469474,23.1886755 L5.30816842,22.5851566 C5.45595789,22.5010906 5.69595789,22.5010906 5.84374737,22.5851566" id="Fill-42" fill="#878787"></path>
                            <path d="M4.00762105,23.6389934 L4.62656842,23.9940783 L5.24425263,24.3479085 L7.26656842,25.507267 C7.41435789,25.5925877 7.41435789,25.7306066 7.26656842,25.8146726 L6.21309474,26.4194462 C6.06530526,26.5035123 5.82530526,26.5035123 5.67751579,26.4194462 L3.65646316,25.2600877 L3.03751579,24.9050028 L2.41856842,24.5499179 C2.27077895,24.4658519 2.27077895,24.327833 2.41856842,24.2425123 L3.47204211,23.6389934 C3.61983158,23.5536726 3.85983158,23.5536726 4.00762105,23.6389934" id="Fill-44" fill="#878787"></path>
                            <path d="M2.17086316,24.6920774 L2.78981053,25.0471623 L3.40875789,25.4022472 L5.42981053,26.5603509 C5.5776,26.6456717 5.5776,26.7836906 5.42981053,26.8677566 L4.37633684,27.4725302 C4.22854737,27.5565962 3.98854737,27.5565962 3.84075789,27.4725302 L1.81970526,26.3131717 L1.20075789,25.9580868 L0.581810526,25.6030019 C0.434021053,25.5189358 0.434021053,25.380917 0.581810526,25.2955962 L1.63528421,24.6920774 C1.78307368,24.6067566 2.02307368,24.6067566 2.17086316,24.6920774" id="Fill-46" fill="#878787"></path>
                            <path d="M21.9687158,29.7201047 L21.5935579,30.9710575 L21.5859789,30.9848594 L21.5190316,31.2157274 L21.4962947,31.2759538 L20.0727158,30.4641519 L19.4588211,30.1078123 L18.8373474,29.7489632 C18.7691368,29.7125764 18.7312421,29.6674066 18.7312421,29.6159632 C18.7160842,29.5569915 18.7539789,29.4967651 18.8373474,29.444067 L18.8815579,29.4227368 L19.8933474,28.8418028 C20.0348211,28.7602462 20.2748211,28.7602462 20.4251368,28.8418028 L21.0466105,29.1993972 L21.6617684,29.5494632 L21.9687158,29.7201047 Z" id="Fill-48" fill="#878787"></path>
                            <path d="M21.4216421,31.5213764 L21.2637474,32.0496123 L21.1361684,32.4737066 L20.7913263,32.6744613 C20.6498526,32.7560179 20.4098526,32.7560179 20.2608,32.6744613 L20.1104842,32.5929047 L20.1104842,32.5853764 L18.2372211,31.5138481 L17.6144842,31.1637821 L17.0005895,30.8074425 C16.9336421,30.7698009 16.8957474,30.7171028 16.8957474,30.6731877 C16.8805895,30.6129613 16.9184842,30.5464613 17.0005895,30.5025462 L17.0460632,30.472433 L18.0502737,29.8914991 C18.1993263,29.8099425 18.4393263,29.8099425 18.5896421,29.8914991 L19.2111158,30.2490934 L19.8250105,30.6066877 L21.4216421,31.5213764 Z" id="Fill-50" fill="#878787"></path>
                            <path d="M16.752,30.9479708 L17.3709474,31.3030557 L17.9898947,31.6581406 L20.0109474,32.8174991 C20.1587368,32.9015651 20.1587368,33.039584 20.0109474,33.12365 L18.9574737,33.7284236 C18.8096842,33.8137443 18.5696842,33.8137443 18.4218947,33.7284236 L16.4008421,32.5690651 L15.7818947,32.2139802 L15.1629474,31.86015 C15.0151579,31.7748292 15.0151579,31.6368104 15.1629474,31.5514896 L16.2164211,30.9479708 C16.3642105,30.8639047 16.6042105,30.8639047 16.752,30.9479708" id="Fill-52" fill="#878787"></path>
                            <path d="M14.9158737,32.0010547 L15.5348211,32.3561396 L16.1525053,32.7112245 L18.1748211,33.870583 C18.3226105,33.9546491 18.3226105,34.0926679 18.1748211,34.176734 L17.1213474,34.7815075 C16.9735579,34.8668283 16.7335579,34.8668283 16.5857684,34.7815075 L14.5647158,33.6221491 L13.9457684,33.2670642 L13.3268211,32.913234 C13.1790316,32.8279132 13.1790316,32.6898943 13.3268211,32.6045736 L14.3802947,32.0010547 C14.5280842,31.9169887 14.7680842,31.9169887 14.9158737,32.0010547" id="Fill-54" fill="#878787"></path>
                            <path d="M18.3426947,27.2879613 L17.1048,26.5777915 C16.9570105,26.4937255 16.7170105,26.4937255 16.5692211,26.5777915 L15.5157474,27.1825651 C15.3679579,27.2666311 15.3679579,27.40465 15.5157474,27.4899708 L16.7536421,28.1988858 C16.9014316,28.2842066 17.1414316,28.2842066 17.2892211,28.1988858 L18.3426947,27.595367 C18.4904842,27.5100462 18.4904842,27.3720274 18.3426947,27.2879613" id="Fill-56" fill="#FFFFFF"></path>
                            <path d="M16.3215158,26.1287283 L15.0848842,25.4185585 C14.9358316,25.3344925 14.6958316,25.3344925 14.5480421,25.4185585 L13.4945684,26.0233321 C13.3467789,26.1073981 13.3467789,26.245417 13.4945684,26.3307377 L14.7324632,27.0396528 C14.8802526,27.1249736 15.1202526,27.1249736 15.2693053,27.0396528 L16.3215158,26.436134 C16.4693053,26.3508132 16.4693053,26.2127943 16.3215158,26.1287283" id="Fill-58" fill="#FFFFFF"></path>
                            <path d="M14.3003368,24.9696208 L13.0637053,24.2594509 C12.9146526,24.1753849 12.6746526,24.1753849 12.5268632,24.2594509 L11.4746526,24.8642245 C11.3256,24.9482906 11.3256,25.0863094 11.4746526,25.1716302 L12.7112842,25.8805453 C12.8590737,25.965866 13.0990737,25.965866 13.2481263,25.8805453 L14.3003368,25.2770264 C14.4481263,25.1917057 14.4481263,25.0536868 14.3003368,24.9696208" id="Fill-60" fill="#FFFFFF"></path>
                            <path d="M16.5059368,28.3410453 L15.2693053,27.6308755 C15.1202526,27.5468094 14.8802526,27.5468094 14.7324632,27.6308755 L13.6789895,28.2356491 C13.5312,28.3197151 13.5312,28.457734 13.6789895,28.5430547 L14.9168842,29.2519698 C15.0646737,29.3372906 15.3046737,29.3372906 15.4537263,29.2519698 L16.5059368,28.6484509 C16.6537263,28.5631302 16.6537263,28.4251113 16.5059368,28.3410453" id="Fill-62" fill="#FFFFFF"></path>
                            <path d="M14.4853895,27.1819377 L13.2474947,26.4717679 C13.0997053,26.3877019 12.8597053,26.3877019 12.7119158,26.4717679 L11.6584421,27.0765415 C11.5106526,27.1606075 11.5106526,27.2986264 11.6584421,27.3839472 L12.8963368,28.0928623 C13.0441263,28.178183 13.2841263,28.178183 13.4319158,28.0928623 L14.4853895,27.4893434 C14.6331789,27.4040226 14.6331789,27.2660038 14.4853895,27.1819377" id="Fill-64" fill="#FFFFFF"></path>
                            <path d="M12.4642105,26.0228302 L11.2263158,25.3139151 C11.0785263,25.2285943 10.8385263,25.2285943 10.6907368,25.3139151 L9.63726316,25.917434 C9.48947368,26.0015 9.48947368,26.1395189 9.63726316,26.2248396 L10.8751579,26.9350094 C11.0229474,27.0190755 11.2629474,27.0190755 11.4107368,26.9350094 L12.4642105,26.3302358 C12.612,26.2449151 12.612,26.1081509 12.4642105,26.0228302" id="Fill-66" fill="#FFFFFF"></path>
                            <path d="M14.6698105,29.3942547 L13.4319158,28.6853396 C13.2841263,28.6000189 13.0441263,28.6000189 12.8963368,28.6853396 L11.8428632,29.2888585 C11.6950737,29.3729245 11.6950737,29.5109434 11.8428632,29.5962642 L13.0807579,30.306434 C13.2285474,30.3905 13.4685474,30.3905 13.6163368,30.306434 L14.6698105,29.7016604 C14.8176,29.6163396 14.8176,29.4795755 14.6698105,29.3942547" id="Fill-68" fill="#FFFFFF"></path>
                            <path d="M12.6486316,28.2350217 L11.4107368,27.5261066 C11.2629474,27.4407858 11.0229474,27.4407858 10.8751579,27.5261066 L9.82168421,28.1296255 C9.67389474,28.2136915 9.67389474,28.3517104 9.82168421,28.4370311 L11.0595789,29.1472009 C11.2073684,29.231267 11.4473684,29.231267 11.5964211,29.1472009 L12.6486316,28.5424274 C12.7964211,28.4571066 12.7964211,28.3203425 12.6486316,28.2350217" id="Fill-70" fill="#FFFFFF"></path>
                            <path d="M10.6274526,27.0759142 L9.38955789,26.3669991 C9.24176842,26.2816783 9.00176842,26.2816783 8.85397895,26.3669991 L7.80050526,26.9705179 C7.65271579,27.054584 7.65271579,27.1926028 7.80050526,27.2779236 L9.0384,27.9880934 C9.18618947,28.0721594 9.42618947,28.0721594 9.57524211,27.9880934 L10.6274526,27.3833198 C10.7752421,27.2979991 10.7752421,27.1612349 10.6274526,27.0759142" id="Fill-72" fill="#FFFFFF"></path>
                            <path d="M12.8330526,30.4473387 L11.5964211,29.7384236 C11.4473684,29.6531028 11.2073684,29.6531028 11.0595789,29.7384236 L10.0061053,30.3419425 C9.85831579,30.4260085 9.85831579,30.5640274 10.0061053,30.6493481 L11.244,31.3595179 C11.3917895,31.443584 11.6317895,31.443584 11.7808421,31.3595179 L12.8330526,30.7547443 C12.9808421,30.6694236 12.9808421,30.5326594 12.8330526,30.4473387" id="Fill-74" fill="#FFFFFF"></path>
                            <path d="M7.55343158,27.4195811 L8.17237895,27.774666 L8.79132632,28.1284962 L10.8123789,29.2878547 C10.9601684,29.3731755 10.9601684,29.5111943 10.8123789,29.5952604 L9.75890526,30.200034 C9.61111579,30.2841 9.37111579,30.2841 9.22332632,30.200034 L7.20227368,29.0406755 L6.58332632,28.6855906 L5.96437895,28.3305057 C5.81658947,28.2464396 5.81658947,28.1084208 5.96437895,28.0231 L7.01785263,27.4195811 C7.16564211,27.3342604 7.40564211,27.3342604 7.55343158,27.4195811" id="Fill-76" fill="#FFFFFF"></path>
                            <path d="M7.68050526,21.1729726 L8.29945263,21.5280575 L8.9184,21.8818877 L10.9394526,23.0412462 C11.0872421,23.126567 11.0872421,23.2645858 10.9394526,23.3486519 L9.88597895,23.9534255 C9.73818947,24.0374915 9.49818947,24.0374915 9.3504,23.9534255 L7.32934737,22.794067 L6.7104,22.4389821 L6.09145263,22.0838972 C5.94366316,21.9998311 5.94366316,21.8618123 6.09145263,21.7764915 L7.14492632,21.1729726 C7.29271579,21.0876519 7.53271579,21.0876519 7.68050526,21.1729726" id="Fill-78" fill="#FFFFFF"></path>
                            <path d="M5.84374737,22.2261821 L6.46269474,22.581267 L7.08164211,22.9350972 L9.10269474,24.0957104 C9.25048421,24.1797764 9.25048421,24.3177953 9.10269474,24.4018613 L8.04922105,25.0066349 C7.90143158,25.0907009 7.66143158,25.0907009 7.51364211,25.0066349 L5.49258947,23.8472764 L4.87364211,23.4921915 L4.25469474,23.1371066 C4.10690526,23.0530406 4.10690526,22.9150217 4.25469474,22.8297009 L5.30816842,22.2261821 C5.45595789,22.142116 5.69595789,22.142116 5.84374737,22.2261821" id="Fill-80" fill="#FFFFFF"></path>
                            <path d="M4.00762105,23.279266 L4.62656842,23.6343509 L5.24425263,23.9881811 L7.26656842,25.1487943 C7.41435789,25.2328604 7.41435789,25.3708792 7.26656842,25.4549453 L6.21309474,26.0597189 C6.06530526,26.1450396 5.82530526,26.1450396 5.67751579,26.0597189 L3.65646316,24.9003604 L3.03751579,24.5452755 L2.41856842,24.1901906 C2.27077895,24.1061245 2.27077895,23.9681057 2.41856842,23.8827849 L3.47204211,23.279266 C3.61983158,23.1952 3.85983158,23.1952 4.00762105,23.279266" id="Fill-82" fill="#FFFFFF"></path>
                            <path d="M2.17086316,24.3324755 L2.78981053,24.6875604 L3.40875789,25.0426453 L5.42981053,26.2020038 C5.5776,26.2860698 5.5776,26.4240887 5.42981053,26.5081547 L4.37633684,27.1129283 C4.22854737,27.1982491 3.98854737,27.1982491 3.84075789,27.1129283 L1.81970526,25.9535698 L1.20075789,25.5984849 L0.581810526,25.2446547 C0.434021053,25.159334 0.434021053,25.0213151 0.581810526,24.9359943 L1.63528421,24.3324755 C1.78307368,24.2484094 2.02307368,24.2484094 2.17086316,24.3324755" id="Fill-84" fill="#FFFFFF"></path>
                            <path d="M22.0581474,29.4223604 L21.9684632,29.7197283 L21.5933053,30.9706811 L20.0724632,30.0999075 L19.4585684,29.7498415 L18.8813053,29.4223604 L18.8370947,29.3922472 C18.6867789,29.3106906 18.6867789,29.1689075 18.8370947,29.0873509 L19.8930947,28.4838321 C20.0345684,28.3960019 20.2745684,28.3960019 20.4248842,28.4838321 L21.0463579,28.8338981 L21.6615158,29.1914925 L22.0581474,29.4223604 Z" id="Fill-86" fill="#FFFFFF"></path>
                            <path d="M21.5190316,31.2162292 L21.4962947,31.2752009 L21.4217684,31.5211255 L21.2638737,32.0493613 L20.7914526,32.3178708 C20.6499789,32.3994274 20.4099789,32.3994274 20.2596632,32.3178708 L18.2373474,31.1572575 L17.6146105,30.7984085 L17.0449263,30.4721821 L17.0007158,30.4495972 C16.8504,30.3605123 16.8504,30.2262575 17.0007158,30.1371726 L18.0491368,29.5336538 C18.1994526,29.4520972 18.4394526,29.4520972 18.5897684,29.5336538 L18.7312421,29.6164651 L19.2112421,29.8912481 L19.8251368,30.2488425 L21.5190316,31.2162292 Z" id="Fill-88" fill="#FFFFFF"></path>
                            <path d="M16.752,30.5882434 L17.3709474,30.9433283 L17.9898947,31.2984132 L20.0109474,32.4577717 C20.1587368,32.5430925 20.1587368,32.6798566 20.0109474,32.7651774 L18.9574737,33.3686962 C18.8096842,33.454017 18.5696842,33.454017 18.4218947,33.3686962 L16.4008421,32.2093377 L15.7818947,31.8542528 L15.1629474,31.5004226 C15.0151579,31.4151019 15.0151579,31.277083 15.1629474,31.1917623 L16.2164211,30.5882434 C16.3642105,30.5041774 16.6042105,30.5041774 16.752,30.5882434" id="Fill-90" fill="#FFFFFF"></path>
                            <path d="M14.9158737,31.6414528 L15.5348211,31.9965377 L16.1525053,32.3516226 L18.1748211,33.5109811 C18.3226105,33.5963019 18.3226105,33.733066 18.1748211,33.8183868 L17.1213474,34.4219057 C16.9735579,34.5072264 16.7335579,34.5072264 16.5857684,34.4219057 L14.5647158,33.2625472 L13.9457684,32.9074623 L13.3268211,32.5536321 C13.1790316,32.4683113 13.1790316,32.3302925 13.3268211,32.2462264 L14.3802947,31.6414528 C14.5280842,31.5573868 14.7680842,31.5573868 14.9158737,31.6414528" id="Fill-92" fill="#FFFFFF"></path>
                            <polygon id="Fill-94" fill="#878787" points="28.7205474 21.7023377 29.0590737 21.7023377 29.0590737 22.042366 28.7205474 21.9921774"></polygon>
                            <polygon id="Fill-96" fill="#878787" points="30.4746947 31.0060642 30.8132211 31.0060642 30.7652211 30.6246302 30.4746947 30.6748189"></polygon>
                            <path d="M29.0592,21.7023377 C28.8924632,21.7023377 28.7345684,21.807734 28.6827789,21.9808849 L26.7577263,28.3937434 C26.7046737,28.5668943 26.7792,28.7525925 26.9370947,28.8429321 L30.6179368,30.9546208 C30.6798316,30.9897528 30.7467789,31.0060642 30.8137263,31.0060642 C30.9804632,31.0060642 31.1383579,30.9006679 31.1901474,30.727517 L33.1152,24.3146585 C33.1669895,24.1415075 33.0924632,23.9558094 32.9345684,23.8654698 L29.2549895,21.7550358 C29.1918316,21.7186491 29.1248842,21.7023377 29.0592,21.7023377" id="Fill-98" fill="#878787"></path>
                            <path d="M28.7205474,21.7023377 C28.5538105,21.7023377 28.3959158,21.807734 28.3441263,21.9808849 L26.4190737,28.3937434 C26.3672842,28.5668943 26.4405474,28.7525925 26.5984421,28.8429321 L30.2792842,30.9546208 C30.3411789,30.9897528 30.4081263,31.0060642 30.4750737,31.0060642 C30.6418105,31.0060642 30.7997053,30.9006679 30.8514947,30.727517 L32.7765474,24.3146585 C32.8283368,24.1415075 32.7538105,23.9558094 32.5959158,23.8654698 L28.9163368,21.7550358 C28.8531789,21.7186491 28.7862316,21.7023377 28.7205474,21.7023377" id="Fill-100" fill="#EDEDED"></path>
                            <polygon id="Fill-102" fill="#575756" points="31.7453053 25.9076472 31.6316211 26.2903358 30.3937263 25.580166 29.1899368 24.8900717 28.1263579 24.2802792 28.2413053 23.8975906 29.2960421 24.5023642 30.4606737 25.1711283"></polygon>
                            <path d="M30.4605474,25.1706264 C30.4618105,25.2810415 30.4491789,25.3914566 30.4213895,25.4968528 C30.4125474,25.5257113 30.4049684,25.5533151 30.3936,25.5796642 L29.1898105,24.8895698 C29.1936,24.8230698 29.2037053,24.7565698 29.2213895,24.6925792 C29.2403368,24.6223151 29.2643368,24.5583245 29.2959158,24.5018623 C29.4576,24.2019849 29.7607579,24.1028623 30.0399158,24.2898151 C30.2925474,24.4592019 30.4529684,24.8142868 30.4605474,25.1706264" id="Fill-104" fill="#575756"></path>
                            <path d="M29.8165895,27.9054075 C29.6675368,28.4123132 29.2330105,28.6180868 28.8426947,28.364634 C28.4536421,28.1111811 28.2591158,27.4938604 28.4069053,26.9882094 C28.5546947,26.4800491 28.9917474,26.2755302 29.3808,26.528983 C29.7698526,26.7811811 29.9643789,27.3985019 29.8165895,27.9054075" id="Fill-106" fill="#3AAA35"></path>
                            <polygon id="Fill-108" fill="#878787" points="22.4374737 33.4321849 22.9705263 33.4321849 22.9705263 33.9679491 22.4374737 33.8889019"></polygon>
                            <polygon id="Fill-110" fill="#878787" points="28.6601684 42.0547255 29.1919579 42.0547255 29.1174316 41.453716 28.6601684 41.5340179"></polygon>
                            <path d="M22.9704,33.4321849 C22.7089263,33.4321849 22.4588211,33.5990623 22.3779789,33.8713358 L21.3965053,37.1235623 C21.3156632,37.3958358 21.4331368,37.6881849 21.6807158,37.8299679 L28.8845053,41.9730434 C28.9830316,42.0295057 29.0891368,42.0546 29.1927158,42.0546 C29.4541895,42.0546 29.7042947,41.8889774 29.7851368,41.6167038 L30.7653474,38.3644774 C30.8474526,38.0909491 30.7312421,37.7986 30.4824,37.656817 L23.2786105,33.5149962 C23.1800842,33.458534 23.0739789,33.4321849 22.9704,33.4321849" id="Fill-112" fill="#878787"></path>
                            <path d="M22.4374737,33.4321849 C22.1747368,33.4321849 21.9258947,33.5990623 21.8450526,33.8713358 L20.8635789,37.1235623 C20.7827368,37.3958358 20.9002105,37.6881849 21.1477895,37.8299679 L28.3528421,41.9730434 C28.4501053,42.0295057 28.5562105,42.0546 28.6597895,42.0546 C28.9212632,42.0546 29.1713684,41.8889774 29.2522105,41.6167038 L30.2324211,38.3644774 C30.3145263,38.0909491 30.1983158,37.7986 29.9494737,37.656817 L22.7456842,33.5149962 C22.6471579,33.458534 22.5410526,33.4321849 22.4374737,33.4321849" id="Fill-114" fill="#EDEDED"></path>
                            <polygon id="Fill-116" fill="#575756" points="28.8358737 40.2210821 28.7474526 40.5209594 26.7996632 39.4042613 24.9024 38.3176764 21.8177684 36.5384877 21.9087158 36.2361009"></polygon>
                            <path d="M25.8087158,38.1717528 C25.8099789,38.2884415 25.7973474,38.4051302 25.7670316,38.5155453 C25.7581895,38.5481679 25.7506105,38.5757717 25.7379789,38.6046302 L24.4634526,37.8743849 C24.4672421,37.802866 24.4786105,37.7326019 24.4975579,37.6648472 C24.5177684,37.5908189 24.5430316,37.5243189 24.5758737,37.4640925 C24.7464,37.1453943 25.0685053,37.0412528 25.3628211,37.2394981 C25.6306105,37.4189226 25.7998737,37.794083 25.8087158,38.1717528" id="Fill-118" fill="#575756"></path>
                        </g>
                    </g>
                    <g id="Group-52" transform="translate(0.000000, 22.584906)">
                        <path d="M14.2543579,101.836469 C18.3495158,100.624412 15.2610947,99.9882708 14.9629895,99.8904028 C14.8278316,99.8464877 14.1330947,99.8690726 13.9398316,99.83645 C13.6455158,99.787516 12.6476211,98.4123462 12.5541474,98.0522425 C12.4632,97.6933934 12.6438316,98.0785915 12.4265684,97.7762047 C12.1019368,97.3219972 12.2130947,97.4575066 11.6522526,97.4286481 C11.2796211,97.4110821 10.9044632,97.4186104 10.5330947,97.4549972 C10.4181474,97.4650349 10.3019368,97.4788368 10.1970947,97.5240066 C9.97225263,97.6218745 9.82951579,97.8439594 9.74614737,98.0723179 C9.59204211,98.4964123 9.60214737,98.9706953 9.72088421,99.4060821 C9.83962105,99.8427236 10.0619368,100.244233 10.3234105,100.615629 C10.5040421,100.872846 10.7048842,101.118771 10.9234105,101.347129 C11.1608842,101.598073 11.4324632,101.836469 11.7646737,101.931827 C12.0779368,102.022167 12.4126737,101.978252 12.7385684,101.973233 C13.2501474,101.96445 13.7642526,101.982016 14.2543579,101.836469" id="Fill-1" fill="#FFCEA1"></path>
                        <path d="M7.12749474,72.4149868 L7.51023158,76.7011 L8.79738947,91.0952132 L9.48454737,98.7690623 L12.4959158,98.0049396 L13.1578105,91.6184302 L14.1936,81.5894774 L14.7847579,75.8629491 L15.0702316,73.0988075 L15.1422316,72.4149868 C15.1422316,70.2367981 13.3649684,68.472666 11.1759158,68.472666 L11.0938105,68.472666 C8.90349474,68.472666 7.12749474,70.2367981 7.12749474,72.4149868" id="Fill-3" fill="#FFCEA1"></path>
                        <polygon id="Fill-5" fill="#3C3C3B" points="10.3649684 102.318657 13.1034947 102.318657 13.1034947 104.416543 10.5456 103.3676"></polygon>
                        <path d="M8.69772632,105.332361 C9.45814737,105.681173 10.0859368,105.791588 10.8375158,105.42521 C10.8274105,104.673635 10.8084632,103.351163 10.9208842,102.608371 C11.6560421,102.811635 12.3381474,104.225701 13.0796211,104.40638 C13.3133053,104.464097 13.5608842,104.431475 13.7983579,104.388814 C15.6400421,104.051295 16.8577263,103.298465 18.2269895,101.796569 C18.4985684,101.497946 18.7486737,101.179248 18.5933053,101.055031 C17.5537263,100.225663 15.4581474,99.8392104 13.9398316,99.8367009 C14.3781474,99.8392104 15.7575158,99.99605 16.1124632,100.692418 C15.3495158,101.011116 13.3650947,101.225673 12.7183579,100.709984 C12.3924632,100.451512 12.2345684,100.043729 12.0362526,99.6786066 C11.6522526,98.9747104 11.0686737,98.3762104 10.3650947,97.9859934 C10.1478316,97.8667953 9.90909474,97.7639085 9.66277895,97.7777104 C9.04762105,97.810333 8.71162105,98.4853708 8.51204211,99.0637953 C8.27204211,99.7551443 8.04088421,100.491663 8.20130526,101.205597 C8.26698947,101.492927 8.39330526,101.763946 8.48930526,102.042493 C8.85056842,103.090182 8.77604211,104.229465 8.69772632,105.332361" id="Fill-7" fill="#E94E1B"></path>
                        <polygon id="Fill-9" fill="#3C3C3B" points="16.9940211 106.070009 19.5696 106.070009 19.5696 108.043679 17.1645474 107.057472"></polygon>
                        <path d="M20.8285895,105.500242 C24.9237474,104.288186 21.8353263,103.652044 21.5372211,103.554176 C21.4020632,103.510261 20.7073263,103.532846 20.5140632,103.500224 C20.2197474,103.45129 19.2218526,102.07612 19.1283789,101.716016 C19.0374316,101.357167 19.2180632,101.742365 19.0008,101.439978 C18.6761684,100.985771 18.7873263,101.12128 18.2264842,101.092422 C17.8538526,101.073601 17.4786947,101.082384 17.1073263,101.117516 C16.9923789,101.128808 16.8761684,101.14261 16.7713263,101.18778 C16.5464842,101.285648 16.4037474,101.507733 16.3203789,101.736092 C16.1662737,102.160186 16.1763789,102.634469 16.2951158,103.069856 C16.4138526,103.506497 16.6361684,103.908007 16.8976421,104.278148 C17.0782737,104.53662 17.2791158,104.782544 17.4976421,105.010903 C17.7351158,105.261846 18.0066947,105.500242 18.3389053,105.595601 C18.6521684,105.685941 18.9869053,105.642025 19.3128,105.637007 C19.8243789,105.628224 20.3384842,105.64579 20.8285895,105.500242" id="Fill-11" fill="#FFCEA1"></path>
                        <path d="M11.9013474,79.3875745 L12.3030316,82.7263764 L12.4672421,84.1028009 L12.7388211,86.3612915 L12.8689263,87.4616783 L12.9838737,85.9020651 C12.9838737,85.7703198 12.9775579,85.6435934 12.9624,85.516867 C12.9712421,85.4516217 12.9800842,85.3851217 12.9838737,85.3186217 L13.3868211,80.9233481 L13.3868211,80.9082915 C13.4007158,80.7363953 13.4158737,80.5632443 13.4348211,80.3913481 C13.4373474,80.3725274 13.4386105,80.3511972 13.4411368,80.3286123 C13.5042947,79.8191972 13.6015579,79.3122915 13.7531368,78.8129142 C13.6925053,78.8405179 13.6318737,78.8681217 13.5712421,78.8944708 C13.0381895,79.1253387 12.4760842,79.2909613 11.9013474,79.3875745" id="Fill-13" fill="#1D1D1B"></path>
                        <path d="M12.8838316,69.9637717 L13.0834105,71.6275264 L13.4850947,74.9663283 L13.6493053,76.3427528 L13.9196211,78.5999887 L14.0497263,79.7016302 L14.0497263,79.7079038 L14.2758316,81.5724132 C14.2796211,81.6226019 14.2872,81.6740453 14.2935158,81.724234 L14.2935158,81.7305075 C14.5385684,83.4105736 15.9912,84.6728189 17.7154105,84.6728189 L17.7785684,84.6728189 C19.5192,84.6728189 20.9756211,83.3942623 21.2029895,81.7003943 L21.2029895,81.6978849 C21.2118316,81.6313849 21.2206737,81.5648849 21.2244632,81.4958755 L21.9533053,73.5685736 L22.2855158,69.9424415 L14.8606737,69.9600075 L12.8838316,69.9637717 Z" id="Fill-15" fill="#FFCEA1"></path>
                        <path d="M13.6998316,76.0773802 L14.1937263,81.5893519 L15.0893053,91.5894462 L16.0594105,102.43271 L19.0707789,101.668588 L20.2025684,90.7111443 L21.5958316,77.244267 L21.7170947,76.0773802 C21.7170947,73.9017009 19.9398316,72.1350594 17.7482526,72.1350594 L17.6686737,72.1350594 C16.6745684,72.1350594 15.7663579,72.4976726 15.0703579,73.0986821 C14.2872,73.7724651 13.7730947,74.7461255 13.7074105,75.8402387 C13.7023579,75.9192858 13.6998316,75.998333 13.6998316,76.0773802" id="Fill-17" fill="#FFCEA1"></path>
                        <path d="M8.79764211,91.0952132 C10.1997474,91.4076377 11.6751158,91.5820434 13.1580632,91.6184302 L14.1938526,81.5894774 L15.0894316,91.5895717 C16.8540632,91.4929585 18.5959579,91.1993547 20.2026947,90.7112698 L21.5959579,77.2443925 C19.5408,76.4238075 17.1812211,75.9633264 14.7850105,75.8629491 C14.4262737,75.8478925 14.0662737,75.8403642 13.7075368,75.8403642 C11.5791158,75.8441283 9.45195789,76.1314585 7.51048421,76.7011 L8.79764211,91.0952132 Z" id="Fill-19" fill-opacity="0.28" fill="#1D1D1B"></path>
                        <path d="M5.94505263,22.3672123 C6.24189474,20.8402217 7.72863158,19.8402123 9.26589474,20.1363255 L9.32273684,20.1463632 C10.8612632,20.4412217 11.8654737,21.9192783 11.5698947,23.4462689 L10.2195789,29.9243726 C8.29326316,29.8591274 6.37452632,29.1991462 4.74252632,28.1414198 L5.94505263,22.3672123 Z" id="Fill-21" fill="#E94E1B"></path>
                        <path d="M3.396,34.6062236 L4.74252632,28.140667 C6.37452632,29.1983934 8.29326316,29.8596292 10.2195789,29.9248745 L9.02084211,35.6840255 C8.724,37.2122708 7.23726316,38.2110255 5.69873684,37.916167 L5.64189474,37.9048745 C4.10463158,37.6112708 3.09915789,36.1332142 3.396,34.6062236" id="Fill-23" fill="#FFCEA1"></path>
                        <path d="M12.3922105,51.8456585 L14.8869474,50.4453943 L8.78968421,34.5619321 C8.18589474,33.1265358 6.52484211,32.4502434 5.07978947,33.0499981 L5.02673684,33.072583 C3.58168421,33.6723377 2.90084211,35.3222906 3.50463158,36.7576868 L12.3922105,51.8456585 Z" id="Fill-25" fill="#FFCEA1"></path>
                        <path d="M22.8053053,33.4318085 C22.5703579,34.0252896 22.3240421,34.5271764 22.1017263,34.8646953 C22.0549895,34.9462519 20.7994105,41.0617425 20.6124632,43.9036764 C20.5884632,44.2411953 20.5063579,46.8861387 20.4836211,47.23495 C20.4596211,47.4796198 18.3842526,47.9689594 15.9337263,48.3767425 C12.3678316,48.9827708 8.01751579,49.4131387 8.04151579,48.6452519 C8.09962105,47.2123651 2.89288421,21.5847708 7.57162105,19.9536387 C10.0107789,19.1154877 15.8857263,14.6185821 18.3842526,19.3476104 C19.7787789,21.9925538 23.4975158,24.2987236 24.1189895,26.3489311 C24.5408842,27.759233 23.6970947,31.2536198 22.8053053,33.4318085" id="Fill-27" fill="#E94E1B"></path>
                        <path d="M32.7606316,29.51935 C33.3303158,29.0400481 33.8166316,28.472916 34.3004211,27.9070387 C34.6086316,27.92335 34.8233684,28.2596142 34.8006316,28.5645104 C34.7791579,28.8694066 34.5833684,29.1354066 34.3661053,29.3524726 C34.1475789,29.568284 33.8974737,29.7564915 33.7168421,30.0049255 C33.3164211,30.5544915 33.324,31.2947745 33.0663158,31.9246425 C32.82,32.5218877 32.3475789,32.9924066 31.8865263,33.4466142 C31.6073684,33.7201425 31.3244211,33.9974349 30.9821053,34.1856425 C30.6385263,34.37385 30.4515789,33.8832557 30.0802105,33.757784 C30.6056842,32.6875104 30.9012632,32.1981708 31.4254737,31.1291519 C31.5770526,30.8192368 31.7324211,30.5055575 31.9547368,30.2408123 C32.1871579,29.9647745 32.484,29.7514726 32.7606316,29.51935" id="Fill-29" fill="#FFCEA1"></path>
                        <path d="M38.4140211,29.1057953 C38.4190737,29.2137009 38.3799158,29.3228613 38.3950737,29.4295123 C38.4190737,29.6101915 38.5870737,29.7482104 38.6047579,29.9276349 C38.6274947,30.1447009 38.4380211,30.3140877 38.3154947,30.494767 C38.1399158,30.7570028 38.0944421,31.0882481 37.9201263,31.3517387 C37.6851789,31.7068236 37.2594947,31.8787198 36.8691789,32.0543802 C35.3685474,32.7231443 34.0270737,33.7093519 32.8321263,34.8310689 C32.6009684,35.0481349 32.3521263,35.2802575 32.0376,35.3216632 C31.8986526,35.3379745 31.7584421,35.3166443 31.6207579,35.2940594 C31.3176,35.2451255 31.0093895,35.1949368 30.7390737,35.0518991 C30.4674947,34.9088613 30.2363368,34.6554085 30.2047579,34.3530217 C30.1554947,33.8724651 30.5849684,33.4973047 30.9159158,33.1447292 C31.5373895,32.4860028 31.5942316,31.5073236 32.2738105,30.9088236 C32.4797053,30.7268896 32.8283368,30.3981538 33.0557053,30.2413142 C33.9247579,29.6440689 36.5205474,28.6064179 37.1622316,28.6453142 C37.4982316,28.6653896 38.3976,28.7707858 38.4140211,29.1057953" id="Fill-31" fill="#FFCEA1"></path>
                        <path d="M12.7802526,9.21476698 C12.8408842,10.3477764 12.9053053,11.4883142 13.1629895,12.5924651 C13.4194105,13.6978708 13.8829895,14.7781821 14.6573053,15.6125689 C15.5301474,16.5498425 16.7819368,17.1119557 18.0615158,17.1834745 C18.4632,17.2085689 18.8674105,17.1834745 19.2627789,17.1044274 C19.6568842,17.0266349 20.0484632,16.8986538 20.3730947,16.662767 C20.8808842,16.2951349 21.1688842,15.7179651 21.3747789,15.1182104 L21.3747789,15.1144462 C21.4202526,14.9801915 21.4632,14.8471915 21.5010947,14.7129368 C22.4029895,11.6363708 22.5432,8.38038019 22.3385684,5.1821066 C22.3082526,4.7090783 22.2703579,4.22726698 22.1200421,3.77556887 C21.6779368,2.43929528 20.2985684,1.55722925 18.8914105,1.3840783 C17.4855158,1.21092736 16.0682526,1.63376698 14.7861474,2.23477642 C14.4349895,2.40039906 14.0825684,2.58233302 13.8021474,2.85084245 C13.5356211,3.10680472 13.3423579,3.4305217 13.0973053,3.70655943 C12.7941474,4.04658774 12.6880421,7.51211604 12.7802526,9.21476698" id="Fill-33" fill="#FFCEA1"></path>
                        <path d="M20.3542737,17.3851075 L20.3542737,17.3374283 L20.3542737,17.3851075 Z" id="Fill-35" fill="#FFCEA1"></path>
                        <path d="M17.8198737,14.5129349 C17.8186105,15.1955009 17.8350316,15.8793217 17.8527158,16.5631425 C17.8565053,16.7099443 17.8602947,16.8630198 17.9221895,16.9960198 C17.9537684,17.0687934 18.0042947,17.1315292 18.0611368,17.1829726 C18.4628211,17.208067 18.8670316,17.1829726 19.2636632,17.1039255 C19.6565053,17.026133 20.0493474,16.8981519 20.3727158,16.6622651 C20.8805053,16.294633 21.1685053,15.7174632 21.3744,15.1177085 L21.3744,15.1139443 C20.0506105,16.3837179 19.2017684,15.3008972 18.8922947,11.6923311 C18.6649263,13.3836896 17.8211368,12.8065198 17.8198737,14.5129349" id="Fill-37" fill="#1D1D1B"></path>
                        <mask id="mask-2" fill="white">
                            <use xlink:href="#path-1"></use>
                        </mask>
                        <g id="Clip-40"></g>
                        <polygon id="Fill-39" fill="#FFCEA1" mask="url(#mask-2)" points="11.8105263 19.3440972 18.3852632 19.3440972 18.3852632 10.8935783 11.8105263 10.8935783"></polygon>
                        <path d="M12.7580211,17.7746972 C11.4708632,18.5124708 11.4708632,19.7094708 12.7580211,20.4472443 C14.0451789,21.1862726 16.1319158,21.1862726 17.4190737,20.4472443 C18.7049684,19.7094708 18.7049684,18.5124708 17.4190737,17.7746972 C16.1319158,17.0369236 14.0451789,17.0369236 12.7580211,17.7746972" id="Fill-41" fill="#FFCEA1" mask="url(#mask-2)"></path>
                        <path d="M20.6904,6.22013396 C19.5156632,6.89642642 18.9864,8.16745472 18.8626105,9.5112566 C18.7375579,10.8538038 18.9384,12.2114075 18.8184,13.5552094 C18.6971368,14.8990113 18.1678737,16.3193509 16.9981895,17.0056811 C16.1796632,17.4862377 15.1817684,17.5314075 14.2306105,17.5188604 C12.9864,17.5038038 11.6032421,17.285483 10.8655579,16.2892377 C3.02766316,5.7057 10.2200842,-0.458724528 15.3661895,0.0268509434 C19.3590316,0.403266038 24.2815579,3.07957736 22.3918737,6.20507736 C22.1026105,6.68437925 21.0946105,5.9867566 20.6904,6.22013396" id="Fill-42" fill="#683C11" mask="url(#mask-2)"></path>
                        <path d="M15.2713263,108.996009 C16.0317474,109.344821 16.6608,109.455236 17.4111158,109.088858 C17.4010105,108.337283 17.3820632,107.014811 17.4957474,106.272019 C18.2309053,106.474028 18.9130105,107.889349 19.6532211,108.070028 C19.8881684,108.127745 20.1357474,108.095123 20.3732211,108.052462 C22.2136421,107.714943 23.4325895,106.962113 24.8005895,105.460217 C25.0721684,105.161594 25.3222737,104.842896 25.1669053,104.718679 C24.1285895,103.889311 22.0330105,103.502858 20.5134316,103.500349 C20.9530105,103.502858 22.3311158,103.659698 22.6873263,104.356066 C21.9243789,104.673509 19.9386947,104.888066 19.2932211,104.373632 C18.9673263,104.11516 18.8094316,103.707377 18.6111158,103.342255 C18.2271158,102.638358 17.6435368,102.039858 16.9386947,101.649642 C16.7214316,101.529189 16.4839579,101.427557 16.2363789,101.441358 C15.6224842,101.473981 15.2864842,102.149019 15.0856421,102.727443 C14.8456421,103.418792 14.6144842,104.155311 14.7761684,104.869245 C14.8405895,105.156575 14.9669053,105.427594 15.0629053,105.706142 C15.4241684,106.75383 15.3496421,107.891858 15.2713263,108.996009" id="Fill-43" fill="#E94E1B" mask="url(#mask-2)"></path>
                        <path d="M12.5994947,17.3373028 C13.9485474,17.7237557 17.5839158,18.9069538 21.8293895,16.9659066 C19.4091789,15.1189632 18.0891789,8.70359528 22.3914947,6.20419906 C18.1498105,0.620708491 8.42981053,11.2945858 12.5994947,17.3373028" id="Fill-44" fill="#683C11" mask="url(#mask-2)"></path>
                        <path d="M4.03061053,76.6606981 C-1.34286316,79.7435377 -1.34286316,84.7398208 4.03061053,87.8226604 C9.40534737,90.9055 18.1186105,90.9055 23.4933474,87.8226604 C28.8680842,84.7398208 28.8680842,79.7435377 23.4933474,76.6606981 C18.1186105,73.5778585 9.40534737,73.5778585 4.03061053,76.6606981" id="Fill-45" fill="#634E42" mask="url(#mask-2)"></path>
                        <path d="M7.54938947,45.1775906 C9.08665263,48.6280623 19.9359158,49.3281943 20.5674947,44.9304113 C23.6445474,58.8126 26.9161263,69.0686566 27.4491789,81.4226 L-0.000505263158,81.9031566 L3.90265263,60.5717132 C3.90265263,53.0860717 5.75949474,50.4712415 7.54938947,45.1775906" id="Fill-46" fill="#634E42" mask="url(#mask-2)"></path>
                        <path d="M19.9657263,8.71601698 C20.3952,8.79631887 20.6465684,9.23546981 20.7160421,9.63321509 C20.8019368,10.1288283 20.7122526,10.6269509 20.6225684,11.1150358 C20.5088842,11.734866 20.3838316,12.3772811 19.9872,12.8779132 C19.8810947,13.0121679 19.7459368,13.1388943 19.5665684,13.1740264 C19.2987789,13.2279792 19.0145684,13.0510642 18.8756211,12.8227057 C18.7366737,12.5943472 18.7126737,12.3296019 18.7025684,12.0736396 C18.6709895,11.335866 18.7215158,10.5980925 18.8528842,9.87663019 C18.9046737,9.58804528 18.9741474,9.29444151 19.1535158,9.05855472 C19.3328842,8.82266792 19.6486737,8.65704528 19.9657263,8.71601698" id="Fill-47" fill="#FFCEA1" mask="url(#mask-2)"></path>
                        <path d="M22.8053053,29.4010302 L22.8053053,33.4311811 C22.5703579,34.025917 22.3240421,34.5265491 22.1017263,34.8640679 C22.0549895,34.9456245 20.7994105,41.0611151 20.6124632,43.9043038 C20.5884632,44.2418226 20.5063579,46.8855113 20.4836211,47.2343226 C20.4596211,47.4802472 18.3842526,47.9683321 15.9337263,48.3773698 L12.7429895,47.8641906 C22.4768842,45.8955396 17.1526737,38.0799075 18.9463579,29.9255019 L22.8053053,29.4010302 Z" id="Fill-48" fill="#1D1D1B" opacity="0.272251674" mask="url(#mask-2)"></path>
                        <path d="M19.2982737,32.6157406 L18.6982737,27.9557217 C18.4860632,26.4149292 19.5723789,24.9945896 21.1235368,24.7837972 L21.1803789,24.7750142 C22.7315368,24.5642217 24.1614316,25.6432783 24.3749053,27.1840708 L24.9850105,31.935684 C23.3934316,33.0398349 21.2157474,32.9846274 19.2982737,32.6157406" id="Fill-49" fill="#E94E1B" mask="url(#mask-2)"></path>
                        <path d="M24.9856421,31.9363113 L26.1250105,40.7895943 C26.3372211,42.3303868 25.2509053,43.7519811 23.6997474,43.9615189 L23.6429053,43.9690472 C22.0917474,44.1810943 20.6618526,43.1020377 20.4496421,41.5612453 L19.2989053,32.6163679 C21.2151158,32.9852547 23.3928,33.0392075 24.9856421,31.9363113" id="Fill-50" fill="#FFCEA1" mask="url(#mask-2)"></path>
                        <path d="M33.1758316,34.1480009 L31.5501474,32.5243972 L21.5825684,38.9510575 C20.3396211,39.8971142 20.1046737,41.6650104 21.0570947,42.8996519 L21.0924632,42.9448217 C22.0448842,44.1794632 23.8259368,44.4128406 25.0676211,43.466784 L33.1758316,34.1480009 Z" id="Fill-51" fill="#FFCEA1" mask="url(#mask-2)"></path>
                    </g>
                </g>
            </g>
        </g>
    </g>
</svg>