<?xml version="1.0" encoding="UTF-8"?>
<svg width="95px" height="63px" viewBox="0 0 95 63" version="1.1" xmlns="http://www.w3.org/2000/svg" xmlns:xlink="http://www.w3.org/1999/xlink">
    <!-- Generator: Sketch 52.3 (67297) - http://www.bohemiancoding.com/sketch -->
    <title>id-card</title>
    <desc>Created with Sketch.</desc>
    <g id="Page-1" stroke="none" stroke-width="1" fill="none" fill-rule="evenodd">
        <g id="id-card" fill-rule="nonzero">
            <path d="M91.4815184,63 L3.51848161,63 C1.57519562,63 0,61.4330932 0,59.500033 L0,3.49996696 C0,1.56690676 1.57519562,0 3.51848161,0 L91.4815184,0 C93.4248044,0 95,1.56690676 95,3.49996696 L95,59.500033 C95,61.432895 93.4246051,63 91.4815184,63 Z" id="Path" fill="#EFF2FA"></path>
            <path d="M39.1997247,58 L6.80007137,58 C5.80603558,58 5,57.2163505 5,56.2499221 L5,10.7500779 C5,9.78364951 5.80603558,9 6.80007137,9 L39.1999286,9 C40.1939644,9 41,9.78364951 41,10.7500779 L41,56.2501204 C40.9997961,57.2165487 40.1937605,58 39.1997247,58 Z" id="Path" fill="#C3E678"></path>
            <path d="M22.5,13 C6.2139666,13 8.01969499,32.7546662 8.09400073,47.070524 C8.09677481,47.6110844 8.38072178,48.0986758 8.844984,48.3777512 C10.6497217,49.4630226 15.6060131,52 22.5,52 C29.3939869,52 34.3502783,49.4630226 36.155016,48.3777512 C36.6192782,48.0986758 36.9032252,47.6110844 36.9059993,47.070524 C36.980305,32.7550615 38.7860334,13 22.5,13 Z" id="Path" fill="#694B4B"></path>
            <path d="M21.7279478,13 C6.26775111,13.8479981 8.02065236,33.0535928 8.09487813,47.0653473 C8.09770963,47.6064754 8.38753396,48.0945788 8.86140585,48.3739473 C10.7034994,49.4603584 15.7623801,52 22.7990641,52 L27,23.2331571" id="Path" fill="#5A4146"></path>
            <path d="M22.145554,13 C12.6589129,13 12,24.1610405 12,24.1610405 C17.468003,23.2629394 20.8279311,25.5079945 26.3619066,23.2629394 L22.145554,52 C29.2082643,52 34.2855071,49.4630226 36.1343607,48.3777512 C36.6099716,48.0986758 36.9008596,47.6110844 36.9037015,47.070524 C36.9798236,32.7550615 38.8296922,13 22.145554,13 Z" id="Path" fill="#694B4B"></path>
            <path d="M36.9059929,46.839957 C36.9707947,34.5817941 38.322979,18.3333617 28.2102744,14 C28.0339813,14.8967274 27.7143997,17.4000011 28.5447483,19.0250609 C30.6349085,23.1159734 32.7248675,23.1159734 34.8148265,26.1841085 C36.9049867,37.4340686 30.8214653,49.3745462 28.8007356,51 C32.3807337,50.1666915 34.946845,48.8482876 36.1430623,48.1426047 C36.614586,47.8645069 36.9029742,47.3786237 36.9059929,46.839957 Z" id="Path" fill="#785550"></path>
            <path d="M39.044961,50.9541267 L29.5970332,47.2485605 C28.8079217,46.9391555 28.2938778,46.2132438 28.2938778,45.4084453 L28.2938778,43 L17.7059183,43 L17.7059183,45.4084453 C17.7059183,46.2132438 17.1918744,46.9389635 16.4027629,47.2485605 L6.95483509,50.9541267 C5.77116786,51.4184261 5,52.5069098 5,53.7142035 L5,56.3055662 C5,57.2412668 5.80603558,58 6.80007137,58 L39.1999286,58 C40.1939644,58 41,57.2412668 41,56.3055662 L41,53.7142035 C40.9997961,52.5069098 40.2286282,51.4184261 39.044961,50.9541267 Z" id="Path" fill="#E6AF78"></path>
            <path d="M39.044961,50.7080504 L29.910027,47 L22.999898,49.9053381 L16.0897691,47 L6.95483509,50.7080504 C5.77116786,51.1885654 5,52.3150643 5,53.5645225 L5,56.2463883 C5,57.2147681 5.80603558,58 6.80007137,58 L39.1999286,58 C40.1939644,58 41,57.2147681 41,56.2463883 L41,53.5645225 C40.9997961,52.3150643 40.2286282,51.1885654 39.044961,50.7080504 Z" id="Path" fill="#707487"></path>
            <path d="M28,43 L17.7024087,43 L17.7024087,45.2236784 C17.7024087,45.9667358 17.2024621,46.6369583 16.4349915,46.9226269 L15,47.4571036 C25.9821671,49.9593621 28,43 28,43 Z" id="Path" fill="#D29B6E"></path>
            <g id="Group" transform="translate(5.000000, 45.000000)" fill="#5B5D6E">
                <path d="M5.17586441,9.5794 L0.936610169,6.2636 C0.368542373,6.8348 0.0280677966,7.6072 0.0280677966,8.4378 L0.0280677966,11.138 C0.0280677966,12.113 0.832067797,12.9036 1.82359322,12.9036 L6.36488136,12.9036 L6.36488136,12.0036 C6.36488136,11.0596 5.92718644,10.1668 5.17586441,9.5794 Z" id="Path"></path>
                <path d="M35.9369492,11.138 L35.9369492,8.4378 C35.9369492,7.6136 35.6021695,6.8464 35.0422373,6.2766 L30.7893559,9.5794 C30.0378305,10.1706 29.600339,11.0658 29.600339,12.0122 L29.600339,12.9034 L34.1416271,12.9034 C35.1329492,12.9034 35.9369492,12.113 35.9369492,11.138 Z" id="Path"></path>
                <path d="M18.1409492,11.138 L17.8240678,11.138 C17.3282034,11.138 16.9263051,10.7428 16.9263051,10.2552 L16.9263051,4.756 L19.0387119,4.756 L19.0387119,10.2552 C19.0387119,10.7426 18.6366102,11.138 18.1409492,11.138 Z" id="Path"></path>
                <path d="M17.9825085,4.7536 L11.9377627,0.2956 C11.5496949,0.0094 10.9968814,0.1024 10.7277966,0.4992 L9.53328814,2.261 L13.2392542,7.363 C13.5209492,7.7508 14.0762034,7.8266 14.4545085,7.529 L17.9825085,4.7536 Z" id="Path"></path>
                <path d="M17.9825085,4.7536 L24.0272542,0.2956 C24.415322,0.0094 24.9681356,0.1024 25.2372203,0.4992 L26.4317288,2.261 L22.7257627,7.363 C22.4440678,7.7508 21.8888136,7.8266 21.5105085,7.529 L17.9825085,4.7536 Z" id="Path"></path>
            </g>
            <path d="M27.9824674,22 C22.9252005,27.0999888 13,23.0200763 13,31.1802942 L13.6279948,37.1911427 C13.7491526,38.5357262 14.5220692,39.7327887 15.6923523,40.3884819 L21.4514385,43.6148932 C22.3679135,44.1283689 23.4820978,44.1283689 24.3985729,43.6148932 L30.157659,40.3884819 C31.3279421,39.7327887 32.1008588,38.5357262 32.2220166,37.1911427 L32.9470155,30.0523762 C32.9986342,29.5449898 33.0095423,29.0344606 32.9925958,28.5253064 C32.6143185,25.9286591 28.9939987,24.0401527 27.9824674,22 Z" id="Path" fill="#F0C087"></path>
            <path d="M12,31.1859337 L12.6472352,37.2004747 C12.772105,38.5458842 13.5687022,39.743682 14.7748403,40.3997781 L20.7103728,43.6281714 C21.365839,43.9847196 22.117467,44.0769033 22.832959,43.9387261 C22.832959,43.9387261 19.8404999,43.0506968 18.0593985,38.3304615 C17.5137455,36.8844164 16.7564963,29.2296355 17.4079474,28.2940402 C18.6955922,26.4448637 25.8778153,26.2526343 28,22.8221838 C27.8952057,22.6948171 27.7982409,22.5672538 27.7101093,22.4394939 C27.7030828,22.4292731 27.6944504,22.4188558 27.6872232,22.4084384 C27.5950765,22.2726199 27.5115623,22.1366048 27.4414986,22 C22.2290869,27.1035149 12,23.020703 12,31.1859337 Z" id="Path" fill="#E6AF78"></path>
            <g id="Group" transform="translate(47.000000, 12.000000)" fill="#C3E678">
                <path d="M30.1609265,3.80009259 L1.7742549,3.80009259 C0.79447549,3.80009259 -2.84217094e-14,2.99485185 -2.84217094e-14,2.0017963 C-2.84217094e-14,1.00874074 0.79447549,0.2035 1.7742549,0.2035 L30.1609265,0.2035 C31.1407059,0.2035 31.9351814,1.00874074 31.9351814,2.0017963 C31.9351814,2.99505556 31.1407059,3.80009259 30.1609265,3.80009259 Z" id="Path"></path>
                <path d="M39.031799,10.9930741 L1.7742549,10.9930741 C0.79447549,10.9930741 -2.84217094e-14,10.1878333 -2.84217094e-14,9.19477778 C-2.84217094e-14,8.20172222 0.79447549,7.39648148 1.7742549,7.39648148 L39.031799,7.39648148 C40.0115784,7.39648148 40.8060539,8.20172222 40.8060539,9.19477778 C40.8058529,10.1878333 40.0115784,10.9930741 39.031799,10.9930741 Z" id="Path"></path>
            </g>
            <path d="M52.2499504,38 L48.7500496,38 C47.7836368,38 47,37.1044404 47,36 C47,34.8955596 47.7836368,34 48.7500496,34 L52.2499504,34 C53.2163632,34 54,34.8955596 54,36 C53.9998018,37.1044404 53.2163632,38 52.2499504,38 Z" id="Path" fill="#959CB3"></path>
            <path d="M81.2142135,38 L59.7857865,38 C58.7996391,38 58,37.1044404 58,36 C58,34.8955596 58.7996391,34 59.7857865,34 L81.2142135,34 C82.2003609,34 83,34.8955596 83,36 C83,37.1044404 82.2003609,38 81.2142135,38 Z" id="Path" fill="#C7CFE2"></path>
            <path d="M52.2499504,45 L48.7500496,45 C47.7836368,45 47,44.1044404 47,43 C47,41.8955596 47.7836368,41 48.7500496,41 L52.2499504,41 C53.2163632,41 54,41.8955596 54,43 C53.9998018,44.104667 53.2163632,45 52.2499504,45 Z" id="Path" fill="#959CB3"></path>
            <path d="M86.2352236,45 L59.7647764,45 C58.7902312,45 58,44.1044404 58,43 C58,41.8955596 58.7902312,41 59.7647764,41 L86.2352236,41 C87.2097688,41 88,41.8955596 88,43 C87.9998001,44.104667 87.2097688,45 86.2352236,45 Z" id="Path" fill="#C7CFE2"></path>
            <path d="M52.2499504,53 L48.7500496,53 C47.7836368,53 47,52.1044404 47,51 C47,49.8955596 47.7836368,49 48.7500496,49 L52.2499504,49 C53.2163632,49 54,49.8955596 54,51 C53.9998018,52.104667 53.2163632,53 52.2499504,53 Z" id="Path" fill="#959CB3"></path>
        </g>
    </g>
</svg>