<?xml version="1.0" encoding="UTF-8"?>
<svg width="171px" height="251px" viewBox="0 0 171 251" version="1.1" xmlns="http://www.w3.org/2000/svg" xmlns:xlink="http://www.w3.org/1999/xlink">
    <!-- Generator: Sketch 58 (84663) - https://sketch.com -->
    <title>資產 4</title>
    <desc>Created with Sketch.</desc>
    <g id="web" stroke="none" stroke-width="1" fill="none" fill-rule="evenodd">
        <g id="資產-4">
            <path d="M31.9243563,164.124326 C36.5931456,163.45317 45.4209428,162.359433 48.8228498,158.655642 C49.4275464,157.942686 49.9022851,157.131941 50.2260103,156.259365 C51.4733601,153.242796 52.0747771,150.004994 51.9925792,146.748826 C51.8361116,140.782989 46.1629018,143.363214 42.9073676,144.859645 C37.1735896,147.524385 30.8290836,148.240285 24.8530333,150.13941 C18.1602608,152.267225 11.3261627,154.201151 5.1684082,157.671279 C4.5188563,157.982452 3.9506813,158.436629 3.50783342,158.998678 C3.14891167,159.623504 2.9741127,160.334581 3.00309944,161.05192 C2.95737748,163.173306 3.57786776,165.256843 4.77976304,167.017757 C5.0622887,167.450743 5.43790999,167.817328 5.88008311,168.091608 C6.61699471,168.519159 7.53561055,168.474416 8.40375299,168.588761 C9.64539857,168.772707 10.7860974,169.339462 11.9924116,169.667583 C16.6258695,170.935323 19.8612143,168.345156 23.3438787,165.809675 C23.8035263,165.444254 24.3133018,165.144657 24.8580806,164.919771 C25.5126554,164.724849 26.1931921,164.627653 26.8770165,164.631422 C28.532544,164.536963 30.2334975,164.367931 31.9243563,164.124326 Z" id="Path" fill="#FFFFFF"></path>
            <path d="M44.1375522,14.7265731 C45.3726309,14.2301994 46.569998,13.6449877 47.7202177,12.9755497 C51.7625837,9.95740383 49.2991889,13.9982272 50.8931502,11.9778155 C52.3122256,10.151962 55.8898944,6.23086673 57.1690608,6.91431463 C58.3233087,7.53290981 57.6687353,8.03676556 58.1684097,7.73245665 C58.9479018,7.29345361 56.8492692,10.3165881 57.3889176,9.97735851 C60.5168794,7.98687886 59.177752,7.6376719 65.0139491,9.98234718 C66.7628096,10.6857498 65.1988287,10.1270186 70.3354816,10.4812143 C74.0138785,10.4873549 77.6872648,10.7524116 81.3283187,11.2744129 C84.2499793,4.55491676 90.8266663,0.152206214 98.1623496,0.00500556136 C108.515603,-0.229461967 117.095013,7.80229804 117.324863,17.9642205 C117.416047,21.6545096 116.369489,25.2836825 114.326817,28.3606104 C114.046999,28.7796588 129.34703,47.2377408 130.776099,49.4576993 C141.723965,66.4890214 145.231679,83.6450604 142.008779,98.6759255 C137.586661,119.284125 128.882332,129.251489 113.812152,138.231096 C113.197553,138.600258 112.493012,139.228831 112.757839,139.887335 C112.972516,140.258648 113.336387,140.520212 113.757188,140.605704 C120.437835,142.775775 127.867993,142.671013 134.798478,144.846074 C137.561677,145.714103 140.384837,146.342675 143.203001,146.991202 C147.630116,147.988936 157.893429,150.912298 162.03573,152.977607 C163.644681,153.780783 165.173685,154.788495 166.712682,155.701422 C168.161738,156.564462 169.615791,157.736799 170.390286,159.263332 C170.854392,160.180624 171.059928,161.206647 170.984898,162.231592 C170.909947,163.229326 170.485224,164.252003 169.645771,164.725927 C168.48153,165.379443 167.037471,164.79078 165.858239,164.167196 C164.679007,163.543612 163.649678,162.72547 162.555391,162.007101 C161.810876,161.508234 160.271879,161.508234 159.90212,162.505969 C159.632296,163.239303 159.90212,164.666063 160.176941,165.369466 C160.506726,166.182619 161.146309,166.656543 161.081352,167.654277 C161.086552,167.818695 161.029454,167.979023 160.921456,168.103257 C160.725499,168.238383 160.476619,168.27176 160.251892,168.193053 C159.145122,168.030238 158.077942,167.664939 157.103943,167.1155 C156.583144,166.724111 156.167677,166.209901 155.894731,165.618899 C155.44333,164.811685 155.03957,163.978819 154.685519,163.124564 C154.617219,162.924995 154.519545,162.736688 154.395708,162.565833 C153.616216,161.568098 152.017258,161.687826 150.897987,161.63794 C144.207347,161.353586 137.466739,161.553132 130.776099,161.817532 C129.811727,161.852453 117.184955,162.091909 117.254909,163.284201 C118.014414,177.023001 118.753932,192.757268 112.757839,205.258877 C111.946034,206.766707 111.251119,208.334411 110.679194,209.948228 C110.129552,211.754127 109.999636,213.65481 109.624881,215.500619 C107.925988,223.811744 99.9861612,229.543727 98.2672813,237.740113 C97.5427534,241.202251 99.3515747,247.218588 98.0524213,250.161903 C97.5527468,251.319275 95.733932,250.560997 94.5547004,251 C94.2349087,248.141492 94.3798143,246.624936 92.4560678,244.514728 C91.3367972,243.287515 89.4280409,243.442164 89.0332981,241.461661 C88.7235,239.900207 90.3424451,239.092043 90.5672986,237.755079 C90.8721,235.944191 90.4673637,234.457568 90.1075981,232.606771 C89.6079237,230.112435 89.2681451,227.563225 88.2138321,225.228527 C85.6392541,219.718984 81.273689,215.240916 75.8269034,212.522382 C72.0817828,210.686658 68.2346855,209.066026 64.3044115,207.668405 C51.7076195,202.914202 42.6035517,207.438926 29.9068249,208.730992 C25.0549864,209.229859 20.8527246,212.966374 18.0695381,216.897446 C17.7520508,217.451215 17.3087709,217.922827 16.7753814,218.274319 C15.5861563,218.912869 14.1520907,218.139625 13.0278233,217.386336 L8.03107915,214.053904 C6.60201033,213.096079 5.09799035,212.058436 4.44341687,210.46705 C3.78884339,208.875664 4.47839408,206.63575 6.16729359,206.316476 C8.36086426,205.902416 9.78993308,208.721015 11.9335363,209.33961 C15.4762279,210.362288 18.384333,206.116929 19.5285874,203.443001 C22.9313701,195.461128 28.6776259,190.028465 35.4781946,184.984919 C35.9151301,184.690202 36.3115709,184.339684 36.6574262,183.942287 C37.0745676,183.353708 37.385696,182.697005 37.5768271,182.001694 C39.4955769,176.284677 41.4176578,170.565998 43.3430699,164.845655 C43.0832392,165.623888 46.016328,143.893238 46.8807647,144.247433 C33.2096728,138.734952 14.711726,133.556712 7.53640148,119.304079 C0.820777382,105.944419 0.216171343,90.2151398 2.76451085,75.4935723 C4.34098895,66.4578473 7.03833124,57.6532806 10.7942786,49.2830958 C3.91097059,46.1379348 -0.356467248,39.1211226 0.0234319052,31.5729354 C0.403331059,24.0247483 5.35380471,17.4703743 12.5182344,15.0299509 C19.6826641,12.5895276 27.6134038,14.7561674 32.5351123,20.4984652 C35.0334844,19.1764675 37.6068076,18.0041298 39.7903848,16.8517469 C41.3105822,16.070914 42.8737188,15.3763838 44.472334,14.7714712" id="Path" fill="#FFFFFF"></path>
            <path d="M76.5525279,89.998555 C76.1530628,89.9992287 75.7541001,89.9744213 75.3589918,89.9243414 C73.7197054,89.7751719 72.2204557,89.0694487 71.2006899,87.9669556 C70.8382686,87.4867952 70.9793106,86.8493451 71.522112,86.5142631 C72.0649135,86.179181 72.8206708,86.2630193 73.2444162,86.7053231 C73.8697295,87.3334996 74.7606051,87.726769 75.7241375,87.7999748 C76.9628853,87.9857359 78.238331,87.765319 79.2938462,87.1830736 C80.0295877,86.7192381 81.386622,85.2256879 81.473821,84.7247455 C81.3321226,84.0614608 79.6371922,76.3988985 79.6371922,76.3988985 L82.1169135,76 C82.1169135,76 83.9644422,84.3490388 83.9644422,84.3768689 C84.3895372,86.2785944 80.863428,88.8667965 80.8307284,88.8899882 C79.5801016,89.638428 78.0810232,90.026869 76.5525279,89.998555 Z" id="Shape" fill="#231815" fill-rule="nonzero"></path>
            <path d="M87.0940445,87 C83.7258313,87 81.2984308,84.0163536 81.1944736,83.8860001 C80.8485955,83.3910348 80.975472,82.7317168 81.4845347,82.3786869 C81.9935974,82.025657 82.7102304,82.1000098 83.1228796,82.5486699 C83.1540667,82.5872932 85.0460877,84.8805489 87.2499803,84.7598512 C90.2751348,84.6101861 91.377081,83.9053117 91.600589,81.9596653 C91.6936169,81.3628671 92.2786341,80.9415943 92.9240781,81.0066165 C93.569522,81.0716388 94.0436946,81.5996147 93.9968024,82.2010606 C93.528995,86.1792558 90.2127604,86.8503349 87.374729,86.9903442 L87.0940445,87 Z" id="Path" fill="#231815"></path>
            <path d="M91.254635,62.5755465 C92.1246048,65.194553 94.9527206,66.6131503 97.5725798,65.7446599 C100.192439,64.8761694 101.612708,62.0492211 100.745428,59.4293232 C99.8781471,56.8094252 97.0514892,55.387926 94.4307397,56.253727 C91.8084838,57.1234475 90.3869106,59.9529918 91.254635,62.5755465 L91.254635,62.5755465 Z" id="Path" fill="#140405"></path>
            <path d="M94.0485674,59.5636273 C93.8079342,60.6404745 94.4848791,61.7087552 95.5612916,61.950844 C96.6377041,62.1929327 97.7067698,61.5173356 97.9502623,60.4411314 C98.1937549,59.3649273 97.5196499,58.294852 96.4438842,58.0499044 C95.9254516,57.9318593 95.381357,58.0251767 94.9318732,58.3092285 C94.4823893,58.5932802 94.1645332,59.0446735 94.0485674,59.5636273 L94.0485674,59.5636273 Z" id="Path" fill="#FFFFFF"></path>
            <path d="M57.2550784,66.5808455 C58.1277861,69.1979611 60.9563084,70.6134959 63.5750638,69.743684 C66.1938193,68.8738722 67.6126199,66.0476017 66.7451993,63.42873 C65.8777788,60.8098584 63.0521209,59.3886176 60.4316142,60.2531422 C59.1707594,60.6707546 58.1276094,61.5721931 57.5318319,62.75899 C56.9360545,63.945787 56.8364969,65.3206381 57.2550784,66.5808455 Z" id="Path" fill="#140405"></path>
            <path d="M59.0470946,64.571945 C58.810255,65.6481773 59.4898322,66.7129056 60.5661824,66.9519776 C61.6425326,67.1910496 62.7093939,66.5142291 62.950983,65.4390517 C63.192572,64.3638744 62.5177025,63.2961595 61.4424184,63.0523431 C60.9227159,62.9306382 60.37587,63.023168 59.9252185,63.3090629 C59.474567,63.5949578 59.1580638,64.0501398 59.0470946,64.571945 L59.0470946,64.571945 Z" id="Path" fill="#FFFFFF"></path>
            <path d="M78.5714576,79.1826126 C77.3436763,79.5059818 76.0564523,79.3943134 74.8878559,78.8630554 C73.0530759,77.8886677 72.3182278,75.2745846 73.7645212,73.6244119 C75.5150511,71.6494433 79.0020692,71.4660907 81.2815025,70.8688854 C83.3222272,70.345021 84.3753535,69.8735431 86.5003283,70.0307024 C88.7844422,70.198339 88.0542746,75.1436185 86.9683844,76.4637567 C84.0898393,79.9946024 79.0114303,80.9427969 75.1172034,79.030692" id="Path" fill="#231815"></path>
        </g>
    </g>
</svg>