<?xml version="1.0" encoding="UTF-8"?>
<svg width="19px" height="19px" viewBox="0 0 19 19" version="1.1" xmlns="http://www.w3.org/2000/svg" xmlns:xlink="http://www.w3.org/1999/xlink">
    <!-- Generator: Sketch 52.3 (67297) - http://www.bohemiancoding.com/sketch -->
    <title>Group 15 Copy 3</title>
    <desc>Created with Sketch.</desc>
    <defs>
        <polygon id="path-1" points="0.201463925 0.1905 0.979059674 0.1905 0.979059674 1.84998753 0.201463925 1.84998753"></polygon>
        <polygon id="path-3" points="0 0.39095003 3.54563175 0.39095003 3.54563175 1.67202878 0 1.67202878"></polygon>
    </defs>
    <g id="Page-1" stroke="none" stroke-width="1" fill="none" fill-rule="evenodd">
        <g id="Group-15-Copy-3">
            <path d="M17.5504421,9.60735712 C17.8413325,10.3536996 18,11.15972 18,12 C18,15.8658036 14.6423271,19 10.5,19 C6.35806757,19 3,15.8658036 3,12 C3,8.13382802 6.35806757,5 10.5,5 C12.6988475,5 14.6770603,5.8833807 16.0486265,7.29060099" id="Fill-1" fill="#81C9BD"></path>
            <g id="Group-5" transform="translate(10.000000, 0.000000)">
                <mask id="mask-2" fill="white">
                    <use xlink:href="#path-1"></use>
                </mask>
                <g id="Clip-4"></g>
                <path d="M0.292775,0.409925 C0.231525,0.592175 0.226025,0.796175 0.215275,0.986925 C0.204275,1.188175 0.185275,1.382675 0.228275,1.581675 C0.305775,1.939175 0.874775,1.939675 0.952275,1.581675 C0.995275,1.382675 0.976275,1.188175 0.965025,0.986925 C0.954275,0.796175 0.949275,0.592175 0.887775,0.409925 C0.789025,0.117425 0.391525,0.117175 0.292775,0.409925" id="Fill-3" fill="#81C9BD" mask="url(#mask-2)"></path>
            </g>
            <path d="M4.0615128,1.2726354 C3.83775697,1.71959068 4.27334559,2.34744961 4.5845371,2.72559843 C4.75145975,2.9280041 5.12504853,3.05242911 5.44617591,2.97846216 C5.58368837,2.94692587 5.67589326,2.90592869 5.78280325,2.83712223 C6.04471283,2.6688331 6.05067435,2.37984598 5.90203371,2.17027298 C5.76014946,1.96987417 5.60912421,1.77176891 5.44418873,1.5805443 C5.27448404,1.38272573 5.10915113,1.16684547 4.81942111,1.05016119 C4.51101165,0.925449483 4.17478174,1.04586078 4.0615128,1.2726354" id="Fill-6" fill="#81C9BD"></path>
            <g id="Group-10" transform="translate(0.000000, 7.000000)">
                <mask id="mask-4" fill="white">
                    <use xlink:href="#path-3"></use>
                </mask>
                <g id="Clip-9"></g>
                <path d="M0.0257714286,1.1004 C0.169771429,1.4992 0.753771429,1.5768 1.25605714,1.6252 C1.80291429,1.6772 2.46462857,1.7176 2.98234286,1.5652 C3.68462857,1.3588 3.78062857,0.6784 2.98234286,0.494 C2.34062857,0.3456 -0.287942857,0.23 0.0257714286,1.1004" id="Fill-8" fill="#81C9BD" mask="url(#mask-4)"></path>
            </g>
            <path d="M0.156952729,13.8724797 C0.295263563,13.9895845 0.469254583,14.0167316 0.629614971,13.9911814 C0.820844733,13.9603083 1.00926819,13.7873126 0.999646565,13.4998734 C0.98962404,13.2071113 0.836078969,13.0421 0.629614971,13.0090977 C0.469254583,12.9830153 0.295263563,13.0101623 0.156952729,13.1277994 C-0.0523175764,13.3055859 -0.0523175764,13.6946933 0.156952729,13.8724797" id="Fill-11" fill="#81C9BD"></path>
            <path d="M18.6367201,6.54789905 L18.3916042,6.31260864 C17.9327289,5.87178632 17.2096179,5.90075124 16.7847759,6.37688697 L10.5153921,13.4050471 L8.43477506,9.35194169 C8.14109486,8.77938848 7.44857556,8.55996927 6.89677802,8.86548969 L6.60195064,9.0281694 C6.0497707,9.33329304 5.83868806,10.0514644 6.13275065,10.6240176 L8.86191148,15.9412634 C9.41409142,17.0724825 10.5153921,17.3375314 11.2729188,16.5404008 L18.6990507,8.21556443 C19.1235103,7.73903192 19.0955954,6.98872137 18.6367201,6.54789905" id="Fill-13" fill="#FEFEFE"></path>
        </g>
    </g>
</svg>