<?xml version="1.0" encoding="UTF-8"?>
<svg width="30px" height="23px" viewBox="0 0 30 23" version="1.1" xmlns="http://www.w3.org/2000/svg" xmlns:xlink="http://www.w3.org/1999/xlink">
    <!-- Generator: Sketch 52.3 (67297) - http://www.bohemiancoding.com/sketch -->
    <title>14160</title>
    <desc>Created with Sketch.</desc>
    <g id="Page-1" stroke="none" stroke-width="1" fill="none" fill-rule="evenodd">
        <g id="14160" transform="translate(15.000000, 11.500000) scale(-1, 1) translate(-15.000000, -11.500000) " fill="#63B0AE" fill-rule="nonzero">
            <path d="M17.7503413,2.71857076 L16.4521873,2.71857076 L16.4521873,1.37443807 L17.7930789,1.37443807 L17.7930789,2.67400403 L19.0894521,2.67400403 L20.4303437,2.67400403 L20.4303437,4.01635405 L19.0894521,4.01635405 L17.7503413,4.01635405 L17.7503413,2.71857076 Z M11.022734,21.6558673 L12.3618448,21.6558673 L12.3618448,20.3153 L11.022734,20.3153 L11.022734,21.6558673 Z M-1.11022302e-16,9.39110215 L1.33733009,9.39110215 L1.33733009,6.69927143 L-1.11022302e-16,6.69927143 L-1.11022302e-16,9.39110215 Z M23.1317148,6.68679275 L24.4726064,6.68679275 L25.8117172,6.68679275 L25.8117172,5.34444272 L24.4726064,5.34444272 L23.1388378,5.34444272 L23.1388378,4.02705007 L21.799727,4.02705007 L20.4588354,4.02705007 L20.4588354,5.37118276 L21.799727,5.37118276 L23.1317148,5.37118276 C23.1317148,5.37118276 23.1317148,6.68679275 23.1317148,6.68679275 Z M28.5736333,6.70461944 L28.5362379,6.70461944 L27.1989078,6.70461944 L25.8206209,6.70461944 L25.8206209,8.04518679 L27.1989078,8.04518679 L28.5362379,8.04518679 L28.5362379,18.9016432 L27.27726,18.9016432 L25.9363685,18.9016432 L25.9363685,20.2422105 L27.27726,20.2422105 L28.5362379,20.2422105 L28.6181516,20.2422105 L30,20.2422105 L30,6.70461944 L28.5736333,6.70461944 Z M21.8424645,20.2814292 L21.8424645,21.6219966 L23.8511308,21.6219966 L25.8580163,21.6219966 L25.8580163,20.2814292 L23.8511308,20.2814292 L21.8424645,20.2814292 Z M14.9563721,18.9444272 L14.9563721,17.6038599 L12.3030807,17.6038599 L9.64800855,17.6038599 L9.64800855,18.9319485 L9.64444708,18.9319485 L9.64444708,20.2725159 L10.9835579,20.2725159 L10.9835579,18.9444272 L12.3030807,18.9444272 C12.3030807,18.9426446 14.9563721,18.9426446 14.9563721,18.9444272 Z M13.5584971,14.8621144 L13.5584971,13.521547 L10.9016442,13.521547 L8.24835282,13.521547 L8.24835282,14.8496357 L8.24479136,14.8496357 L8.24479136,17.6163386 L9.58568291,17.6163386 L9.58568291,14.8621144 L10.9016442,14.8621144 L13.5584971,14.8621144 Z M13.6564373,10.7833669 L13.6564373,9.4410169 L9.52691874,9.4410169 L7.08375378,9.4410169 L6.87362735,9.4410169 L1.34979522,9.4410169 L1.34979522,10.7815843 L6.87184662,10.7815843 L6.87184662,13.4858937 L8.21095744,13.4858937 L8.21095744,10.7833669 L9.52691874,10.7833669 L13.6564373,10.7833669 Z M12.37431,4.08053015 L13.7152015,4.08053015 L13.7152015,1.34235002 L14.3936606,1.34235002 L16.4236956,1.34235002 L16.4236956,0 L14.3936606,0 L12.367187,0 L12.367187,1.34235002 L12.37431,1.34235002 C12.37431,1.34235002 12.37431,4.08053015 12.37431,4.08053015 Z M12.4063632,21.6612153 L12.4063632,23 L17.0861281,23 L21.765893,23 L21.765893,21.6612153 L17.0861281,21.6612153 L12.4063632,21.6612153 Z M19.0395916,6.67966207 L19.0395916,5.33909471 L15.089927,5.33909471 L15.089927,4.04309409 L13.7508162,4.04309409 L13.7508162,5.34087738 L10.1875705,5.34087738 L1.33198789,5.34087738 L1.33198789,6.68144474 L10.1875705,6.68144474 C10.1875705,6.67966207 19.0395916,6.67966207 19.0395916,6.67966207 Z" id="Shape"></path>
        </g>
    </g>
</svg>