<?xml version="1.0" encoding="UTF-8"?>
<svg width="318px" height="61px" viewBox="0 0 318 61" version="1.1" xmlns="http://www.w3.org/2000/svg" xmlns:xlink="http://www.w3.org/1999/xlink">
    <!-- Generator: Sketch 55.2 (78181) - https://sketchapp.com -->
    <title>玉山e指開戶</title>
    <desc>Created with Sketch.</desc>
    <g id="Page-1" stroke="none" stroke-width="1" fill="none" fill-rule="evenodd">
        <path d="M25.1972656,53.09375 C25.1972656,53.3216157 25.3111968,53.4355469 25.5390625,53.4355469 L43.1660156,53.4355469 C43.7845083,53.4355469 44.3134744,53.6552712 44.7529297,54.0947266 C45.192385,54.5341819 45.4121094,55.0631479 45.4121094,55.6816406 C45.4121094,56.3001333 45.192385,56.8290994 44.7529297,57.2685547 C44.3134744,57.70801 43.7845083,57.9277344 43.1660156,57.9277344 L2.98046875,57.9277344 C2.36197607,57.9277344 1.83301001,57.70801 1.39355469,57.2685547 C0.954099365,56.8290994 0.734375,56.3001333 0.734375,55.6816406 C0.734375,55.0631479 0.954099365,54.5341819 1.39355469,54.0947266 C1.83301001,53.6552712 2.36197607,53.4355469 2.98046875,53.4355469 L19.7773438,53.4355469 C20.0377617,53.4355469 20.1679688,53.3216157 20.1679688,53.09375 L20.1679688,38.9335938 C20.1679688,38.705728 20.0377617,38.5917969 19.7773438,38.5917969 L7.5703125,38.5917969 C6.95181982,38.5917969 6.42285376,38.3720725 5.98339844,37.9326172 C5.54394312,37.4931619 5.32421875,36.9560579 5.32421875,36.3212891 C5.32421875,35.6865203 5.54394312,35.1494163 5.98339844,34.7099609 C6.42285376,34.2705056 6.95181982,34.0507812 7.5703125,34.0507812 L19.7773438,34.0507812 C20.0377617,34.0507812 20.1679688,33.9205742 20.1679688,33.6601562 L20.1679688,22.0390625 C20.1679688,21.7786445 20.0377617,21.6484375 19.7773438,21.6484375 L5.32421875,21.6484375 C4.70572607,21.6484375 4.16862207,21.4205752 3.71289062,20.9648438 C3.25715918,20.5091123 3.02929688,19.9720083 3.02929688,19.3535156 C3.02929688,18.7350229 3.25715918,18.1979189 3.71289062,17.7421875 C4.16862207,17.2864561 4.70572607,17.0585938 5.32421875,17.0585938 L40.7734375,17.0585938 C41.3919302,17.0585938 41.9290342,17.2864561 42.3847656,17.7421875 C42.8404971,18.1979189 43.0683594,18.7350229 43.0683594,19.3535156 C43.0683594,19.9720083 42.8404971,20.5091123 42.3847656,20.9648438 C41.9290342,21.4205752 41.3919302,21.6484375 40.7734375,21.6484375 L25.5390625,21.6484375 C25.3111968,21.6484375 25.1972656,21.7786445 25.1972656,22.0390625 L25.1972656,33.6601562 C25.1972656,33.9205742 25.3111968,34.0507812 25.5390625,34.0507812 L38.7226562,34.0507812 C39.3737012,34.0507812 39.9189431,34.2705056 40.3583984,34.7099609 C40.7978538,35.1494163 41.0175781,35.6865203 41.0175781,36.3212891 C41.0175781,36.9560579 40.7978538,37.4931619 40.3583984,37.9326172 C39.9189431,38.3720725 39.3737012,38.5917969 38.7226562,38.5917969 L25.5390625,38.5917969 C25.3111968,38.5917969 25.1972656,38.705728 25.1972656,38.9335938 L25.1972656,53.09375 Z M30.6171875,44.3535156 C30.2591128,43.9954409 30.0800781,43.5397163 30.0800781,42.9863281 C30.0800781,42.3678354 30.3242163,41.8632832 30.8125,41.4726562 C31.2356792,41.1145815 31.7402314,40.9355469 32.3261719,40.9355469 L32.4238281,40.9355469 C33.0423208,40.9680991 33.5794248,41.1959614 34.0351562,41.6191406 C36.509127,43.9954546 38.4296807,45.8834565 39.796875,47.2832031 C40.187502,47.7063823 40.3828125,48.2109346 40.3828125,48.796875 C40.3828125,49.4804722 40.1386743,50.0664038 39.6503906,50.5546875 C39.1946592,50.9127622 38.6901069,51.0917969 38.1367188,51.0917969 L37.9414062,51.0917969 C37.3229136,51.0592446 36.8020854,50.7988306 36.3789062,50.3105469 C35.0768164,48.9108003 33.1562627,46.9251431 30.6171875,44.3535156 Z M92.1367188,28.1914062 C92.1367188,27.5078091 92.372719,26.9300154 92.8447266,26.4580078 C93.3167341,25.9860002 93.8863899,25.75 94.5537109,25.75 C95.221032,25.75 95.7906877,25.9860002 96.2626953,26.4580078 C96.7347029,26.9300154 96.9707031,27.5078091 96.9707031,28.1914062 L96.9707031,56.7070312 C96.9707031,57.3580762 96.7347029,57.919594 96.2626953,58.3916016 C95.7906877,58.8636091 95.221032,59.0996094 94.5537109,59.0996094 C93.8863899,59.0996094 93.3167341,58.8636091 92.8447266,58.3916016 C92.372719,57.919594 92.1367188,57.3580762 92.1367188,56.7070312 L92.1367188,55.828125 C92.1367188,55.6002593 92.0065117,55.4863281 91.7460938,55.4863281 L62.3515625,55.4863281 C62.0911445,55.4863281 61.9609375,55.6002593 61.9609375,55.828125 L61.9609375,56.8046875 C61.9609375,57.4557324 61.7249373,58.0172502 61.2529297,58.4892578 C60.7809221,58.9612654 60.2194043,59.1972656 59.5683594,59.1972656 C58.9173145,59.1972656 58.3557966,58.9612654 57.8837891,58.4892578 C57.4117815,58.0172502 57.1757812,57.4557324 57.1757812,56.8046875 L57.1757812,28.2402344 C57.1757812,27.5891895 57.4117815,27.0276716 57.8837891,26.5556641 C58.3557966,26.0836565 58.9173145,25.8476562 59.5683594,25.8476562 C60.2194043,25.8476562 60.7809221,26.0836565 61.2529297,26.5556641 C61.7249373,27.0276716 61.9609375,27.5891895 61.9609375,28.2402344 L61.9609375,50.359375 C61.9609375,50.619793 62.0911445,50.75 62.3515625,50.75 L73.9726562,50.75 C74.2330742,50.75 74.3632812,50.619793 74.3632812,50.359375 L74.3632812,17.4980469 C74.3632812,16.8144497 74.5992815,16.236656 75.0712891,15.7646484 C75.5432966,15.2926409 76.1210903,15.0566406 76.8046875,15.0566406 C77.4882847,15.0566406 78.0660784,15.2926409 78.5380859,15.7646484 C79.0100935,16.236656 79.2460938,16.8144497 79.2460938,17.4980469 L79.2460938,50.359375 C79.2460938,50.619793 79.3763008,50.75 79.6367188,50.75 L91.7460938,50.75 C92.0065117,50.75 92.1367188,50.619793 92.1367188,50.359375 L92.1367188,28.1914062 Z M137.957031,58.2822266 C130.132122,58.2822266 123.655299,55.6849218 118.526367,50.4902344 C113.397435,45.2955469 110.833008,38.2269327 110.833008,29.2841797 C110.833008,24.9443142 111.539869,20.9004094 112.953613,17.1523438 C114.367357,13.4042781 116.257801,10.2973756 118.625,7.83154297 C120.992199,5.36571033 123.688136,3.44238972 126.712891,2.06152344 C129.737645,0.680657158 132.893864,-0.009765625 136.181641,-0.009765625 C143.41475,-0.009765625 149.003887,2.37383684 152.949219,7.14111328 C156.894551,11.9083897 158.867188,18.3358971 158.867188,26.4238281 L158.867188,26.5224609 C158.801432,28.1005938 158.143886,29.4485621 156.894531,30.5664062 C155.645176,31.6842504 154.165699,32.2431641 152.456055,32.2431641 L122.964844,32.2431641 C122.504555,32.2431641 122.307291,32.5061823 122.373047,33.0322266 C122.899091,38.0954029 124.690903,42.0571146 127.748535,44.9174805 C130.806168,47.7778463 134.702125,49.2080078 139.436523,49.2080078 C142.7243,49.2080078 145.913396,48.517585 149.003906,47.1367188 C149.661462,46.8079411 150.319007,46.6435547 150.976562,46.6435547 C151.371096,46.6435547 151.765623,46.7093092 152.160156,46.8408203 C153.278,47.169598 154.13281,47.8271435 154.724609,48.8134766 C155.053387,49.4710319 155.217773,50.1614547 155.217773,50.8847656 C155.217773,51.2792988 155.184896,51.6738262 155.119141,52.0683594 C154.790363,53.1862035 154.09994,54.0081354 153.047852,54.5341797 C148.247697,57.0328901 143.217474,58.2822266 137.957031,58.2822266 Z M122.274414,23.6621094 C122.274414,24.0566426 122.471678,24.2539062 122.866211,24.2539062 L148.116211,24.2539062 C148.5765,24.2539062 148.806641,24.0237653 148.806641,23.5634766 C148.67513,18.960589 147.557302,15.4098432 145.453125,12.9111328 C143.348948,10.4124224 140.324238,9.16308594 136.378906,9.16308594 C132.893863,9.16308594 129.836276,10.4124224 127.206055,12.9111328 C123.918278,16.1331541 122.274414,19.7167771 122.274414,23.6621094 Z M184.050781,36.7851562 C184.246095,36.752604 184.425129,36.7363281 184.587891,36.7363281 C184.945965,36.7363281 185.287759,36.8339834 185.613281,37.0292969 C186.101565,37.3548193 186.378255,37.7942681 186.443359,38.3476562 C186.475912,38.4778652 186.492188,38.6080723 186.492188,38.7382812 C186.492188,39.1940127 186.36198,39.6334614 186.101562,40.0566406 C185.743488,40.5774766 185.271487,40.91927 184.685547,41.0820312 L180.876953,42.2050781 C180.616535,42.2701826 180.486328,42.4166655 180.486328,42.6445312 L180.486328,55.7304688 C180.486328,56.9674541 180.347983,57.919593 180.071289,58.5869141 C179.794595,59.2542351 179.298181,59.7506494 178.582031,60.0761719 C177.540359,60.5644556 175.945323,60.8411455 173.796875,60.90625 L173.748047,60.90625 C173.129554,60.90625 172.576174,60.7109395 172.087891,60.3203125 C171.567055,59.8971333 171.208985,59.3600293 171.013672,58.7089844 C170.850911,58.2207007 170.916014,57.7649761 171.208984,57.3417969 C171.501955,56.9186177 171.908852,56.7070312 172.429688,56.7070312 C172.885419,56.7395835 173.292316,56.7558594 173.650391,56.7558594 C174.236331,56.7558594 174.67578,56.7395835 174.96875,56.7070312 C175.326825,56.7070312 175.570963,56.6419277 175.701172,56.5117188 C175.831381,56.3815098 175.896484,56.1210957 175.896484,55.7304688 L175.896484,44.0117188 C175.896484,43.914062 175.863933,43.8408206 175.798828,43.7919922 C175.733724,43.7431638 175.652344,43.7350259 175.554688,43.7675781 C174.545568,44.0605483 173.38998,44.3860659 172.087891,44.7441406 C171.892577,44.8092451 171.680991,44.8417969 171.453125,44.8417969 C171.062498,44.8417969 170.688153,44.7278657 170.330078,44.5 C169.77669,44.1744775 169.418621,43.7024771 169.255859,43.0839844 C169.190755,42.8886709 169.158203,42.6933604 169.158203,42.4980469 C169.158203,42.1074199 169.272134,41.7167988 169.5,41.3261719 C169.825522,40.8053359 170.297523,40.4635425 170.916016,40.3007812 C172.86915,39.8450498 174.415359,39.4544287 175.554688,39.1289062 C175.782553,39.0638018 175.896484,38.9173188 175.896484,38.6894531 L175.896484,29.4609375 C175.896484,29.2330718 175.782553,29.1191406 175.554688,29.1191406 L171.501953,29.1191406 C170.916013,29.1191406 170.41146,28.9075542 169.988281,28.484375 C169.565102,28.0611958 169.353516,27.5485056 169.353516,26.9462891 C169.353516,26.3440725 169.565102,25.8395203 169.988281,25.4326172 C170.41146,25.0257141 170.916013,24.8222656 171.501953,24.8222656 L175.554688,24.8222656 C175.782553,24.8222656 175.896484,24.6920586 175.896484,24.4316406 L175.896484,17.4003906 C175.896484,16.7493457 176.124347,16.2041038 176.580078,15.7646484 C177.03581,15.3251931 177.581052,15.1054688 178.21582,15.1054688 C178.850589,15.1054688 179.387693,15.3251931 179.827148,15.7646484 C180.266604,16.2041038 180.486328,16.7493457 180.486328,17.4003906 L180.486328,24.4316406 C180.486328,24.6920586 180.616535,24.8222656 180.876953,24.8222656 L183.806641,24.8222656 C184.392581,24.8222656 184.897133,25.0257141 185.320312,25.4326172 C185.743492,25.8395203 185.955078,26.3440725 185.955078,26.9462891 C185.955078,27.5485056 185.743492,28.0611958 185.320312,28.484375 C184.897133,28.9075542 184.392581,29.1191406 183.806641,29.1191406 L180.876953,29.1191406 C180.616535,29.1191406 180.486328,29.2330718 180.486328,29.4609375 L180.486328,37.3710938 C180.486328,37.4687505 180.527018,37.5501299 180.608398,37.6152344 C180.689779,37.6803389 180.779296,37.6966147 180.876953,37.6640625 C182.667327,37.1757788 183.725259,36.882813 184.050781,36.7851562 Z M207.976562,43.0839844 C207.976562,42.8235664 207.846355,42.6933594 207.585938,42.6933594 L193.621094,42.6933594 C193.393228,42.6933594 193.279297,42.8235664 193.279297,43.0839844 L193.279297,46.5507812 C193.279297,46.778647 193.393228,46.8925781 193.621094,46.8925781 L207.585938,46.8925781 C207.846355,46.8925781 207.976562,46.778647 207.976562,46.5507812 L207.976562,43.0839844 Z M193.279297,54.5097656 C193.279297,54.7701836 193.393228,54.9003906 193.621094,54.9003906 L207.585938,54.9003906 C207.846355,54.9003906 207.976562,54.7701836 207.976562,54.5097656 L207.976562,50.8964844 C207.976562,50.6686187 207.846355,50.5546875 207.585938,50.5546875 L193.621094,50.5546875 C193.393228,50.5546875 193.279297,50.6686187 193.279297,50.8964844 L193.279297,54.5097656 Z M191.082031,60.90625 C190.463539,60.90625 189.934573,60.6865256 189.495117,60.2470703 C189.055662,59.807615 188.835938,59.2949248 188.835938,58.7089844 L188.835938,41.7167969 C188.835938,40.935543 189.120765,40.260094 189.69043,39.6904297 C190.260094,39.1207654 190.935543,38.8359375 191.716797,38.8359375 L209.685547,38.8359375 C210.466801,38.8359375 211.14225,39.1207654 211.711914,39.6904297 C212.281578,40.260094 212.566406,40.935543 212.566406,41.7167969 L212.566406,58.3671875 C212.566406,58.9856802 212.338544,59.5227842 211.882812,59.9785156 C211.427081,60.4342471 210.889977,60.6621094 210.271484,60.6621094 L209.734375,60.6621094 C209.246091,60.6621094 208.831056,60.4830747 208.489258,60.125 C208.147459,59.7669253 207.976562,59.3437524 207.976562,58.8554688 C207.976562,58.7252598 207.895183,58.6601562 207.732422,58.6601562 L193.523438,58.6601562 C193.360676,58.6601562 193.279297,58.7415356 193.279297,58.9042969 C193.279297,59.4576851 193.083986,59.9296855 192.693359,60.3203125 C192.302732,60.7109395 191.830732,60.90625 191.277344,60.90625 L191.082031,60.90625 Z M197.136719,31.0722656 L207.244141,31.0722656 C208.350917,31.0722656 209.115883,30.8281274 209.539062,30.3398438 C209.962242,29.8515601 210.255208,28.8424556 210.417969,27.3125 C210.483073,26.7916641 210.743487,26.4091809 211.199219,26.1650391 C211.65495,25.9208972 212.143227,25.8802075 212.664062,26.0429688 C213.282555,26.3033867 213.770832,26.7102837 214.128906,27.2636719 C214.421876,27.6868511 214.568359,28.1425757 214.568359,28.6308594 L214.568359,29.0214844 C214.177732,31.4303506 213.494146,33.0742144 212.517578,33.953125 C211.541011,34.8320356 209.880871,35.2714844 207.537109,35.2714844 L196.794922,35.2714844 C193.702458,35.2714844 191.619146,34.8401736 190.544922,33.9775391 C189.470698,33.1149045 188.933594,31.4629028 188.933594,29.0214844 L188.933594,17.4980469 C188.933594,16.8795542 189.153318,16.3424502 189.592773,15.8867188 C190.032229,15.4309873 190.569333,15.203125 191.204102,15.203125 C191.83887,15.203125 192.384112,15.4309873 192.839844,15.8867188 C193.295575,16.3424502 193.523438,16.8795542 193.523438,17.4980469 L193.523438,21.8925781 C193.523438,22.1204438 193.637369,22.2180991 193.865234,22.1855469 C198.650415,21.1113228 202.73566,19.9231836 206.121094,18.6210938 C206.576825,18.4583325 207.03255,18.3769531 207.488281,18.3769531 C207.748699,18.3769531 207.992837,18.393229 208.220703,18.4257812 C208.936853,18.5559902 209.555336,18.8815078 210.076172,19.4023438 C210.401694,19.7278662 210.564453,20.0859355 210.564453,20.4765625 C210.564453,20.6067715 210.548177,20.7207026 210.515625,20.8183594 C210.417968,21.4042998 210.092451,21.778645 209.539062,21.9414062 C205.307271,23.4388096 200.082713,24.7734316 193.865234,25.9453125 C193.637369,25.9778647 193.523438,26.1243477 193.523438,26.3847656 L193.523438,29.0214844 C193.523438,29.8678428 193.743162,30.4212227 194.182617,30.6816406 C194.622073,30.9420586 195.606763,31.0722656 197.136719,31.0722656 Z M239.662109,20.8671875 C239.662109,20.6067695 239.531902,20.4765625 239.271484,20.4765625 L230.433594,20.4765625 C230.173176,20.4765625 230.042969,20.6067695 230.042969,20.8671875 L230.042969,23.5039062 C230.042969,23.731772 230.173176,23.8457031 230.433594,23.8457031 L239.271484,23.8457031 C239.531902,23.8457031 239.662109,23.731772 239.662109,23.5039062 L239.662109,20.8671875 Z M230.042969,30.3398438 C230.042969,30.5677095 230.173176,30.6816406 230.433594,30.6816406 L239.271484,30.6816406 C239.531902,30.6816406 239.662109,30.5677095 239.662109,30.3398438 L239.662109,27.4101562 C239.662109,27.1822905 239.531902,27.0683594 239.271484,27.0683594 L230.433594,27.0683594 C230.173176,27.0683594 230.042969,27.1822905 230.042969,27.4101562 L230.042969,30.3398438 Z M244.007812,31.21875 C244.007812,32.0000039 243.722985,32.6754529 243.15332,33.2451172 C242.583656,33.8147815 241.908207,34.0996094 241.126953,34.0996094 L230.433594,34.0996094 C230.173176,34.0996094 230.042969,34.2298164 230.042969,34.4902344 L230.042969,58.6601562 C230.042969,59.2786489 229.823244,59.8157529 229.383789,60.2714844 C228.944334,60.7272158 228.40723,60.9550781 227.772461,60.9550781 C227.137692,60.9550781 226.59245,60.7272158 226.136719,60.2714844 C225.680987,59.8157529 225.453125,59.2786489 225.453125,58.6601562 L225.453125,19.9394531 C225.453125,19.125647 225.737953,18.4420601 226.307617,17.8886719 C226.877281,17.3352837 227.55273,17.0585938 228.333984,17.0585938 L241.126953,17.0585938 C241.908207,17.0585938 242.583656,17.3352837 243.15332,17.8886719 C243.722985,18.4420601 244.007812,19.125647 244.007812,19.9394531 L244.007812,31.21875 Z M242.787109,45.0859375 C242.787109,45.3138032 242.917316,45.4277344 243.177734,45.4277344 L248.402344,45.4277344 C248.630209,45.4277344 248.744141,45.3138032 248.744141,45.0859375 L248.744141,41.0820312 C248.744141,40.8216133 248.630209,40.6914062 248.402344,40.6914062 L243.177734,40.6914062 C242.917316,40.6914062 242.787109,40.8216133 242.787109,41.0820312 L242.787109,45.0859375 Z M258.509766,46.0136719 C258.900393,46.4042988 259.095703,46.8600234 259.095703,47.3808594 C259.095703,47.9016953 258.908531,48.349282 258.53418,48.7236328 C258.159829,49.0979836 257.712242,49.2851562 257.191406,49.2851562 L253.285156,49.2851562 C253.024738,49.2851562 252.894531,49.4153633 252.894531,49.6757812 L252.894531,57.9765625 C252.894531,58.5625029 252.691083,59.0507793 252.28418,59.4414062 C251.877277,59.8320332 251.389,60.0273438 250.819336,60.0273438 C250.249672,60.0273438 249.761395,59.8320332 249.354492,59.4414062 C248.947589,59.0507793 248.744141,58.5625029 248.744141,57.9765625 L248.744141,49.6757812 C248.744141,49.4153633 248.630209,49.2851562 248.402344,49.2851562 L243.080078,49.2851562 C242.81966,49.2851562 242.673177,49.4153633 242.640625,49.6757812 C242.087237,53.7773643 240.459649,57.0650918 237.757812,59.5390625 C237.367186,59.864585 236.944013,60.0273438 236.488281,60.0273438 L236.244141,60.0273438 C235.690752,59.9622393 235.1862,59.734377 234.730469,59.34375 C234.372394,58.9856753 234.201497,58.5625024 234.217773,58.0742188 C234.23405,57.5859351 234.421222,57.1790381 234.779297,56.8535156 C236.830088,55.0305898 238.099607,52.6380356 238.587891,49.6757812 C238.652995,49.4153633 238.55534,49.2851562 238.294922,49.2851562 L234.876953,49.2851562 C234.356117,49.2851562 233.908531,49.0979836 233.53418,48.7236328 C233.159829,48.349282 232.972656,47.9016953 232.972656,47.3808594 C232.972656,46.8600234 233.159829,46.4042988 233.53418,46.0136719 C233.908531,45.6230449 234.356117,45.4277344 234.876953,45.4277344 L238.441406,45.4277344 C238.701824,45.4277344 238.832031,45.3138032 238.832031,45.0859375 L238.832031,41.0820312 C238.832031,40.8216133 238.701824,40.6914062 238.441406,40.6914062 L235.707031,40.6914062 C235.186195,40.6914062 234.746747,40.5123716 234.388672,40.1542969 C234.030597,39.7962222 233.851562,39.3649114 233.851562,38.8603516 C233.851562,38.3557917 234.030597,37.916343 234.388672,37.5419922 C234.746747,37.1676414 235.186195,36.9804688 235.707031,36.9804688 L256.263672,36.9804688 C256.784508,36.9804688 257.223957,37.1676414 257.582031,37.5419922 C257.940106,37.916343 258.119141,38.3557917 258.119141,38.8603516 C258.119141,39.3649114 257.940106,39.7962222 257.582031,40.1542969 C257.223957,40.5123716 256.784508,40.6914062 256.263672,40.6914062 L253.285156,40.6914062 C253.024738,40.6914062 252.894531,40.8216133 252.894531,41.0820312 L252.894531,45.0859375 C252.894531,45.3138032 253.024738,45.4277344 253.285156,45.4277344 L257.191406,45.4277344 C257.712242,45.4277344 258.151691,45.6230449 258.509766,46.0136719 Z M252.308594,30.4375 C252.308594,30.6653657 252.438801,30.7792969 252.699219,30.7792969 L261.830078,30.7792969 C262.090496,30.7792969 262.220703,30.6653657 262.220703,30.4375 L262.220703,27.4101562 C262.220703,27.1822905 262.090496,27.0683594 261.830078,27.0683594 L252.699219,27.0683594 C252.438801,27.0683594 252.308594,27.1822905 252.308594,27.4101562 L252.308594,30.4375 Z M262.220703,20.8671875 C262.220703,20.6067695 262.090496,20.4765625 261.830078,20.4765625 L252.699219,20.4765625 C252.438801,20.4765625 252.308594,20.6067695 252.308594,20.8671875 L252.308594,23.5039062 C252.308594,23.731772 252.438801,23.8457031 252.699219,23.8457031 L261.830078,23.8457031 C262.090496,23.8457031 262.220703,23.731772 262.220703,23.5039062 L262.220703,20.8671875 Z M263.929688,17.0585938 C264.710941,17.0585938 265.38639,17.3352837 265.956055,17.8886719 C266.525719,18.4420601 266.810547,19.125647 266.810547,19.9394531 L266.810547,55.2421875 C266.810547,56.5442773 266.655926,57.5533818 266.34668,58.2695312 C266.037433,58.9856807 265.475916,59.5390605 264.662109,59.9296875 C263.555333,60.4505234 261.74871,60.7434893 259.242188,60.8085938 L259.193359,60.8085938 C258.542314,60.8085938 257.940107,60.5807314 257.386719,60.125 C256.865883,59.7018208 256.491538,59.1484409 256.263672,58.4648438 C256.198567,58.2695303 256.166016,58.0742197 256.166016,57.8789062 C256.166016,57.5533838 256.263671,57.2441421 256.458984,56.9511719 C256.751955,56.4628882 257.175127,56.21875 257.728516,56.21875 C258.80274,56.2513022 259.958327,56.2675781 261.195312,56.2675781 C261.585939,56.2350259 261.854491,56.1455085 262.000977,55.9990234 C262.147462,55.8525383 262.220703,55.5839863 262.220703,55.1933594 L262.220703,34.5878906 C262.220703,34.3274727 262.090496,34.1972656 261.830078,34.1972656 L250.746094,34.1972656 C249.932288,34.1972656 249.248701,33.9124377 248.695312,33.3427734 C248.141924,32.7731091 247.865234,32.0976602 247.865234,31.3164062 L247.865234,19.9394531 C247.865234,19.125647 248.141924,18.4420601 248.695312,17.8886719 C249.248701,17.3352837 249.932288,17.0585938 250.746094,17.0585938 L263.929688,17.0585938 Z M288.339844,40.7402344 C288.307292,40.9681001 288.421223,41.0820312 288.681641,41.0820312 L311.972656,41.0820312 C312.233074,41.0820312 312.363281,40.9681001 312.363281,40.7402344 L312.363281,32.7324219 C312.363281,32.4720039 312.233074,32.3417969 311.972656,32.3417969 L288.974609,32.3417969 C288.746744,32.3417969 288.632812,32.4720039 288.632812,32.7324219 L288.632812,34.734375 C288.632812,37.0130322 288.535157,39.0149653 288.339844,40.7402344 Z M288.632812,27.703125 C288.632812,27.9309907 288.746744,28.0449219 288.974609,28.0449219 L314.169922,28.0449219 C314.983728,28.0449219 315.667315,28.3297498 316.220703,28.8994141 C316.774091,29.4690784 317.050781,30.1445273 317.050781,30.9257812 L317.050781,45.7207031 C317.050781,46.371748 316.822919,46.9251279 316.367188,47.3808594 C315.911456,47.8365908 315.358076,48.0644531 314.707031,48.0644531 L314.658203,48.0644531 C314.03971,48.0644531 313.502606,47.8365908 313.046875,47.3808594 C312.591144,46.9251279 312.363281,46.371748 312.363281,45.7207031 C312.363281,45.5253896 312.265626,45.4277344 312.070312,45.4277344 L288.144531,45.4277344 C287.884113,45.4277344 287.73763,45.5579414 287.705078,45.8183594 C286.663406,51.1569277 284.856784,55.5676909 282.285156,59.0507812 C281.894529,59.5716172 281.373701,59.8320312 280.722656,59.8320312 C280.071611,59.8320312 279.518231,59.6041689 279.0625,59.1484375 C278.574216,58.7252583 278.28125,58.2044302 278.183594,57.5859375 L278.183594,57.2441406 C278.183594,56.7558569 278.330077,56.3001323 278.623047,55.8769531 C279.729823,54.3144453 280.657548,52.6298918 281.40625,50.8232422 C282.154952,49.0165925 282.692056,47.1367285 283.017578,45.1835938 C283.343101,43.230459 283.562825,41.4726641 283.676758,39.9101562 C283.790691,38.3476484 283.847656,36.5898535 283.847656,34.6367188 L283.847656,22.234375 C283.847656,21.5182256 284.140622,20.9322939 284.726562,20.4765625 C285.117189,20.1835923 285.540362,20.0371094 285.996094,20.0371094 C286.191407,20.0371094 286.402994,20.0696611 286.630859,20.1347656 L286.826172,20.1835938 C287.054038,20.2486982 287.2819,20.2649741 287.509766,20.2324219 C296.624395,18.9628843 303.94854,17.5143311 309.482422,15.8867188 C310.003258,15.7239575 310.491534,15.6425781 310.947266,15.6425781 C312.02149,15.6425781 312.998042,16.0494751 313.876953,16.8632812 C314.202476,17.1562515 314.365234,17.4980449 314.365234,17.8886719 C314.365234,18.0188809 314.348958,18.1490879 314.316406,18.2792969 C314.186197,18.8326851 313.844404,19.1907544 313.291016,19.3535156 C306.617805,21.2415459 298.512417,22.7714785 288.974609,23.9433594 C288.746744,23.9759116 288.632812,24.1223945 288.632812,24.3828125 L288.632812,27.703125 Z" id="玉山e指開戶" fill="#EF7B6F" fill-rule="nonzero"></path>
    </g>
</svg>