<?xml version="1.0" encoding="UTF-8"?>
<svg width="314px" height="30px" viewBox="0 0 314 30" version="1.1" xmlns="http://www.w3.org/2000/svg" xmlns:xlink="http://www.w3.org/1999/xlink">
    <!-- Generator: Sketch 55.2 (78181) - https://sketchapp.com -->
    <title>好評活動延長優惠再</title>
    <desc>Created with Sketch.</desc>
    <g id="Page-1" stroke="none" stroke-width="1" fill="none" fill-rule="evenodd">
        <path d="M9.5625,9.5625 C9.58333344,9.41666594 9.5104175,9.34375 9.34375,9.34375 L6.28125,9.34375 C6.1145825,9.34375 6.02083344,9.41666594 6,9.5625 C5.62499812,11.2500084 5.06250375,13.6458178 4.3125,16.75 C4.27083313,16.8958341 4.31249937,17.0104163 4.4375,17.09375 C5.68750625,17.8645872 6.60416375,18.4687478 7.1875,18.90625 C7.31250063,18.9895837 7.40624969,18.9583341 7.46875,18.8125 C8.48958844,16.2291538 9.18749812,13.1458512 9.5625,9.5625 Z M9.9375,6.59375 C10.7708375,6.59375 11.3645816,6.62499969 11.71875,6.6875 C11.96875,6.72916687 12.1718742,6.84895734 12.328125,7.046875 C12.4843758,7.24479266 12.5520834,7.46874875 12.53125,7.71875 C12.1354147,12.9479428 11.2395903,17.2395666 9.84375,20.59375 C9.78124969,20.7395841 9.81249937,20.8645828 9.9375,20.96875 C10.8333378,21.6770869 11.6249966,22.3854131 12.3125,23.09375 C12.6250016,23.4062516 12.78125,23.8020809 12.78125,24.28125 C12.78125,24.6770853 12.6562512,25.041665 12.40625,25.375 C12.1770822,25.6666681 11.8750019,25.8229166 11.5,25.84375 L11.46875,25.84375 C11.0937481,25.84375 10.7812512,25.7083347 10.53125,25.4375 C9.96875,24.8125 9.33333687,24.1979197 8.625,23.59375 C8.49999937,23.4895828 8.39583375,23.5104159 8.3125,23.65625 C7.10416063,25.7187603 5.5833425,27.41666 3.75,28.75 C3.49999875,28.9375009 3.23958469,29.03125 2.96875,29.03125 C2.86458281,29.03125 2.75000063,29.0104169 2.625,28.96875 C2.22916469,28.8854163 1.90625125,28.677085 1.65625,28.34375 C1.51041594,28.1354156 1.42187516,27.9114595 1.390625,27.671875 C1.35937484,27.4322905 1.39062453,27.2031261 1.484375,26.984375 C1.57812547,26.7656239 1.72916562,26.5833341 1.9375,26.4375 C3.54167469,25.3125 4.91666094,23.7604266 6.0625,21.78125 C6.12500031,21.6562494 6.09375063,21.5520837 5.96875,21.46875 C4.98957844,20.7395797 4.21875281,20.1875019 3.65625,19.8125 C3.57291625,19.7708331 3.52083344,19.7916663 3.5,19.875 C3.43749969,20.1458347 3.27604297,20.3385411 3.015625,20.453125 C2.75520703,20.5677089 2.50000125,20.5625006 2.25,20.4375 L2,20.28125 C1.64583156,20.0937491 1.39583406,19.8125 1.25,19.4375 C1.14583281,19.2291656 1.09375,19.0104178 1.09375,18.78125 C1.09375,18.6145825 1.11458313,18.4583341 1.15625,18.3125 C1.73958625,16.1041556 2.42707938,13.1875181 3.21875,9.5625 C3.23958344,9.41666594 3.17708406,9.34375 3.03125,9.34375 L1.84375,9.34375 C1.46875,9.34375 1.14583469,9.20833469 0.875,8.9375 C0.604165312,8.66666531 0.46875,8.33854359 0.46875,7.953125 C0.46875,7.56770641 0.604165312,7.24479297 0.875,6.984375 C1.14583469,6.72395703 1.46875,6.59375 1.84375,6.59375 L3.59375,6.59375 C3.7604175,6.59375 3.85416656,6.5104175 3.875,6.34375 C4.22916844,4.55207437 4.53124875,2.95834031 4.78125,1.5625 C4.84375031,1.16666469 5.041665,0.84375125 5.375,0.59375 C5.64583469,0.406249063 5.93749844,0.3125 6.25,0.3125 L6.4375,0.3125 C6.83333531,0.354166875 7.14583219,0.531248437 7.375,0.84375 C7.5416675,1.07291781 7.625,1.32291531 7.625,1.59375 C7.625,1.69791719 7.61458344,1.79166625 7.59375,1.875 C7.4270825,2.72917094 7.11458563,4.21873938 6.65625,6.34375 C6.63541656,6.5104175 6.69791594,6.59375 6.84375,6.59375 L9.9375,6.59375 Z M28.375,12.8125 C28.7708353,12.8125 29.1041653,12.9531236 29.375,13.234375 C29.6458347,13.5156264 29.78125,13.8489564 29.78125,14.234375 C29.78125,14.6197936 29.6458347,14.9479153 29.375,15.21875 C29.1041653,15.4895847 28.7708353,15.625 28.375,15.625 L22.65625,15.625 C22.5104159,15.625 22.4375,15.7083325 22.4375,15.875 L22.4375,25.96875 C22.4375,26.8020875 22.3281261,27.4427061 22.109375,27.890625 C21.8906239,28.3385439 21.5104194,28.6875 20.96875,28.9375 C20.1979128,29.2500016 18.9687584,29.4270831 17.28125,29.46875 L17.25,29.46875 C16.8333312,29.46875 16.4479184,29.3333347 16.09375,29.0625 C15.7395816,28.7708319 15.4687509,28.4062522 15.28125,27.96875 C15.1562494,27.635415 15.1927073,27.3229181 15.390625,27.03125 C15.5885427,26.7395819 15.8645816,26.59375 16.21875,26.59375 L18.78125,26.59375 C19.0312512,26.59375 19.2031245,26.5468755 19.296875,26.453125 C19.3906255,26.3593745 19.4375,26.1979178 19.4375,25.96875 L19.4375,15.875 C19.4375,15.7083325 19.3645841,15.625 19.21875,15.625 L13.71875,15.625 C13.3229147,15.625 12.9895847,15.4895847 12.71875,15.21875 C12.4479153,14.9479153 12.3125,14.6197936 12.3125,14.234375 C12.3125,13.8489564 12.4479153,13.5156264 12.71875,13.234375 C12.9895847,12.9531236 13.3229147,12.8125 13.71875,12.8125 L19.21875,12.8125 C19.3645841,12.8125 19.4375,12.7395841 19.4375,12.59375 L19.4375,9.78125 C19.4375,9.51041531 19.5312491,9.28125094 19.71875,9.09375 C19.9062509,8.90624906 20.1354153,8.8125 20.40625,8.8125 C20.4895837,8.8125 20.5624997,8.79166687 20.625,8.75 C21.8958397,7.5833275 23.1041609,6.22917438 24.25,4.6875 C24.2708334,4.64583313 24.2708334,4.60416687 24.25,4.5625 C24.2291666,4.52083313 24.1979169,4.5 24.15625,4.5 L14.78125,4.5 C14.4062481,4.5 14.0833347,4.36458469 13.8125,4.09375 C13.5416653,3.82291531 13.40625,3.50000188 13.40625,3.125 C13.40625,2.74999812 13.5416653,2.42708469 13.8125,2.15625 C14.0833347,1.88541531 14.4062481,1.75 14.78125,1.75 L26.4375,1.75 C26.5000003,1.75 26.5520831,1.73958344 26.59375,1.71875 C26.6979172,1.69791656 26.8020828,1.6875 26.90625,1.6875 C27.1145844,1.6875 27.3229156,1.76041594 27.53125,1.90625 L28.09375,2.3125 C28.3645847,2.52083438 28.5260414,2.791665 28.578125,3.125 C28.6302086,3.458335 28.5625009,3.76041531 28.375,4.03125 C26.5416575,6.46876219 24.6145934,8.56249125 22.59375,10.3125 C22.4895828,10.4166672 22.4375,10.5416659 22.4375,10.6875 L22.4375,12.59375 C22.4375,12.7395841 22.5104159,12.8125 22.65625,12.8125 L28.375,12.8125 Z M43.4450001,1.21875 C43.7575016,1.21875 44.0283322,1.33333219 44.2575001,1.5625 C44.4866679,1.79166781 44.6012501,2.06770672 44.6012501,2.390625 C44.6012501,2.71354328 44.4866679,2.98437391 44.2575001,3.203125 C44.0283322,3.42187609 43.7575016,3.53125 43.4450001,3.53125 L36.4137501,3.53125 C36.0804151,3.53125 35.7991679,3.42187609 35.5700001,3.203125 C35.3408322,2.98437391 35.2262501,2.71354328 35.2262501,2.390625 C35.2262501,2.06770672 35.3408322,1.79166781 35.5700001,1.5625 C35.7991679,1.33333219 36.0804151,1.21875 36.4137501,1.21875 L43.4450001,1.21875 Z M44.6325001,5.4375 C44.9658351,5.4375 45.2470822,5.55208219 45.4762501,5.78125 C45.7054179,6.01041781 45.8200001,6.28645672 45.8200001,6.609375 C45.8200001,6.93229328 45.7054179,7.21354047 45.4762501,7.453125 C45.2470822,7.69270953 44.9658351,7.8125 44.6325001,7.8125 L34.7887501,7.8125 C34.4554151,7.8125 34.1741679,7.69270953 33.9450001,7.453125 C33.7158322,7.21354047 33.6012501,6.93229328 33.6012501,6.609375 C33.6012501,6.28645672 33.7158322,6.01041781 33.9450001,5.78125 C34.1741679,5.55208219 34.4554151,5.4375 34.7887501,5.4375 L44.6325001,5.4375 Z M42.0700001,21 C42.0700001,20.8333325 41.9970841,20.75 41.8512501,20.75 L37.8200001,20.75 C37.674166,20.75 37.6012501,20.8333325 37.6012501,21 L37.6012501,25.125 C37.6012501,25.2916675 37.674166,25.375 37.8200001,25.375 L41.8512501,25.375 C41.9970841,25.375 42.0700001,25.2916675 42.0700001,25.125 L42.0700001,21 Z M42.8200001,18.375 C43.340836,18.375 43.7783316,18.5520816 44.1325001,18.90625 C44.4866685,19.2604184 44.6637501,19.6979141 44.6637501,20.21875 L44.6637501,25.9375 C44.6637501,26.4375025 44.4866685,26.8697898 44.1325001,27.234375 C43.7783316,27.5989602 43.340836,27.78125 42.8200001,27.78125 L37.7575001,27.78125 C37.6533329,27.78125 37.6012501,27.8229163 37.6012501,27.90625 C37.6012501,28.239585 37.4866679,28.5260405 37.2575001,28.765625 C37.0283322,29.0052095 36.7470851,29.125 36.4137501,29.125 L36.3200001,29.125 C35.9658316,29.125 35.6637513,29.0000012 35.4137501,28.75 C35.1637488,28.4999988 35.0387501,28.1979184 35.0387501,27.84375 L35.0387501,20.21875 C35.0387501,19.6979141 35.2210399,19.2604184 35.5856251,18.90625 C35.9502102,18.5520816 36.3824976,18.375 36.8825001,18.375 L42.8200001,18.375 Z M36.2575001,16.375 C35.9449985,16.375 35.6741679,16.2604178 35.4450001,16.03125 C35.2158322,15.8020822 35.1012501,15.5260433 35.1012501,15.203125 C35.1012501,14.8802067 35.2158322,14.6041678 35.4450001,14.375 C35.6741679,14.1458322 35.9449985,14.03125 36.2575001,14.03125 L43.5387501,14.03125 C43.8512516,14.03125 44.1220822,14.1458322 44.3512501,14.375 C44.5804179,14.6041678 44.6950001,14.8802067 44.6950001,15.203125 C44.6950001,15.5260433 44.5804179,15.8020822 44.3512501,16.03125 C44.1220822,16.2604178 43.8512516,16.375 43.5387501,16.375 L36.2575001,16.375 Z M36.2575001,12.09375 C35.9449985,12.09375 35.6741679,11.9791678 35.4450001,11.75 C35.2158322,11.5208322 35.1012501,11.2500016 35.1012501,10.9375 C35.1012501,10.6249984 35.2158322,10.3541678 35.4450001,10.125 C35.6741679,9.89583219 35.9449985,9.78125 36.2575001,9.78125 L43.5387501,9.78125 C43.8720851,9.78125 44.148124,9.89583219 44.3668751,10.125 C44.5856261,10.3541678 44.6950001,10.6249984 44.6950001,10.9375 C44.6950001,11.2500016 44.5856261,11.5208322 44.3668751,11.75 C44.148124,11.9791678 43.8720851,12.09375 43.5387501,12.09375 L36.2575001,12.09375 Z M61.6637501,15.5 C62.0595854,15.5 62.3929154,15.6406236 62.6637501,15.921875 C62.9345847,16.2031264 63.0700001,16.5364564 63.0700001,16.921875 C63.0700001,17.3072936 62.9345847,17.6354153 62.6637501,17.90625 C62.3929154,18.1770847 62.0595854,18.3125 61.6637501,18.3125 L55.9137501,18.3125 C55.767916,18.3125 55.6950001,18.3958325 55.6950001,18.5625 L55.6950001,28.03125 C55.6950001,28.4270853 55.5491682,28.7708319 55.2575001,29.0625 C54.9658319,29.3541681 54.6168771,29.5 54.2106251,29.5 C53.804373,29.5 53.4554182,29.3541681 53.1637501,29.0625 C52.8720819,28.7708319 52.7262501,28.4270853 52.7262501,28.03125 L52.7262501,18.5625 C52.7262501,18.3958325 52.6533341,18.3125 52.5075001,18.3125 L46.6950001,18.3125 C46.2991647,18.3125 45.9658347,18.1770847 45.6950001,17.90625 C45.4241654,17.6354153 45.2887501,17.3072936 45.2887501,16.921875 C45.2887501,16.5364564 45.4241654,16.2031264 45.6950001,15.921875 C45.9658347,15.6406236 46.2991647,15.5 46.6950001,15.5 L52.5075001,15.5 C52.6533341,15.5 52.7262501,15.4270841 52.7262501,15.28125 L52.7262501,4.84375 C52.7262501,4.6770825 52.6533341,4.59375 52.5075001,4.59375 L47.8200001,4.59375 C47.4241647,4.59375 47.096043,4.45833469 46.8356251,4.1875 C46.5752071,3.91666531 46.4450001,3.59375188 46.4450001,3.21875 C46.4450001,2.84375 46.5752071,2.52083469 46.8356251,2.25 C47.096043,1.97916531 47.4241647,1.84375 47.8200001,1.84375 L61.0700001,1.84375 C61.4450019,1.84375 61.7679154,1.97916531 62.0387501,2.25 C62.3095847,2.52083469 62.4450001,2.84375 62.4450001,3.21875 C62.4450001,3.59375188 62.3095847,3.91666531 62.0387501,4.1875 C61.7679154,4.45833469 61.4450019,4.59375 61.0700001,4.59375 L55.9137501,4.59375 C55.767916,4.59375 55.6950001,4.6770825 55.6950001,4.84375 L55.6950001,15.28125 C55.6950001,15.4270841 55.767916,15.5 55.9137501,15.5 L61.6637501,15.5 Z M47.3200001,7.90625 C47.2991666,7.80208281 47.2887501,7.69791719 47.2887501,7.59375 C47.2887501,7.38541562 47.3408329,7.18750094 47.4450001,7 C47.6116676,6.70833188 47.8616651,6.53125031 48.1950001,6.46875 C48.5283351,6.38541625 48.8460402,6.42708307 49.1481251,6.59375 C49.4502099,6.7604175 49.6533329,7.010415 49.7575001,7.34375 C50.2575026,9.05209187 50.6324988,10.7708247 50.8825001,12.5 L50.8825001,12.71875 C50.8825001,12.9895847 50.7991676,13.2499988 50.6325001,13.5 C50.4241657,13.8125016 50.1429185,14.0104163 49.7887501,14.09375 C49.6845829,14.1145834 49.5908338,14.125 49.5075001,14.125 C49.2783322,14.125 49.0595844,14.0520841 48.8512501,13.90625 C48.5804154,13.7187491 48.4241669,13.4479184 48.3825001,13.09375 C48.1741657,11.5312422 47.8200026,9.80209281 47.3200001,7.90625 Z M59.9450001,13.21875 C59.8199994,13.552085 59.6116682,13.7916659 59.3200001,13.9375 C59.1116657,14.0416672 58.913751,14.09375 58.7262501,14.09375 C58.6012494,14.09375 58.4762507,14.0729169 58.3512501,14.03125 C58.0387485,13.9479163 57.8095841,13.7604181 57.6637501,13.46875 C57.5595829,13.3020825 57.5075001,13.1250009 57.5075001,12.9375 C57.5075001,12.8124994 57.5283332,12.6875 57.5700001,12.5625 C58.0491691,11.0624925 58.4866647,9.31251 58.8825001,7.3125 C58.9658338,6.93749812 59.1741651,6.64583438 59.5075001,6.4375 C59.7366679,6.2708325 59.9866654,6.1875 60.2575001,6.1875 C60.3616672,6.1875 60.4658329,6.19791656 60.5700001,6.21875 C60.9658354,6.32291719 61.2574991,6.541665 61.4450001,6.875 C61.5700007,7.08333438 61.6325001,7.30208219 61.6325001,7.53125 C61.6325001,7.67708406 61.6116669,7.81249937 61.5700001,7.9375 C60.9033301,10.2291781 60.3616688,11.9895772 59.9450001,13.21875 Z M74.9212501,3.0625 C75.2754185,3.27083438 75.4941664,3.57291469 75.5775001,3.96875 L75.5775001,4.25 C75.5775001,4.52083469 75.4941676,4.78124875 75.3275001,5.03125 C75.0774989,5.364585 74.7441689,5.56249969 74.3275001,5.625 C74.2441664,5.64583344 74.1504173,5.65625 74.0462501,5.65625 C73.754582,5.65625 73.4733348,5.5729175 73.2025001,5.40625 C72.2858289,4.84374719 71.140007,4.16667062 69.7650001,3.375 C69.4524985,3.2083325 69.2597921,2.94791844 69.1868751,2.59375 C69.1139581,2.23958156 69.1920823,1.92708469 69.4212501,1.65625 C69.6712514,1.34374844 69.9837482,1.14583375 70.3587501,1.0625 C70.4837507,1.04166656 70.6087495,1.03125 70.7337501,1.03125 C70.9837514,1.03125 71.2233323,1.08333281 71.4525001,1.1875 C72.7441732,1.85417 73.9004117,2.47916375 74.9212501,3.0625 Z M73.2962501,11.65625 C73.6504185,11.8437509 73.8691664,12.1354147 73.9525001,12.53125 C73.9733335,12.6562506 73.9837501,12.7708328 73.9837501,12.875 C73.9837501,13.1458347 73.9108342,13.3958322 73.7650001,13.625 C73.5358323,13.9791684 73.2233354,14.1979163 72.8275001,14.28125 C72.7024995,14.3020834 72.5879173,14.3125 72.4837501,14.3125 C72.2129154,14.3125 71.9525014,14.2291675 71.7025001,14.0625 C70.6400001,13.4166634 69.4941729,12.76042 68.2650001,12.09375 C67.9524985,11.9270825 67.7545839,11.6666684 67.6712501,11.3125 C67.6504167,11.2083328 67.6400001,11.1145837 67.6400001,11.03125 C67.6400001,10.7812488 67.712916,10.5520844 67.8587501,10.34375 C68.1087514,10.0312484 68.4212482,9.82291719 68.7962501,9.71875 C68.9212507,9.69791656 69.056666,9.6875 69.2025001,9.6875 C69.4316679,9.6875 69.6712489,9.73958281 69.9212501,9.84375 C71.2337567,10.5312534 72.3587454,11.1354141 73.2962501,11.65625 Z M71.0150001,27.75 C70.8066657,28.1250019 70.4941689,28.3437497 70.0775001,28.40625 C69.9733329,28.4270834 69.8795839,28.4375 69.7962501,28.4375 C69.4837485,28.4375 69.1920848,28.3333344 68.9212501,28.125 C68.5879151,27.8541653 68.3900004,27.4895856 68.3275001,27.03125 C68.3066667,26.9479163 68.2962501,26.8541672 68.2962501,26.75 C68.2962501,26.416665 68.3899992,26.1041681 68.5775001,25.8125 C70.098341,23.5208219 71.5774929,21.0208469 73.0150001,18.3125 C73.202501,17.979165 73.4733317,17.7812503 73.8275001,17.71875 L74.0462501,17.71875 C74.3170848,17.71875 74.5566657,17.8124991 74.7650001,18 C75.0983351,18.2916681 75.2962501,18.6562478 75.3587501,19.09375 C75.3795835,19.21875 75.3900001,19.3333328 75.3900001,19.4375 C75.3900001,19.7291681 75.3275007,20.0208319 75.2025001,20.3125 C73.8691601,22.8958462 72.4733407,25.3749881 71.0150001,27.75 Z M91.2962501,25.46875 C91.4420842,25.46875 91.5150001,25.3854175 91.5150001,25.21875 L91.5150001,19.9375 C91.5150001,19.7916659 91.4420842,19.71875 91.2962501,19.71875 L81.1712501,19.71875 C81.0045826,19.71875 80.9212501,19.7916659 80.9212501,19.9375 L80.9212501,25.21875 C80.9212501,25.3854175 81.0045826,25.46875 81.1712501,25.46875 L91.2962501,25.46875 Z M95.7962501,9.875 C96.0879182,10.1458347 96.2337501,10.4739564 96.2337501,10.859375 C96.2337501,11.2447936 96.0931265,11.5781236 95.8118751,11.859375 C95.5306237,12.1406264 95.1920854,12.28125 94.7962501,12.28125 L87.9837501,12.28125 C87.837916,12.28125 87.7650001,12.3541659 87.7650001,12.5 L87.7650001,16.78125 C87.7650001,16.9479175 87.837916,17.03125 87.9837501,17.03125 L92.5150001,17.03125 C93.0150026,17.03125 93.4472899,17.2083316 93.8118751,17.5625 C94.1764603,17.9166684 94.3587501,18.3541641 94.3587501,18.875 L94.3587501,27.9375 C94.3587501,28.3125019 94.2181265,28.6406236 93.9368751,28.921875 C93.6556237,29.2031264 93.3170854,29.34375 92.9212501,29.34375 L92.5775001,29.34375 C92.285832,29.34375 92.0358345,29.2395844 91.8275001,29.03125 C91.6191657,28.8229156 91.5150001,28.5729181 91.5150001,28.28125 C91.5150001,28.1979163 91.4733339,28.15625 91.3900001,28.15625 L81.0775001,28.15625 C80.9733329,28.15625 80.9212501,28.2083328 80.9212501,28.3125 C80.9212501,28.645835 80.8066679,28.9270822 80.5775001,29.15625 C80.3483323,29.3854178 80.0670851,29.5 79.7337501,29.5 L79.5775001,29.5 C79.2024982,29.5 78.8795848,29.3645847 78.6087501,29.09375 C78.3379154,28.8229153 78.2025001,28.5000019 78.2025001,28.125 L78.2025001,18.875 C78.2025001,18.3541641 78.3847899,17.9166684 78.7493751,17.5625 C79.1139603,17.2083316 79.5462501,17.03125 80.0462501,17.03125 L84.7025001,17.03125 C84.8483342,17.03125 84.9212501,16.9479175 84.9212501,16.78125 L84.9212501,12.5 C84.9212501,12.3541659 84.8483342,12.28125 84.7025001,12.28125 L77.4525001,12.28125 C77.0566648,12.28125 76.7233348,12.1406264 76.4525001,11.859375 C76.1816654,11.5781236 76.0462501,11.2447936 76.0462501,10.859375 C76.0462501,10.4739564 76.1816654,10.1406264 76.4525001,9.859375 C76.7233348,9.57812359 77.0566648,9.4375 77.4525001,9.4375 L84.7025001,9.4375 C84.8483342,9.4375 84.9212501,9.3541675 84.9212501,9.1875 L84.9212501,5.125 C84.9212501,4.9583325 84.8483342,4.89583313 84.7025001,4.9375 C83.0566585,5.18750125 81.3587589,5.38541594 79.6087501,5.53125 C79.5462501,5.55208344 79.494167,5.5625 79.4525001,5.5625 C79.1399985,5.5625 78.8483348,5.45833438 78.5775001,5.25 C78.2649985,5.04166562 78.0462501,4.75000188 77.9212501,4.375 C77.8170829,4.06249844 77.8483326,3.76562641 78.0150001,3.484375 C78.1816676,3.20312359 78.4212485,3.04166687 78.7337501,3 C83.8796092,2.41666375 87.9837348,1.66667125 91.0462501,0.75 C91.3170848,0.66666625 91.5879154,0.625 91.8587501,0.625 C92.0879179,0.625 92.3066657,0.656249687 92.5150001,0.71875 C93.0150026,0.822917188 93.4420817,1.05208156 93.7962501,1.40625 C94.0045845,1.61458438 94.1087501,1.84374875 94.1087501,2.09375 C94.1087501,2.17708375 94.0983335,2.26041625 94.0775001,2.34375 C93.9941664,2.71875188 93.765002,2.96874937 93.3900001,3.09375 C91.8483257,3.57291906 90.0462604,3.99999812 87.9837501,4.375 C87.837916,4.39583344 87.7650001,4.4895825 87.7650001,4.65625 L87.7650001,9.1875 C87.7650001,9.3541675 87.837916,9.4375 87.9837501,9.4375 L94.7962501,9.4375 C95.1920854,9.4375 95.5254154,9.58333188 95.7962501,9.875 Z M109.96,22.90625 C109.793333,22.90625 109.71,22.9791659 109.71,23.125 L109.71,24.84375 C109.71,25.0104175 109.793333,25.0833334 109.96,25.0625 C112.62668,24.7916653 114.480828,24.6041672 115.5225,24.5 C115.689168,24.4791666 115.814166,24.4062506 115.8975,24.28125 C117.064173,22.614575 117.907914,20.6614695 118.42875,18.421875 C118.949586,16.1822805 119.282916,13.5208487 119.42875,10.4375 C119.42875,10.2708325 119.355834,10.1875 119.21,10.1875 L117.8975,10.1875 C117.376664,10.1875 116.939169,10.0104184 116.585,9.65625 C116.230832,9.30208156 116.05375,8.86458594 116.05375,8.34375 L116.05375,8.03125 C116.05375,7.88541594 115.970418,7.8125 115.80375,7.8125 L109.96,7.8125 C109.793333,7.8125 109.71,7.88541594 109.71,8.03125 L109.71,9.21875 C109.71,9.3854175 109.793333,9.46875 109.96,9.46875 L113.835,9.46875 C114.335003,9.46875 114.76729,9.64583156 115.131875,10 C115.49646,10.3541684 115.67875,10.7916641 115.67875,11.3125 L115.67875,17.25 C115.67875,17.7708359 115.49646,18.2083316 115.131875,18.5625 C114.76729,18.9166684 114.335003,19.09375 113.835,19.09375 L109.96,19.09375 C109.793333,19.09375 109.71,19.1770825 109.71,19.34375 L109.71,20.5 C109.71,20.6458341 109.793333,20.71875 109.96,20.71875 L114.6475,20.71875 C114.939168,20.71875 115.194374,20.8281239 115.413125,21.046875 C115.631876,21.2656261 115.74125,21.5260402 115.74125,21.828125 C115.74125,22.1302098 115.631876,22.3854156 115.413125,22.59375 C115.194374,22.8020844 114.939168,22.90625 114.6475,22.90625 L109.96,22.90625 Z M103.71,16.90625 C103.71,17.0729175 103.782916,17.15625 103.92875,17.15625 L106.7725,17.15625 C106.918334,17.15625 106.99125,17.0729175 106.99125,16.90625 L106.99125,15.4375 C106.99125,15.2708325 106.918334,15.1875 106.7725,15.1875 L103.92875,15.1875 C103.782916,15.1875 103.71,15.2708325 103.71,15.4375 L103.71,16.90625 Z M113.1475,15.4375 C113.1475,15.2708325 113.064168,15.1875 112.8975,15.1875 L109.96,15.1875 C109.793333,15.1875 109.71,15.2708325 109.71,15.4375 L109.71,16.90625 C109.71,17.0729175 109.793333,17.15625 109.96,17.15625 L112.8975,17.15625 C113.064168,17.15625 113.1475,17.0729175 113.1475,16.90625 L113.1475,15.4375 Z M109.71,13.125 C109.71,13.2916675 109.793333,13.375 109.96,13.375 L112.8975,13.375 C113.064168,13.375 113.1475,13.2916675 113.1475,13.125 L113.1475,11.65625 C113.1475,11.4895825 113.064168,11.40625 112.8975,11.40625 L109.96,11.40625 C109.793333,11.40625 109.71,11.4895825 109.71,11.65625 L109.71,13.125 Z M103.92875,11.40625 C103.782916,11.40625 103.71,11.4895825 103.71,11.65625 L103.71,13.125 C103.71,13.2916675 103.782916,13.375 103.92875,13.375 L106.7725,13.375 C106.918334,13.375 106.99125,13.2916675 106.99125,13.125 L106.99125,11.65625 C106.99125,11.4895825 106.918334,11.40625 106.7725,11.40625 L103.92875,11.40625 Z M122.36625,7.21875 C122.36625,7.36458406 122.439166,7.4375 122.585,7.4375 L127.1475,7.4375 C127.647503,7.4375 128.074582,7.62499812 128.42875,8 C128.762085,8.333335 128.92875,8.73958094 128.92875,9.21875 C128.92875,11.3854275 128.803751,14.8645594 128.55375,19.65625 C128.449583,22.0312619 128.293335,23.8958266 128.085,25.25 C127.876666,26.6041734 127.605835,27.5104144 127.2725,27.96875 C127.001665,28.4062522 126.694377,28.7239573 126.350625,28.921875 C126.006873,29.1197927 125.56417,29.2604163 125.0225,29.34375 C124.501664,29.4062503 123.866254,29.4375 123.11625,29.4375 L122.55375,29.4375 C122.137081,29.4166666 121.767293,29.2656264 121.444375,28.984375 C121.121457,28.7031236 120.8975,28.3437522 120.7725,27.90625 C120.689166,27.59375 120.741249,27.3020847 120.92875,27.03125 C121.116251,26.7604153 121.376665,26.6354166 121.71,26.65625 C122.272503,26.6770834 122.8975,26.6875 123.585,26.6875 C124.105836,26.6875 124.491249,26.5104184 124.74125,26.15625 C125.095419,25.7187478 125.366249,24.3437616 125.55375,22.03125 C125.741251,19.7187384 125.8975,15.8541937 126.0225,10.4375 C126.0225,10.2708325 125.949584,10.1875 125.80375,10.1875 L122.49125,10.1875 C122.324583,10.1875 122.24125,10.2708325 122.24125,10.4375 C122.032916,14.7291881 121.47563,18.3541519 120.569375,21.3125 C119.663121,24.2708481 118.168344,26.7395734 116.085,28.71875 C115.814165,28.9687512 115.501669,29.09375 115.1475,29.09375 C115.085,29.09375 115.032917,29.0833334 114.99125,29.0625 C114.574581,29.0208331 114.210002,28.8437516 113.8975,28.53125 C113.689166,28.3020822 113.480835,28.09375 113.2725,27.90625 C113.1475,27.8020828 113.085,27.6718758 113.085,27.515625 C113.085,27.3593742 113.1475,27.2291672 113.2725,27.125 L113.2725,27.078125 C113.2725,27.0677083 113.262084,27.0625 113.24125,27.0625 C109.407898,27.5208356 105.647519,27.9270816 101.96,28.28125 L101.835,28.28125 C101.522499,28.28125 101.241251,28.1875009 100.99125,28 C100.720415,27.7916656 100.55375,27.5104184 100.49125,27.15625 C100.449583,26.8020816 100.532916,26.4895847 100.74125,26.21875 C100.949585,25.9479153 101.230832,25.8020834 101.585,25.78125 C102.98084,25.6770828 104.70999,25.5312509 106.7725,25.34375 C106.918334,25.34375 106.99125,25.2604175 106.99125,25.09375 L106.99125,23.125 C106.99125,22.9791659 106.918334,22.90625 106.7725,22.90625 L102.24125,22.90625 C101.949582,22.90625 101.699585,22.8020844 101.49125,22.59375 C101.282916,22.3854156 101.17875,22.1302098 101.17875,21.828125 C101.17875,21.5260402 101.282916,21.2656261 101.49125,21.046875 C101.699585,20.8281239 101.949582,20.71875 102.24125,20.71875 L106.7725,20.71875 C106.918334,20.71875 106.99125,20.6458341 106.99125,20.5 L106.99125,19.34375 C106.99125,19.1770825 106.918334,19.09375 106.7725,19.09375 L103.11625,19.09375 C102.595414,19.09375 102.157919,18.9166684 101.80375,18.5625 C101.449582,18.2083316 101.2725,17.7708359 101.2725,17.25 L101.2725,11.3125 C101.2725,10.7916641 101.449582,10.3541684 101.80375,10 C102.157919,9.64583156 102.595414,9.46875 103.11625,9.46875 L106.7725,9.46875 C106.918334,9.46875 106.99125,9.3854175 106.99125,9.21875 L106.99125,8.03125 C106.99125,7.88541594 106.918334,7.8125 106.7725,7.8125 L101.49125,7.8125 C101.199582,7.8125 100.944376,7.70312609 100.725625,7.484375 C100.506874,7.26562391 100.3975,7.00520984 100.3975,6.703125 C100.3975,6.40104016 100.506874,6.14062609 100.725625,5.921875 C100.944376,5.70312391 101.199582,5.59375 101.49125,5.59375 L106.7725,5.59375 C106.918334,5.59375 106.99125,5.5104175 106.99125,5.34375 L106.99125,4.03125 C106.99125,3.88541594 106.918334,3.8125 106.7725,3.8125 C105.43916,3.91666719 103.991258,3.99999969 102.42875,4.0625 C102.116249,4.08333344 101.829793,3.99479266 101.569375,3.796875 C101.308957,3.59895734 101.126667,3.34375156 101.0225,3.03125 C100.939166,2.76041531 100.965208,2.51041781 101.100625,2.28125 C101.236043,2.05208219 101.439165,1.92708344 101.71,1.90625 C106.230856,1.61458188 110.001652,1.19791937 113.0225,0.65625 C113.147501,0.635416562 113.2725,0.625 113.3975,0.625 C113.647501,0.625 113.8975,0.677082812 114.1475,0.78125 C114.522502,0.9479175 114.814166,1.197915 115.0225,1.53125 C115.189168,1.80208469 115.210001,2.08333188 115.085,2.375 C114.96,2.66666812 114.741252,2.84374969 114.42875,2.90625 C113.012076,3.15625125 111.522508,3.3645825 109.96,3.53125 C109.793333,3.53125 109.71,3.6145825 109.71,3.78125 L109.71,5.34375 C109.71,5.5104175 109.793333,5.59375 109.96,5.59375 L114.5225,5.59375 C114.980836,5.59375 115.371457,5.75520672 115.694375,6.078125 C116.017293,6.40104328 116.17875,6.79166437 116.17875,7.25 C116.17875,7.37500063 116.251666,7.4375 116.3975,7.4375 L119.30375,7.4375 C119.449584,7.4375 119.532917,7.36458406 119.55375,7.21875 L119.55375,2.03125 C119.55375,1.63541469 119.694374,1.29687641 119.975625,1.015625 C120.256877,0.734373594 120.595415,0.59375 120.99125,0.59375 C121.387085,0.59375 121.720415,0.734373594 121.99125,1.015625 C122.262085,1.29687641 122.3975,1.62499812 122.3975,2 C122.3975,3.06250531 122.387084,4.80207125 122.36625,7.21875 Z M152.405,19.875 C152.550834,19.875 152.62375,19.7916675 152.62375,19.625 L152.62375,4.78125 C152.62375,4.6145825 152.550834,4.54166656 152.405,4.5625 C150.738325,4.81250125 148.894594,5.03124906 146.87375,5.21875 L146.74875,5.21875 C146.457082,5.21875 146.175835,5.12500094 145.905,4.9375 C145.613332,4.72916562 145.405001,4.43750188 145.28,4.0625 C145.175833,3.77083188 145.207083,3.48437641 145.37375,3.203125 C145.540418,2.92187359 145.779999,2.77083344 146.0925,2.75 C151.113359,2.20833063 155.238317,1.5208375 158.4675,0.6875 C158.675835,0.624999687 158.894582,0.59375 159.12375,0.59375 C159.352918,0.59375 159.592499,0.624999687 159.8425,0.6875 C160.300836,0.833334062 160.686249,1.08333156 160.99875,1.4375 C161.165418,1.62500094 161.24875,1.83333219 161.24875,2.0625 C161.24875,2.16666719 161.227917,2.27083281 161.18625,2.375 C161.082083,2.72916844 160.852919,2.94791625 160.49875,3.03125 C159.16541,3.38541844 157.602926,3.729165 155.81125,4.0625 C155.644583,4.08333344 155.56125,4.16666594 155.56125,4.3125 L155.56125,9.96875 C155.56125,10.1145841 155.644583,10.1875 155.81125,10.1875 L160.78,10.1875 C161.134169,10.1875 161.436249,10.317707 161.68625,10.578125 C161.936251,10.838543 162.06125,11.1458316 162.06125,11.5 C162.06125,11.8541684 161.936251,12.1562488 161.68625,12.40625 C161.436249,12.6562512 161.134169,12.78125 160.78,12.78125 L155.81125,12.78125 C155.644583,12.78125 155.56125,12.8645825 155.56125,13.03125 L155.56125,19.625 C155.56125,19.7916675 155.644583,19.875 155.81125,19.875 L161.3425,19.875 C161.717502,19.875 162.040416,20.005207 162.31125,20.265625 C162.582085,20.526043 162.7175,20.8437481 162.7175,21.21875 C162.7175,21.59375 162.582085,21.9166653 162.31125,22.1875 C162.040416,22.4583347 161.717502,22.59375 161.3425,22.59375 L145.405,22.59375 C145.029998,22.59375 144.712293,22.4583347 144.451875,22.1875 C144.191457,21.9166653 144.06125,21.59375 144.06125,21.21875 C144.06125,20.8437481 144.191457,20.526043 144.451875,20.265625 C144.712293,20.005207 145.029998,19.875 145.405,19.875 L146.24875,19.875 C146.415418,19.875 146.49875,19.7916675 146.49875,19.625 L146.49875,9.84375 C146.49875,9.44791469 146.634166,9.11458469 146.905,8.84375 C147.175835,8.57291531 147.503957,8.4375 147.889375,8.4375 C148.274794,8.4375 148.608124,8.57291531 148.889375,8.84375 C149.170627,9.11458469 149.31125,9.44791469 149.31125,9.84375 L149.31125,19.625 C149.31125,19.7916675 149.384166,19.875 149.53,19.875 L152.405,19.875 Z M141.405,11.125 C142.175837,11.125 142.779998,11.1874994 143.2175,11.3125 C143.467501,11.3750003 143.665416,11.5156239 143.81125,11.734375 C143.957084,11.9531261 144.009167,12.1874988 143.9675,12.4375 C143.467498,16.43752 142.592506,19.8124862 141.3425,22.5625 C141.28,22.7083341 141.31125,22.8333328 141.43625,22.9375 C142.873757,24.0625056 144.566449,24.8385395 146.514375,25.265625 C148.462302,25.6927105 150.76957,25.90625 153.43625,25.90625 C157.144602,25.90625 159.884158,25.8958334 161.655,25.875 C162.009169,25.875 162.279999,26.0208319 162.4675,26.3125 C162.571667,26.5000009 162.62375,26.6874991 162.62375,26.875 C162.62375,27.0000006 162.592501,27.1249994 162.53,27.25 C162.363333,27.7083356 162.09771,28.0729153 161.733125,28.34375 C161.36854,28.6145847 160.957086,28.75 160.49875,28.75 L153.3425,28.75 C150.363319,28.75 147.806053,28.5052108 145.670625,28.015625 C143.535198,27.5260392 141.665425,26.6458397 140.06125,25.375 C139.957083,25.2916663 139.863334,25.3124994 139.78,25.4375 C138.904996,26.7291731 137.925839,27.8437453 136.8425,28.78125 C136.550832,29.0104178 136.227919,29.125 135.87375,29.125 C135.81125,29.125 135.748751,29.1145834 135.68625,29.09375 C135.269581,29.0520831 134.894585,28.8854181 134.56125,28.59375 C134.290416,28.3437488 134.155,28.0416684 134.155,27.6875 C134.155,27.2916647 134.311249,26.96875 134.62375,26.71875 C135.811256,25.7812453 136.842496,24.64584 137.7175,23.3125 C137.800834,23.1874994 137.800834,23.0625006 137.7175,22.9375 C136.675828,21.5416597 135.790421,19.8541766 135.06125,17.875 C134.93625,17.541665 134.946666,17.2239598 135.0925,16.921875 C135.238334,16.6197902 135.477915,16.4062506 135.81125,16.28125 C136.12375,16.1770828 136.436249,16.1979159 136.74875,16.34375 C137.061252,16.4895841 137.269583,16.7187484 137.37375,17.03125 C137.832086,18.2604228 138.384164,19.3645784 139.03,20.34375 C139.050834,20.3854169 139.087292,20.4010417 139.139375,20.390625 C139.191459,20.3802083 139.227917,20.3541669 139.24875,20.3125 C139.977921,18.5416578 140.529998,16.4375122 140.905,14 C140.946667,13.8333325 140.884168,13.75 140.7175,13.75 L137.49875,13.75 C137.394583,13.75 137.311251,13.8020828 137.24875,13.90625 C137.061249,14.2187516 136.800835,14.4479159 136.4675,14.59375 C136.259166,14.6770837 136.061251,14.71875 135.87375,14.71875 C135.727916,14.71875 135.571668,14.6979169 135.405,14.65625 L135.28,14.59375 C134.925832,14.4895828 134.686251,14.270835 134.56125,13.9375 C134.49875,13.7916659 134.4675,13.6562506 134.4675,13.53125 C134.4675,13.3437491 134.519583,13.1562509 134.62375,12.96875 C135.95709,10.5729047 137.384159,7.875015 138.905,4.875 C138.925834,4.83333313 138.920625,4.78645859 138.889375,4.734375 C138.858125,4.68229141 138.821667,4.65625 138.78,4.65625 L134.905,4.65625 C134.550832,4.65625 134.248751,4.53125125 133.99875,4.28125 C133.748749,4.03124875 133.62375,3.72916844 133.62375,3.375 C133.62375,3.02083156 133.748749,2.71354297 133.99875,2.453125 C134.248751,2.19270703 134.550832,2.0625 134.905,2.0625 L140.56125,2.0625 C140.707084,1.99999969 140.852916,1.96875 140.99875,1.96875 C141.144584,1.96875 141.28,1.98958313 141.405,2.03125 L141.99875,2.21875 C142.269585,2.30208375 142.462291,2.47395703 142.576875,2.734375 C142.691459,2.99479297 142.686251,3.26041531 142.56125,3.53125 C141.457078,5.84376156 140.217507,8.31248688 138.8425,10.9375 C138.821667,10.9791669 138.826875,11.0208331 138.858125,11.0625 C138.889375,11.1041669 138.925833,11.125 138.9675,11.125 L141.405,11.125 Z M191.975,17.3125 C192.016667,17.2916666 192.027084,17.2604169 192.00625,17.21875 C191.985417,17.1770831 191.954167,17.15625 191.9125,17.15625 L183.2875,17.15625 C183.245833,17.15625 183.209375,17.1770831 183.178125,17.21875 C183.146875,17.2604169 183.152083,17.3124997 183.19375,17.375 C183.943754,18.7500069 184.839578,19.9687447 185.88125,21.03125 C185.985417,21.1354172 186.110416,21.1458337 186.25625,21.0625 C188.693762,19.6874931 190.599993,18.4375056 191.975,17.3125 Z M192.475,17.15625 C192.433333,17.15625 192.407292,17.1718748 192.396875,17.203125 C192.386459,17.2343752 192.391667,17.2604166 192.4125,17.28125 L193.1,17.75 C193.475002,18.0000012 193.6625,18.3541644 193.6625,18.8125 C193.6625,19.2500022 193.485419,19.5937488 193.13125,19.84375 C191.652076,20.8229216 190.016676,21.7812453 188.225,22.71875 C188.1625,22.7395834 188.13125,22.7760414 188.13125,22.828125 C188.13125,22.8802086 188.152083,22.9166666 188.19375,22.9375 C190.13126,24.2500066 192.339571,25.2291634 194.81875,25.875 C195.152085,25.9583337 195.370833,26.166665 195.475,26.5 C195.579167,26.833335 195.527085,27.1458319 195.31875,27.4375 C195.047916,27.8541688 194.693752,28.1562491 194.25625,28.34375 C194.006249,28.4687506 193.745835,28.53125 193.475,28.53125 C193.308333,28.53125 193.131251,28.5104169 192.94375,28.46875 C190.089569,27.6354125 187.652094,26.3958416 185.63125,24.75 C183.318739,22.8541572 181.485424,20.3958484 180.13125,17.375 C180.06875,17.2291659 179.954168,17.15625 179.7875,17.15625 L176.1,17.15625 C175.954166,17.15625 175.88125,17.2291659 175.88125,17.375 L175.88125,24.5625 C175.88125,24.7291675 175.954166,24.8020834 176.1,24.78125 L182.25625,23.8125 L182.475,23.8125 C182.745835,23.8125 182.985416,23.8958325 183.19375,24.0625 C183.506252,24.3125012 183.6625,24.6458312 183.6625,25.0625 C183.6625,25.3750016 183.558335,25.6666653 183.35,25.9375 C183.120832,26.2291681 182.829169,26.4062497 182.475,26.46875 C178.620814,27.13542 174.777103,27.7708303 170.94375,28.375 C170.839583,28.3958334 170.745834,28.40625 170.6625,28.40625 C170.370832,28.40625 170.089585,28.3229175 169.81875,28.15625 C169.485415,27.9270822 169.277084,27.625 169.19375,27.25 C169.152083,27.125 169.13125,27.0104172 169.13125,26.90625 C169.13125,26.6562488 169.204166,26.4270844 169.35,26.21875 C169.558335,25.9062484 169.85,25.7187503 170.225,25.65625 C170.787503,25.5729163 171.579162,25.4583341 172.6,25.3125 C172.745834,25.2916666 172.81875,25.2083341 172.81875,25.0625 L172.81875,17.375 C172.81875,17.2291659 172.745834,17.15625 172.6,17.15625 L168.6625,17.15625 C168.308332,17.15625 168.001043,17.026043 167.740625,16.765625 C167.480207,16.505207 167.35,16.1927102 167.35,15.828125 C167.35,15.4635398 167.480207,15.151043 167.740625,14.890625 C168.001043,14.630207 168.308332,14.5 168.6625,14.5 L172.6,14.5 C172.766668,14.5 172.85,14.4166675 172.85,14.25 L172.85,2.46875 C172.85,1.9687475 173.03229,1.53646016 173.396875,1.171875 C173.76146,0.807289844 174.193748,0.625 174.69375,0.625 L191.38125,0.625 C191.735419,0.625 192.032291,0.744790469 192.271875,0.984375 C192.51146,1.22395953 192.63125,1.52083156 192.63125,1.875 C192.63125,2.22916844 192.51146,2.52604047 192.271875,2.765625 C192.032291,3.00520953 191.735419,3.125 191.38125,3.125 L176.1,3.125 C175.954166,3.125 175.88125,3.2083325 175.88125,3.375 L175.88125,5.0625 C175.88125,5.2291675 175.954166,5.3125 176.1,5.3125 L190.5375,5.3125 C190.870835,5.3125 191.152082,5.42708219 191.38125,5.65625 C191.610418,5.88541781 191.725,6.166665 191.725,6.5 C191.725,6.833335 191.610418,7.11458219 191.38125,7.34375 C191.152082,7.57291781 190.870835,7.6875 190.5375,7.6875 L176.1,7.6875 C175.954166,7.6875 175.88125,7.7708325 175.88125,7.9375 L175.88125,9.6875 C175.88125,9.83333406 175.954166,9.90625 176.1,9.90625 L190.5375,9.90625 C190.870835,9.90625 191.152082,10.0208322 191.38125,10.25 C191.610418,10.4791678 191.725,10.7552067 191.725,11.078125 C191.725,11.4010433 191.610418,11.6770822 191.38125,11.90625 C191.152082,12.1354178 190.870835,12.25 190.5375,12.25 L176.1,12.25 C175.954166,12.25 175.88125,12.3333325 175.88125,12.5 L175.88125,14.25 C175.88125,14.4166675 175.954166,14.5 176.1,14.5 L194.5375,14.5 C194.891669,14.5 195.198957,14.630207 195.459375,14.890625 C195.719793,15.151043 195.85,15.4635398 195.85,15.828125 C195.85,16.1927102 195.719793,16.505207 195.459375,16.765625 C195.198957,17.026043 194.891669,17.15625 194.5375,17.15625 L192.475,17.15625 Z M222.7475,1.625 C222.893334,1.24999812 223.132915,0.968750937 223.46625,0.78125 C223.695418,0.656249375 223.924583,0.59375 224.15375,0.59375 C224.299584,0.59375 224.435,0.614583125 224.56,0.65625 C224.935002,0.760417188 225.216249,0.989581563 225.40375,1.34375 C225.507918,1.53125094 225.56,1.72916562 225.56,1.9375 C225.56,2.08333406 225.539167,2.2395825 225.4975,2.40625 C224.893331,4.072925 224.247504,5.64582594 223.56,7.125 C223.4975,7.27083406 223.46625,7.4270825 223.46625,7.59375 L223.46625,28.09375 C223.46625,28.4687519 223.325627,28.7968736 223.044375,29.078125 C222.763124,29.3593764 222.429794,29.5 222.044375,29.5 C221.658957,29.5 221.330835,29.3593764 221.06,29.078125 C220.789166,28.7968736 220.65375,28.4687519 220.65375,28.09375 L220.65375,12.78125 C220.65375,12.7395831 220.632917,12.7135417 220.59125,12.703125 C220.549584,12.6927083 220.518334,12.7083331 220.4975,12.75 C220.039165,13.4791703 219.591253,14.1354138 219.15375,14.71875 C218.966249,14.9687512 218.716252,15.09375 218.40375,15.09375 L218.21625,15.09375 C217.841249,15.0312497 217.570418,14.8229184 217.40375,14.46875 C217.216249,14.0729147 217.1225,13.6666688 217.1225,13.25 C217.1225,13.1666663 217.132917,13.0729172 217.15375,12.96875 C217.195417,12.4479141 217.372499,11.9791688 217.685,11.5625 C219.747511,8.74998594 221.434994,5.43751906 222.7475,1.625 Z M231.3725,11.875 C231.205833,11.875 231.1225,11.9479159 231.1225,12.09375 L231.1225,12.84375 C231.1225,13.0104175 231.205833,13.09375 231.3725,13.09375 L240.71625,13.09375 C240.882918,13.09375 240.96625,13.0104175 240.96625,12.84375 L240.96625,12.09375 C240.96625,11.9479159 240.882918,11.875 240.71625,11.875 L231.3725,11.875 Z M240.96625,6.9375 C240.96625,6.79166594 240.882918,6.71875 240.71625,6.71875 L231.3725,6.71875 C231.205833,6.71875 231.1225,6.79166594 231.1225,6.9375 L231.1225,7.65625 C231.1225,7.8229175 231.205833,7.90625 231.3725,7.90625 L240.71625,7.90625 C240.882918,7.90625 240.96625,7.8229175 240.96625,7.65625 L240.96625,6.9375 Z M240.71625,10.46875 C240.882918,10.46875 240.96625,10.3854175 240.96625,10.21875 L240.96625,9.46875 C240.96625,9.32291594 240.882918,9.25 240.71625,9.25 L231.3725,9.25 C231.205833,9.25 231.1225,9.32291594 231.1225,9.46875 L231.1225,10.21875 C231.1225,10.3854175 231.205833,10.46875 231.3725,10.46875 L240.71625,10.46875 Z M228.2475,14.84375 C228.080833,14.84375 227.9975,14.9166659 227.9975,15.0625 L227.9975,17.125 C227.9975,17.1666669 228.018334,17.1979166 228.06,17.21875 C228.101667,17.2395834 228.132917,17.2291669 228.15375,17.1875 C228.382918,16.9583322 228.601666,16.7239595 228.81,16.484375 C229.018335,16.2447905 229.273541,16.088542 229.575625,16.015625 C229.87771,15.942708 230.164166,15.9791659 230.435,16.125 C230.685002,16.2708341 230.846458,16.4895819 230.919375,16.78125 C230.992292,17.0729181 230.935001,17.3333322 230.7475,17.5625 C230.143331,18.3541706 229.528754,19.0208306 228.90375,19.5625 C228.632916,19.7708344 228.325627,19.8697917 227.981875,19.859375 C227.638124,19.8489583 227.330835,19.7291678 227.06,19.5 C226.830833,19.3333325 226.726667,19.1093764 226.7475,18.828125 C226.768334,18.5468736 226.893333,18.3229175 227.1225,18.15625 C227.330835,17.9895825 227.549583,17.8020844 227.77875,17.59375 C227.799584,17.5729166 227.804792,17.5416669 227.794375,17.5 C227.783959,17.4583331 227.747501,17.4375 227.685,17.4375 L227.2475,17.4375 C226.747498,17.4375 226.315211,17.2552102 225.950625,16.890625 C225.58604,16.5260398 225.40375,16.0937525 225.40375,15.59375 L225.40375,14.9375 C225.40375,14.4166641 225.58604,13.9791684 225.950625,13.625 C226.315211,13.2708316 226.747498,13.09375 227.2475,13.09375 L228.21625,13.09375 C228.362084,13.09375 228.435,13.0104175 228.435,12.84375 L228.435,6.96875 C228.435,6.44791406 228.61729,6.01041844 228.981875,5.65625 C229.346461,5.30208156 229.778748,5.125 230.27875,5.125 L233.65375,5.125 C233.799584,5.125 233.893334,5.0416675 233.935,4.875 C234.039168,4.41666437 234.112084,4.1041675 234.15375,3.9375 C234.174584,3.79166594 234.101668,3.71875 233.935,3.71875 L227.4975,3.71875 C227.205832,3.71875 226.950627,3.60937609 226.731875,3.390625 C226.513124,3.17187391 226.40375,2.91145984 226.40375,2.609375 C226.40375,2.30729016 226.513124,2.04687609 226.731875,1.828125 C226.950627,1.60937391 227.205832,1.5 227.4975,1.5 L244.8725,1.5 C245.185002,1.5 245.450624,1.60937391 245.669375,1.828125 C245.888127,2.04687609 245.9975,2.30729016 245.9975,2.609375 C245.9975,2.91145984 245.888127,3.17187391 245.669375,3.390625 C245.450624,3.60937609 245.185002,3.71875 244.8725,3.71875 L237.56,3.71875 C237.393333,3.71875 237.278751,3.79166594 237.21625,3.9375 C237.049583,4.33333531 236.924584,4.65624875 236.84125,4.90625 C236.799584,4.94791687 236.794375,4.99479141 236.825625,5.046875 C236.856876,5.09895859 236.90375,5.125 236.96625,5.125 L241.90375,5.125 C242.40375,5.125 242.83604,5.30208156 243.200625,5.65625 C243.565211,6.01041844 243.7475,6.44791406 243.7475,6.96875 L243.7475,12.84375 C243.7475,13.0104175 243.820416,13.09375 243.96625,13.09375 L244.77875,13.09375 C245.278753,13.09375 245.71104,13.2708316 246.075625,13.625 C246.440211,13.9791684 246.6225,14.4166641 246.6225,14.9375 L246.6225,15.59375 C246.6225,16.0937525 246.440211,16.5260398 246.075625,16.890625 C245.71104,17.2552102 245.278753,17.4375 244.77875,17.4375 L244.71625,17.4375 C244.674584,17.4375 244.643334,17.4583331 244.6225,17.5 C244.601667,17.5416669 244.612084,17.5729166 244.65375,17.59375 C244.862085,17.8229178 245.049583,18.0416656 245.21625,18.25 C245.40375,18.5 245.466251,18.7656236 245.40375,19.046875 C245.34125,19.3281264 245.174585,19.5520825 244.90375,19.71875 C244.632916,19.8645836 244.34646,19.901042 244.044375,19.828125 C243.742291,19.755208 243.497501,19.5937512 243.31,19.34375 C242.747498,18.6354131 242.070421,17.9166703 241.27875,17.1875 C241.112083,17.0208325 241.039167,16.8125012 241.06,16.5625 C241.080834,16.3124988 241.205833,16.1250006 241.435,16 C241.705835,15.8333325 241.997499,15.7656248 242.31,15.796875 C242.622502,15.8281252 242.893333,15.9479156 243.1225,16.15625 C243.330835,16.3437509 243.549583,16.5312491 243.77875,16.71875 C243.799584,16.7604169 243.830834,16.7708334 243.8725,16.75 C243.914167,16.7291666 243.935,16.6979169 243.935,16.65625 L243.935,15.0625 C243.935,14.9166659 243.851668,14.84375 243.685,14.84375 L237.21625,14.84375 C237.174584,14.84375 237.148542,14.8593748 237.138125,14.890625 C237.127709,14.9218752 237.143334,14.9583331 237.185,15 C237.455835,15.2083344 237.705833,15.4166656 237.935,15.625 C238.122501,15.8125009 238.200626,16.0416653 238.169375,16.3125 C238.138125,16.5833347 237.997502,16.7916659 237.7475,16.9375 C237.497499,17.1041675 237.22146,17.1666669 236.919375,17.125 C236.617291,17.0833331 236.362085,16.9583344 236.15375,16.75 C235.466247,16.0624966 234.705838,15.4687525 233.8725,14.96875 C233.851667,14.9479166 233.84125,14.9270834 233.84125,14.90625 C233.84125,14.8854166 233.851667,14.8645834 233.8725,14.84375 L228.2475,14.84375 Z M239.6225,22.90625 C239.664167,22.8645831 239.674584,22.8281252 239.65375,22.796875 C239.632917,22.7656248 239.601667,22.75 239.56,22.75 L232.56,22.75 C232.518334,22.75 232.487084,22.7656248 232.46625,22.796875 C232.445417,22.8281252 232.455834,22.8645831 232.4975,22.90625 C233.351671,23.6145869 234.455834,24.2604138 235.81,24.84375 C235.955834,24.8854169 236.101666,24.8750003 236.2475,24.8125 C237.601674,24.25 238.726663,23.6145869 239.6225,22.90625 Z M241.65375,20.96875 C241.966252,20.8854163 242.257916,20.9270825 242.52875,21.09375 L243.02875,21.34375 C243.278752,21.4895841 243.429792,21.692707 243.481875,21.953125 C243.533959,22.213543 243.476668,22.4583322 243.31,22.6875 C242.309995,23.8750059 240.997509,24.9374953 239.3725,25.875 C239.330834,25.8958334 239.315209,25.9270831 239.325625,25.96875 C239.336042,26.0104169 239.362084,26.03125 239.40375,26.03125 C241.27876,26.5104191 243.320406,26.8541656 245.52875,27.0625 C245.820419,27.1041669 246.02875,27.2604153 246.15375,27.53125 C246.216251,27.6562506 246.2475,27.7812494 246.2475,27.90625 C246.2475,28.0520841 246.195418,28.1979159 246.09125,28.34375 C245.841249,28.7395853 245.518336,29.03125 245.1225,29.21875 C244.809999,29.3854175 244.487085,29.46875 244.15375,29.46875 L243.8725,29.46875 C240.976653,29.0729147 238.372512,28.4270878 236.06,27.53125 C235.914166,27.4687497 235.768334,27.4687497 235.6225,27.53125 C233.330822,28.3229206 230.664182,28.9479144 227.6225,29.40625 C227.518333,29.4270834 227.414168,29.4375 227.31,29.4375 C226.664164,29.4375 226.122503,29.1145866 225.685,28.46875 C225.580833,28.3229159 225.52875,28.1770841 225.52875,28.03125 C225.52875,27.9270828 225.549584,27.8229172 225.59125,27.71875 C225.695418,27.4687488 225.882916,27.3229169 226.15375,27.28125 C228.632929,26.947915 230.799574,26.53125 232.65375,26.03125 C232.695417,26.03125 232.71625,26.0052086 232.71625,25.953125 C232.71625,25.9010414 232.695417,25.8645834 232.65375,25.84375 C231.716246,25.2395803 230.903754,24.6250031 230.21625,24 C230.112083,23.8958328 229.987084,23.8749997 229.84125,23.9375 C229.153747,24.2916684 228.466254,24.6249984 227.77875,24.9375 C227.591249,25.0000003 227.393335,25.03125 227.185,25.03125 C227.039166,25.03125 226.893334,25.0104169 226.7475,24.96875 C226.414165,24.8645828 226.122502,24.6770847 225.8725,24.40625 C225.684999,24.2187491 225.617292,23.9895847 225.669375,23.71875 C225.721459,23.4479153 225.872499,23.2604172 226.1225,23.15625 C228.705847,22.1979119 230.757909,21.03125 232.27875,19.65625 C232.382918,19.5729163 232.372501,19.4895837 232.2475,19.40625 C231.684998,19.1145819 231.40375,18.4479219 231.40375,17.40625 L231.40375,16.75 C231.40375,16.416665 231.518333,16.1302095 231.7475,15.890625 C231.976668,15.6510405 232.263124,15.53125 232.606875,15.53125 C232.950627,15.53125 233.237083,15.6510405 233.46625,15.890625 C233.695418,16.1302095 233.81,16.416665 233.81,16.75 L233.81,17.40625 C233.81,17.7187516 233.882916,17.911458 234.02875,17.984375 C234.174584,18.057292 234.487081,18.09375 234.96625,18.09375 L238.40375,18.09375 C238.778752,18.09375 239.02875,18.0000009 239.15375,17.8125 C239.403752,17.3749978 239.695415,17.15625 240.02875,17.15625 C240.132918,17.15625 240.226667,17.1770831 240.31,17.21875 C240.601669,17.3020837 240.830833,17.4635405 240.9975,17.703125 C241.164168,17.9427095 241.205834,18.1979153 241.1225,18.46875 C240.976666,18.9687525 240.721461,19.3124991 240.356875,19.5 C239.99229,19.6875009 239.455837,19.78125 238.7475,19.78125 L235.7475,19.78125 C235.601666,19.78125 235.476668,19.8333328 235.3725,19.9375 C235.080832,20.2291681 234.757919,20.53125 234.40375,20.84375 C234.382917,20.8645834 234.377709,20.8906248 234.388125,20.921875 C234.398542,20.9531252 234.424584,20.96875 234.46625,20.96875 L241.65375,20.96875 Z M273.59875,8.15625 C273.59875,8.01041594 273.525835,7.9375 273.38,7.9375 L266.78625,7.9375 C266.640416,7.9375 266.5675,8.01041594 266.5675,8.15625 L266.5675,9.5 C266.5675,9.64583406 266.640416,9.71875 266.78625,9.71875 L273.38,9.71875 C273.525835,9.71875 273.59875,9.64583406 273.59875,9.5 L273.59875,8.15625 Z M273.38,13.34375 C273.525835,13.34375 273.59875,13.2604175 273.59875,13.09375 L273.59875,11.75 C273.59875,11.5833325 273.525835,11.5 273.38,11.5 L266.78625,11.5 C266.640416,11.5 266.5675,11.5833325 266.5675,11.75 L266.5675,13.09375 C266.5675,13.2604175 266.640416,13.34375 266.78625,13.34375 L273.38,13.34375 Z M266.5675,17.15625 C266.5675,17.3229175 266.640416,17.40625 266.78625,17.40625 L271.47375,17.34375 C271.515417,17.34375 271.541459,17.3281252 271.551875,17.296875 C271.562292,17.2656248 271.546667,17.2395834 271.505,17.21875 C271.359166,17.1354163 271.202918,17.0520837 271.03625,16.96875 C270.723749,16.8020825 270.546667,16.5364602 270.505,16.171875 C270.463334,15.8072898 270.588332,15.5208344 270.88,15.3125 C270.900834,15.2916666 270.906042,15.2656252 270.895625,15.234375 C270.885209,15.2031248 270.869584,15.1875 270.84875,15.1875 L266.78625,15.1875 C266.640416,15.1875 266.5675,15.2708325 266.5675,15.4375 L266.5675,17.15625 Z M256.505,13.09375 C256.505,13.2604175 256.588333,13.34375 256.755,13.34375 L263.255,13.34375 C263.421668,13.34375 263.505,13.2604175 263.505,13.09375 L263.505,11.75 C263.505,11.5833325 263.421668,11.5 263.255,11.5 L256.755,11.5 C256.588333,11.5 256.505,11.5833325 256.505,11.75 L256.505,13.09375 Z M256.755,7.9375 C256.588333,7.9375 256.505,8.01041594 256.505,8.15625 L256.505,9.5 C256.505,9.64583406 256.588333,9.71875 256.755,9.71875 L263.255,9.71875 C263.421668,9.71875 263.505,9.64583406 263.505,9.5 L263.505,8.15625 C263.505,8.01041594 263.421668,7.9375 263.255,7.9375 L256.755,7.9375 Z M263.255,6.0625 C263.421668,6.0625 263.505,5.98958406 263.505,5.84375 L263.505,4.5 C263.505,4.35416594 263.421668,4.28125 263.255,4.28125 L252.88,4.28125 C252.546665,4.28125 252.265418,4.16666781 252.03625,3.9375 C251.807083,3.70833219 251.6925,3.427085 251.6925,3.09375 C251.6925,2.760415 251.807083,2.47916781 252.03625,2.25 C252.265418,2.02083219 252.546665,1.90625 252.88,1.90625 L263.28625,1.90625 C263.432085,1.90625 263.505,1.84375063 263.505,1.71875 C263.505,1.30208125 263.650832,0.942709844 263.9425,0.640625 C264.234169,0.338540156 264.59354,0.1875 265.020625,0.1875 C265.447711,0.1875 265.812291,0.338540156 266.114375,0.640625 C266.41646,0.942709844 266.5675,1.30208125 266.5675,1.71875 C266.5675,1.84375063 266.63,1.90625 266.755,1.90625 L277.5675,1.90625 C277.900835,1.90625 278.182083,2.02083219 278.41125,2.25 C278.640418,2.47916781 278.755,2.760415 278.755,3.09375 C278.755,3.427085 278.640418,3.70833219 278.41125,3.9375 C278.182083,4.16666781 277.900835,4.28125 277.5675,4.28125 L266.78625,4.28125 C266.640416,4.28125 266.5675,4.35416594 266.5675,4.5 L266.5675,5.84375 C266.5675,5.98958406 266.640416,6.0625 266.78625,6.0625 L274.6925,6.0625 C275.213336,6.0625 275.650832,6.24478984 276.005,6.609375 C276.359169,6.97396016 276.53625,7.4062475 276.53625,7.90625 L276.53625,13.34375 C276.53625,13.8645859 276.359169,14.3020816 276.005,14.65625 C275.650832,15.0104184 275.213336,15.1875 274.6925,15.1875 L272.66125,15.1875 C272.619584,15.1875 272.59875,15.2031248 272.59875,15.234375 C272.59875,15.2656252 272.609167,15.28125 272.63,15.28125 C274.692511,16.3229219 276.48416,17.4583272 278.005,18.6875 C278.275835,18.8958344 278.406042,19.1718733 278.395625,19.515625 C278.385209,19.8593767 278.244585,20.1458322 277.97375,20.375 C277.702916,20.5833344 277.400835,20.6875 277.0675,20.6875 L276.97375,20.6875 C276.619582,20.6666666 276.296669,20.5416678 276.005,20.3125 C275.9425,20.2499997 275.833126,20.1562506 275.676875,20.03125 C275.520625,19.9062494 275.400834,19.8020837 275.3175,19.71875 C275.1925,19.6145828 275.057085,19.5729166 274.91125,19.59375 C272.827907,19.6354169 269.400858,19.6979163 264.63,19.78125 C264.588334,19.78125 264.5675,19.7968748 264.5675,19.828125 C264.5675,19.8593752 264.577917,19.8854166 264.59875,19.90625 C266.036258,20.6770872 267.286245,21.4999956 268.34875,22.375 C268.619585,22.6041678 268.755,22.8958316 268.755,23.25 C268.755,23.6250019 268.619585,23.9270822 268.34875,24.15625 C268.077916,24.3854178 267.765419,24.5 267.41125,24.5 L267.34875,24.5 C266.994582,24.5 266.671669,24.3750012 266.38,24.125 C265.65083,23.4791634 264.807089,22.8437531 263.84875,22.21875 C263.432082,21.9479153 263.22375,21.5625025 263.22375,21.0625 C263.22375,20.6666647 263.379999,20.3437512 263.6925,20.09375 L263.84875,19.9375 C263.890417,19.9166666 263.900834,19.8906252 263.88,19.859375 C263.859167,19.8281248 263.838334,19.8125 263.8175,19.8125 C259.129977,19.8958337 255.557096,19.9375 253.09875,19.9375 C252.744582,19.9375 252.442502,19.8177095 252.1925,19.578125 C251.942499,19.3385405 251.807084,19.0416684 251.78625,18.6875 C251.765417,18.354165 251.874791,18.0625012 252.114375,17.8125 C252.35396,17.5624988 252.640415,17.4375 252.97375,17.4375 L254.3175,17.4375 C256.296677,17.4375 259.275814,17.4270834 263.255,17.40625 C263.421668,17.40625 263.505,17.3229175 263.505,17.15625 L263.505,15.4375 C263.505,15.2708325 263.421668,15.1875 263.255,15.1875 L255.53625,15.1875 C255.036248,15.1875 254.603961,15.0104184 254.239375,14.65625 C253.87479,14.3020816 253.6925,13.8645859 253.6925,13.34375 L253.6925,7.90625 C253.6925,7.4062475 253.87479,6.97396016 254.239375,6.609375 C254.603961,6.24478984 255.036248,6.0625 255.53625,6.0625 L263.255,6.0625 Z M254.1925,27.375 C253.984166,27.7291684 253.671669,27.9583328 253.255,28.0625 C253.13,28.0833334 253.005001,28.09375 252.88,28.09375 C252.609166,28.09375 252.348752,28.0208341 252.09875,27.875 C251.765415,27.6874991 251.557084,27.4062519 251.47375,27.03125 C251.452917,26.9270828 251.4425,26.8229172 251.4425,26.71875 C251.4425,26.4687488 251.525833,26.2187512 251.6925,25.96875 C252.29667,25.0104119 252.848748,23.9062562 253.34875,22.65625 C253.473751,22.3020816 253.713332,22.0416675 254.0675,21.875 C254.234168,21.7916663 254.41125,21.75 254.59875,21.75 C254.765418,21.75 254.921666,21.7916663 255.0675,21.875 C255.4425,22.0208341 255.702916,22.2708316 255.84875,22.625 C255.952918,22.8125009 256.005,22.9999991 256.005,23.1875 C256.005,23.3541675 255.973751,23.5208325 255.91125,23.6875 C255.348748,25.1458406 254.775837,26.374995 254.1925,27.375 Z M262.84875,26.625 L269.16125,26.625 C269.76542,26.625 270.192499,26.5208344 270.4425,26.3125 C270.692502,26.1041656 270.869583,25.66667 270.97375,25 C271.036251,24.6874984 271.208124,24.4479175 271.489375,24.28125 C271.770627,24.1145825 272.067499,24.0937494 272.38,24.21875 C272.755002,24.3645841 273.057083,24.5937484 273.28625,24.90625 C273.452918,25.1562512 273.53625,25.4270819 273.53625,25.71875 C273.53625,25.8020837 273.525834,25.8854163 273.505,25.96875 C273.275833,27.1979228 272.869587,28.0260395 272.28625,28.453125 C271.702914,28.8802105 270.74459,29.09375 269.41125,29.09375 L262.63,29.09375 C260.650824,29.09375 259.322712,28.8593773 258.645625,28.390625 C257.968539,27.9218727 257.63,27.0104234 257.63,25.65625 L257.63,23 C257.63,22.5833312 257.775832,22.2343764 258.0675,21.953125 C258.359169,21.6718736 258.708123,21.53125 259.114375,21.53125 C259.520628,21.53125 259.864374,21.6718736 260.145625,21.953125 C260.426877,22.2343764 260.5675,22.5833312 260.5675,23 L260.5675,25.625 C260.5675,26.0625022 260.708124,26.3385411 260.989375,26.453125 C261.270627,26.5677089 261.890412,26.625 262.84875,26.625 Z M273.91125,23.40625 C273.78625,23.2187491 273.72375,23.0312509 273.72375,22.84375 C273.72375,22.7395828 273.744584,22.6250006 273.78625,22.5 C273.890418,22.1874984 274.098749,21.9791672 274.41125,21.875 C274.619585,21.7916663 274.8175,21.75 275.005,21.75 C275.192501,21.75 275.38,21.7812497 275.5675,21.84375 C275.963336,21.9687506 276.275833,22.1874984 276.505,22.5 C277.421672,23.7708397 278.161248,24.9999941 278.72375,26.1875 C278.807084,26.3541675 278.84875,26.5312491 278.84875,26.71875 C278.84875,26.9062509 278.807084,27.0833325 278.72375,27.25 C278.557083,27.6041684 278.286252,27.8541659 277.91125,28 C277.744583,28.0416669 277.588335,28.0625 277.4425,28.0625 C277.234166,28.0625 277.025835,28.0208337 276.8175,27.9375 C276.463332,27.7708325 276.202918,27.5000019 276.03625,27.125 C275.494581,25.9583275 274.786255,24.7187566 273.91125,23.40625 Z M299.918751,19.03125 C299.918751,19.1770841 300.002083,19.25 300.168751,19.25 L306.387501,19.25 C306.533335,19.25 306.606251,19.1770841 306.606251,19.03125 L306.606251,16.125 C306.606251,15.9791659 306.533335,15.90625 306.387501,15.90625 L300.168751,15.90625 C300.002083,15.90625 299.918751,15.9791659 299.918751,16.125 L299.918751,19.03125 Z M290.731251,15.90625 C290.585416,15.90625 290.512501,15.9791659 290.512501,16.125 L290.512501,19.03125 C290.512501,19.1770841 290.585416,19.25 290.731251,19.25 L296.731251,19.25 C296.897918,19.25 296.981251,19.1770841 296.981251,19.03125 L296.981251,16.125 C296.981251,15.9791659 296.897918,15.90625 296.731251,15.90625 L290.731251,15.90625 Z M296.981251,10.34375 C296.981251,10.1770825 296.897918,10.09375 296.731251,10.09375 L290.731251,10.09375 C290.585416,10.09375 290.512501,10.1770825 290.512501,10.34375 L290.512501,13.125 C290.512501,13.2916675 290.585416,13.375 290.731251,13.375 L296.731251,13.375 C296.897918,13.375 296.981251,13.2916675 296.981251,13.125 L296.981251,10.34375 Z M306.606251,10.34375 C306.606251,10.1770825 306.533335,10.09375 306.387501,10.09375 L300.168751,10.09375 C300.002083,10.09375 299.918751,10.1770825 299.918751,10.34375 L299.918751,13.125 C299.918751,13.2916675 300.002083,13.375 300.168751,13.375 L306.387501,13.375 C306.533335,13.375 306.606251,13.2916675 306.606251,13.125 L306.606251,10.34375 Z M311.950001,19.25 C312.325002,19.25 312.647916,19.3854153 312.918751,19.65625 C313.189585,19.9270847 313.325001,20.2499981 313.325001,20.625 C313.325001,21.0000019 313.189585,21.3229153 312.918751,21.59375 C312.647916,21.8645847 312.325002,22 311.950001,22 L309.793751,22 C309.627083,22 309.543751,22.0833325 309.543751,22.25 L309.543751,26.09375 C309.543751,26.9270875 309.429168,27.5729144 309.200001,28.03125 C308.970833,28.4895856 308.575003,28.8333322 308.012501,29.0625 C307.262497,29.3541681 305.877094,29.5208331 303.856251,29.5625 C303.418748,29.5625 303.033336,29.4270847 302.700001,29.15625 C302.345832,28.8854153 302.085418,28.5416688 301.918751,28.125 C301.79375,27.791665 301.819791,27.4843764 301.996876,27.203125 C302.17396,26.9218736 302.439582,26.78125 302.793751,26.78125 L305.793751,26.78125 C306.106252,26.7604166 306.319792,26.7031255 306.434376,26.609375 C306.548959,26.5156245 306.606251,26.3333347 306.606251,26.0625 L306.606251,22.25 C306.606251,22.0833325 306.533335,22 306.387501,22 L290.731251,22 C290.585416,22 290.512501,22.0833325 290.512501,22.25 L290.512501,28.09375 C290.512501,28.4895853 290.366669,28.8333319 290.075001,29.125 C289.783332,29.4166681 289.434378,29.5625 289.028126,29.5625 C288.621873,29.5625 288.278127,29.4166681 287.996876,29.125 C287.715624,28.8333319 287.575001,28.4895853 287.575001,28.09375 L287.575001,22.25 C287.575001,22.0833325 287.491668,22 287.325001,22 L285.262501,22 C284.887501,22 284.564585,21.8645847 284.293751,21.59375 C284.022916,21.3229153 283.887501,21.0000019 283.887501,20.625 C283.887501,20.2499981 284.022916,19.9270847 284.293751,19.65625 C284.564585,19.3854153 284.887501,19.25 285.262501,19.25 L287.325001,19.25 C287.491668,19.25 287.575001,19.1770841 287.575001,19.03125 L287.575001,9.25 C287.575001,8.7499975 287.752082,8.31771016 288.106251,7.953125 C288.460419,7.58853984 288.897915,7.40625 289.418751,7.40625 L296.731251,7.40625 C296.897918,7.40625 296.981251,7.33333406 296.981251,7.1875 L296.981251,4.96875 C296.981251,4.8020825 296.897918,4.71875 296.731251,4.71875 L286.481251,4.71875 C286.106249,4.71875 285.783335,4.58854297 285.512501,4.328125 C285.241666,4.06770703 285.106251,3.74479359 285.106251,3.359375 C285.106251,2.97395641 285.241666,2.64583469 285.512501,2.375 C285.783335,2.10416531 286.106249,1.96875 286.481251,1.96875 L310.700001,1.96875 C311.075002,1.96875 311.397916,2.10416531 311.668751,2.375 C311.939585,2.64583469 312.075001,2.97395641 312.075001,3.359375 C312.075001,3.74479359 311.939585,4.06770703 311.668751,4.328125 C311.397916,4.58854297 311.075002,4.71875 310.700001,4.71875 L300.168751,4.71875 C300.002083,4.71875 299.918751,4.8020825 299.918751,4.96875 L299.918751,7.1875 C299.918751,7.33333406 300.002083,7.40625 300.168751,7.40625 L307.700001,7.40625 C308.220836,7.40625 308.658332,7.58853984 309.012501,7.953125 C309.366669,8.31771016 309.543751,8.7499975 309.543751,9.25 L309.543751,19.03125 C309.543751,19.1770841 309.627083,19.25 309.793751,19.25 L311.950001,19.25 Z" id="好評活動延長優惠再" fill="#EF7B6F" fill-rule="nonzero"></path>
    </g>
</svg>