<?xml version="1.0" encoding="UTF-8"?>
<svg width="56px" height="55px" viewBox="0 0 56 55" version="1.1" xmlns="http://www.w3.org/2000/svg" xmlns:xlink="http://www.w3.org/1999/xlink">
    <!-- Generator: Sketch 52.3 (67297) - http://www.bohemiancoding.com/sketch -->
    <title>Group 40</title>
    <desc>Created with Sketch.</desc>
    <defs>
        <polygon id="path-1" points="0.00013902439 0.0982926829 53.1213585 0.0982926829 53.1213585 53.2193732 0.00013902439 53.2193732"></polygon>
        <polygon id="path-3" points="0 0 2.71428571 0 2.71428571 38 0 38"></polygon>
    </defs>
    <g id="Page-1" stroke="none" stroke-width="1" fill="none" fill-rule="evenodd">
        <g id="Group-40">
            <g id="Group-8">
                <path d="M29.3419317,1.78034878 C14.672078,1.78034878 2.78132195,13.6724951 2.78132195,28.3409585 C2.78132195,43.0108122 14.672078,54.9015683 29.3419317,54.9015683 C44.0103951,54.9015683 55.9011512,43.0108122 55.9011512,28.3409585 C55.9011512,13.6724951 44.0103951,1.78034878 29.3419317,1.78034878" id="Fill-1" fill="#C8C8C9"></path>
                <g id="Group-5" transform="translate(0.000000, 0.292646)">
                    <mask id="mask-2" fill="white">
                        <use xlink:href="#path-1"></use>
                    </mask>
                    <g id="Clip-4"></g>
                    <path d="M53.1213585,26.6587634 C53.1213585,41.3272268 41.2292122,53.2193732 26.562139,53.2193732 C11.8922854,53.2193732 0.00013902439,41.3272268 0.00013902439,26.6587634 C0.00013902439,11.9889098 11.8922854,0.0981536585 26.562139,0.0981536585 C41.2292122,0.0981536585 53.1213585,11.9889098 53.1213585,26.6587634" id="Fill-3" fill="#FCAA95" mask="url(#mask-2)"></path>
                </g>
            </g>
            <g id="Group-8" transform="translate(17.000000, 9.000000)">
                <path d="M9.89972193,19.7037037 C9.86228648,19.7037037 9.82876219,19.6998945 9.79132674,19.6960853 C3.47479234,19.2357167 0,16.403307 0,11.7120095 C0,7.606784 2.64785993,2.81481481 10.1114837,2.81481481 C14.9127203,2.81481481 17.5197924,4.96156912 18.6478846,6.24254748 C19.1736572,6.83732631 19.1026974,7.73738502 18.4880855,8.24781735 C17.8773847,8.76042636 16.9537906,8.69131665 16.4285768,8.09599366 C15.4491089,6.98588497 13.5600153,5.6619171 10.1114837,5.6619171 C3.62397542,5.6619171 2.92331782,9.89556692 2.92331782,11.7120095 C2.92331782,12.8585776 2.92331782,16.3412715 10.0069996,16.8593223 C10.8121413,16.9175486 11.4189309,17.5999389 11.3597046,18.3830009 C11.2999196,19.1306917 10.6596058,19.7037037 9.89972193,19.7037037" id="Fill-1" fill="#FAF8EC"></path>
                <path d="M8.88726381,33.7777778 C4.08625655,33.7777778 1.47900563,31.630151 0.350835977,30.3489768 C-0.174972663,29.754107 -0.100096619,28.8549992 0.510646041,28.3428561 C1.12194748,27.8318014 2.04560495,27.9009217 2.57029604,28.4952472 C3.54983115,29.6049814 5.43849556,30.9302402 8.88726381,30.9302402 C15.3757759,30.9302402 16.0759228,26.6953988 16.0759228,24.8781343 C16.0759228,23.7319351 16.0759228,20.2497972 8.991755,19.7300345 C8.18320548,19.6723435 7.57972691,18.9898489 7.64007477,18.2072114 C7.70321651,17.4191315 8.41062749,16.831337 9.20744271,16.893382 C15.5216166,17.353821 19,20.1877522 19,24.8781343 C19,28.9845317 16.3513996,33.7777778 8.88726381,33.7777778" id="Fill-3" fill="#FAF8EC"></path>
                <g id="Group-7" transform="translate(8.142857, 0.000000)">
                    <mask id="mask-4" fill="white">
                        <use xlink:href="#path-3"></use>
                    </mask>
                    <g id="Clip-6"></g>
                    <path d="M1.35895826,38 C0.608419099,38 0,37.3729479 0,36.5994232 L0,1.40057677 C0,0.627052121 0.608419099,0 1.35895826,0 C2.10897873,0 2.71428571,0.627052121 2.71428571,1.40057677 L2.71428571,36.5994232 C2.71428571,37.3729479 2.10897873,38 1.35895826,38" id="Fill-5" fill="#FAF8EC" mask="url(#mask-4)"></path>
                </g>
            </g>
        </g>
    </g>
</svg>