<?xml version="1.0" encoding="UTF-8"?>
<svg width="56px" height="55px" viewBox="0 0 56 55" version="1.1" xmlns="http://www.w3.org/2000/svg" xmlns:xlink="http://www.w3.org/1999/xlink">
    <!-- Generator: Sketch 52.3 (67297) - http://www.bohemiancoding.com/sketch -->
    <title>Group 41</title>
    <desc>Created with Sketch.</desc>
    <defs>
        <polygon id="path-1" points="0.00013902439 0.0982926829 53.1213585 0.0982926829 53.1213585 53.2193732 0.00013902439 53.2193732"></polygon>
        <polygon id="path-3" points="0 0.321536198 22.5231333 0.321536198 22.5231333 25.8009256 0 25.8009256"></polygon>
    </defs>
    <g id="Page-1" stroke="none" stroke-width="1" fill="none" fill-rule="evenodd">
        <g id="Group-41">
            <g id="Group-8">
                <path d="M29.3419317,1.78034878 C14.672078,1.78034878 2.78132195,13.6724951 2.78132195,28.3409585 C2.78132195,43.0108122 14.672078,54.9015683 29.3419317,54.9015683 C44.0103951,54.9015683 55.9011512,43.0108122 55.9011512,28.3409585 C55.9011512,13.6724951 44.0103951,1.78034878 29.3419317,1.78034878" id="Fill-1" fill="#C8C8C9"></path>
                <g id="Group-5" transform="translate(0.000000, 0.292646)">
                    <mask id="mask-2" fill="white">
                        <use xlink:href="#path-1"></use>
                    </mask>
                    <g id="Clip-4"></g>
                    <path d="M53.1213585,26.6587634 C53.1213585,41.3272268 41.2292122,53.2193732 26.562139,53.2193732 C11.8922854,53.2193732 0.00013902439,41.3272268 0.00013902439,26.6587634 C0.00013902439,11.9889098 11.8922854,0.0981536585 26.562139,0.0981536585 C41.2292122,0.0981536585 53.1213585,11.9889098 53.1213585,26.6587634" id="Fill-3" fill="#FCAA95" mask="url(#mask-2)"></path>
                </g>
            </g>
        </g>
        <g id="Group-6" transform="translate(17.000000, 10.000000)">
            <g id="Group-3">
                <mask id="mask-4" fill="white">
                    <use xlink:href="#path-3"></use>
                </mask>
                <g id="Clip-2"></g>
                <path d="M1.78449333,11.2353647 C3.70269333,7.38430588 7.63416,4.24595294 12.0424933,3.86207059 C12.99316,3.77948235 14.05576,3.78865882 14.98496,3.99207059 C17.3876933,4.51512941 18.69716,4.9556 17.69436,7.53418824 C16.88476,9.61418824 16.98596,9.34042353 15.1980933,9.89407059 C13.8840267,10.3008941 12.56076,10.6924235 11.2436267,11.0916 C9.29169333,11.6819529 5.40316,11.9878353 4.38196,14.1351294 C3.17829333,16.6663059 5.17162667,22.3985412 6.06862667,24.7874824 C6.61756,26.2526588 8.92982667,26.1333647 8.92676,24.4020706 C8.92216,22.7579529 8.63849333,21.2881882 8.34256,19.6670118 L7.82276,16.8116 C7.10516,16.0117176 7.23242667,15.6079529 8.20456,15.6003059 C9.19662667,14.6643059 12.41816,14.3324235 13.7444933,13.9332471 C15.4556933,13.4178353 17.28036,13.0201882 18.9056933,12.2539529 C22.1548267,10.7214824 23.6988933,7.41795294 21.4878267,4.27654118 C15.51396,-4.20710588 2.29049333,2.41065882 0.0334266667,10.4997176 C-0.248706667,11.5167765 1.29229333,12.2264235 1.78449333,11.2353647" id="Fill-1" fill="#FAF8EC" mask="url(#mask-4)"></path>
            </g>
            <path d="M7.39625755,29.8569095 C7.35141588,29.9556302 7.30502795,30.0558026 7.26018628,30.1545232 C6.96948856,30.797659 6.86125004,31.4233736 7.26018628,32.0636058 C7.6204659,32.6385083 8.28999842,33 8.99973381,33 C9.7094692,33 10.380548,32.6385083 10.7392813,32.0636058 C11.1382176,31.4233736 11.0315253,30.797659 10.7392813,30.1545232 C10.6944397,30.0558026 10.649598,29.9556302 10.6032101,29.8569095 C10.0836652,28.7143635 7.91580241,28.7143635 7.39625755,29.8569095" id="Fill-4" fill="#FAF8EC"></path>
        </g>
    </g>
</svg>