<?xml version="1.0" encoding="UTF-8"?>
<svg width="57px" height="56px" viewBox="0 0 57 56" version="1.1" xmlns="http://www.w3.org/2000/svg" xmlns:xlink="http://www.w3.org/1999/xlink">
    <!-- Generator: Sketch 52.3 (67297) - http://www.bohemiancoding.com/sketch -->
    <title>Group 8</title>
    <desc>Created with Sketch.</desc>
    <defs>
        <polygon id="path-1" points="0.000141025641 0.114102564 53.8860385 0.114102564 53.8860385 53.999859 0.000141025641 53.999859"></polygon>
    </defs>
    <g id="Page-1" stroke="none" stroke-width="1" fill="none" fill-rule="evenodd">
        <g id="Group-8">
            <path d="M30.0007066,2 C15.0877804,2 3,14.0888773 3,29 C3,43.912536 15.0877804,56 30.0007066,56 C44.9122196,56 57,43.912536 57,29 C57,14.0888773 44.9122196,2 30.0007066,2" id="Fill-1" fill="#C8C8C9"></path>
            <g id="Group-5">
                <mask id="mask-2" fill="white">
                    <use xlink:href="#path-1"></use>
                </mask>
                <g id="Clip-4"></g>
                <path d="M53.8860385,27.0569103 C53.8860385,41.9365256 41.8227051,53.999859 26.9445,53.999859 C12.0634744,53.999859 0.000141025641,41.9365256 0.000141025641,27.0569103 C0.000141025641,12.1758846 12.0634744,0.113961538 26.9445,0.113961538 C41.8227051,0.113961538 53.8860385,12.1758846 53.8860385,27.0569103" id="Fill-3" fill="#FCAA95" mask="url(#mask-2)"></path>
            </g>
            <path d="M38.4097088,18.3398556 C37.1327605,15.810167 33.9548022,15.3784747 31.609887,16.8183864 C29.5157494,18.1050263 28.5284925,20.5208157 27.8683996,22.9759776 C26.9604115,21.012973 25.5998706,19.2651114 23.7550694,17.9405051 C22.0399808,16.7101118 18.83608,16.4330975 16.9682189,18.5845281 C14.8193137,21.0635949 16.7606787,25.1780301 17.8661182,27.5727271 C20.2340934,32.6939756 23.7896595,37.1669826 27.3048705,41.5767122 C27.9361384,42.3711948 29.0646378,41.9141915 29.5546632,41.2940733 C32.6173214,37.4257167 35.1164505,33.2226932 36.9151316,28.6554732 C38.0594848,25.7475265 39.9749073,21.4404468 38.4097088,18.3398556" id="Fill-6" fill="#FAF8EC"></path>
        </g>
    </g>
</svg>