<?xml version="1.0" encoding="UTF-8"?>
<svg width="56px" height="55px" viewBox="0 0 56 55" version="1.1" xmlns="http://www.w3.org/2000/svg" xmlns:xlink="http://www.w3.org/1999/xlink">
    <!-- Generator: Sketch 52.3 (67297) - http://www.bohemiancoding.com/sketch -->
    <title>Group 41</title>
    <desc>Created with Sketch.</desc>
    <defs>
        <polygon id="path-1" points="0.00013902439 0.0982926829 53.1213585 0.0982926829 53.1213585 53.2193732 0.00013902439 53.2193732"></polygon>
    </defs>
    <g id="Page-1" stroke="none" stroke-width="1" fill="none" fill-rule="evenodd">
        <g id="Group-41">
            <g id="Group-8">
                <path d="M29.3419317,1.78034878 C14.672078,1.78034878 2.78132195,13.6724951 2.78132195,28.3409585 C2.78132195,43.0108122 14.672078,54.9015683 29.3419317,54.9015683 C44.0103951,54.9015683 55.9011512,43.0108122 55.9011512,28.3409585 C55.9011512,13.6724951 44.0103951,1.78034878 29.3419317,1.78034878" id="Fill-1" fill="#C8C8C9"></path>
                <g id="Group-5" transform="translate(0.000000, 0.292646)">
                    <mask id="mask-2" fill="white">
                        <use xlink:href="#path-1"></use>
                    </mask>
                    <g id="Clip-4"></g>
                    <path d="M53.1213585,26.6587634 C53.1213585,41.3272268 41.2292122,53.2193732 26.562139,53.2193732 C11.8922854,53.2193732 0.00013902439,41.3272268 0.00013902439,26.6587634 C0.00013902439,11.9889098 11.8922854,0.0981536585 26.562139,0.0981536585 C41.2292122,0.0981536585 53.1213585,11.9889098 53.1213585,26.6587634" id="Fill-3" fill="#FCAA95" mask="url(#mask-2)"></path>
                </g>
            </g>
            <g id="66455" transform="translate(13.000000, 12.000000)" fill="#FAF8EC">
                <path d="M26.7275436,25 L1.27305236,25 C0.569774372,25 0,25.6713483 0,26.5007022 C0,27.3286517 0.569774372,28 1.27305236,28 L26.7269476,28 C27.4302256,28 28,27.3286517 28,26.5007022 C27.999404,25.6713483 27.4296296,25 26.7275436,25 Z" id="Path"></path>
                <path d="M3.28235916,22.4989269 C2.57393977,22.4989269 2,23.058493 2,23.7491708 C2,24.4398486 2.57393977,25 3.28235916,25 L25.7176408,25 C26.4260602,25 27,24.4398486 27,23.7491708 C27,23.058493 26.4260602,22.4989269 25.7176408,22.4989269 L25.3976514,22.4989269 L25.3976514,11.2490732 L25.7176408,11.2490732 C26.0724509,11.2490732 26.3582201,10.9692902 26.3582201,10.6245366 C26.3582201,10.279783 26.0712502,10 25.7176408,10 L3.28235916,10 C2.92814946,10 2.64177993,10.279783 2.64177993,10.6245366 C2.64177993,10.9692902 2.92874982,11.2490732 3.28235916,11.2490732 L3.60294895,11.2490732 L3.60294895,22.4983416 L3.28235916,22.4983416 L3.28235916,22.4989269 Z M22.8329331,11.2490732 L22.8329331,22.4983416 L18.9870563,22.4983416 L18.9870563,11.2490732 L22.8329331,11.2490732 Z M16.422338,11.2490732 L16.422338,22.4983416 L12.5764613,22.4983416 L12.5764613,11.2490732 L16.422338,11.2490732 Z M6.16646655,11.2490732 L10.0123433,11.2490732 L10.0123433,22.4983416 L6.16646655,22.4983416 L6.16646655,11.2490732 Z" id="Shape" fill-rule="nonzero"></path>
                <path d="M1.27250663,8 L26.7150072,8 C26.7191773,8 26.7239431,8 26.7275175,8 C27.4310764,8 28,7.4489715 28,6.76883173 C28,6.22817825 27.6401782,5.76994849 27.1403595,5.60394827 L14.5168092,0.108073057 C14.1849867,-0.0360243525 13.8055058,-0.0360243525 13.4730876,0.108073057 L0.750645846,5.6466011 C0.203168605,5.88522641 -0.0976757984,6.46046327 0.0286192778,7.02763068 C0.154318623,7.59479808 0.67260502,8 1.27250663,8 Z" id="Path"></path>
            </g>
        </g>
    </g>
</svg>