<?xml version="1.0" encoding="UTF-8"?>
<svg width="57px" height="57px" viewBox="0 0 57 57" version="1.1" xmlns="http://www.w3.org/2000/svg" xmlns:xlink="http://www.w3.org/1999/xlink">
    <!-- Generator: Sketch 58 (84663) - https://sketch.com -->
    <title>群組 6</title>
    <desc>Created with Sketch.</desc>
    <g id="web" stroke="none" stroke-width="1" fill="none" fill-rule="evenodd">
        <g id="群組-6">
            <path d="M57,28.5004424 C57,44.2406283 44.2406283,57 28.5004424,57 C12.7602564,57 0,44.2406283 0,28.5004424 C0,12.7602564 12.7602564,0 28.5004424,0 C44.2406283,0 57,12.7602564 57,28.5004424" id="Fill-37" fill="#77B7A0"></path>
            <path d="M19.7485113,26.5997834 L36.248086,26.5997834 L36.248086,25.2008662 L19.7485113,25.2008662 L19.7485113,26.5997834 Z M19.7485113,30.8 L36.248086,30.8 L36.248086,29.4002166 L19.7485113,29.4002166 L19.7485113,30.8 Z M19.7485113,35.0010828 L36.248086,35.0010828 L36.248086,33.6004331 L19.7485113,33.6004331 L19.7485113,35.0010828 Z M19.7485113,39.2012993 L30.7502127,39.2012993 L30.7502127,37.8006497 L19.7485113,37.8006497 L19.7485113,39.2012993 Z M19.7485113,22.3995669 L27.9982987,22.3995669 L27.9982987,21.0006497 L19.7485113,21.0006497 L19.7485113,22.3995669 Z M19.7485113,18.1993503 L27.9982987,18.1993503 L27.9982987,16.7995669 L19.7485113,16.7995669 L19.7485113,18.1993503 Z M30.7502127,18.1993503 L30.7502127,14 L19.7485113,14 C18.2368726,14 17,15.2603248 17,16.7995669 L17,39.2012993 C17,40.7414076 18.2368726,42 19.7485113,42 L36.248086,42 C37.7622767,42 39,40.7414076 39,39.2012993 L39,22.3995669 L34.8742557,22.3995669 C32.6029696,22.3995669 30.7502127,20.5121114 30.7502127,18.1993503 L30.7502127,18.1993503 Z" id="Fill-39" fill="#FFFFFF"></path>
        </g>
    </g>
</svg>