<?xml version="1.0" encoding="UTF-8"?>
<svg width="55px" height="55px" viewBox="0 0 55 55" version="1.1" xmlns="http://www.w3.org/2000/svg" xmlns:xlink="http://www.w3.org/1999/xlink">
    <!-- Generator: Sketch 58 (84663) - https://sketch.com -->
    <title>群組 5</title>
    <desc>Created with Sketch.</desc>
    <g id="web" stroke="none" stroke-width="1" fill="none" fill-rule="evenodd">
        <g id="群組-5">
            <g id="Group-58" fill="#FA8796">
                <path d="M55,27.5 C55,42.6873126 42.6877707,55 27.5,55 C12.3126874,55 0,42.6873126 0,27.5 C0,12.3122293 12.3126874,0 27.5,0 C42.6877707,0 55,12.3122293 55,27.5" id="Fill-108"></path>
            </g>
            <g id="1374128" transform="translate(10.000000, 12.000000)" fill="#FFFFFF" fill-rule="nonzero">
                <path d="M31.7351964,6.07177737 C31.1361409,5.394043 30.2821787,5.02075194 29.3308391,5.02075194 L6.33154624,5.02075194 L6.10005936,3.30200194 C5.85057617,1.45043944 4.54892476,0 3.13658369,0 L1.44665557,0 C0.923776298,0 0.5,0.41967775 0.5,0.9375 C0.5,1.45532225 0.923776298,1.875 1.44665557,1.875 L3.13658369,1.875 C3.44030236,1.875 4.08348577,2.51098631 4.2232654,3.54980469 L6.93306697,23.6772461 C7.05238502,24.5644531 7.512647,25.3950195 8.22904829,26.0161133 C8.76030944,26.4768066 9.38820835,26.7832031 10.0459367,26.9113769 C9.77796418,27.3994141 9.62561177,27.9584961 9.62561177,28.5520019 C9.62561177,30.4533691 11.1875935,32 13.1072828,32 C15.0269721,32 16.5889538,30.4533691 16.5889538,28.5520019 C16.5889538,27.9855957 16.4494207,27.4511719 16.2038819,26.9792481 L21.1644557,26.9792481 C20.9189169,27.4511719 20.7793838,27.9855957 20.7793838,28.5520019 C20.7793838,30.4533691 22.3413655,32 24.2610548,32 C26.1807441,32 27.7427258,30.4533691 27.7427258,28.5520019 C27.7427258,27.9855957 27.6031927,27.4511719 27.3576539,26.9792481 L29.8379409,26.9792481 C30.3605736,26.9792481 30.7845964,26.5593262 30.7845964,26.0417481 C30.7845964,25.5239258 30.3605736,25.1042481 29.8379409,25.1042481 L10.7413834,25.1042481 C9.81642206,25.1042481 8.93189076,24.3371582 8.80961442,23.4291993 L8.61165492,21.9582519 L15.9795443,21.9582519 C15.9797908,21.9582519 15.9800373,21.9584961 15.9802838,21.9584961 C15.9805304,21.9584961 15.9807769,21.9582519 15.98127,21.9582519 L22.0630389,21.9582519 C22.0632854,21.9582519 22.063532,21.9584961 22.064025,21.9584961 C22.0642715,21.9584961 22.0642715,21.9582519 22.064518,21.9582519 L27.3029254,21.9582519 C28.2066856,21.9582519 29.0988592,21.6162109 29.8152605,20.9953613 C30.5316619,20.3742676 30.9919239,19.543457 31.1112419,18.65625 L32.469101,8.57080075 C32.5948286,7.63696288 32.3342519,6.74951175 31.7351964,6.07177737 L31.7351964,6.07177737 Z M14.6956426,28.5520019 C14.6956426,29.4194336 13.9831857,30.125 13.1072828,30.125 C12.2316264,30.125 11.5189229,29.4194336 11.5189229,28.5520019 C11.5189229,27.6848144 12.2316264,26.9792481 13.1072828,26.9792481 C13.9831857,26.9792481 14.6956426,27.6848144 14.6956426,28.5520019 L14.6956426,28.5520019 Z M25.8494147,28.5520019 C25.8494147,29.4194336 25.1369577,30.125 24.2610548,30.125 C23.3851519,30.125 22.6726949,29.4194336 22.6726949,28.5520019 C22.6726949,27.6848144 23.3851519,26.9792481 24.2610548,26.9792481 C25.1369577,26.9792481 25.8494147,27.6848144 25.8494147,28.5520019 L25.8494147,28.5520019 Z M30.3105291,7.30688475 C30.5449742,7.5720215 30.6450633,7.93261719 30.592307,8.32275388 L30.023081,12.5520019 L23.5818787,12.5520019 L23.9625132,6.89575194 L29.3308391,6.89575194 C29.7284838,6.89575194 30.0763304,7.04174806 30.3105291,7.30688475 L30.3105291,7.30688475 Z M16.8667874,20.0832519 L16.4859064,14.4270019 L21.5581559,14.4270019 L21.177275,20.0832519 L16.8667874,20.0832519 Z M16.3596856,12.5520019 L15.9790512,6.89575194 L22.0650111,6.89575194 L21.6843767,12.5520019 L16.3596856,12.5520019 Z M14.0815491,6.89575194 L14.4621836,12.5520019 L7.34525658,12.5520019 L6.58374122,6.89575194 L14.0815491,6.89575194 Z M7.59769807,14.4270019 L14.5884043,14.4270019 L14.9692852,20.0832519 L8.35921343,20.0832519 L7.59769807,14.4270019 Z M27.3029254,20.0832519 L23.0747771,20.0832519 L23.455658,14.4270019 L29.7706395,14.4270019 L29.2346944,18.4084472 C29.1124181,19.3164062 28.2276402,20.0832519 27.3029254,20.0832519 Z" id="Shape"></path>
            </g>
        </g>
    </g>
</svg>