<?xml version="1.0" encoding="UTF-8"?>
<svg width="57px" height="57px" viewBox="0 0 57 57" version="1.1" xmlns="http://www.w3.org/2000/svg" xmlns:xlink="http://www.w3.org/1999/xlink">
    <!-- Generator: Sketch 52.3 (67297) - http://www.bohemiancoding.com/sketch -->
    <title>Group 65</title>
    <desc>Created with Sketch.</desc>
    <defs>
        <polygon id="path-1" points="0.133802793 0.113070103 52.8479735 0.113070103 52.8479735 29 0.133802793 29"></polygon>
        <polygon id="path-3" points="0 0.109548261 50.9533714 0.109548261 50.9533714 26.8525565 0 26.8525565"></polygon>
    </defs>
    <g id="Page-1" stroke="none" stroke-width="1" fill="none" fill-rule="evenodd">
        <g id="Group-65">
            <path d="M26.9644988,22.489783 L26.9644988,37.062783 L25.2164988,37.062783 L25.2164988,35.865783 L22.2144988,35.865783 L22.2144988,37.062783 L20.4854988,37.062783 L20.4854988,22.489783 L26.9644988,22.489783 Z M22.2144988,34.136783 L25.2164988,34.136783 L25.2164988,24.218783 L22.2144988,24.218783 L22.2144988,34.136783 Z M13.4174988,19.867783 L15.2034988,19.867783 L15.2034988,23.553783 L19.0224988,23.553783 C19.0224988,29.747783 18.9274988,33.566783 18.7374988,35.029783 C18.5474988,36.473783 17.5974988,37.195783 15.9254988,37.195783 C15.6214988,37.195783 15.1274988,37.157783 14.4434988,37.100783 L13.9874988,35.447783 C14.6334988,35.504783 15.1844988,35.542783 15.6404988,35.542783 C16.4384988,35.542783 16.9134988,35.086783 17.0464988,34.212783 C17.1604988,33.319783 17.2174988,30.355783 17.2554988,25.301783 L15.2034988,25.301783 C15.0894988,30.830783 13.8544988,34.877783 11.4794988,37.461783 L10.1304988,36.264783 C12.2394988,33.984783 13.3414988,30.317783 13.4174988,25.301783 L10.5294988,25.301783 L10.5294988,23.553783 L13.4174988,23.553783 L13.4174988,19.867783 Z M32.4261351,22.451783 L30.5831351,22.451783 L30.5831351,20.722783 L36.7961351,20.722783 L36.7961351,22.451783 L34.1361351,22.451783 C33.9081351,23.819783 33.5851351,25.130783 33.1671351,26.346783 L36.4351351,26.346783 L36.4351351,35.675783 L33.3761351,35.675783 L33.3761351,36.701783 L31.7421351,36.701783 L31.7421351,29.500783 C31.4761351,29.994783 31.1721351,30.450783 30.8681351,30.906783 L29.9561351,29.443783 C31.1721351,27.372783 32.0081351,25.035783 32.4261351,22.451783 Z M39.5321351,24.693783 L39.5321351,26.061783 L41.9831351,26.061783 L41.9831351,24.693783 L39.5321351,24.693783 Z M39.5321351,27.524783 L39.5321351,28.835783 L41.9831351,28.835783 L41.9831351,27.524783 L39.5321351,27.524783 Z M43.6361351,28.835783 L47.2271351,28.835783 C47.2271351,33.053783 46.9991351,35.504783 46.5431351,36.207783 C46.1061351,36.910783 45.2511351,37.271783 43.9971351,37.271783 C43.5221351,37.271783 43.0281351,37.252783 42.5341351,37.233783 L42.1541351,35.637783 C42.7051351,35.694783 43.2181351,35.732783 43.6931351,35.732783 C44.6431351,35.732783 45.2131351,35.371783 45.3651351,34.668783 C45.5171351,33.946783 45.5931351,32.502783 45.5931351,30.336783 L37.8601351,30.336783 L37.8601351,20.380783 L46.9041351,20.380783 L46.9041351,21.900783 L43.6361351,21.900783 L43.6361351,23.230783 L46.5431351,23.230783 L46.5431351,24.693783 L43.6361351,24.693783 L43.6361351,26.061783 L46.6001351,26.061783 L46.6001351,27.524783 L43.6361351,27.524783 L43.6361351,28.835783 Z M41.9831351,21.900783 L39.5321351,21.900783 L39.5321351,23.230783 L41.9831351,23.230783 L41.9831351,21.900783 Z M37.7081351,31.058783 L39.0381351,31.400783 C38.8101351,33.376783 38.5441351,35.105783 38.2021351,36.587783 L36.7201351,36.074783 C37.1001351,34.744783 37.4231351,33.072783 37.7081351,31.058783 Z M40.8431351,31.229783 C40.9761351,32.331783 41.0711351,33.851783 41.1281351,35.770783 L39.7601351,35.941783 C39.7221351,33.965783 39.6461351,32.445783 39.5511351,31.362783 L40.8431351,31.229783 Z M42.8191351,31.077783 C43.0471351,31.989783 43.1801351,33.224783 43.2561351,34.820783 L41.9261351,34.991783 C41.8501351,33.376783 41.7361351,32.122783 41.5651351,31.229783 L42.8191351,31.077783 Z M44.7191351,30.773783 C45.0231351,31.913783 45.2511351,32.958783 45.4221351,33.908783 L44.1871351,34.383783 C43.9971351,33.262783 43.7691351,32.179783 43.5031351,31.115783 L44.7191351,30.773783 Z M33.3761351,34.079783 L34.8771351,34.079783 L34.8771351,27.923783 L33.3761351,27.923783 L33.3761351,34.079783 Z" id="加碼" fill="#D66050" transform="translate(28.678817, 28.664783) rotate(-13.000000) translate(-28.678817, -28.664783) "></path>
            <g id="Group-23">
                <g id="Group-3" transform="translate(4.000000, 28.000000)">
                    <mask id="mask-2" fill="white">
                        <use xlink:href="#path-1"></use>
                    </mask>
                    <g id="Clip-2"></g>
                    <path d="M31.8494173,26.5607711 C20.0413726,29.9959258 7.80784749,24.9795237 1.48574693,15.0552454 L0.133802793,15.4483897 C6.70639497,26.0928845 19.6943559,31.5122969 32.2221939,27.8675649 C44.7524006,24.2222351 52.8936743,12.6560186 52.8479735,0.113070103 L51.4955402,0.506513402 C51.372367,12.3062247 43.6571659,23.1259155 31.8494173,26.5607711" id="Fill-1" fill="#D66050" mask="url(#mask-2)"></path>
                </g>
                <g id="Group-6">
                    <mask id="mask-4" fill="white">
                        <use xlink:href="#path-3"></use>
                    </mask>
                    <g id="Clip-5"></g>
                    <path d="M20.6244,2.50413261 C31.7018914,-0.709747826 43.1620286,3.61201304 49.5999771,12.461263 L50.9533714,12.0685891 C44.25168,2.51293696 32.0486914,-2.19973696 20.2572,1.22163261 C8.46629143,4.64241522 0.625405714,15.1706543 -0.000291428571,26.8525565 L1.35164571,26.4601761 C2.12655429,15.5181326 9.54661714,5.71830652 20.6244,2.50413261" id="Fill-4" fill="#D66050" mask="url(#mask-4)"></path>
                </g>
                <path d="M35.4497886,52.9892884 C46.4621251,49.8118523 53.7067032,39.8922534 54,29 L53.2409656,29.2193269 C52.8589428,39.6980177 45.8519499,49.20553 35.2419753,52.2666608 C24.6340642,55.3272013 13.6500257,51.010623 7.75667624,42.342634 L7,42.560485 C13.0354289,51.6266867 24.4392208,56.1661342 35.4497886,52.9892884" id="Fill-7" fill="#D66050"></path>
                <path d="M21.4719995,3.99514999 C11.0058118,6.96503169 3.93923921,15.9229203 3,26 L3.77783052,25.7791261 C4.79497081,16.1150224 11.6192828,7.56168176 21.6803259,4.70688698 C31.7437296,1.85151095 42.1420489,5.51743596 48.2218744,13.1678094 L49,12.9469355 C42.763192,4.90625471 31.9405478,1.02468705 21.4719995,3.99514999" id="Fill-9" fill="#D66050"></path>
                <polygon id="Fill-11" fill="#D66050" points="33.6288853 49 33.9118435 46.5040787 36 45.5847501 33.9707931 44.5112485 33.8360129 42 32.2993033 43.8329469 30.1283494 43.2006268 31.2076635 45.4062339 30 47.5273914 32.2036442 47.0573587"></polygon>
                <polygon id="Fill-13" fill="#D66050" points="27.024468 49 27.2605629 47.2172965 29 46.560573 27.3096216 45.7941991 27.1970933 44 25.9163549 45.3093203 24.1070093 44.8571597 25.0063163 46.4329423 24 47.9482992 25.8366346 47.6125685"></polygon>
                <polygon id="Fill-15" fill="#D66050" points="40.0243469 45 40.2601496 43.2171068 42 42.5607168 40.309518 41.7940934 40.1969827 40 38.9161658 41.3092431 37.1067092 40.8574039 38.0066847 42.4325041 37 43.9477718 38.8364406 43.6123556"></polygon>
                <polygon id="Fill-17" fill="#D66050" points="24.7959895 11.9429246 23.3704167 10 23.0885177 12.4945673 21 13.4153747 23.0290295 14.4888984 23.1638158 17 24.6995221 15.1677045 26.870305 15.7996135 25.7914787 13.5933434 27 11.4706463"></polygon>
                <polygon id="Fill-19" fill="#D66050" points="31.1643357 11.3871861 29.9773647 10 29.7402773 11.7841565 28 12.4387009 29.6893633 13.2055287 29.8028463 15 31.0836707 13.6909112 32.8947982 14.141813 31.995522 12.5671932 33 11.0518095"></polygon>
                <polygon id="Fill-21" fill="#D66050" points="18.1638349 14.3865472 16.9741765 13 16.7398638 14.7835878 15 15.438248 16.6892596 16.2052113 16.802429 18 18.0834816 16.6909745 19.8917377 17.1422508 18.99221 15.5676472 20 14.0511112"></polygon>
            </g>
        </g>
    </g>
</svg>