<?xml version="1.0" encoding="UTF-8"?>
<svg width="31px" height="31px" viewBox="0 0 31 31" version="1.1" xmlns="http://www.w3.org/2000/svg" xmlns:xlink="http://www.w3.org/1999/xlink">
    <!-- Generator: Sketch 52.3 (67297) - http://www.bohemiancoding.com/sketch -->
    <title>magnifying-glass</title>
    <desc>Created with Sketch.</desc>
    <g id="Page-1" stroke="none" stroke-width="1" fill="none" fill-rule="evenodd">
        <g id="magnifying-glass" fill="#188D76" fill-rule="nonzero">
            <path d="M20.194,3.46 C15.581,-1.153 8.073,-1.153 3.46,3.46 C-1.152,8.074 -1.152,15.581 3.46,20.195 C7.568,24.302 13.966,24.742 18.576,21.535 C18.673,21.994 18.895,22.432 19.252,22.789 L25.97,29.507 C26.949,30.484 28.531,30.484 29.505,29.507 C30.483,28.529 30.483,26.947 29.505,25.972 L22.787,19.252 C22.432,18.898 21.993,18.675 21.534,18.578 C24.743,13.967 24.303,7.57 20.194,3.46 Z M18.073,18.074 C14.629,21.518 9.024,21.518 5.581,18.074 C2.139,14.63 2.139,9.026 5.581,5.582 C9.024,2.139 14.629,2.139 18.073,5.582 C21.517,9.026 21.517,14.63 18.073,18.074 Z" id="Shape"></path>
        </g>
    </g>
</svg>