<?xml version="1.0" encoding="UTF-8"?>
<svg width="170px" height="170px" viewBox="0 0 170 170" version="1.1" xmlns="http://www.w3.org/2000/svg" xmlns:xlink="http://www.w3.org/1999/xlink">
    <!-- Generator: Sketch 58 (84663) - https://sketch.com -->
    <title>Group 12</title>
    <desc>Created with Sketch.</desc>
    <g id="web" stroke="none" stroke-width="1" fill="none" fill-rule="evenodd">
        <g id="Group-12" transform="translate(1.000000, 1.000000)" fill-rule="nonzero">
            <circle id="Oval" fill="#FA8796" cx="84.5" cy="84.5" r="77.5"></circle>
            <circle id="Oval" stroke="#FA8796" cx="84" cy="84" r="84"></circle>
            <path d="M60.4018182,51.44 L50.9218182,51.44 L50.9218182,61.06 L52.8018182,61.06 L52.8018182,60.18 L58.5018182,60.18 L58.5018182,61.06 L60.4018182,61.06 L60.4018182,51.44 Z M52.8018182,58.5 L52.8018182,56.62 L58.5018182,56.62 L58.5018182,58.5 L52.8018182,58.5 Z M52.8018182,54.94 L52.8018182,53.1 L58.5018182,53.1 L58.5018182,54.94 L52.8018182,54.94 Z M45.7818182,60.88 C47.0418182,60.88 47.6818182,60.22 47.6818182,58.92 L47.6818182,53.5 C48.4418182,53.22 49.1818182,52.9 49.9218182,52.58 L49.9218182,50.64 C49.2018182,51 48.4418182,51.32 47.6818182,51.62 L47.6818182,48.1 L49.7418182,48.1 L49.7418182,46.28 L47.6818182,46.28 L47.6818182,42.68 L45.8618182,42.68 L45.8618182,46.28 L43.3218182,46.28 L43.3218182,48.1 L45.8618182,48.1 L45.8618182,52.26 C44.9018182,52.56 43.9418182,52.82 42.9618182,53.02 L43.4218182,54.92 C44.2418182,54.68 45.0618182,54.44 45.8618182,54.16 L45.8618182,58.44 C45.8618182,58.92 45.6018182,59.18 45.1218182,59.18 C44.5418182,59.18 43.9218182,59.14 43.2818182,59.06 L43.7018182,60.88 L45.7818182,60.88 Z M60.5818182,44.02 L52.5618182,44.38 L52.5618182,42.76 L50.7618182,42.76 L50.7618182,48.16 C50.7618182,49.26 51.3018182,49.82 52.4018182,49.82 L60.8818182,49.82 L60.8818182,48.08 L53.3218182,48.08 C52.8018182,48.08 52.5618182,47.84 52.5618182,47.38 L52.5618182,46.06 L60.5818182,45.68 L60.5818182,44.02 Z M67.1709091,48.38 L67.1709091,50.18 L72.2509091,50.18 L72.2509091,58.26 L72.0709091,58.22 C70.6709091,57.78 69.4909091,56.76 68.5509091,55.2 C68.8909091,54.2 69.1909091,53.1 69.4309091,51.94 L67.5909091,51.62 C66.9509091,54.9 65.6709091,57.54 63.7909091,59.5 L65.0309091,61.02 C66.1509091,59.9 67.0909091,58.54 67.8509091,56.94 C68.6509091,58.1 69.6909091,58.98 70.9709091,59.58 C72.7016783,60.3107692 75.5604061,60.6902071 79.5115327,60.7183136 L81.8709091,60.72 L82.2309091,58.84 C81.1909091,58.92 80.1509091,58.98 79.1509091,58.98 C77.1509091,58.96 75.4909091,58.86 74.1309091,58.66 L74.1309091,54.98 L79.8909091,54.98 L79.8909091,53.18 L74.1309091,53.18 L74.1309091,50.18 L79.0509091,50.18 L79.0509091,48.38 L67.1709091,48.38 Z M81.4709091,44.48 L74.1709091,44.48 C73.9109091,43.72 73.6309091,43.04 73.3509091,42.42 L71.3109091,42.74 C71.6309091,43.26 71.9509091,43.84 72.2309091,44.48 L64.7109091,44.48 L64.7109091,49.12 L66.5709091,49.12 L66.5709091,46.24 L79.6109091,46.24 L79.6109091,49.02 L81.4709091,49.02 L81.4709091,44.48 Z M85.36,55.7 C85.28,57.44 85.04,58.98 84.66,60.32 L86.18,60.78 C86.54,59.38 86.76,57.74 86.84,55.9 L85.36,55.7 Z M88.68,55.62 L87.34,55.9 C87.58,57.1 87.78,58.48 87.94,60.04 L89.46,59.7 C89.22,58.22 88.96,56.86 88.68,55.62 Z M90.34,50.36 L88.98,50.8 C89.14,51.36 89.3,51.96 89.46,52.56 C88.7,52.76 87.96,52.92 87.24,53.04 L87.5551366,52.6280618 C88.5739683,51.2497052 89.792381,49.1704762 91.24,46.42 L89.6,45.82 L89.1296,46.7992 C88.8992,47.2744 88.676,47.728 88.46,48.16 C87.9,48.26 87.32,48.36 86.76,48.44 C87.6,47.08 88.46,45.32 89.3,43.14 L87.58,42.46 C87,44.42 86.32,46.22 85.52,47.82 C85.3,48.14 85.04,48.38 84.76,48.5 L85.22,50.16 C86.02,50.04 86.82,49.9 87.6,49.78 L87.2407101,50.3977515 C86.6002367,51.4782249 86.06,52.2723077 85.62,52.78 C85.4,52.98 85.14,53.14 84.82,53.26 L85.3,54.84 C86.7,54.68 88.2,54.36 89.76,53.88 L89.88,54.4666667 C89.9,54.5688889 89.92,54.6733333 89.94,54.78 L91.34,54.44 C91.06,52.9 90.72,51.54 90.34,50.36 Z M90.58,55.06 L89.36,55.48 C89.72,56.5 90.04,57.68 90.34,59.02 L91.68,58.4 C91.36,57.22 91,56.1 90.58,55.06 Z M96.52,57.8 L99.92,57.8 L99.92,56.26 L97,56.26 C96.66,56.26 96.5,56.14 96.5,55.9 L96.5,53.66 L100.14,53.66 L100.14,52.06 L98.08,52.06 C97.9,51.38 97.72,50.76 97.56,50.22 L95.96,50.46 C96.18,50.96 96.38,51.5 96.56,52.06 L94.18,52.06 L94.18,53.66 L94.88,53.66 L94.88,56.16 C94.88,57.24 95.42,57.8 96.52,57.8 Z M95.78,45.68 L94.46,46.12 C94.82,46.76 95.16,47.5 95.46,48.34 L93.98,48.34 L93.98,49.94 L100.32,49.94 L100.32,48.34 L98.88,48.34 C99.22,47.56 99.48,46.72 99.66,45.8 L98.1,45.58 C97.98,46.54 97.76,47.46 97.48,48.34 L95.76,48.34 L96.78,47.88 C96.5,47.1 96.16,46.36 95.78,45.68 Z M100.82,60.76 C101.98,60.76 102.58,60.1 102.58,58.8 L102.58,43.3 L91.74,43.3 L91.74,60.9 L93.48,60.9 L93.48,44.98 L100.82,44.98 L100.82,58.42 C100.82,58.9 100.62,59.14 100.26,59.14 L97.82,59.06 L98.28,60.76 L100.82,60.76 Z M106.569091,43.24 L106.569091,49.96 L109.369091,49.96 L109.369091,58.18 L108.62835,58.38 C108.502424,58.4133333 108.375758,58.4466667 108.249091,58.48 L108.249091,51.88 L106.569091,51.88 L106.569091,58.9 L105.629091,59.1 L106.149091,60.94 C108.909091,60.28 111.329091,59.56 113.429091,58.8 L113.429091,56.88 C112.709091,57.14 111.929091,57.4 111.129091,57.66 L111.129091,54.54 L112.989091,54.54 L112.989091,52.74 L111.129091,52.74 L111.129091,49.96 L113.049091,49.96 L113.049091,47.58 L114.109091,48.96 C114.649091,48.52 115.169091,48.06 115.649091,47.56 C116.089091,48.32 116.589091,49.02 117.189091,49.7 C115.909091,50.64 114.389091,51.46 112.629091,52.16 L113.789091,53.68 C115.589091,52.92 117.169091,52.02 118.489091,50.98 C119.809091,52.1 121.389091,52.96 123.269091,53.6 L124.329091,52.04 C122.609091,51.48 121.109091,50.72 119.869091,49.76 C121.069091,48.52 121.969091,47.12 122.589091,45.54 L122.589091,44.16 L117.869091,44.16 C118.029091,43.76 118.189091,43.34 118.329091,42.92 L116.509091,42.56 C115.909091,44.48 114.749091,46.1 113.049091,47.42 L113.049091,43.24 L106.569091,43.24 Z M116.749091,46.16 C116.829091,46.06 116.909091,45.96 116.989091,45.84 L120.569091,45.84 C120.049091,46.82 119.369091,47.72 118.529091,48.56 C117.849091,47.84 117.249091,47.04 116.749091,46.16 Z M111.249091,48.2 L108.389091,48.2 L108.389091,45 L111.249091,45 L111.249091,48.2 Z M122.529091,53.38 L114.529091,53.38 L114.529091,61 L116.329091,61 L116.329091,60.24 L120.709091,60.24 L120.709091,61 L122.529091,61 L122.529091,53.38 Z M116.329091,58.52 L116.329091,55.1 L120.709091,55.1 L120.709091,58.52 L116.329091,58.52 Z M45.9798182,86.6277729 C44.8988182,89.4107729 43.6338182,92.1247729 42.2078182,94.7927729 L44.2318182,95.6897729 C45.5658182,93.0907729 46.8078182,90.3077729 47.9118182,87.3637729 L45.9798182,86.6277729 Z M44.1858182,74.9437729 L42.6448182,76.4617729 C44.3698182,77.7037729 45.7038182,78.8537729 46.6468182,79.9347729 L48.2108182,78.3707729 C47.1068182,77.2207729 45.7728182,76.0937729 44.1858182,74.9437729 Z M43.5418182,80.3257729 L41.9778182,81.8437729 C43.5878182,83.1087729 44.8528182,84.2817729 45.7728182,85.3397729 L47.3368182,83.7987729 C46.3018182,82.6257729 45.0368182,81.4757729 43.5418182,80.3257729 Z M54.5358182,74.7367729 L54.5358182,80.7167729 L49.5218182,80.7167729 L49.5218182,86.5587729 C49.4758182,89.7557729 48.8318182,92.3777729 47.5438182,94.4477729 L49.2228182,95.9657729 C50.6748182,93.6337729 51.4534269,90.6283815 51.5586443,86.9294704 L51.5688182,86.3517729 C52.4428182,86.4207729 53.2708182,86.5127729 54.0988182,86.6507729 C55.2948182,86.8117729 56.4908182,87.0187729 57.6638182,87.2717729 L58.3768182,85.5697729 C57.0888182,85.3167729 56.0078182,85.1327729 55.1568182,84.9947729 L53.516333,84.8097364 C52.9504513,84.7474888 52.3012797,84.6780805 51.5688182,84.6037729 L51.5688182,82.6947729 L59.7108182,82.6947729 L59.7108182,88.2377729 C57.0428182,88.6977729 54.2828182,89.0657729 51.4308182,89.2957729 L51.9138182,91.3427729 C54.6508182,91.0207729 57.2498182,90.6067729 59.7108182,90.1467729 L59.7108182,92.9527729 C59.7108182,93.5507729 59.3428182,93.8497729 58.6298182,93.8497729 C57.8478182,93.8497729 57.0198182,93.8037729 56.0998182,93.7347729 L56.6978182,95.8277729 L59.2968182,95.8277729 C60.9528182,95.8277729 61.8038182,95.1147729 61.8038182,93.6887729 L61.8038182,80.7167729 L56.6288182,80.7167729 L56.6288182,74.7367729 L54.5358182,74.7367729 Z M50.0968182,75.3117729 L48.3258182,76.1627729 C49.2228182,77.3127729 50.0508182,78.6237729 50.8328182,80.0497729 L52.5578182,79.1987729 C51.7758182,77.7957729 50.9478182,76.5077729 50.0968182,75.3117729 Z M61.0678182,75.3117729 C60.4008182,76.6227729 59.5038182,77.9567729 58.3768182,79.2907729 L60.0558182,80.1417729 C61.1598182,78.8537729 62.0798182,77.5197729 62.8158182,76.1397729 L61.0678182,75.3117729 Z M69.5209091,79.6817729 L72.7639091,79.6817729 L72.7639091,80.0497729 C72.7409091,80.2567729 72.6949091,80.4637729 72.6489091,80.6707729 L69.2449091,80.6707729 L69.5209091,79.6817729 Z M74.7879091,79.6817729 L77.7089091,79.6817729 L77.7089091,80.6707729 L74.7189091,80.6707729 L74.7879091,80.0497729 L74.7879091,79.6817729 Z M79.7559091,79.6817729 L84.8849091,79.6817729 L84.8849091,75.6337729 L79.7559091,75.6337729 L79.7559091,74.7367729 L77.7089091,74.7367729 L77.7089091,75.6337729 L74.7879091,75.6337729 L74.7879091,74.7367729 L72.7639091,74.7367729 L72.7639091,75.6337729 L67.3129091,75.6337729 L67.3129091,77.2437729 L72.7639091,77.2437729 L72.7639091,78.2327729 L67.9109091,78.2327729 L67.0829091,82.1657729 L71.6829091,82.1657729 C71.5679091,82.2577729 71.4529091,82.3497729 71.3149091,82.4417729 C70.4409091,83.0167729 68.7849091,83.4997729 66.3239091,83.8907729 L67.2209091,85.3167729 C67.7729091,85.2247729 68.2789091,85.1097729 68.7849091,85.0177729 L68.7849091,92.9757729 L72.6029091,92.9757729 C70.9699091,93.5737729 68.7159091,94.0567729 65.8179091,94.4707729 L66.7379091,96.0577729 C69.9579091,95.5287729 72.4419091,94.8617729 74.1669091,94.0337729 L73.3849091,92.9757729 L78.4909091,92.9757729 L77.8929091,94.1027729 C80.7449091,94.5627729 83.4589091,95.2067729 86.0809091,96.0807729 L86.7479091,94.4247729 C84.5629091,93.8267729 82.2859091,93.3437729 79.9399091,92.9757729 L83.9879091,92.9757729 L83.9879091,84.7417729 L69.9349091,84.7417729 C71.1769091,84.3967729 72.1659091,83.9827729 72.8789091,83.4767729 C73.3849091,83.1087729 73.7989091,82.6717729 74.1209091,82.1657729 L77.7089091,82.1657729 L77.7089091,84.2587729 L79.7559091,84.2587729 L79.7559091,82.1657729 L83.9879091,82.1657729 C83.9879091,82.4417729 83.9189091,82.6717729 83.8039091,82.8097729 C83.6659091,82.9477729 83.2749091,83.0167729 82.6309091,83.0167729 C82.1939091,83.0167729 81.7339091,82.9937729 81.2279091,82.9707729 L81.5729091,84.2127729 C81.9869091,84.2357729 82.4239091,84.2587729 82.8609091,84.2587729 C84.1029091,84.2357729 84.9079091,84.0287729 85.2529091,83.6147729 C85.5979091,83.2007729 85.7819091,82.2117729 85.7819091,80.6707729 L79.7559091,80.6707729 L79.7559091,79.6817729 Z M74.7879091,77.2437729 L77.7089091,77.2437729 L77.7089091,78.2327729 L74.7879091,78.2327729 L74.7879091,77.2437729 Z M79.7559091,77.2437729 L83.0679091,77.2437729 L83.0679091,78.2327729 L79.7559091,78.2327729 L79.7559091,77.2437729 Z M81.9409091,91.4577729 L70.8319091,91.4577729 L70.8319091,90.5377729 L81.9409091,90.5377729 L81.9409091,91.4577729 Z M70.8319091,89.2037729 L70.8319091,88.3757729 L81.9409091,88.3757729 L81.9409091,89.2037729 L70.8319091,89.2037729 Z M70.8319091,87.0187729 L70.8319091,86.1447729 L81.9409091,86.1447729 L81.9409091,87.0187729 L70.8319091,87.0187729 Z M90.9,77.1517729 L90.003,86.3517729 L92.349,86.3517729 C92.671,85.7537729 93.108,85.3167729 93.706,85.0407729 C94.258,84.7647729 94.879,84.6497729 95.615,84.6497729 C96.719,84.6497729 97.547,84.9717729 98.145,85.6157729 C98.743,86.2597729 99.042,87.1567729 99.042,88.3067729 C99.042,89.3647729 98.697,90.1927729 98.007,90.8367729 C97.317,91.4577729 96.466,91.7797729 95.454,91.7797729 C94.534,91.7797729 93.798,91.5727729 93.246,91.1587729 C92.625,90.6987729 92.257,89.9857729 92.165,89.0657729 L89.704,89.0657729 C89.819,90.5837729 90.463,91.8027729 91.636,92.6767729 C92.694,93.4817729 93.959,93.8957729 95.431,93.8957729 C97.064,93.8957729 98.467,93.4127729 99.64,92.4467729 C100.882,91.3657729 101.526,89.9857729 101.526,88.2837729 C101.526,86.5127729 101.02,85.1327729 100.054,84.1207729 C99.088,83.1087729 97.823,82.6027729 96.282,82.6027729 C95.638,82.6027729 95.0292188,82.6908197 94.4864727,82.8823217 L94.258,82.9707729 C93.591,83.2007729 93.016,83.5687729 92.51,84.0977729 L92.441,84.0977729 L92.924,79.3597729 L100.79,79.3597729 L100.79,77.1517729 L90.9,77.1517729 Z M120.743091,84.5807729 C119.455091,84.5807729 118.466091,85.0177729 117.776091,85.9377729 C117.155091,86.7197729 116.856091,87.7777729 116.856091,89.0887729 C116.856091,90.3767729 117.155091,91.4117729 117.776091,92.2397729 C118.466091,93.1137729 119.455091,93.5737729 120.743091,93.5737729 C122.008091,93.5737729 122.974091,93.1137729 123.664091,92.2397729 C124.262091,91.4347729 124.584091,90.3767729 124.584091,89.0887729 C124.584091,87.7777729 124.262091,86.7197729 123.664091,85.9377729 C122.974091,85.0177729 122.008091,84.5807729 120.743091,84.5807729 Z M118.466091,76.8297729 L109.266091,93.8957729 L111.129091,93.8957729 L120.352091,76.8297729 L118.466091,76.8297729 Z M108.921091,77.1517729 C107.633091,77.1517729 106.644091,77.5887729 105.954091,78.5087729 C105.333091,79.2907729 105.034091,80.3487729 105.034091,81.6597729 C105.034091,82.9477729 105.333091,83.9827729 105.954091,84.8107729 C106.644091,85.6847729 107.633091,86.1447729 108.921091,86.1447729 C110.186091,86.1447729 111.152091,85.6847729 111.842091,84.8107729 C112.440091,84.0057729 112.762091,82.9477729 112.762091,81.6597729 C112.762091,80.3487729 112.440091,79.2907729 111.842091,78.5087729 C111.152091,77.5887729 110.186091,77.1517729 108.921091,77.1517729 Z M120.743091,86.1677729 C121.318091,86.1677729 121.732091,86.4667729 121.985091,87.0877729 C122.192091,87.5707729 122.307091,88.2377729 122.307091,89.0887729 C122.307091,89.9167729 122.192091,90.5607729 122.008091,91.0437729 C121.732091,91.6647729 121.318091,91.9867729 120.743091,91.9867729 C120.145091,91.9867729 119.708091,91.6877729 119.432091,91.0897729 C119.225091,90.5837729 119.133091,89.9167729 119.133091,89.0887729 C119.133091,88.2147729 119.225091,87.5477729 119.432091,87.0647729 C119.708091,86.4667729 120.145091,86.1677729 120.743091,86.1677729 Z M108.921091,78.7387729 C109.496091,78.7387729 109.910091,79.0377729 110.163091,79.6587729 C110.370091,80.1417729 110.485091,80.8087729 110.485091,81.6597729 C110.485091,82.4877729 110.370091,83.1317729 110.186091,83.6147729 C109.910091,84.2357729 109.496091,84.5577729 108.921091,84.5577729 C108.323091,84.5577729 107.886091,84.2587729 107.610091,83.6607729 C107.403091,83.1547729 107.311091,82.4877729 107.311091,81.6597729 C107.311091,80.7857729 107.403091,80.1187729 107.610091,79.6357729 C107.886091,79.0377729 108.323091,78.7387729 108.921091,78.7387729 Z M43.3818182,117.187546 L43.3818182,119.027546 L45.5218182,119.027546 L45.5218182,124.007546 C44.7018182,124.247546 43.8618182,124.467546 43.0018182,124.647546 L43.4418182,126.467546 C45.7218182,125.827546 47.8418182,125.047546 49.8418182,124.127546 L49.8418182,122.287546 C49.0618182,122.667546 48.2618182,123.027546 47.4418182,123.347546 L47.4418182,119.027546 L49.4618182,119.027546 L49.4618182,117.187546 L47.4418182,117.187546 L47.4418182,112.647546 L49.8018182,112.647546 L49.8018182,110.827546 L43.1218182,110.827546 L43.1218182,112.647546 L45.5218182,112.647546 L45.5218182,117.187546 L43.3818182,117.187546 Z M50.5818182,110.387546 L50.5818182,121.767546 L52.7418182,121.767546 C52.5418182,123.967546 51.3818182,125.547546 49.2618182,126.487546 L50.2418182,128.067546 C52.8818182,126.747546 54.3018182,124.647546 54.5218182,121.767546 L56.0218182,121.767546 L56.0218182,125.967546 C56.0218182,127.207546 56.7218182,127.827546 58.1218182,127.827546 L59.0818182,127.827546 C59.9818182,127.747546 60.5618182,127.507546 60.8418182,127.107546 C61.1018182,126.667546 61.2418182,125.487546 61.2418182,123.567546 L59.5818182,122.927546 L59.5773382,123.520506 C59.5658182,124.269946 59.5338182,124.855546 59.5018182,125.287546 C59.4618182,125.787546 59.2818182,126.067546 59.0018182,126.107546 L58.1818182,126.107546 C57.9218182,126.047546 57.8018182,125.867546 57.8018182,125.567546 L57.8018182,121.767546 L60.0018182,121.767546 L60.0018182,110.387546 L50.5818182,110.387546 Z M58.1818182,120.187546 L52.4018182,120.187546 L52.4018182,118.387546 L58.1818182,118.387546 L58.1818182,120.187546 Z M52.4018182,116.887546 L52.4018182,115.147546 L58.1818182,115.147546 L58.1818182,116.887546 L52.4018182,116.887546 Z M52.4018182,113.647546 L52.4018182,112.007546 L58.1818182,112.007546 L58.1818182,113.647546 L52.4018182,113.647546 Z M67.7909091,115.767546 L67.7909091,116.887546 L72.1709091,116.887546 L72.1709091,119.307546 L65.1909091,119.307546 L65.1909091,121.067546 L72.1709091,121.067546 L72.1709091,125.967546 L70.2509091,125.967546 C69.7709091,124.467546 69.2509091,123.187546 68.6909091,122.107546 L66.9909091,122.727546 C67.5509091,123.747546 68.0309091,124.827546 68.4109091,125.967546 L64.4909091,125.967546 L64.4909091,127.767546 L81.7109091,127.767546 L81.7109091,125.967546 L77.8509091,125.967546 C78.3709091,124.967546 78.8509091,123.847546 79.2909091,122.587546 L77.5709091,121.967546 C77.0909091,123.387546 76.5509091,124.727546 75.9309091,125.967546 L74.0509091,125.967546 L74.0509091,121.067546 L81.0109091,121.067546 L81.0109091,119.307546 L74.0509091,119.307546 L74.0509091,116.887546 L78.4309091,116.887546 L78.4309091,115.847546 C79.2709091,116.327546 80.1909091,116.767546 81.1509091,117.167546 L82.2309091,115.587546 C78.5109091,114.047546 75.7309091,112.127546 73.8709091,109.807546 L72.3509091,109.807546 C70.1909091,112.167546 67.3909091,114.107546 63.9309091,115.627546 L65.0309091,117.207546 C65.9909091,116.767546 66.9109091,116.287546 67.7909091,115.767546 Z M77.3309091,115.187546 L68.7309091,115.187546 C70.3309091,114.147546 71.7909091,112.947546 73.1109091,111.587546 C74.2909091,112.947546 75.6909091,114.147546 77.3309091,115.187546 Z M90.02,115.247546 L90.02,122.647546 L98.02,122.647546 L98.02,115.247546 L90.02,115.247546 Z M96.22,121.067546 L91.78,121.067546 L91.78,116.847546 L96.22,116.847546 L96.22,121.067546 Z M102.2,110.867546 L85.8,110.867546 L85.8,127.827546 L87.64,127.827546 L87.64,127.127546 L100.36,127.127546 L100.36,127.827546 L102.2,127.827546 L102.2,110.867546 Z M87.64,125.447546 L87.64,112.547546 L100.36,112.547546 L100.36,125.447546 L87.64,125.447546 Z M114.409091,110.667546 L114.409091,114.467546 L117.869091,114.467546 L117.869091,115.287546 L113.449091,115.287546 L113.449091,116.747546 L123.989091,116.747546 L123.989091,115.287546 L119.569091,115.287546 L119.569091,114.467546 L123.009091,114.467546 L123.009091,110.667546 L119.569091,110.667546 L119.569091,109.707546 L117.869091,109.707546 L117.869091,110.667546 L114.409091,110.667546 Z M121.429091,113.167546 L119.569091,113.167546 L119.569091,111.967546 L121.429091,111.967546 L121.429091,113.167546 Z M117.869091,113.167546 L115.989091,113.167546 L115.989091,111.967546 L117.869091,111.967546 L117.869091,113.167546 Z M114.449091,117.447546 L114.449091,125.307546 L117.129091,125.307546 C116.289091,125.927546 115.029091,126.447546 113.369091,126.847546 C112.989091,125.687546 112.549091,124.567546 112.049091,123.487546 L110.549091,123.987546 L110.799091,124.527546 C110.884091,124.717546 110.969091,124.917546 111.049091,125.127546 C110.349091,125.407546 109.569091,125.707546 108.689091,125.987546 L108.689091,123.227546 L112.809091,123.227546 L112.809091,115.807546 L106.949091,115.807546 L106.949091,126.127546 C106.949091,126.367546 106.809091,126.547546 106.569091,126.667546 L107.049091,128.027546 C108.729091,127.587546 110.249091,127.107546 111.609091,126.547546 L111.989091,127.727546 L113.369091,127.107546 L114.009091,128.207546 C115.729091,127.747546 117.049091,127.147546 117.989091,126.387546 L117.169091,125.307546 L120.029091,125.307546 L119.449091,126.447546 C120.889091,126.887546 122.289091,127.487546 123.649091,128.247546 L124.209091,126.867546 C122.969091,126.187546 121.669091,125.667546 120.329091,125.307546 L122.989091,125.307546 L122.989091,117.447546 L114.449091,117.447546 Z M121.209091,123.967546 L116.229091,123.967546 L116.229091,122.987546 L121.209091,122.987546 L121.209091,123.967546 Z M116.229091,121.827546 L116.229091,120.887546 L121.209091,120.887546 L121.209091,121.827546 L116.229091,121.827546 Z M116.229091,119.727546 L116.229091,118.767546 L121.209091,118.767546 L121.209091,119.727546 L116.229091,119.727546 Z M108.989091,109.887546 C107.949091,111.467546 106.789091,112.827546 105.549091,113.987546 L106.549091,115.387546 C107.129091,114.847546 107.689091,114.287546 108.209091,113.707546 L108.209091,114.767546 L111.629091,114.767546 L111.629091,113.367546 L112.079011,113.924346 C112.312291,114.217146 112.557091,114.531546 112.809091,114.867546 L113.889091,113.687546 C112.849091,112.367546 111.769091,111.107546 110.609091,109.887546 L108.989091,109.887546 Z M108.569091,113.287546 C109.069091,112.727546 109.529091,112.127546 109.969091,111.507546 L110.317528,111.867233 C110.684091,112.256296 111.104091,112.732546 111.569091,113.287546 L108.569091,113.287546 Z M108.689091,120.227546 L111.069091,120.227546 L111.069091,121.627546 L108.689091,121.627546 L108.689091,120.227546 Z M111.069091,118.747546 L108.689091,118.747546 L108.689091,117.407546 L111.069091,117.407546 L111.069091,118.747546 Z" id="指定網路消費5%現金回饋" fill="#FFFFFF"></path>
        </g>
    </g>
</svg>