<?xml version="1.0" encoding="UTF-8"?>
<svg width="68px" height="100px" viewBox="0 0 68 100" version="1.1" xmlns="http://www.w3.org/2000/svg" xmlns:xlink="http://www.w3.org/1999/xlink">
    <!-- Generator: Sketch 58 (84663) - https://sketch.com -->
    <title>群組 3</title>
    <desc>Created with Sketch.</desc>
    <g id="web" stroke="none" stroke-width="1" fill="none" fill-rule="evenodd">
        <g id="群組-3" transform="translate(0.800000, 0.874401)">
            <path d="M33.98,1.12559891 C32.138457,-0.112049184 29.7993456,-0.344833948 27.75,0.505598907 C26.2530108,1.16236919 24.8953259,2.09917177 23.75,3.26559891 C20.8617003,6.13979059 19.2446685,10.0509188 19.259892,14.1255989 L19.259892,31.4755989 L22.51,29.6355989 L22.51,14.1255989 C22.4782004,10.9186786 23.7314114,7.83246657 25.99,5.55559891 C26.8498156,4.67920328 27.8677275,3.97345104 28.99,3.47559891 C29.9714259,3.07500252 31.0847442,3.16406799 31.99,3.71559891 C33.0036777,4.46115748 33.6221609,5.62817637 33.67,6.88559891 L33.67,23.2055989 L36.9300003,21.2855989 L36.9300003,6.69559891 C36.9306071,4.46475615 35.825722,2.37858336 33.98,1.12559891 L33.98,1.12559891 Z" id="Path" fill="#C4AA95"></path>
            <polygon id="Path" fill="#D35D4B" points="2 30.0755989 1.97175609e-13 88.7955989 16.35 98.5855989 15.95 36.6055989"></polygon>
            <polygon id="Path" fill="#8AC6D1" points="2 30.0755989 15.95 36.6055989 64.32 8.95559891 51.19 2.08559891"></polygon>
            <polygon id="Path" fill="#3FA3B5" points="51.03 16.5455989 64.32 8.95559891 51.19 2.08559891"></polygon>
            <path d="M45.6,7.38559891 C43.758457,6.14795082 41.4193456,5.91516605 39.37,6.76559891 C37.8703219,7.41753782 36.5117635,8.35494311 35.37,9.52559891 C32.4889411,12.4137099 30.8860387,16.3363181 30.92,20.4155989 L30.92,32.6655989 L34.17,30.8255989 L34.17,20.4155989 C34.1355461,17.210118 35.3850741,14.124108 37.64,11.8455989 C38.5015113,10.9712162 39.5190179,10.265745 40.64,9.76559891 C41.6872236,9.32818626 42.8849077,9.45247423 43.82,10.0955989 C44.7935511,10.7335422 45.3771509,11.8216735 45.37,12.9855989 L45.37,24.4055989 L48.62,22.4755989 L48.62,12.9855989 C48.6113753,10.7318092 47.4784492,8.63101905 45.6,7.38559891 L45.6,7.38559891 Z" id="Path" fill="#C4AA95"></path>
            <polygon id="Path" fill="#ED7457" points="15.95 36.6055989 16.35 98.5855989 66.47 70.2255989 64.32 8.95559891"></polygon>
        </g>
    </g>
</svg>