<?xml version="1.0" encoding="UTF-8"?>
<svg width="371px" height="65px" viewBox="0 0 371 65" version="1.1" xmlns="http://www.w3.org/2000/svg" xmlns:xlink="http://www.w3.org/1999/xlink">
    <!-- Generator: Sketch 58 (84663) - https://sketch.com -->
    <title></title>
    <desc>Created with Sketch.</desc>
    <g id="web" stroke="none" stroke-width="1" fill="none" fill-rule="evenodd">
        <g id="群組-2" transform="translate(-0.018616, 0.000000)">
            <g id="群組">
                <path d="M55.0186156,8.74 C56.0046958,8.68271694 56.9810975,8.9611853 57.7886156,9.53 C58.4686156,10.02 58.8386156,10.99 58.8386156,12.53 C58.922429,13.5003091 58.7097175,14.4732028 58.2286156,15.32 C57.417974,16.2238449 56.2276386,16.6910794 55.0186156,16.58 L35.8786156,16.58 L35.8786156,26.79 L52.7386156,26.79 C53.6825747,26.7073571 54.6252191,26.962509 55.3986156,27.51 C56.0186156,27.94 56.3986156,28.85 56.3986156,30.31 C56.5029766,31.2178586 56.3062247,32.1348629 55.8386156,32.92 C55.0721016,33.8103295 53.9166128,34.2665419 52.7486156,34.14 L35.8786156,34.14 L35.8786156,48.84 L46.5086156,48.84 C46.2477902,48.5988248 46.0723261,48.2794801 46.0086156,47.93 C44.9586156,46.05 43.4786156,43.62 41.5586156,40.7 C41.4548209,40.5145807 41.412789,40.3009185 41.4386156,40.09 C41.4380234,39.5675757 41.5434862,39.0504679 41.7486156,38.57 C42.1921767,37.8320104 42.8620315,37.2568471 43.6586156,36.93 C44.2475693,36.6769861 44.878087,36.5346112 45.5186156,36.51 C46.8043073,36.4145781 48.0600036,36.9294506 48.9086156,37.9 C50.2605647,39.2751266 51.3876854,40.8544454 52.2486156,42.58 C52.9274138,43.6889074 53.3478106,44.9364264 53.4786156,46.23 C53.5590892,47.1028301 53.2171161,47.9614799 52.5586156,48.54 C52.4286156,48.72 52.3086156,48.84 52.1886156,48.84 L56.3886156,48.84 C57.3955853,48.7912498 58.391462,49.0682718 59.2286156,49.63 C59.9086156,50.12 60.2286156,51.09 60.2286156,52.63 C60.2978121,53.6005152 60.0823413,54.5701341 59.6086156,55.42 C58.7516744,56.2887013 57.5551449,56.7351129 56.3386156,56.64 L7.90861558,56.64 C6.88972089,56.6646861 5.89831866,56.3080666 5.12861558,55.64 C4.38861558,55.09 4.01861558,54.12 4.01861558,52.64 C3.89994082,51.4918757 4.30814382,50.3518493 5.12861558,49.54 C5.93283216,48.9606383 6.9235099,48.7004963 7.90861558,48.81 L27.1786156,48.81 L27.1786156,34.14 L11.4886156,34.14 C10.5385016,34.1939963 9.60615283,33.8664143 8.89861558,33.23 C8.21861558,32.74 7.89861558,31.77 7.89861558,30.31 C7.89861558,28.85 8.20861558,27.94 8.89861558,27.45 C9.66073581,26.9395392 10.5751446,26.7065238 11.4886156,26.79 L27.1786156,26.79 L27.1786156,16.58 L9.81861558,16.58 C8.79041559,16.6508885 7.77819111,16.2966099 7.01861558,15.6 C6.26861558,15.12 6.01861558,14.09 6.01861558,12.51 C6.01861558,10.93 6.31861558,10.02 7.01861558,9.51 C7.82253667,8.91163992 8.82177876,8.63684835 9.81861558,8.74 L55.0186156,8.74 Z" id="Path" fill="#EB634D"></path>
                <path d="M56.3886156,60.68 L7.90861558,60.68 C5.97167521,60.7133736 4.08721238,60.0497304 2.59861558,58.81 C0.810169855,57.2907811 -0.147913814,55.0106905 0.0186155805,52.67 C-0.122346106,50.3797523 0.773522838,48.1474232 2.45861558,46.59 C3.98190076,45.3261664 5.93431546,44.6992442 7.90861558,44.84 L23.1786156,44.84 L23.1786156,38.14 L11.4886156,38.14 C9.58894675,38.1968423 7.73820922,37.5322918 6.30861558,36.28 C4.71861558,35 3.90861558,33 3.90861558,30.31 C3.90861558,27.62 4.75861558,25.57 6.42861558,24.31 C7.89215623,23.2411806 9.67867883,22.7080484 11.4886156,22.8 L23.1786156,22.8 L23.1786156,20.58 L9.81861558,20.58 C7.87739215,20.6403917 5.98362026,19.9734701 4.50861558,18.71 C2.83861558,17.44 2.01861558,15.35 2.01861558,12.51 C2.01861558,9.67 2.81861558,7.73 4.45861558,6.42 C5.97187436,5.20856922 7.88461198,4.60905445 9.81861558,4.74 L55.0186156,4.74 C56.8732083,4.6855148 58.6939724,5.24439798 60.1986156,6.33 C61.4186156,7.24 62.8386156,9.04 62.8386156,12.51 C62.950163,14.3600364 62.4474521,16.195107 61.4086156,17.73 C59.8530563,19.6421436 57.4806463,20.7002607 55.0186156,20.58 L39.8786156,20.58 L39.8786156,22.79 L52.7386156,22.79 C54.5804616,22.6903004 56.3980429,23.2465582 57.8686156,24.36 C59.0586156,25.27 60.3886156,27.01 60.3886156,30.31 C60.5177797,32.1093658 60.0349888,33.8995684 59.0186156,35.39 C57.8265096,36.8861762 56.0740061,37.829276 54.1686156,38 C54.6686156,38.75 55.1686156,39.61 55.7386156,40.58 L55.7386156,40.67 C56.4738508,41.9717632 57.0066211,43.3778722 57.3186156,44.84 C58.8595146,44.9442427 60.3396498,45.4815283 61.5886156,46.39 C63.3486156,47.69 64.2386156,49.79 64.2386156,52.63 C64.3092218,54.3898907 63.8530977,56.1308225 62.9286156,57.63 L62.6486156,57.99 C61.0748618,59.7854746 58.77432,60.7740461 56.3886156,60.68 Z M31.1786156,52.68 L31.8786156,52.68 L31.8786156,12.74 L31.1786156,12.74 L31.1786156,52.68 Z M49.7486156,46.42 L52.1886156,48.81 L52.1886156,44.81 C51.3019844,44.8005113 50.4420554,45.1132127 49.7686156,45.69 C49.6807942,45.7986767 49.6099868,45.9200607 49.5586156,46.05 L49.7486156,46.42 Z M46.9086156,41.62 C47.7619489,42.9533333 48.5119489,44.2033333 49.1586156,45.37 C49.0652822,45.1233333 48.9252822,44.8333333 48.7386156,44.5 C48.1919175,43.5012118 47.5806185,42.5391674 46.9086156,41.62 L46.9086156,41.62 Z" id="Shape" fill="#FFFFFF" fill-rule="nonzero"></path>
                <path d="M79.8586156,10.68 C80.6458127,11.2882265 81.0803109,12.2471191 81.0186156,13.24 L81.0186156,47.24 C81.0186156,48.52 81.6386156,49.12 82.9386156,49.12 L92.3186156,49.12 L92.3186156,8 C92.217892,6.87382775 92.5787949,5.75502894 93.3186156,4.9 C93.8786156,4.3 95.0186156,4 96.6586156,4 C98.2986156,4 99.3686156,4.3 99.9286156,4.91 C100.696316,5.74934643 101.089774,6.86474515 101.018616,8 L101.018616,49.08 L111.148616,49.08 C111.663071,49.1427714 112.177701,48.9645838 112.543195,48.5971351 C112.908689,48.2296864 113.08413,47.7141133 113.018616,47.2 L113.018616,13.72 C112.910531,12.6142104 113.220961,11.508082 113.888616,10.62 C114.498616,10.02 115.678616,9.71 117.398616,9.71 C118.591125,9.67083802 119.763834,10.0219485 120.738616,10.71 C121.384683,11.303182 121.748229,12.1429737 121.738802,13.02 L121.738802,50.3 C121.738802,54.86 119.388616,57.17 114.738616,57.17 L79.2386156,57.17 C74.5486156,57.17 72.2386156,54.86 72.2386156,50.3 L72.2386156,13.24 C72.1815894,12.243502 72.6239055,11.2839009 73.4186156,10.68 C73.9086156,10.08 74.9586156,9.68 76.5686156,9.68 C77.7448516,9.64666528 78.8998857,9.99773946 79.8586156,10.68 L79.8586156,10.68 Z" id="Path" fill="#EB634D"></path>
                <path d="M114.748616,61.17 L79.2386156,61.17 C72.3686156,61.17 68.2386156,57.1 68.2386156,50.3 L68.2386156,13.24 C68.1934886,11.1478713 69.0801105,9.14381254 70.6586156,7.77 C72.260377,6.29793471 74.3988639,5.55253997 76.5686156,5.71 C78.601075,5.66582088 80.5922402,6.28740157 82.2386156,7.48 C84.0395225,8.83968246 85.0745241,10.9841462 85.0186156,13.24 L85.0186156,45.08 L88.3186156,45.08 L88.3186156,8 C88.1953235,5.80114862 88.9839432,3.6487232 90.4986156,2.05 C91.8586156,0.67 93.8886156,3.55271368e-14 96.6586156,3.55271368e-14 C99.4286156,3.55271368e-14 101.448616,0.7 102.808616,2.13 C104.30468,3.70986204 105.101295,5.82575565 105.018616,8 L105.018616,45.08 L109.018616,45.08 L109.018616,13.72 C108.881398,11.6059736 109.573752,9.52173444 110.948616,7.91 L111.078616,7.77 C112.488616,6.39 114.558616,5.71 117.398616,5.71 C119.458165,5.66000675 121.477528,6.28513132 123.148616,7.49 L123.548616,7.83 C124.950329,9.18364997 125.737887,11.0513893 125.728697,13 L125.728697,50.3 C125.728697,57.1 121.618616,61.17 114.748616,61.17 Z M76.2686156,13.72 L76.2686156,50.3 C76.2686156,52.52 76.6586156,53.17 79.2686156,53.17 L114.778616,53.17 C117.348616,53.17 117.778616,52.48 117.778616,50.3 L117.778616,13.72 L117.018616,13.72 L117.018616,47.2 C117.08802,48.785012 116.486634,50.3259564 115.361936,51.4449449 C114.237239,52.5639334 112.693254,53.1574698 111.108616,53.08 L97.0186156,53.08 L97.0186156,8 L96.3086156,8 L96.3086156,53.08 L82.8886156,53.08 C81.3107594,53.1458909 79.7775551,52.5472332 78.6618206,51.429598 C77.5460862,50.3119628 76.9500391,48.7777417 77.0186156,47.2 L77.0186156,13.73 C76.7691419,13.7094468 76.5185486,13.7061056 76.2686156,13.72 Z" id="Shape" fill="#FFFFFF" fill-rule="nonzero"></path>
                <path d="M161.018616,41.46 L172.088616,43.29 C170.892971,46.9844794 168.527092,50.1892978 165.348616,52.42 C161.914454,54.6064662 157.897054,55.6979994 153.828616,55.55 C146.528616,55.55 141.125282,53.2166667 137.618616,48.55 C134.845282,44.79 133.458616,40.0433333 133.458616,34.31 C133.458616,27.4566667 135.278616,22.0933333 138.918616,18.22 C142.463356,14.3796631 147.494328,12.2579055 152.718616,12.4 C158.971949,12.4 163.901949,14.43 167.508616,18.49 C171.115282,22.55 172.841949,28.77 172.688616,37.15 L144.828616,37.15 C144.741355,39.9188195 145.701998,42.6186189 147.518616,44.71 C149.166841,46.4921113 151.501879,47.4793117 153.928616,47.42 C155.5062,47.471126 157.053156,46.9766653 158.308616,46.02 C159.670396,44.8239613 160.618971,43.2278342 161.018616,41.46 Z M161.658616,30.46 C161.578616,27.29 160.748616,24.89 159.158616,23.24 C157.674852,21.6324562 155.575955,20.7339682 153.388616,20.77 C151.104335,20.7160183 148.911257,21.6663524 147.388616,23.37 C145.721564,25.3278766 144.872797,27.8526904 145.018616,30.42 L161.658616,30.46 Z" id="Shape" fill="#EB634D" fill-rule="nonzero"></path>
                <path d="M153.808616,59.55 C145.208616,59.55 138.678616,56.64 134.388616,50.9 C131.098616,46.43 129.388616,40.84 129.388616,34.27 C129.388616,26.4 131.588616,20.07 135.928616,15.44 C140.229597,10.7926656 146.318134,8.21450518 152.648616,8.36 C160.058616,8.36 166.038616,10.86 170.428616,15.79 C174.818616,20.72 176.788616,27.79 176.618616,37.18 L176.608616,40 L177.448616,40.14 L175.838616,44.64 C174.357828,49.133066 171.459424,53.0245061 167.578616,55.73 C163.48297,58.3719795 158.680015,59.7043895 153.808616,59.55 L153.808616,59.55 Z M152.698616,16.36 C148.580308,16.2196035 144.606159,17.8852395 141.818616,20.92 C138.878616,24.05 137.438616,28.42 137.438616,34.27 C137.438616,39.17 138.548616,43.05 140.818616,46.13 C143.528616,49.77 147.818616,51.55 153.818616,51.55 C157.083803,51.6885354 160.314755,50.8381014 163.088616,49.11 C164.210547,48.3535537 165.200424,47.4177306 166.018616,46.34 L163.498616,45.92 C161.615232,49.4056697 157.918029,51.5216793 153.958616,51.38 C150.43102,51.4144333 147.051824,49.962577 144.648616,47.38 C142.238616,44.84 140.968616,41.38 140.858616,37.15 L140.758616,33.06 L141.018616,33.06 L141.018616,30.4 C140.831966,26.8173644 142.039723,23.3016085 144.388616,20.59 C146.656307,18.1425011 149.83268,16.7381146 153.169109,16.707835 C156.505538,16.6775555 159.706877,18.0240614 162.018616,20.43 C164.308616,22.81 165.518616,26.14 165.628616,30.31 L165.688616,33.11 L168.568616,33.11 C168.208616,27.78 166.838616,23.76 164.488616,21.11 C161.658616,17.92 157.798616,16.36 152.698616,16.36 L152.698616,16.36 Z M149.808616,41.11 C149.980128,41.4025561 150.184814,41.6743523 150.418616,41.92 C151.313893,42.9035559 152.5999,43.4384764 153.928616,43.38 C154.61084,43.4336275 155.289388,43.238234 155.838616,42.83 C156.34473,42.3643657 156.714609,41.7697944 156.908616,41.11 L149.808616,41.11 Z M150.008616,26.42 L156.618616,26.42 C156.514828,26.2577191 156.394156,26.1068789 156.258616,25.97 C155.525124,25.1509238 154.467624,24.6971865 153.368616,24.73 C152.224057,24.6904267 151.122409,25.1678074 150.368616,26.03 C150.243712,26.1523658 150.126805,26.2826344 150.018616,26.42 L150.008616,26.42 Z" id="Shape" fill="#FFFFFF" fill-rule="nonzero"></path>
                <path d="M189.588616,13.72 L189.588616,8.5 C189.588616,6.19 190.948616,5.03 193.668616,4.91 C196.388616,4.79 197.618616,6.13 197.808616,8.5 L197.808616,13.72 L200.018616,13.72 C201.096319,13.6456582 202.163824,13.969468 203.018616,14.63 C203.698616,15.12 204.068616,16.27 204.068616,17.97 C204.15023,19.0085365 203.935222,20.0488959 203.448616,20.97 C202.575741,21.9238279 201.305733,22.4125772 200.018616,22.29 L197.858616,22.29 L197.858616,31.46 C198.858616,31.16 199.858616,30.86 200.938616,30.55 C202.418616,30.55 203.348616,30.92 203.718616,31.55 C204.317602,32.3754623 204.699315,33.3383409 204.828616,34.35 C204.828616,36.54 204.148616,37.81 202.918616,38.12 C201.286157,38.9164022 199.594423,39.5850715 197.858616,40.12 L197.858616,54.31 C197.858616,58.26 195.008616,60.26 189.398616,60.26 C187.168616,60.14 185.688616,59.66 184.888616,58.87 C184.004549,58.0640599 183.527612,56.9047348 183.588616,55.71 C183.504575,54.343385 183.896841,52.9898906 184.698616,51.88 C185.825809,51.2355896 187.111172,50.9203118 188.408616,50.97 C189.208616,50.97 189.638616,50.66 189.638616,50.06 L189.638616,42.83 C188.308972,43.3102317 186.911667,43.5768673 185.498616,43.62 C184.44531,43.6511302 183.447887,43.1467731 182.848616,42.28 C182.229212,41.4337566 181.902702,40.4085875 181.918616,39.36 C181.859927,37.9062956 182.595179,36.5353579 183.838616,35.78 C185.748616,35.17 187.668616,34.5 189.638616,33.89 L189.638616,22.29 L186.488616,22.29 C185.39371,22.3828807 184.308812,22.0212478 183.488616,21.29 C182.748616,20.74 182.378616,19.65 182.378616,18 C182.378616,16.35 182.748616,15.15 183.488616,14.54 C184.364832,13.9325768 185.426876,13.6529054 186.488616,13.75 L189.588616,13.72 Z M235.778616,7.65 C236.396094,8.41860942 236.686979,9.39899803 236.588616,10.38 C236.59176,11.4380204 236.056797,12.425065 235.168616,13 C231.429833,14.4396124 227.589263,15.5994711 223.678616,16.47 C220.468616,17.26 217.318616,17.86 214.168616,18.35 L214.168616,21.57 C214.168616,22.57 214.658616,22.97 215.648616,22.97 L226.698616,22.97 C227.340028,23.0587066 227.984696,22.8313957 228.428616,22.36 C228.936899,21.5519542 229.254907,20.6389653 229.358616,19.69 C229.788616,18.59 231.028616,17.92 232.998616,17.74 C234.176648,17.797087 235.323037,18.1403171 236.338616,18.74 C237.118624,19.4627637 237.563996,20.4766188 237.568616,21.54 C237.659521,23.60399 237.00263,25.6314742 235.718616,27.25 C234.488616,28.89 232.138616,29.86 228.718616,30.11 L213.238616,30.11 C210.588616,30.11 208.668616,29.74 207.498616,28.89 C206.412656,28.2565681 205.807334,27.0380614 205.958616,25.79 L205.958616,9 C205.941508,7.99829239 206.322764,7.03076451 207.018616,6.31 C207.899268,5.63985469 208.995167,5.31606609 210.098616,5.4 C211.142575,5.37305981 212.165995,5.6930981 213.008616,6.31 C213.790104,6.97930045 214.218301,7.97227518 214.168616,9 L214.168616,11.31 C219.635707,10.1416164 225.036689,8.68288368 230.348616,6.94 C231.271329,6.57329196 232.255709,6.38659926 233.248616,6.39 C234.244738,6.38202735 235.184786,6.85019391 235.778616,7.65 Z M230.348616,32.92 C234.178616,32.92 236.148616,34.87 236.148616,38.63 L236.148616,53.82 C236.148616,57.59 234.148616,59.53 230.348616,59.53 L211.758616,59.53 C207.868616,59.53 205.958616,57.59 205.958616,53.82 L205.958616,38.63 C205.958616,34.87 207.868616,32.92 211.758616,32.92 L230.348616,32.92 Z M228.188616,42.92 L228.188616,40.76 C228.188616,39.85 227.688616,39.36 226.698616,39.36 L215.398616,39.36 C214.398616,39.36 213.918616,39.85 213.918616,40.76 L213.918616,42.89 L228.188616,42.92 Z M228.188616,51.73 L228.188616,49.08 L213.918616,49.08 L213.918616,51.7 C213.918616,52.7 214.418616,53.09 215.398616,53.09 L226.698616,53.09 C227.688616,53.09 228.188616,52.67 228.188616,51.7 L228.188616,51.73 Z" id="Shape" fill="#EB634D" fill-rule="nonzero"></path>
                <path d="M189.348616,64.26 L189.128616,64.26 C185.988616,64.09 183.698616,63.26 182.128616,61.83 C180.415045,60.2638603 179.466279,58.03061 179.528616,55.71 C179.431309,53.4244625 180.139094,51.1772452 181.528616,49.36 L181.958616,48.83 L182.538616,48.47 C183.168542,48.0916633 183.839539,47.7863595 184.538616,47.56 C182.562598,47.3391393 180.77374,46.2883668 179.618616,44.67 C178.485572,43.1328672 177.882003,41.2695261 177.898616,39.36 C177.848904,36.5602194 179.257702,33.935765 181.618616,32.43 L182.078616,32.13 L182.608616,31.96 L185.018616,31.18 L185.618616,30.98 L185.618616,26.26 C183.86047,26.1502695 182.192163,25.4448542 180.888616,24.26 C179.238616,22.91 178.398616,20.78 178.398616,17.94 C178.398616,15.1 179.248616,12.83 180.918616,11.43 C182.256945,10.3628177 183.907414,9.7623278 185.618616,9.72 L185.618616,8.5 C185.618616,5 187.698616,1.18 193.518616,0.92 L193.698616,0.92 C198.358616,0.92 201.468616,3.71 201.818616,8.19 L201.818616,8.51 L201.818616,9.87 L201.968616,9.87 L201.968616,9 C201.95068,6.98877514 202.71434,5.04915279 204.098616,3.59 L204.348616,3.35 C205.955618,2.00868808 208.00779,1.31987207 210.098616,1.42 C212.012781,1.39311823 213.882486,1.99760943 215.418616,3.14 L215.538616,3.24 C216.556603,4.06565224 217.322327,5.16053313 217.748616,6.4 C221.338616,5.51 225.108616,4.4 229.018616,3.17 C230.37181,2.6509481 231.809293,2.38650543 233.258616,2.39 C235.396897,2.38826384 237.423072,3.34629219 238.778616,5 C240.050197,6.49843281 240.698092,8.42779811 240.588616,10.39 C240.591519,12.2696765 239.83834,14.0715419 238.498616,15.39 L238.498616,15.39 L238.988616,15.76 C240.550746,17.1957162 241.469719,19.1994372 241.538616,21.32 L241.538616,21.53 C241.622984,24.5009901 240.660187,27.4070802 238.818616,29.74 C238.370091,30.3202186 237.852999,30.8440263 237.278616,31.3 C239.222275,33.2174597 240.255446,35.8731443 240.118616,38.6 L240.118616,53.82 C240.118616,59.82 236.368616,63.53 230.318616,63.53 L211.758616,63.53 C205.708616,63.53 201.958616,59.81 201.958616,53.82 L201.958616,42.92 L201.808616,42.98 L201.808616,54.31 C201.808616,63.55 192.268616,64.26 189.348616,64.26 Z M187.548616,55.92 C188.161579,56.1401339 188.80734,56.2550861 189.458616,56.26 C193.808616,56.26 193.808616,55.08 193.808616,54.31 L193.808616,37.31 L196.528616,36.39 C197.941784,35.9453095 199.327519,35.4177284 200.678616,34.81 L198.978616,35.32 L193.808616,36.91 L193.808616,18.29 L200.018616,18.29 L200.018616,17.72 L193.788616,17.72 L193.788616,8.91 L193.568616,8.91 L193.568616,17.71 L186.348616,17.71 L186.348616,18.28 L193.568616,18.28 L193.568616,36.85 L190.748616,37.72 C189.638616,38.06 188.558616,38.42 187.478616,38.77 L185.848616,39.31 L185.848616,39.31 C185.842307,39.3865369 185.842307,39.4634631 185.848616,39.54 C186.670911,39.4528485 187.479925,39.2682188 188.258616,38.99 L193.548616,37.19 L193.548616,50.06 C193.559121,51.4174112 193.007195,52.7186036 192.023943,53.6544935 C191.04069,54.5903833 189.713856,55.0774513 188.358616,55 C188.097805,54.9996963 187.837253,55.0163984 187.578616,55.05 C187.56564,55.279817 187.56564,55.510183 187.578616,55.74 C187.538616,55.8 187.548616,55.88 187.548616,55.92 Z M209.958616,52.36 L209.958616,53.82 C209.958616,55.23 210.008616,55.5 211.398616,55.53 C210.568613,54.6701961 210.060092,53.5507434 209.958616,52.36 L209.958616,52.36 Z M232.148616,52.36 C232.047139,53.5507434 231.538618,54.6701961 230.708616,55.53 C232.108616,55.53 232.148616,55.16 232.148616,53.82 L232.148616,52.36 Z M230.668616,36.93 C231.518841,37.784173 232.042569,38.9094798 232.148616,40.11 L232.148616,38.63 C232.148616,37.29 232.098616,37 230.668616,36.93 Z M211.438616,36.93 C210.018616,36.93 209.958616,37.23 209.958616,38.64 L209.958616,40.12 C210.065077,38.9137514 210.588392,37.7822587 211.438616,36.92 L211.438616,36.93 Z M201.808616,26.6 L202.018616,26.6 C202.018616,26.44 202.018616,26.28 202.018616,26.11 L201.868616,26.11 L201.808616,26.6 Z M209.958616,25.74 C210.790705,26.0135738 211.662843,26.1454087 212.538616,26.13 C211.003285,25.1310883 210.103855,23.400538 210.168616,21.57 L210.168616,9.4 L209.958616,9.4 L209.958616,25.74 Z M232.958616,21.74 C232.703808,22.7820277 232.259775,23.7683919 231.648616,24.65 C231.326763,25.0898055 230.942758,25.4805484 230.508616,25.81 C231.262867,25.6921807 231.961809,25.3427098 232.508616,24.81 L232.648616,24.64 C233.251131,23.8248384 233.56752,22.833487 233.548616,21.82 C233.378616,21.82 233.198616,21.74 232.988616,21.71 L232.958616,21.74 Z" id="Shape" fill="#FFFFFF" fill-rule="nonzero"></path>
                <path d="M273.018616,10.62 L273.018616,25.14 C273.018616,28.3 271.598616,29.88 268.878616,29.88 L257.578616,29.88 L257.578616,57.41 C257.388616,59.35 256.038616,60.41 253.438616,60.51 C250.848616,60.39 249.438616,59.35 249.368616,57.41 L249.368616,10.87 C249.368616,8.19 250.598616,6.8699414 253.188616,6.8699414 L268.628616,6.8699414 C271.538616,6.86 273.018616,8.13 273.018616,10.62 Z M265.018616,16.09 L265.018616,13 L257.548616,13 L257.548616,16.1 L265.018616,16.09 Z M265.018616,23.69 L265.018616,20.59 L257.548616,20.59 L257.548616,23.69 L265.018616,23.69 Z M287.678616,31.77 C288.468024,31.729918 289.249521,31.9436908 289.908616,32.38 C290.429267,33.0037742 290.674638,33.8120569 290.588616,34.62 C290.648832,35.2982651 290.448609,35.9740194 290.028616,36.51 C289.455895,37.2075049 288.578332,37.5809356 287.678616,37.51 L284.778616,37.51 L284.778616,42.25 L288.428616,42.25 C289.214734,42.2113699 289.992609,42.4251104 290.648616,42.86 C291.124332,43.5047154 291.345129,44.3024353 291.268616,45.1 C291.31766,45.7681565 291.141642,46.4335025 290.768616,46.99 C290.187099,47.6698128 289.32184,48.0395816 288.428616,47.99 L284.818616,47.99 L284.818616,55.58 C284.889428,56.4782918 284.577029,57.3646322 283.958616,58.02 C282.458072,59.1516918 280.389159,59.1516918 278.888616,58.02 C278.290829,57.355275 278.000452,56.4696269 278.088616,55.58 L278.088616,47.93 L272.018616,47.93 C271.321906,51.1885793 269.930233,54.2584453 267.938616,56.93 C267.25429,57.9971929 266.055328,58.6214144 264.788616,58.57 C263.628741,58.6738294 262.487663,58.2255489 261.708616,57.36 C261.194448,56.7923417 260.906261,56.0558626 260.898616,55.29 C260.902711,54.6119905 261.074481,53.9455251 261.398616,53.35 C262.93553,51.7871722 264.163689,49.9483255 265.018616,47.93 L262.858616,47.93 C262.068703,47.9953719 261.286923,47.7311594 260.698616,47.2 C260.198616,46.84 260.018616,46.2 260.018616,45.07 C260.018616,43.94 260.198616,43.19 260.698616,42.83 C261.326332,42.3828354 262.08972,42.1672489 262.858616,42.22 L266.318616,42.22 C266.438616,40.82 266.498616,39.24 266.498616,37.48 L263.598616,37.48 C262.808703,37.5453719 262.026923,37.2811594 261.438616,36.75 C260.859,36.2033904 260.582748,35.4082327 260.698616,34.62 C260.58879,33.7993675 260.86155,32.9737132 261.438616,32.38 C262.066332,31.9328354 262.82972,31.7172489 263.598616,31.77 L287.678616,31.77 Z M278.048616,37.48 L273.168616,37.48 C273.168616,39.12 273.108616,40.58 273.048616,41.91 L273.048616,42.22 L278.048616,42.22 L278.048616,37.48 Z M302.128616,10.62 L302.128616,54.07 C302.128616,58.07 299.848616,60.07 295.398616,60.07 C293.555115,60.1601413 291.716097,59.8176798 290.028616,59.07 C288.715542,58.6303405 287.791061,57.4501519 287.678616,56.07 C287.580145,54.7818049 287.792785,53.4888141 288.298616,52.3 C288.734921,51.9135684 289.272813,51.6602388 289.848616,51.57 C290.024155,51.595693 290.191642,51.6606368 290.338616,51.76 C291.041535,52.0024943 291.764277,52.1831798 292.498616,52.3 C293.238616,52.3 293.668616,52 293.668616,51.3 L293.668616,29.64 L281.668616,29.64 C279.388616,29.64 278.278616,28.36 278.278616,25.81 L278.278616,10.38 C278.278616,7.89 279.628616,6.61 282.408616,6.61 L296.858616,6.61 C300.378616,6.61 302.168616,8 302.168616,10.62 L302.128616,10.62 Z M293.668616,15.85 L293.668616,12.75 L286.198616,12.75 L286.198616,15.85 L293.668616,15.85 Z M293.668616,20.34 L286.198616,20.34 L286.198616,23.44 L293.668616,23.44 L293.668616,20.34 Z" id="Shape" fill="#EB634D" fill-rule="nonzero"></path>
                <path d="M253.448616,64.51 L253.268616,64.51 C247.758616,64.26 245.578616,60.81 245.378616,57.67 L245.378616,10.87 C245.378616,6 248.448616,2.87 253.198616,2.87 L268.638616,2.87 C271.286103,2.7085819 273.850984,3.82374753 275.538616,5.87 C277.126342,3.6892217 279.715959,2.46791724 282.408616,2.63 L296.858616,2.63 C303.728616,2.63 306.168616,6.77 306.168616,10.63 L306.168616,54.07 C306.168616,60.21 302.058616,64.02 295.438616,64.02 C293.01256,64.0975778 290.600947,63.6186759 288.388616,62.62 C287.599595,62.2896834 286.867342,61.8375086 286.218616,61.28 C284.844433,62.3237977 283.153429,62.8639306 281.428616,62.81 C279.489058,62.8874938 277.597774,62.1935436 276.168616,60.88 C274.72848,59.481043 273.969105,57.5241925 274.088616,55.52 L274.088616,54.37 C273.340659,56.1584535 272.358761,57.839785 271.168616,59.37 C269.720375,61.4416491 267.335863,62.6564009 264.808616,62.61 C263.214441,62.6442684 261.643373,62.2246234 260.278616,61.4 C259.188616,62.94 257.218616,64.4 253.638616,64.55 L253.448616,64.51 Z M253.378616,56.51 L253.588616,56.51 L253.588616,10.86 L253.378616,10.86 L253.378616,56.51 Z M294.138616,56 C294.518616,56 294.948616,56.05 295.438616,56.05 C298.168616,56.05 298.168616,55.36 298.168616,54.05 L298.168616,10.74 C298.017757,10.7006637 297.863897,10.6739054 297.708616,10.66 L297.708616,51.21 C297.774539,53.441711 296.296093,55.4253958 294.138616,56 Z" id="Shape" fill="#FFFFFF" fill-rule="nonzero"></path>
                <path d="M323.488616,48.42 C322.672615,52.0609323 321.324819,55.5618311 319.488616,58.81 C317.830965,60.6946723 315.032956,61.058328 312.948616,59.66 C312.151688,58.9790531 311.715796,57.9668963 311.768616,56.92 C311.884528,55.5276374 312.264638,54.1701044 312.888616,52.92 C315.442869,46.415621 316.781712,39.4976976 316.838616,32.51 L316.838616,14.51 C316.838616,12.14 317.458616,10.44 318.838616,9.35 C320.234693,8.38301681 321.912845,7.90806795 323.608616,8 C339.418616,7.39 351.398616,6.54 359.548616,5.57 C360.677844,5.44835774 361.812856,5.38826886 362.948616,5.38995182 C363.902476,5.38476348 364.808628,5.80665624 365.418616,6.54 C365.940576,7.25778672 366.239676,8.1133522 366.278616,9 C366.278616,11 365.478616,12.16 363.868616,12.53 C359.234005,13.2530575 354.557685,13.6772665 349.868616,13.8 C342.328616,14.41 334.738616,14.71 326.958616,14.71 C325.718616,14.71 325.038616,15.2 325.038616,16.11 L325.038616,18 L360.018616,18 C364.018616,18 366.078616,19.77 366.078616,23.23 L366.078616,34.87 C366.078616,38.21 364.218616,39.87 360.518616,39.87 L324.778616,39.87 C324.573659,42.7494371 324.142326,45.6082696 323.488616,48.42 Z M325.088616,32.25 L355.718616,32.25 C356.828616,32.25 357.388616,31.77 357.388616,30.79 L357.388616,27.51 C357.429951,27.030051 357.276093,26.5536995 356.961816,26.1886111 C356.647539,25.8235227 356.199374,25.6005177 355.718616,25.57 L325.088616,25.57 L325.088616,32.25 Z" id="Shape" fill="#EB634D" fill-rule="nonzero"></path>
                <path d="M315.888616,64.51 C313.938712,64.570331 312.027757,63.9557167 310.478616,62.77 C308.738765,61.3325024 307.754619,59.1762276 307.808616,56.92 C307.899738,55.006666 308.379483,53.1319195 309.218616,51.41 C311.577071,45.3812961 312.817325,38.9733164 312.878616,32.5 L312.878616,14.5 C312.878616,10.86 314.048616,8.07 316.348616,6.22 C318.420766,4.6868315 320.952729,3.90396834 323.528616,4 C338.408616,3.43 350.698616,2.6 359.078616,1.6 C360.363452,1.45501611 361.655635,1.38489767 362.948616,1.38974041 C365.083118,1.40497624 367.102553,2.35981812 368.468616,4 L368.768616,4.4 C369.710374,5.75296737 370.235309,7.35210624 370.278616,9 C370.278616,12.14 368.918616,14.57 366.548616,15.78 C368.878391,17.5294461 370.204386,20.3084321 370.098616,23.22 L370.098616,34.87 C370.098616,40.41 366.428616,43.87 360.538616,43.87 L328.388616,43.87 C328.155266,45.7234139 327.821441,47.5627886 327.388616,49.38 L327.388616,49.38 C326.499952,53.4116912 325.013522,57.2878682 322.978616,60.88 L322.818616,61.15 L322.608616,61.4 C320.947986,63.3914959 318.481532,64.5329648 315.888616,64.51 Z M315.888616,56.5103829 C316.045442,56.5150804 316.199732,56.4694947 316.328616,56.38 C317.813338,53.5690886 318.916403,50.5726546 319.608616,47.47 C320.215476,44.8625074 320.613404,42.2107666 320.798616,39.54 L321.098616,35.85 L321.098616,16.09 C321.075367,14.5234557 321.745108,13.0266023 322.928616,11.9997813 C322.353231,11.9932739 321.786678,12.1418212 321.288616,12.43 C320.938616,12.71 320.878616,13.8 320.878616,14.43 L320.878616,32.5 C320.816522,39.9765256 319.386282,47.3785255 316.658616,54.34 L316.588616,54.51 C316.29568,55.1553339 316.058158,55.8244115 315.878616,56.5103829 L315.888616,56.5103829 Z M358.018616,35.85 L360.538616,35.85 C361.037681,35.8778802 361.53732,35.8065032 362.008616,35.64 C362.077684,35.3894203 362.108034,35.1297535 362.098616,34.87 L362.098616,23.2 C362.120246,22.8965467 362.072365,22.5921577 361.958616,22.31 L361.958616,22.31 C361.356906,22.0168643 360.681712,21.9089725 360.018616,22 L357.668616,22 C359.961037,22.8638134 361.448873,25.0915454 361.368616,27.54 L361.368616,30.82 C361.440878,33.0400748 360.094985,35.0609231 358.018616,35.85 L358.018616,35.85 Z" id="Shape" fill="#FFFFFF" fill-rule="nonzero"></path>
                <path d="M55.0186156,8.74 C56.0046958,8.68271694 56.9810975,8.9611853 57.7886156,9.53 C58.4686156,10.02 58.8386156,10.99 58.8386156,12.53 C58.922429,13.5003091 58.7097175,14.4732028 58.2286156,15.32 C57.417974,16.2238449 56.2276386,16.6910794 55.0186156,16.58 L35.8786156,16.58 L35.8786156,26.79 L52.7386156,26.79 C53.6825747,26.7073571 54.6252191,26.962509 55.3986156,27.51 C56.0186156,27.94 56.3986156,28.85 56.3986156,30.31 C56.5029766,31.2178586 56.3062247,32.1348629 55.8386156,32.92 C55.0721016,33.8103295 53.9166128,34.2665419 52.7486156,34.14 L35.8786156,34.14 L35.8786156,48.84 L46.5086156,48.84 C46.2477902,48.5988248 46.0723261,48.2794801 46.0086156,47.93 C44.9586156,46.05 43.4786156,43.62 41.5586156,40.7 C41.4548209,40.5145807 41.412789,40.3009185 41.4386156,40.09 C41.4380234,39.5675757 41.5434862,39.0504679 41.7486156,38.57 C42.1921767,37.8320104 42.8620315,37.2568471 43.6586156,36.93 C44.2475693,36.6769861 44.878087,36.5346112 45.5186156,36.51 C46.8043073,36.4145781 48.0600036,36.9294506 48.9086156,37.9 C50.2605647,39.2751266 51.3876854,40.8544454 52.2486156,42.58 C52.9274138,43.6889074 53.3478106,44.9364264 53.4786156,46.23 C53.5590892,47.1028301 53.2171161,47.9614799 52.5586156,48.54 C52.4286156,48.72 52.3086156,48.84 52.1886156,48.84 L56.3886156,48.84 C57.3955853,48.7912498 58.391462,49.0682718 59.2286156,49.63 C59.9086156,50.12 60.2286156,51.09 60.2286156,52.63 C60.2978121,53.6005152 60.0823413,54.5701341 59.6086156,55.42 C58.7516744,56.2887013 57.5551449,56.7351129 56.3386156,56.64 L7.90861558,56.64 C6.88972089,56.6646861 5.89831866,56.3080666 5.12861558,55.64 C4.38861558,55.09 4.01861558,54.12 4.01861558,52.64 C3.89994082,51.4918757 4.30814382,50.3518493 5.12861558,49.54 C5.93283216,48.9606383 6.9235099,48.7004963 7.90861558,48.81 L27.1786156,48.81 L27.1786156,34.14 L11.4886156,34.14 C10.5385016,34.1939963 9.60615283,33.8664143 8.89861558,33.23 C8.21861558,32.74 7.89861558,31.77 7.89861558,30.31 C7.89861558,28.85 8.20861558,27.94 8.89861558,27.45 C9.66073581,26.9395392 10.5751446,26.7065238 11.4886156,26.79 L27.1786156,26.79 L27.1786156,16.58 L9.81861558,16.58 C8.79041559,16.6508885 7.77819111,16.2966099 7.01861558,15.6 C6.26861558,15.12 6.01861558,14.09 6.01861558,12.51 C6.01861558,10.93 6.31861558,10.02 7.01861558,9.51 C7.82253667,8.91163992 8.82177876,8.63684835 9.81861558,8.74 L55.0186156,8.74 Z" id="Path" fill="#517B9C"></path>
                <path d="M79.8586156,10.68 C80.6458127,11.2882265 81.0803109,12.2471191 81.0186156,13.24 L81.0186156,47.24 C81.0186156,48.52 81.6386156,49.12 82.9386156,49.12 L92.3186156,49.12 L92.3186156,8 C92.217892,6.87382775 92.5787949,5.75502894 93.3186156,4.9 C93.8786156,4.3 95.0186156,4 96.6586156,4 C98.2986156,4 99.3686156,4.3 99.9286156,4.91 C100.696316,5.74934643 101.089774,6.86474515 101.018616,8 L101.018616,49.08 L111.148616,49.08 C111.663071,49.1427714 112.177701,48.9645838 112.543195,48.5971351 C112.908689,48.2296864 113.08413,47.7141133 113.018616,47.2 L113.018616,13.72 C112.910531,12.6142104 113.220961,11.508082 113.888616,10.62 C114.498616,10.02 115.678616,9.71 117.398616,9.71 C118.591125,9.67083802 119.763834,10.0219485 120.738616,10.71 C121.384683,11.303182 121.748229,12.1429737 121.738802,13.02 L121.738802,50.3 C121.738802,54.86 119.388616,57.17 114.738616,57.17 L79.2386156,57.17 C74.5486156,57.17 72.2386156,54.86 72.2386156,50.3 L72.2386156,13.24 C72.1815894,12.243502 72.6239055,11.2839009 73.4186156,10.68 C73.9086156,10.08 74.9586156,9.68 76.5686156,9.68 C77.7448516,9.64666528 78.8998857,9.99773946 79.8586156,10.68 L79.8586156,10.68 Z" id="Path" fill="#517B9C"></path>
                <path d="M161.018616,41.46 L172.088616,43.29 C170.892971,46.9844794 168.527092,50.1892978 165.348616,52.42 C161.914454,54.6064662 157.897054,55.6979994 153.828616,55.55 C146.528616,55.55 141.125282,53.2166667 137.618616,48.55 C134.845282,44.79 133.458616,40.0433333 133.458616,34.31 C133.458616,27.4566667 135.278616,22.0933333 138.918616,18.22 C142.463356,14.3796631 147.494328,12.2579055 152.718616,12.4 C158.971949,12.4 163.901949,14.43 167.508616,18.49 C171.115282,22.55 172.841949,28.77 172.688616,37.15 L144.828616,37.15 C144.741355,39.9188195 145.701998,42.6186189 147.518616,44.71 C149.166841,46.4921113 151.501879,47.4793117 153.928616,47.42 C155.5062,47.471126 157.053156,46.9766653 158.308616,46.02 C159.670396,44.8239613 160.618971,43.2278342 161.018616,41.46 Z M161.658616,30.46 C161.578616,27.29 160.748616,24.89 159.158616,23.24 C157.674852,21.6324562 155.575955,20.7339682 153.388616,20.77 C151.104335,20.7160183 148.911257,21.6663524 147.388616,23.37 C145.721564,25.3278766 144.872797,27.8526904 145.018616,30.42 L161.658616,30.46 Z" id="Shape" fill="#517B9C" fill-rule="nonzero"></path>
                <path d="M189.588616,13.72 L189.588616,8.5 C189.588616,6.19 190.948616,5.03 193.668616,4.91 C196.388616,4.79 197.618616,6.13 197.808616,8.5 L197.808616,13.72 L200.018616,13.72 C201.096319,13.6456582 202.163824,13.969468 203.018616,14.63 C203.698616,15.12 204.068616,16.27 204.068616,17.97 C204.15023,19.0085365 203.935222,20.0488959 203.448616,20.97 C202.575741,21.9238279 201.305733,22.4125772 200.018616,22.29 L197.858616,22.29 L197.858616,31.46 C198.858616,31.16 199.858616,30.86 200.938616,30.55 C202.418616,30.55 203.348616,30.92 203.718616,31.55 C204.317602,32.3754623 204.699315,33.3383409 204.828616,34.35 C204.828616,36.54 204.148616,37.81 202.918616,38.12 C201.286157,38.9164022 199.594423,39.5850715 197.858616,40.12 L197.858616,54.31 C197.858616,58.26 195.008616,60.26 189.398616,60.26 C187.168616,60.14 185.688616,59.66 184.888616,58.87 C184.004549,58.0640599 183.527612,56.9047348 183.588616,55.71 C183.504575,54.343385 183.896841,52.9898906 184.698616,51.88 C185.825809,51.2355896 187.111172,50.9203118 188.408616,50.97 C189.208616,50.97 189.638616,50.66 189.638616,50.06 L189.638616,42.83 C188.308972,43.3102317 186.911667,43.5768673 185.498616,43.62 C184.44531,43.6511302 183.447887,43.1467731 182.848616,42.28 C182.229212,41.4337566 181.902702,40.4085875 181.918616,39.36 C181.859927,37.9062956 182.595179,36.5353579 183.838616,35.78 C185.748616,35.17 187.668616,34.5 189.638616,33.89 L189.638616,22.29 L186.488616,22.29 C185.39371,22.3828807 184.308812,22.0212478 183.488616,21.29 C182.748616,20.74 182.378616,19.65 182.378616,18 C182.378616,16.35 182.748616,15.15 183.488616,14.54 C184.364832,13.9325768 185.426876,13.6529054 186.488616,13.75 L189.588616,13.72 Z M235.778616,7.65 C236.396094,8.41860942 236.686979,9.39899803 236.588616,10.38 C236.59176,11.4380204 236.056797,12.425065 235.168616,13 C231.429833,14.4396124 227.589263,15.5994711 223.678616,16.47 C220.468616,17.26 217.318616,17.86 214.168616,18.35 L214.168616,21.57 C214.168616,22.57 214.658616,22.97 215.648616,22.97 L226.698616,22.97 C227.340028,23.0587066 227.984696,22.8313957 228.428616,22.36 C228.936899,21.5519542 229.254907,20.6389653 229.358616,19.69 C229.788616,18.59 231.028616,17.92 232.998616,17.74 C234.176648,17.797087 235.323037,18.1403171 236.338616,18.74 C237.118624,19.4627637 237.563996,20.4766188 237.568616,21.54 C237.659521,23.60399 237.00263,25.6314742 235.718616,27.25 C234.488616,28.89 232.138616,29.86 228.718616,30.11 L213.238616,30.11 C210.588616,30.11 208.668616,29.74 207.498616,28.89 C206.412656,28.2565681 205.807334,27.0380614 205.958616,25.79 L205.958616,9 C205.941508,7.99829239 206.322764,7.03076451 207.018616,6.31 C207.899268,5.63985469 208.995167,5.31606609 210.098616,5.4 C211.142575,5.37305981 212.165995,5.6930981 213.008616,6.31 C213.790104,6.97930045 214.218301,7.97227518 214.168616,9 L214.168616,11.31 C219.635707,10.1416164 225.036689,8.68288368 230.348616,6.94 C231.271329,6.57329196 232.255709,6.38659926 233.248616,6.39 C234.244738,6.38202735 235.184786,6.85019391 235.778616,7.65 Z M230.348616,32.92 C234.178616,32.92 236.148616,34.87 236.148616,38.63 L236.148616,53.82 C236.148616,57.59 234.148616,59.53 230.348616,59.53 L211.758616,59.53 C207.868616,59.53 205.958616,57.59 205.958616,53.82 L205.958616,38.63 C205.958616,34.87 207.868616,32.92 211.758616,32.92 L230.348616,32.92 Z M228.188616,42.92 L228.188616,40.76 C228.188616,39.85 227.688616,39.36 226.698616,39.36 L215.398616,39.36 C214.398616,39.36 213.918616,39.85 213.918616,40.76 L213.918616,42.89 L228.188616,42.92 Z M228.188616,51.73 L228.188616,49.08 L213.918616,49.08 L213.918616,51.7 C213.918616,52.7 214.418616,53.09 215.398616,53.09 L226.698616,53.09 C227.688616,53.09 228.188616,52.67 228.188616,51.7 L228.188616,51.73 Z" id="Shape" fill="#517B9C" fill-rule="nonzero"></path>
                <path d="M273.018616,10.62 L273.018616,25.14 C273.018616,28.3 271.598616,29.88 268.878616,29.88 L257.578616,29.88 L257.578616,57.41 C257.388616,59.35 256.038616,60.41 253.438616,60.51 C250.848616,60.39 249.438616,59.35 249.368616,57.41 L249.368616,10.87 C249.368616,8.19 250.598616,6.8699414 253.188616,6.8699414 L268.628616,6.8699414 C271.538616,6.86 273.018616,8.13 273.018616,10.62 Z M265.018616,16.09 L265.018616,13 L257.548616,13 L257.548616,16.1 L265.018616,16.09 Z M265.018616,23.69 L265.018616,20.59 L257.548616,20.59 L257.548616,23.69 L265.018616,23.69 Z M287.678616,31.77 C288.468024,31.729918 289.249521,31.9436908 289.908616,32.38 C290.429267,33.0037742 290.674638,33.8120569 290.588616,34.62 C290.648832,35.2982651 290.448609,35.9740194 290.028616,36.51 C289.455895,37.2075049 288.578332,37.5809356 287.678616,37.51 L284.778616,37.51 L284.778616,42.25 L288.428616,42.25 C289.214734,42.2113699 289.992609,42.4251104 290.648616,42.86 C291.124332,43.5047154 291.345129,44.3024353 291.268616,45.1 C291.31766,45.7681565 291.141642,46.4335025 290.768616,46.99 C290.187099,47.6698128 289.32184,48.0395816 288.428616,47.99 L284.818616,47.99 L284.818616,55.58 C284.889428,56.4782918 284.577029,57.3646322 283.958616,58.02 C282.458072,59.1516918 280.389159,59.1516918 278.888616,58.02 C278.290829,57.355275 278.000452,56.4696269 278.088616,55.58 L278.088616,47.93 L272.018616,47.93 C271.321906,51.1885793 269.930233,54.2584453 267.938616,56.93 C267.25429,57.9971929 266.055328,58.6214144 264.788616,58.57 C263.628741,58.6738294 262.487663,58.2255489 261.708616,57.36 C261.194448,56.7923417 260.906261,56.0558626 260.898616,55.29 C260.902711,54.6119905 261.074481,53.9455251 261.398616,53.35 C262.93553,51.7871722 264.163689,49.9483255 265.018616,47.93 L262.858616,47.93 C262.068703,47.9953719 261.286923,47.7311594 260.698616,47.2 C260.198616,46.84 260.018616,46.2 260.018616,45.07 C260.018616,43.94 260.198616,43.19 260.698616,42.83 C261.326332,42.3828354 262.08972,42.1672489 262.858616,42.22 L266.318616,42.22 C266.438616,40.82 266.498616,39.24 266.498616,37.48 L263.598616,37.48 C262.808703,37.5453719 262.026923,37.2811594 261.438616,36.75 C260.859,36.2033904 260.582748,35.4082327 260.698616,34.62 C260.58879,33.7993675 260.86155,32.9737132 261.438616,32.38 C262.066332,31.9328354 262.82972,31.7172489 263.598616,31.77 L287.678616,31.77 Z M278.048616,37.48 L273.168616,37.48 C273.168616,39.12 273.108616,40.58 273.048616,41.91 L273.048616,42.22 L278.048616,42.22 L278.048616,37.48 Z M302.128616,10.62 L302.128616,54.07 C302.128616,58.07 299.848616,60.07 295.398616,60.07 C293.555115,60.1601413 291.716097,59.8176798 290.028616,59.07 C288.715542,58.6303405 287.791061,57.4501519 287.678616,56.07 C287.580145,54.7818049 287.792785,53.4888141 288.298616,52.3 C288.734921,51.9135684 289.272813,51.6602388 289.848616,51.57 C290.024155,51.595693 290.191642,51.6606368 290.338616,51.76 C291.041535,52.0024943 291.764277,52.1831798 292.498616,52.3 C293.238616,52.3 293.668616,52 293.668616,51.3 L293.668616,29.64 L281.668616,29.64 C279.388616,29.64 278.278616,28.36 278.278616,25.81 L278.278616,10.38 C278.278616,7.89 279.628616,6.61 282.408616,6.61 L296.858616,6.61 C300.378616,6.61 302.168616,8 302.168616,10.62 L302.128616,10.62 Z M293.668616,15.85 L293.668616,12.75 L286.198616,12.75 L286.198616,15.85 L293.668616,15.85 Z M293.668616,20.34 L286.198616,20.34 L286.198616,23.44 L293.668616,23.44 L293.668616,20.34 Z" id="Shape" fill="#517B9C" fill-rule="nonzero"></path>
                <path d="M323.488616,48.42 C322.672615,52.0609323 321.324819,55.5618311 319.488616,58.81 C317.830965,60.6946723 315.032956,61.058328 312.948616,59.66 C312.151688,58.9790531 311.715796,57.9668963 311.768616,56.92 C311.884528,55.5276374 312.264638,54.1701044 312.888616,52.92 C315.442869,46.415621 316.781712,39.4976976 316.838616,32.51 L316.838616,14.51 C316.838616,12.14 317.458616,10.44 318.838616,9.35 C320.234693,8.38301681 321.912845,7.90806795 323.608616,8 C339.418616,7.39 351.398616,6.54 359.548616,5.57 C360.677844,5.44835774 361.812856,5.38826886 362.948616,5.38995182 C363.902476,5.38476348 364.808628,5.80665624 365.418616,6.54 C365.940576,7.25778672 366.239676,8.1133522 366.278616,9 C366.278616,11 365.478616,12.16 363.868616,12.53 C359.234005,13.2530575 354.557685,13.6772665 349.868616,13.8 C342.328616,14.41 334.738616,14.71 326.958616,14.71 C325.718616,14.71 325.038616,15.2 325.038616,16.11 L325.038616,18 L360.018616,18 C364.018616,18 366.078616,19.77 366.078616,23.23 L366.078616,34.87 C366.078616,38.21 364.218616,39.87 360.518616,39.87 L324.778616,39.87 C324.573659,42.7494371 324.142326,45.6082696 323.488616,48.42 Z M325.088616,32.25 L355.718616,32.25 C356.828616,32.25 357.388616,31.77 357.388616,30.79 L357.388616,27.51 C357.429951,27.030051 357.276093,26.5536995 356.961816,26.1886111 C356.647539,25.8235227 356.199374,25.6005177 355.718616,25.57 L325.088616,25.57 L325.088616,32.25 Z" id="Shape" fill="#517B9C" fill-rule="nonzero"></path>
            </g>
        </g>
    </g>
</svg>