<?xml version="1.0" encoding="UTF-8"?>
<svg width="1440px" height="221px" viewBox="0 0 1440 221" version="1.1" xmlns="http://www.w3.org/2000/svg" xmlns:xlink="http://www.w3.org/1999/xlink">
    <!-- Generator: Sketch 52.3 (67297) - http://www.bohemiancoding.com/sketch -->
    <title>Group 3</title>
    <desc>Created with Sketch.</desc>
    <defs>
        <path d="M0,-2.27373675e-13 L0,42.8096145 C179.3848,1.54112793 281.6944,45.8484525 366.6784,90.1557771 C428.4048,122.337522 480.992,154.519267 547.3344,153.910176 C643.948,153.023211 666.7736,132.911223 781.7776,144.065896 C903.0016,155.823871 1023.1112,221.577146 1185.0024,220.996174 C1269.5568,220.693489 1367.216,153.615761 1440,155.170122 L1440,-2.27373675e-13 L0,-2.27373675e-13 Z" id="path-1"></path>
    </defs>
    <g id="web" stroke="none" stroke-width="1" fill="none" fill-rule="evenodd">
        <g id="Group-3" transform="translate(720.000000, 110.500000) scale(-1, 1) rotate(-180.000000) translate(-720.000000, -110.500000) ">
            <mask id="mask-2" fill="white">
                <use xlink:href="#path-1"></use>
            </mask>
            <g id="Clip-2"></g>
            <path d="M0,-2.27373675e-13 L0,42.8096145 C179.3848,1.54112793 281.6944,45.8484525 366.6784,90.1557771 C428.4048,122.337522 480.992,154.519267 547.3344,153.910176 C643.948,153.023211 666.7736,132.911223 781.7776,144.065896 C903.0016,155.823871 1023.1112,221.577146 1185.0024,220.996174 C1269.5568,220.693489 1367.216,153.615761 1440,155.170122 L1440,-2.27373675e-13 L0,-2.27373675e-13 Z" id="Fill-1" fill="#FEFCF4" mask="url(#mask-2)"></path>
        </g>
    </g>
</svg>