<?xml version="1.0" encoding="UTF-8"?>
<svg width="1440px" height="429px" viewBox="0 0 1440 429" version="1.1" xmlns="http://www.w3.org/2000/svg" xmlns:xlink="http://www.w3.org/1999/xlink">
    <!-- Generator: Sketch 58 (84663) - https://sketch.com -->
    <title>Group 3</title>
    <desc>Created with Sketch.</desc>
    <defs>
        <path d="M-2.27373675e-13,0.5 L-2.27373675e-13,83.4073077 C179.3848,3.48462784 281.6944,89.2924781 366.6784,175.100328 C428.4048,237.425156 480.992,299.749983 547.3344,298.570386 C643.948,296.852644 666.7736,257.90273 781.7776,279.505445 C903.0016,302.276546 1023.1112,429.617731 1185.0024,428.49259 C1269.5568,427.906395 1367.216,298.000208 1440,301.010462 L1440,0.5 L-2.27373675e-13,0.5 Z" id="path-1"></path>
    </defs>
    <g id="web" stroke="none" stroke-width="1" fill="none" fill-rule="evenodd">
        <g id="Group-3" transform="translate(720.000000, 214.500000) scale(-1, 1) rotate(-180.000000) translate(-720.000000, -214.500000) ">
            <mask id="mask-2" fill="white">
                <use xlink:href="#path-1"></use>
            </mask>
            <g id="Clip-2"></g>
            <path d="M-2.27373675e-13,0.5 L-2.27373675e-13,83.4073077 C179.3848,3.48462784 281.6944,89.2924781 366.6784,175.100328 C428.4048,237.425156 480.992,299.749983 547.3344,298.570386 C643.948,296.852644 666.7736,257.90273 781.7776,279.505445 C903.0016,302.276546 1023.1112,429.617731 1185.0024,428.49259 C1269.5568,427.906395 1367.216,298.000208 1440,301.010462 L1440,0.5 L-2.27373675e-13,0.5 Z" id="Fill-1" fill="#F5E9E0" mask="url(#mask-2)"></path>
        </g>
    </g>
</svg>