<?xml version="1.0" encoding="UTF-8"?>
<svg width="1433px" height="222px" viewBox="0 0 1433 222" version="1.1" xmlns="http://www.w3.org/2000/svg" xmlns:xlink="http://www.w3.org/1999/xlink">
    <!-- Generator: Sketch 52.3 (67297) - http://www.bohemiancoding.com/sketch -->
    <title>Group 3</title>
    <desc>Created with Sketch.</desc>
    <defs>
        <path d="M0,2.27373675e-13 L0,43.0033232 C179.3848,1.54810136 281.6944,46.0559116 366.6784,90.5637217 C428.4048,122.891085 480.992,155.218449 547.3344,154.606602 C643.948,153.715624 666.7736,133.512631 781.7776,144.717778 C903.0016,156.528956 1023.1112,222.579758 1185.0024,221.996156 C1269.5568,221.692102 1367.216,154.310855 1440,155.872249 L1440,2.27373675e-13 L0,2.27373675e-13 Z" id="path-1"></path>
    </defs>
    <g id="web" stroke="none" stroke-width="1" fill="none" fill-rule="evenodd">
        <g id="Group-3" transform="translate(717.000000, 111.000000) scale(1, -1) rotate(-180.000000) translate(-717.000000, -111.000000) translate(-3.000000, 0.000000)">
            <mask id="mask-2" fill="white">
                <use xlink:href="#path-1"></use>
            </mask>
            <g id="Clip-2"></g>
            <path d="M0,2.27373675e-13 L0,43.0033232 C179.3848,1.54810136 281.6944,46.0559116 366.6784,90.5637217 C428.4048,122.891085 480.992,155.218449 547.3344,154.606602 C643.948,153.715624 666.7736,133.512631 781.7776,144.717778 C903.0016,156.528956 1023.1112,222.579758 1185.0024,221.996156 C1269.5568,221.692102 1367.216,154.310855 1440,155.872249 L1440,2.27373675e-13 L0,2.27373675e-13 Z" id="Fill-1" fill="#F5E9E0" mask="url(#mask-2)"></path>
        </g>
    </g>
</svg>