<svg xmlns="http://www.w3.org/2000/svg" xmlns:xlink="http://www.w3.org/1999/xlink" viewBox="0 0 258.8 422.8"><defs><style>.cls-1{isolation:isolate;}.cls-2{opacity:0.3;mix-blend-mode:multiply;fill:url(#radial-gradient);}.cls-3{fill:#fff;}.cls-4{fill:#231815;}.cls-5{fill:#140508;}.cls-6{opacity:0.37;}.cls-7{fill:#d6d6d6;}</style><radialGradient id="radial-gradient" cx="-14137.89" cy="3289.05" r="143.21" gradientTransform="matrix(-0.01, 0.14, 0.76, -0.04, -2480.62, 2452.01)" gradientUnits="userSpaceOnUse"><stop offset="0" stop-color="#3d2912"/><stop offset="0.07" stop-color="#51402b"/><stop offset="0.26" stop-color="#85796b"/><stop offset="0.45" stop-color="#b1a9a0"/><stop offset="0.62" stop-color="#d3cec9"/><stop offset="0.77" stop-color="#ebe9e7"/><stop offset="0.9" stop-color="#faf9f9"/><stop offset="1" stop-color="#fff"/></radialGradient></defs><title>white-bear</title><g class="cls-1"><g id="圖層_2" data-name="圖層 2"><g id="圖層_1-2" data-name="圖層 1"><path class="cls-2" d="M128.67,384c60.2-3.2,109.5-14.67,110.1-25.6s-47.73-17.2-107.92-14S21.38,359.09,20.78,370,68.48,387.24,128.67,384Z"/><path class="cls-3" d="M83.28,23.17a50,50,0,0,0,6.65-3c7.58-5.23,2.81,2,5.85-1.64,2.72-3.24,9.52-10.14,11.79-8.81,2.06,1.21.8,2.08,1.81,1.56,1.45-.74-2.58,4.63-1.57,4,5.81-3.37,3.37-4.11,13.85.59,3.14,1.41.33.28,9.67,1.24a141.89,141.89,0,0,1,19.94,2.2A34.22,34.22,0,0,1,182.75,0c18.89.28,34,15.54,33.7,34.08a33,33,0,0,1-6.19,18.77c-.54.75,26.08,35.49,28.53,39.64,18.78,31.84,24,63.39,17.09,90.62-7.06,27.84-21.32,49.82-45.5,65.59C183.45,266.28,135.63,268.58,104,265S23.66,242.75,9.41,211.55C-1.93,186.72-2,158,3.71,131.26A202,202,0,0,1,20.14,84,33.7,33.7,0,1,1,61.77,32.91c4.68-2.24,9.41-4.24,13.47-6.16a82.39,82.39,0,0,1,8.67-3.48"/><path class="cls-4" d="M124.42,183.6a10.24,10.24,0,0,1-6.81-4.11,2.11,2.11,0,0,1,3.5-2.35,6.19,6.19,0,0,0,4.07,2.31,8.33,8.33,0,0,0,6-1c1.27-.89,3.64-3.71,3.82-4.69l-2.46-16.46,4.17-.62,2.47,16.55c.56,3.77-5.51,8.63-5.57,8.67a11.81,11.81,0,0,1-6.7,1.92A13.78,13.78,0,0,1,124.42,183.6ZM135,173.86Zm0,0h0Z"/><path class="cls-4" d="M145.84,181H146c5-.08,10.83-1.13,11.93-8.6a2.11,2.11,0,0,0-4.17-.61c-.54,3.65-2.51,4.91-7.83,5-3.87.07-7-4.4-7.07-4.44a2.11,2.11,0,0,0-3.47,2.39C135.56,175,139.76,181,145.84,181Z"/><path class="cls-5" d="M157.61,132.55a7.75,7.75,0,1,0,5.29-9.61A7.75,7.75,0,0,0,157.61,132.55Z"/><path class="cls-3" d="M162.51,131.19a2.63,2.63,0,1,0,3.22-1.87A2.62,2.62,0,0,0,162.51,131.19Z"/><path class="cls-5" d="M93.17,141.67a7.75,7.75,0,1,0,5.29-9.61A7.75,7.75,0,0,0,93.17,141.67Z"/><path class="cls-3" d="M98.07,140.09a2.63,2.63,0,1,0,3.22-1.87A2.62,2.62,0,0,0,98.07,140.09Z"/><path class="cls-4" d="M130.15,163.16a11.82,11.82,0,0,1-7.15-.83c-3.5-1.82-4.76-6.42-1.85-9.14,3.54-3.31,10.33-3.38,14.81-4.24,4-.77,6.09-1.51,10.2-1.08,4.44.46,2.7,9,.52,11.22-5.83,5.93-15.81,7.2-23.23,3.6-6.14-3-6.69-9.13.47-11"/><path class="cls-3" d="M182.14,287.17a58.47,58.47,0,0,0,3.47,10.74c2.55,5.86,5.95,11.32,8.42,17.21,10.71,25.44-3.75,46.83-23.39,61.54-1.85,1.38-3.79,2.81-6.07,3.16-2,.31-4.09-.28-6.1-.73-13.55-3.05-30.22,1.51-44.18,1.21-8.11-.17-16.36-.87-23.87-3.92-12.82-5.2-24.11-20.76-22.21-34.62,2.35-17.13,5.93-33.17,7.34-50.29.72-8.71,2-27.09,13.81-28.29l42.85-4.34c11.36-1.15,35.74-5,45.31,3.45,4,3.51,2.75,7.81,3,12.59A76.08,76.08,0,0,0,182.14,287.17Z"/><path class="cls-3" d="M146.93,357.19c-4.24,11.5,1.1,22.14,17.85,24.25,7.46.94,20.62,1.23,24.63,9.61,3.14,6.56-3.48,9.72-3.86,15-.45,6.32,4.11,9.56,8.41,14.29a6.27,6.27,0,0,0,2.33,1.86c2.5.91,5-1.68,5.57-4.28a9.43,9.43,0,0,0-2.71-8.64c-.9-.84-2-1.66-2.15-2.88a4.05,4.05,0,0,1,1.23-2.72c7.62-9.46,16.27-16.16,18.85-28.93S213,350,201.33,344.57h0c-14.55-6.75-34.3-12.18-46.55.64A35.53,35.53,0,0,0,146.93,357.19Z"/><path class="cls-3" d="M104.22,357.57c-4.24,11.5,1.1,22.14,17.85,24.25,7.46.94,20.62,1.23,24.63,9.61,3.14,6.56-3.48,9.72-3.86,15-.45,6.32,4.11,9.56,8.41,14.29a6.27,6.27,0,0,0,2.33,1.86c2.5.91,5-1.68,5.57-4.28a9.43,9.43,0,0,0-2.71-8.64c-.9-.84-2-1.66-2.15-2.88a4.05,4.05,0,0,1,1.23-2.72c7.62-9.46,16.27-16.16,18.85-28.93s-4.08-24.78-15.74-30.21h0c-14.55-6.75-34.3-12.18-46.55.64A35.53,35.53,0,0,0,104.22,357.57Z"/><path class="cls-3" d="M41.51,305.75c-1.26,9.32,5.67,15.47,11.42,21.95,3.41,3.84,20.69,16.89,26.34,13,3.92-2.66-.19-12.15-1.79-16.09-2.07-5.1-13.82-8.21-13.9-14.07-.09-6.38,6.92-10.77,11-14.53,5.79-5.27,22.6-28.69,13.23-36.66a5.88,5.88,0,0,0-6-.54,17.3,17.3,0,0,0-5,3.8C70.24,269,62.13,275,56.35,282.1c-4.38,4.19-8.63,8.61-11.5,13.79A27.87,27.87,0,0,0,41.51,305.75Z"/><g class="cls-6"><path class="cls-7" d="M69.78,337.27c2.11,2.81,5.46,4.45,8.84,5.41a7,7,0,0,0,4.06.23,2.83,2.83,0,0,0,2-3.14c-.16-.6-.59-1.16-.48-1.77.23-1.29,2.17-1,3.32-1.65a2.83,2.83,0,0,0,.87-3.66,8.24,8.24,0,0,0-2.9-2.92c3.18,1.5,5.49-2.68,4.74-5.31-.83-2.9-2.71-2.21-4.74-3.55-5.24-3.47-4.64-4.47-4.43-10.33.09-2.69-2.25-5.77-4.8-4.89-1.85.63-2.52,2.84-3,4.73a60.87,60.87,0,0,1-2.18,6.32C68.86,322.73,65.32,331.32,69.78,337.27Z"/></g><path class="cls-3" d="M69.13,338.58C71.24,341.39,74.59,343,78,344a7,7,0,0,0,4.06.23,2.83,2.83,0,0,0,2-3.14c-.16-.6-.59-1.16-.48-1.77.23-1.29,2.17-1,3.32-1.65a2.83,2.83,0,0,0,.87-3.66,8.24,8.24,0,0,0-2.9-2.92c3.18,1.5,5.49-2.68,4.74-5.31-.83-2.9-2.71-2.21-4.74-3.55-5.24-3.47-4.64-4.47-4.43-10.33.09-2.69-2.25-5.77-4.8-4.89-1.85.63-2.52,2.84-3,4.73A60.87,60.87,0,0,1,70.48,318C68.21,324,64.67,332.62,69.13,338.58Z"/></g></g></g></svg>