<svg xmlns="http://www.w3.org/2000/svg" viewBox="0 0 68.89 53.35"><defs><style>.cls-1{fill:#fff;}</style></defs><title>white-bear-hand</title><g id="圖層_2" data-name="圖層 2"><g id="圖層_1-2" data-name="圖層 1"><path class="cls-1" d="M-385.36-765c7.48,3.5,14.45-.67,21.39-3.78,4.11-1.84,14-6.58,12.25-12.32-1.19-4-5.81-5.53-9.53-5.23-4.82.39-9.32,5.6-14.24,4.13-5.37-1.61-7.19-8.63-9.25-13.08-2.89-6.23-18.06-26.47-27.2-20.72a5.14,5.14,0,0,0-2,4.88,15.25,15.25,0,0,0,1.85,5.22c3.59,7.17,6.47,15.55,10.87,22.24,2.36,4.77,4.94,9.5,8.52,13.26A24.49,24.49,0,0,0-385.36-765Z" transform="translate(414 817)"/><path class="cls-1" d="M-367.12-768.19c2.91-1,19.06-3.91,20.75-6.49a6.14,6.14,0,0,0,1.26-3.33,2.49,2.49,0,0,0-2.09-2.54c-.54,0-1.13.19-1.61-.06-1-.53-.3-2.09-.5-3.22a2.49,2.49,0,0,0-2.84-1.69,7.26,7.26,0,0,0-3.21,1.65c2.1-2.26-.79-5.3-3.19-5.36-2.65-.06-2.57,1.69-4.23,3-4.28,3.47-.94,1.9-5.8.18-2.22-.79-5.42.37-5.36,2.73,0,1.71-2.3,3.67-.84,4.55a55.11,55.11,0,0,1,4.72,3.49C-365.64-771.76-373.28-766-367.12-768.19Z" transform="translate(414 817)"/></g></g></svg>